%TF.GenerationSoftware,KiCad,Pcbnew,9.0.0*%
%TF.CreationDate,2025-05-23T23:11:46+02:00*%
%TF.ProjectId,25Zak001 ESP32 Mark0 Rev1,32355a61-6b30-4303-9120-455350333220,rev?*%
%TF.SameCoordinates,Original*%
%TF.FileFunction,Soldermask,Top*%
%TF.FilePolarity,Negative*%
%FSLAX46Y46*%
G04 Gerber Fmt 4.6, Leading zero omitted, Abs format (unit mm)*
G04 Created by KiCad (PCBNEW 9.0.0) date 2025-05-23 23:11:46*
%MOMM*%
%LPD*%
G01*
G04 APERTURE LIST*
G04 Aperture macros list*
%AMRoundRect*
0 Rectangle with rounded corners*
0 $1 Rounding radius*
0 $2 $3 $4 $5 $6 $7 $8 $9 X,Y pos of 4 corners*
0 Add a 4 corners polygon primitive as box body*
4,1,4,$2,$3,$4,$5,$6,$7,$8,$9,$2,$3,0*
0 Add four circle primitives for the rounded corners*
1,1,$1+$1,$2,$3*
1,1,$1+$1,$4,$5*
1,1,$1+$1,$6,$7*
1,1,$1+$1,$8,$9*
0 Add four rect primitives between the rounded corners*
20,1,$1+$1,$2,$3,$4,$5,0*
20,1,$1+$1,$4,$5,$6,$7,0*
20,1,$1+$1,$6,$7,$8,$9,0*
20,1,$1+$1,$8,$9,$2,$3,0*%
G04 Aperture macros list end*
%ADD10O,1.700000X1.700000*%
%ADD11R,1.700000X1.700000*%
%ADD12C,3.600000*%
%ADD13C,5.500000*%
%ADD14RoundRect,0.175000X-0.175000X-0.425000X0.175000X-0.425000X0.175000X0.425000X-0.175000X0.425000X0*%
%ADD15RoundRect,0.190000X0.190000X0.410000X-0.190000X0.410000X-0.190000X-0.410000X0.190000X-0.410000X0*%
%ADD16RoundRect,0.200000X0.200000X0.400000X-0.200000X0.400000X-0.200000X-0.400000X0.200000X-0.400000X0*%
%ADD17RoundRect,0.175000X0.175000X0.425000X-0.175000X0.425000X-0.175000X-0.425000X0.175000X-0.425000X0*%
%ADD18RoundRect,0.190000X-0.190000X-0.410000X0.190000X-0.410000X0.190000X0.410000X-0.190000X0.410000X0*%
%ADD19RoundRect,0.200000X-0.200000X-0.400000X0.200000X-0.400000X0.200000X0.400000X-0.200000X0.400000X0*%
%ADD20RoundRect,0.250000X-0.650000X-0.425000X0.650000X-0.425000X0.650000X0.425000X-0.650000X0.425000X0*%
%ADD21RoundRect,0.250000X-0.650000X-0.500000X0.650000X-0.500000X0.650000X0.500000X-0.650000X0.500000X0*%
G04 APERTURE END LIST*
D10*
%TO.C,J4*%
X173300000Y-108360000D03*
X173300000Y-105820000D03*
X173300000Y-103280000D03*
X173300000Y-100740000D03*
X173300000Y-98200000D03*
X173300000Y-95660000D03*
D11*
X173300000Y-93120000D03*
%TD*%
%TO.C,J7*%
X141800000Y-126060000D03*
D10*
X141800000Y-123520000D03*
X141800000Y-120980000D03*
X141800000Y-118440000D03*
X141800000Y-115900000D03*
X141800000Y-113360000D03*
X141800000Y-110820000D03*
X141800000Y-108280000D03*
X141800000Y-105740000D03*
X141800000Y-103200000D03*
X141800000Y-100660000D03*
X141800000Y-98120000D03*
X141800000Y-95580000D03*
X141800000Y-93040000D03*
X141800000Y-90500000D03*
%TD*%
D11*
%TO.C,J6*%
X116400000Y-90500000D03*
D10*
X116400000Y-93040000D03*
X116400000Y-95580000D03*
X116400000Y-98120000D03*
X116400000Y-100660000D03*
X116400000Y-103200000D03*
X116400000Y-105740000D03*
X116400000Y-108280000D03*
X116400000Y-110820000D03*
X116400000Y-113360000D03*
X116400000Y-115900000D03*
X116400000Y-118440000D03*
X116400000Y-120980000D03*
X116400000Y-123520000D03*
X116400000Y-126060000D03*
%TD*%
D12*
%TO.C,H4*%
X171500000Y-135000000D03*
D13*
X171500000Y-135000000D03*
%TD*%
D12*
%TO.C,H1*%
X83500000Y-47000000D03*
D13*
X83500000Y-47000000D03*
%TD*%
D12*
%TO.C,H3*%
X83500000Y-135000000D03*
D13*
X83500000Y-135000000D03*
%TD*%
D11*
%TO.C,J3*%
X81300000Y-98120000D03*
D10*
X81300000Y-100660000D03*
X81300000Y-103200000D03*
X81300000Y-105740000D03*
X81300000Y-108280000D03*
X81300000Y-110820000D03*
X81300000Y-113360000D03*
X81300000Y-115900000D03*
X81300000Y-118440000D03*
X81300000Y-120980000D03*
%TD*%
D12*
%TO.C,H2*%
X171500000Y-47000000D03*
D13*
X171500000Y-47000000D03*
%TD*%
D11*
%TO.C,U1*%
X93000000Y-63420000D03*
D10*
X93000000Y-65960000D03*
X93000000Y-68500000D03*
%TD*%
D14*
%TO.C,J1*%
X149275000Y-134445000D03*
D15*
X151295000Y-134445000D03*
D16*
X152525000Y-134445000D03*
D17*
X150275000Y-134445000D03*
D18*
X148255000Y-134445000D03*
D19*
X147025000Y-134445000D03*
D20*
X144650000Y-134500000D03*
D21*
X144650000Y-138080000D03*
D20*
X154900000Y-134500000D03*
D21*
X154900000Y-138080000D03*
%TD*%
D11*
%TO.C,J2*%
X149000000Y-73940000D03*
D10*
X149000000Y-71400000D03*
X149000000Y-68860000D03*
X149000000Y-66320000D03*
X149000000Y-63780000D03*
X149000000Y-61240000D03*
X149000000Y-58700000D03*
%TD*%
M02*
