M48
; DRILL file {KiCad 9.0.0} date 2025-05-23T23:11:17+0200
; FORMAT={-:-/ absolute / metric / decimal}
; #@! TF.CreationDate,2025-05-23T23:11:17+02:00
; #@! TF.GenerationSoftware,Kicad,Pcbnew,9.0.0
; #@! TF.FileFunction,Plated,1,2,PTH
FMAT,2
METRIC
; #@! TA.AperFunction,Plated,PTH,ComponentDrill
T1C1.000
; #@! TA.AperFunction,Plated,PTH,ComponentDrill
T2C3.200
%
G90
G05
T1
X81.3Y-98.12
X81.3Y-100.66
X81.3Y-103.2
X81.3Y-105.74
X81.3Y-108.28
X81.3Y-110.82
X81.3Y-113.36
X81.3Y-115.9
X81.3Y-118.44
X81.3Y-120.98
X93.0Y-63.42
X93.0Y-65.96
X93.0Y-68.5
X116.4Y-90.5
X116.4Y-93.04
X116.4Y-95.58
X116.4Y-98.12
X116.4Y-100.66
X116.4Y-103.2
X116.4Y-105.74
X116.4Y-108.28
X116.4Y-110.82
X116.4Y-113.36
X116.4Y-115.9
X116.4Y-118.44
X116.4Y-120.98
X116.4Y-123.52
X116.4Y-126.06
X141.8Y-90.5
X141.8Y-93.04
X141.8Y-95.58
X141.8Y-98.12
X141.8Y-100.66
X141.8Y-103.2
X141.8Y-105.74
X141.8Y-108.28
X141.8Y-110.82
X141.8Y-113.36
X141.8Y-115.9
X141.8Y-118.44
X141.8Y-120.98
X141.8Y-123.52
X141.8Y-126.06
X149.0Y-58.7
X149.0Y-61.24
X149.0Y-63.78
X149.0Y-66.32
X149.0Y-68.86
X149.0Y-71.4
X149.0Y-73.94
X173.3Y-93.12
X173.3Y-95.66
X173.3Y-98.2
X173.3Y-100.74
X173.3Y-103.28
X173.3Y-105.82
X173.3Y-108.36
T2
X83.5Y-47.0
X83.5Y-135.0
X171.5Y-47.0
X171.5Y-135.0
M30
