%TF.GenerationSoftware,KiCad,Pcbnew,9.0.0*%
%TF.CreationDate,2025-05-23T23:11:46+02:00*%
%TF.ProjectId,25Zak001 ESP32 Mark0 Rev1,32355a61-6b30-4303-9120-455350333220,rev?*%
%TF.SameCoordinates,Original*%
%TF.FileFunction,Copper,L1,Top*%
%TF.FilePolarity,Positive*%
%FSLAX46Y46*%
G04 Gerber Fmt 4.6, Leading zero omitted, Abs format (unit mm)*
G04 Created by KiCad (PCBNEW 9.0.0) date 2025-05-23 23:11:46*
%MOMM*%
%LPD*%
G01*
G04 APERTURE LIST*
G04 Aperture macros list*
%AMRoundRect*
0 Rectangle with rounded corners*
0 $1 Rounding radius*
0 $2 $3 $4 $5 $6 $7 $8 $9 X,Y pos of 4 corners*
0 Add a 4 corners polygon primitive as box body*
4,1,4,$2,$3,$4,$5,$6,$7,$8,$9,$2,$3,0*
0 Add four circle primitives for the rounded corners*
1,1,$1+$1,$2,$3*
1,1,$1+$1,$4,$5*
1,1,$1+$1,$6,$7*
1,1,$1+$1,$8,$9*
0 Add four rect primitives between the rounded corners*
20,1,$1+$1,$2,$3,$4,$5,0*
20,1,$1+$1,$4,$5,$6,$7,0*
20,1,$1+$1,$6,$7,$8,$9,0*
20,1,$1+$1,$8,$9,$2,$3,0*%
G04 Aperture macros list end*
%TA.AperFunction,ComponentPad*%
%ADD10O,1.700000X1.700000*%
%TD*%
%TA.AperFunction,ComponentPad*%
%ADD11R,1.700000X1.700000*%
%TD*%
%TA.AperFunction,ComponentPad*%
%ADD12C,3.600000*%
%TD*%
%TA.AperFunction,ConnectorPad*%
%ADD13C,5.500000*%
%TD*%
%TA.AperFunction,SMDPad,CuDef*%
%ADD14RoundRect,0.175000X-0.175000X-0.425000X0.175000X-0.425000X0.175000X0.425000X-0.175000X0.425000X0*%
%TD*%
%TA.AperFunction,SMDPad,CuDef*%
%ADD15RoundRect,0.190000X0.190000X0.410000X-0.190000X0.410000X-0.190000X-0.410000X0.190000X-0.410000X0*%
%TD*%
%TA.AperFunction,SMDPad,CuDef*%
%ADD16RoundRect,0.200000X0.200000X0.400000X-0.200000X0.400000X-0.200000X-0.400000X0.200000X-0.400000X0*%
%TD*%
%TA.AperFunction,SMDPad,CuDef*%
%ADD17RoundRect,0.175000X0.175000X0.425000X-0.175000X0.425000X-0.175000X-0.425000X0.175000X-0.425000X0*%
%TD*%
%TA.AperFunction,SMDPad,CuDef*%
%ADD18RoundRect,0.190000X-0.190000X-0.410000X0.190000X-0.410000X0.190000X0.410000X-0.190000X0.410000X0*%
%TD*%
%TA.AperFunction,SMDPad,CuDef*%
%ADD19RoundRect,0.200000X-0.200000X-0.400000X0.200000X-0.400000X0.200000X0.400000X-0.200000X0.400000X0*%
%TD*%
%TA.AperFunction,SMDPad,CuDef*%
%ADD20RoundRect,0.250000X-0.650000X-0.425000X0.650000X-0.425000X0.650000X0.425000X-0.650000X0.425000X0*%
%TD*%
%TA.AperFunction,SMDPad,CuDef*%
%ADD21RoundRect,0.250000X-0.650000X-0.500000X0.650000X-0.500000X0.650000X0.500000X-0.650000X0.500000X0*%
%TD*%
%TA.AperFunction,Conductor*%
%ADD22C,1.000000*%
%TD*%
%TA.AperFunction,Conductor*%
%ADD23C,0.200000*%
%TD*%
G04 APERTURE END LIST*
D10*
%TO.P,J4,7,Pin_7*%
%TO.N,/GPIO15*%
X173300000Y-108360000D03*
%TO.P,J4,6,Pin_6*%
%TO.N,/GPIO16*%
X173300000Y-105820000D03*
%TO.P,J4,5,Pin_5*%
%TO.N,/GPIO19*%
X173300000Y-103280000D03*
%TO.P,J4,4,Pin_4*%
%TO.N,/GPIO21*%
X173300000Y-100740000D03*
%TO.P,J4,3,Pin_3*%
%TO.N,/RX0*%
X173300000Y-98200000D03*
%TO.P,J4,2,Pin_2*%
%TO.N,/TX0*%
X173300000Y-95660000D03*
D11*
%TO.P,J4,1,Pin_1*%
%TO.N,/GPIO22*%
X173300000Y-93120000D03*
%TD*%
%TO.P,J7,1,Pin_1*%
%TO.N,+3.3V*%
X141800000Y-126060000D03*
D10*
%TO.P,J7,2,Pin_2*%
%TO.N,GND*%
X141800000Y-123520000D03*
%TO.P,J7,3,Pin_3*%
%TO.N,/GPIO15*%
X141800000Y-120980000D03*
%TO.P,J7,4,Pin_4*%
%TO.N,/BUSY*%
X141800000Y-118440000D03*
%TO.P,J7,5,Pin_5*%
%TO.N,/DATA*%
X141800000Y-115900000D03*
%TO.P,J7,6,Pin_6*%
%TO.N,/GPIO16*%
X141800000Y-113360000D03*
%TO.P,J7,7,Pin_7*%
%TO.N,/DC*%
X141800000Y-110820000D03*
%TO.P,J7,8,Pin_8*%
%TO.N,/CS*%
X141800000Y-108280000D03*
%TO.P,J7,9,Pin_9*%
%TO.N,/CLK*%
X141800000Y-105740000D03*
%TO.P,J7,10,Pin_10*%
%TO.N,/GPIO19*%
X141800000Y-103200000D03*
%TO.P,J7,11,Pin_11*%
%TO.N,/GPIO21*%
X141800000Y-100660000D03*
%TO.P,J7,12,Pin_12*%
%TO.N,/RX0*%
X141800000Y-98120000D03*
%TO.P,J7,13,Pin_13*%
%TO.N,/TX0*%
X141800000Y-95580000D03*
%TO.P,J7,14,Pin_14*%
%TO.N,/GPIO22*%
X141800000Y-93040000D03*
%TO.P,J7,15,Pin_15*%
%TO.N,/SDI*%
X141800000Y-90500000D03*
%TD*%
D11*
%TO.P,J6,1,Pin_1*%
%TO.N,unconnected-(J6-Pin_1-Pad1)*%
X116400000Y-90500000D03*
D10*
%TO.P,J6,2,Pin_2*%
%TO.N,unconnected-(J6-Pin_2-Pad2)*%
X116400000Y-93040000D03*
%TO.P,J6,3,Pin_3*%
%TO.N,unconnected-(J6-Pin_3-Pad3)*%
X116400000Y-95580000D03*
%TO.P,J6,4,Pin_4*%
%TO.N,/GPIO34*%
X116400000Y-98120000D03*
%TO.P,J6,5,Pin_5*%
%TO.N,/GPIO35*%
X116400000Y-100660000D03*
%TO.P,J6,6,Pin_6*%
%TO.N,/GPIO32*%
X116400000Y-103200000D03*
%TO.P,J6,7,Pin_7*%
%TO.N,/GPIO33*%
X116400000Y-105740000D03*
%TO.P,J6,8,Pin_8*%
%TO.N,/GPIO25*%
X116400000Y-108280000D03*
%TO.P,J6,9,Pin_9*%
%TO.N,/GPIO26*%
X116400000Y-110820000D03*
%TO.P,J6,10,Pin_10*%
%TO.N,/GPIO27*%
X116400000Y-113360000D03*
%TO.P,J6,11,Pin_11*%
%TO.N,/GPIO14*%
X116400000Y-115900000D03*
%TO.P,J6,12,Pin_12*%
%TO.N,/GPIO12*%
X116400000Y-118440000D03*
%TO.P,J6,13,Pin_13*%
%TO.N,/GPIO13*%
X116400000Y-120980000D03*
%TO.P,J6,14,Pin_14*%
%TO.N,GND*%
X116400000Y-123520000D03*
%TO.P,J6,15,Pin_15*%
%TO.N,+5V*%
X116400000Y-126060000D03*
%TD*%
D12*
%TO.P,H4,1*%
%TO.N,N/C*%
X171500000Y-135000000D03*
D13*
X171500000Y-135000000D03*
%TD*%
D12*
%TO.P,H1,1*%
%TO.N,N/C*%
X83500000Y-47000000D03*
D13*
X83500000Y-47000000D03*
%TD*%
D12*
%TO.P,H3,1*%
%TO.N,N/C*%
X83500000Y-135000000D03*
D13*
X83500000Y-135000000D03*
%TD*%
D11*
%TO.P,J3,1,Pin_1*%
%TO.N,/GPIO34*%
X81300000Y-98120000D03*
D10*
%TO.P,J3,2,Pin_2*%
%TO.N,/GPIO35*%
X81300000Y-100660000D03*
%TO.P,J3,3,Pin_3*%
%TO.N,/GPIO32*%
X81300000Y-103200000D03*
%TO.P,J3,4,Pin_4*%
%TO.N,/GPIO33*%
X81300000Y-105740000D03*
%TO.P,J3,5,Pin_5*%
%TO.N,/GPIO25*%
X81300000Y-108280000D03*
%TO.P,J3,6,Pin_6*%
%TO.N,/GPIO26*%
X81300000Y-110820000D03*
%TO.P,J3,7,Pin_7*%
%TO.N,/GPIO27*%
X81300000Y-113360000D03*
%TO.P,J3,8,Pin_8*%
%TO.N,/GPIO14*%
X81300000Y-115900000D03*
%TO.P,J3,9,Pin_9*%
%TO.N,/GPIO12*%
X81300000Y-118440000D03*
%TO.P,J3,10,Pin_10*%
%TO.N,/GPIO13*%
X81300000Y-120980000D03*
%TD*%
D12*
%TO.P,H2,1*%
%TO.N,N/C*%
X171500000Y-47000000D03*
D13*
X171500000Y-47000000D03*
%TD*%
D11*
%TO.P,U1,1,DATA*%
%TO.N,/DATA*%
X93000000Y-63420000D03*
D10*
%TO.P,U1,2,VDD*%
%TO.N,+3.3V*%
X93000000Y-65960000D03*
%TO.P,U1,3,GND*%
%TO.N,GND*%
X93000000Y-68500000D03*
%TD*%
D14*
%TO.P,J1,A5,CC1*%
%TO.N,unconnected-(J1-CC1-PadA5)*%
X149275000Y-134445000D03*
D15*
%TO.P,J1,A9,VBUS*%
%TO.N,+5V*%
X151295000Y-134445000D03*
D16*
%TO.P,J1,A12,GND*%
%TO.N,GND*%
X152525000Y-134445000D03*
D17*
%TO.P,J1,B5,CC2*%
%TO.N,unconnected-(J1-CC2-PadB5)*%
X150275000Y-134445000D03*
D18*
%TO.P,J1,B9,VBUS*%
%TO.N,+5V*%
X148255000Y-134445000D03*
D19*
%TO.P,J1,B12,GND*%
%TO.N,GND*%
X147025000Y-134445000D03*
D20*
%TO.P,J1,S1,SHIELD*%
X144650000Y-134500000D03*
D21*
X144650000Y-138080000D03*
D20*
X154900000Y-134500000D03*
D21*
X154900000Y-138080000D03*
%TD*%
D11*
%TO.P,J2,1,Pin_1*%
%TO.N,/BUSY*%
X149000000Y-73940000D03*
D10*
%TO.P,J2,2,Pin_2*%
%TO.N,/CLK*%
X149000000Y-71400000D03*
%TO.P,J2,3,Pin_3*%
%TO.N,/CS*%
X149000000Y-68860000D03*
%TO.P,J2,4,Pin_4*%
%TO.N,/SDI*%
X149000000Y-66320000D03*
%TO.P,J2,5,Pin_5*%
%TO.N,/DC*%
X149000000Y-63780000D03*
%TO.P,J2,6,Pin_6*%
%TO.N,GND*%
X149000000Y-61240000D03*
%TO.P,J2,7,Pin_7*%
%TO.N,+3.3V*%
X149000000Y-58700000D03*
%TD*%
D22*
%TO.N,/SDI*%
X141800000Y-68200000D02*
X141800000Y-90500000D01*
X143680000Y-66320000D02*
X141800000Y-68200000D01*
X149000000Y-66320000D02*
X143680000Y-66320000D01*
%TO.N,+5V*%
X135100000Y-130300000D02*
X147700000Y-130300000D01*
X148224000Y-130824000D02*
X148224000Y-134445000D01*
X130860000Y-126060000D02*
X135100000Y-130300000D01*
X147700000Y-130300000D02*
X148224000Y-130824000D01*
X116400000Y-126060000D02*
X130860000Y-126060000D01*
%TO.N,/GPIO35*%
X81300000Y-100660000D02*
X116400000Y-100660000D01*
%TO.N,/GPIO12*%
X81300000Y-118440000D02*
X116400000Y-118440000D01*
%TO.N,/GPIO34*%
X81300000Y-98120000D02*
X116400000Y-98120000D01*
%TO.N,/GPIO33*%
X81300000Y-105740000D02*
X116400000Y-105740000D01*
%TO.N,/GPIO26*%
X81300000Y-110820000D02*
X116400000Y-110820000D01*
%TO.N,/GPIO25*%
X81300000Y-108280000D02*
X116400000Y-108280000D01*
%TO.N,/GPIO27*%
X81300000Y-113360000D02*
X116400000Y-113360000D01*
%TO.N,/GPIO14*%
X81300000Y-115900000D02*
X116400000Y-115900000D01*
%TO.N,/GPIO32*%
X81300000Y-103200000D02*
X116400000Y-103200000D01*
%TO.N,/GPIO13*%
X81300000Y-120980000D02*
X116400000Y-120980000D01*
%TO.N,/GPIO19*%
X141800000Y-103200000D02*
X173220000Y-103200000D01*
%TO.N,/GPIO22*%
X173220000Y-93040000D02*
X173300000Y-93120000D01*
%TO.N,/GPIO19*%
X173220000Y-103200000D02*
X173300000Y-103280000D01*
%TO.N,/GPIO21*%
X141800000Y-100660000D02*
X173220000Y-100660000D01*
%TO.N,/GPIO15*%
X159560000Y-108360000D02*
X146940000Y-120980000D01*
X173300000Y-108360000D02*
X159560000Y-108360000D01*
X173300000Y-108360000D02*
X173300000Y-108620000D01*
X146940000Y-120980000D02*
X141800000Y-120980000D01*
%TO.N,/GPIO21*%
X173220000Y-100660000D02*
X173300000Y-100740000D01*
%TO.N,/GPIO16*%
X155300000Y-105620000D02*
X171800000Y-105620000D01*
%TO.N,/RX0*%
X141800000Y-98120000D02*
X173220000Y-98120000D01*
%TO.N,/GPIO16*%
X147560000Y-113360000D02*
X155300000Y-105620000D01*
X141800000Y-113360000D02*
X147560000Y-113360000D01*
%TO.N,/RX0*%
X173220000Y-98120000D02*
X173300000Y-98200000D01*
%TO.N,/TX0*%
X141800000Y-95580000D02*
X173220000Y-95580000D01*
X173220000Y-95580000D02*
X173300000Y-95660000D01*
%TO.N,/GPIO16*%
X171800000Y-105620000D02*
X172000000Y-105820000D01*
%TO.N,/GPIO22*%
X141800000Y-93040000D02*
X173220000Y-93040000D01*
%TO.N,/GPIO16*%
X172000000Y-105820000D02*
X173300000Y-105820000D01*
D23*
%TO.N,+5V*%
X151295000Y-135105000D02*
X151295000Y-134445000D01*
X151054000Y-135346000D02*
X151295000Y-135105000D01*
X148556000Y-135346000D02*
X151054000Y-135346000D01*
X148255000Y-134445000D02*
X148255000Y-135045000D01*
X148255000Y-135045000D02*
X148556000Y-135346000D01*
%TO.N,/DATA*%
X93000000Y-63420000D02*
X93000000Y-63500000D01*
%TD*%
%TA.AperFunction,Conductor*%
%TO.N,GND*%
G36*
X176942539Y-41520185D02*
G01*
X176988294Y-41572989D01*
X176999500Y-41624500D01*
X176999500Y-140375500D01*
X176979815Y-140442539D01*
X176927011Y-140488294D01*
X176875500Y-140499500D01*
X78124500Y-140499500D01*
X78057461Y-140479815D01*
X78011706Y-140427011D01*
X78000500Y-140375500D01*
X78000500Y-138629986D01*
X143250001Y-138629986D01*
X143260494Y-138732697D01*
X143315641Y-138899119D01*
X143315643Y-138899124D01*
X143407684Y-139048345D01*
X143531654Y-139172315D01*
X143680875Y-139264356D01*
X143680880Y-139264358D01*
X143847302Y-139319505D01*
X143847309Y-139319506D01*
X143950019Y-139329999D01*
X144399999Y-139329999D01*
X144900000Y-139329999D01*
X145349972Y-139329999D01*
X145349986Y-139329998D01*
X145452697Y-139319505D01*
X145619119Y-139264358D01*
X145619124Y-139264356D01*
X145768345Y-139172315D01*
X145892315Y-139048345D01*
X145984356Y-138899124D01*
X145984358Y-138899119D01*
X146039505Y-138732697D01*
X146039506Y-138732690D01*
X146049999Y-138629986D01*
X153500001Y-138629986D01*
X153510494Y-138732697D01*
X153565641Y-138899119D01*
X153565643Y-138899124D01*
X153657684Y-139048345D01*
X153781654Y-139172315D01*
X153930875Y-139264356D01*
X153930880Y-139264358D01*
X154097302Y-139319505D01*
X154097309Y-139319506D01*
X154200019Y-139329999D01*
X154649999Y-139329999D01*
X155150000Y-139329999D01*
X155599972Y-139329999D01*
X155599986Y-139329998D01*
X155702697Y-139319505D01*
X155869119Y-139264358D01*
X155869124Y-139264356D01*
X156018345Y-139172315D01*
X156142315Y-139048345D01*
X156234356Y-138899124D01*
X156234358Y-138899119D01*
X156289505Y-138732697D01*
X156289506Y-138732690D01*
X156299999Y-138629986D01*
X156300000Y-138629973D01*
X156300000Y-138330000D01*
X155150000Y-138330000D01*
X155150000Y-139329999D01*
X154649999Y-139329999D01*
X154650000Y-139329998D01*
X154650000Y-138330000D01*
X153500001Y-138330000D01*
X153500001Y-138629986D01*
X146049999Y-138629986D01*
X146050000Y-138629973D01*
X146050000Y-138330000D01*
X144900000Y-138330000D01*
X144900000Y-139329999D01*
X144399999Y-139329999D01*
X144400000Y-139329998D01*
X144400000Y-138330000D01*
X143250001Y-138330000D01*
X143250001Y-138629986D01*
X78000500Y-138629986D01*
X78000500Y-134834296D01*
X80549500Y-134834296D01*
X80549500Y-135165703D01*
X80586601Y-135494991D01*
X80586604Y-135495005D01*
X80660346Y-135818093D01*
X80660349Y-135818101D01*
X80769799Y-136130890D01*
X80913582Y-136429458D01*
X80913584Y-136429461D01*
X81089896Y-136710060D01*
X81296516Y-136969153D01*
X81530847Y-137203484D01*
X81789940Y-137410104D01*
X82070539Y-137586416D01*
X82369113Y-137730202D01*
X82604037Y-137812405D01*
X82681898Y-137839650D01*
X82681906Y-137839653D01*
X82681909Y-137839653D01*
X82681910Y-137839654D01*
X83004994Y-137913396D01*
X83005003Y-137913397D01*
X83005008Y-137913398D01*
X83224533Y-137938132D01*
X83334297Y-137950499D01*
X83334300Y-137950500D01*
X83334303Y-137950500D01*
X83665700Y-137950500D01*
X83665701Y-137950499D01*
X83833996Y-137931537D01*
X83994991Y-137913398D01*
X83994994Y-137913397D01*
X83995006Y-137913396D01*
X84318090Y-137839654D01*
X84630887Y-137730202D01*
X84929461Y-137586416D01*
X85019225Y-137530013D01*
X143250000Y-137530013D01*
X143250000Y-137830000D01*
X144400000Y-137830000D01*
X144900000Y-137830000D01*
X146049999Y-137830000D01*
X146049999Y-137530029D01*
X146049998Y-137530013D01*
X153500000Y-137530013D01*
X153500000Y-137830000D01*
X154650000Y-137830000D01*
X155150000Y-137830000D01*
X156299999Y-137830000D01*
X156299999Y-137530028D01*
X156299998Y-137530013D01*
X156289505Y-137427302D01*
X156234358Y-137260880D01*
X156234356Y-137260875D01*
X156142315Y-137111654D01*
X156018345Y-136987684D01*
X155869124Y-136895643D01*
X155869119Y-136895641D01*
X155702697Y-136840494D01*
X155702690Y-136840493D01*
X155599986Y-136830000D01*
X155150000Y-136830000D01*
X155150000Y-137830000D01*
X154650000Y-137830000D01*
X154650000Y-136830000D01*
X154200028Y-136830000D01*
X154200012Y-136830001D01*
X154097302Y-136840494D01*
X153930880Y-136895641D01*
X153930875Y-136895643D01*
X153781654Y-136987684D01*
X153657684Y-137111654D01*
X153565643Y-137260875D01*
X153565641Y-137260880D01*
X153510494Y-137427302D01*
X153510493Y-137427309D01*
X153500000Y-137530013D01*
X146049998Y-137530013D01*
X146049998Y-137530012D01*
X146039505Y-137427302D01*
X145984358Y-137260880D01*
X145984356Y-137260875D01*
X145892315Y-137111654D01*
X145768345Y-136987684D01*
X145619124Y-136895643D01*
X145619119Y-136895641D01*
X145452697Y-136840494D01*
X145452690Y-136840493D01*
X145349986Y-136830000D01*
X144900000Y-136830000D01*
X144900000Y-137830000D01*
X144400000Y-137830000D01*
X144400000Y-136830000D01*
X143950028Y-136830000D01*
X143950012Y-136830001D01*
X143847302Y-136840494D01*
X143680880Y-136895641D01*
X143680875Y-136895643D01*
X143531654Y-136987684D01*
X143407684Y-137111654D01*
X143315643Y-137260875D01*
X143315641Y-137260880D01*
X143260494Y-137427302D01*
X143260493Y-137427309D01*
X143250000Y-137530013D01*
X85019225Y-137530013D01*
X85124186Y-137464061D01*
X85191335Y-137421870D01*
X85191336Y-137421869D01*
X85210060Y-137410104D01*
X85469153Y-137203484D01*
X85703484Y-136969153D01*
X85910104Y-136710060D01*
X86086416Y-136429461D01*
X86230202Y-136130887D01*
X86339654Y-135818090D01*
X86413396Y-135495006D01*
X86414184Y-135488019D01*
X86447498Y-135192337D01*
X86450500Y-135165697D01*
X86450500Y-134974986D01*
X143250001Y-134974986D01*
X143260494Y-135077697D01*
X143315641Y-135244119D01*
X143315643Y-135244124D01*
X143407684Y-135393345D01*
X143531654Y-135517315D01*
X143680875Y-135609356D01*
X143680880Y-135609358D01*
X143847302Y-135664505D01*
X143847309Y-135664506D01*
X143950019Y-135674999D01*
X144399999Y-135674999D01*
X144400000Y-135674998D01*
X144400000Y-134750000D01*
X144900000Y-134750000D01*
X144900000Y-135674999D01*
X145349972Y-135674999D01*
X145349986Y-135674998D01*
X145452697Y-135664505D01*
X145619119Y-135609358D01*
X145619124Y-135609356D01*
X145768345Y-135517315D01*
X145892315Y-135393345D01*
X145984356Y-135244124D01*
X145984357Y-135244120D01*
X145993183Y-135217486D01*
X146032954Y-135160040D01*
X146097470Y-135133215D01*
X146166246Y-135145529D01*
X146217007Y-135192337D01*
X146269927Y-135279877D01*
X146390122Y-135400072D01*
X146535604Y-135488019D01*
X146535603Y-135488019D01*
X146697894Y-135538590D01*
X146697893Y-135538590D01*
X146768408Y-135544998D01*
X146768426Y-135544999D01*
X146774999Y-135544998D01*
X146775000Y-135544998D01*
X146775000Y-134695000D01*
X146180000Y-134695000D01*
X146161319Y-134713681D01*
X146099996Y-134747166D01*
X146073638Y-134750000D01*
X144900000Y-134750000D01*
X144400000Y-134750000D01*
X143250001Y-134750000D01*
X143250001Y-134974986D01*
X86450500Y-134974986D01*
X86450500Y-134834303D01*
X86440682Y-134747166D01*
X86436779Y-134712522D01*
X86436779Y-134712521D01*
X86413398Y-134505008D01*
X86413397Y-134505003D01*
X86413396Y-134504994D01*
X86339654Y-134181910D01*
X86339650Y-134181898D01*
X86297983Y-134062819D01*
X86284754Y-134025013D01*
X143250000Y-134025013D01*
X143250000Y-134250000D01*
X144400000Y-134250000D01*
X144900000Y-134250000D01*
X145995000Y-134250000D01*
X146013681Y-134231319D01*
X146075004Y-134197834D01*
X146101362Y-134195000D01*
X146775000Y-134195000D01*
X146775000Y-133345000D01*
X146774999Y-133344999D01*
X146768436Y-133345000D01*
X146768417Y-133345001D01*
X146697897Y-133351408D01*
X146697892Y-133351409D01*
X146535603Y-133401981D01*
X146390122Y-133489927D01*
X146269928Y-133610121D01*
X146269925Y-133610125D01*
X146189130Y-133743775D01*
X146137602Y-133790962D01*
X146068743Y-133802800D01*
X146004414Y-133775531D01*
X145977475Y-133744720D01*
X145892317Y-133606656D01*
X145768345Y-133482684D01*
X145619124Y-133390643D01*
X145619119Y-133390641D01*
X145452697Y-133335494D01*
X145452690Y-133335493D01*
X145349986Y-133325000D01*
X144900000Y-133325000D01*
X144900000Y-134250000D01*
X144400000Y-134250000D01*
X144400000Y-133325000D01*
X143950028Y-133325000D01*
X143950012Y-133325001D01*
X143847302Y-133335494D01*
X143680880Y-133390641D01*
X143680875Y-133390643D01*
X143531654Y-133482684D01*
X143407684Y-133606654D01*
X143315643Y-133755875D01*
X143315641Y-133755880D01*
X143260494Y-133922302D01*
X143260493Y-133922309D01*
X143250000Y-134025013D01*
X86284754Y-134025013D01*
X86248816Y-133922309D01*
X86230202Y-133869113D01*
X86086416Y-133570539D01*
X85910104Y-133289940D01*
X85703484Y-133030847D01*
X85469153Y-132796516D01*
X85210060Y-132589896D01*
X84929461Y-132413584D01*
X84929458Y-132413582D01*
X84630890Y-132269799D01*
X84318101Y-132160349D01*
X84318093Y-132160346D01*
X84075777Y-132105039D01*
X83995006Y-132086604D01*
X83995003Y-132086603D01*
X83994991Y-132086601D01*
X83665703Y-132049500D01*
X83665697Y-132049500D01*
X83334303Y-132049500D01*
X83334296Y-132049500D01*
X83005008Y-132086601D01*
X83004994Y-132086604D01*
X82681906Y-132160346D01*
X82681898Y-132160349D01*
X82369109Y-132269799D01*
X82070541Y-132413582D01*
X81789941Y-132589895D01*
X81530847Y-132796515D01*
X81296515Y-133030847D01*
X81089895Y-133289941D01*
X80913582Y-133570541D01*
X80769799Y-133869109D01*
X80660349Y-134181898D01*
X80660346Y-134181906D01*
X80586604Y-134504994D01*
X80586601Y-134505008D01*
X80549500Y-134834296D01*
X78000500Y-134834296D01*
X78000500Y-120876530D01*
X80249500Y-120876530D01*
X80249500Y-121083469D01*
X80289868Y-121286412D01*
X80289870Y-121286420D01*
X80369059Y-121477598D01*
X80400140Y-121524114D01*
X80484024Y-121649657D01*
X80630342Y-121795975D01*
X80630345Y-121795977D01*
X80802402Y-121910941D01*
X80993580Y-121990130D01*
X81158855Y-122023005D01*
X81196530Y-122030499D01*
X81196534Y-122030500D01*
X81196535Y-122030500D01*
X81403466Y-122030500D01*
X81403467Y-122030499D01*
X81606420Y-121990130D01*
X81797598Y-121910941D01*
X81969655Y-121795977D01*
X82048814Y-121716817D01*
X82110135Y-121683334D01*
X82136494Y-121680500D01*
X115563506Y-121680500D01*
X115630545Y-121700185D01*
X115651182Y-121716814D01*
X115730345Y-121795977D01*
X115902402Y-121910941D01*
X115902405Y-121910943D01*
X116005043Y-121953456D01*
X116067108Y-121979164D01*
X116121511Y-122023005D01*
X116143576Y-122089299D01*
X116126297Y-122156998D01*
X116075160Y-122204609D01*
X116057974Y-122211656D01*
X115881781Y-122268905D01*
X115692442Y-122365379D01*
X115520540Y-122490272D01*
X115520535Y-122490276D01*
X115370276Y-122640535D01*
X115370272Y-122640540D01*
X115245379Y-122812442D01*
X115148904Y-123001782D01*
X115083242Y-123203870D01*
X115083242Y-123203873D01*
X115072769Y-123270000D01*
X115966988Y-123270000D01*
X115934075Y-123327007D01*
X115900000Y-123454174D01*
X115900000Y-123585826D01*
X115934075Y-123712993D01*
X115966988Y-123770000D01*
X115072769Y-123770000D01*
X115083242Y-123836126D01*
X115083242Y-123836129D01*
X115148904Y-124038217D01*
X115245379Y-124227557D01*
X115370272Y-124399459D01*
X115370276Y-124399464D01*
X115520535Y-124549723D01*
X115520540Y-124549727D01*
X115692442Y-124674620D01*
X115881782Y-124771095D01*
X116057973Y-124828343D01*
X116115648Y-124867780D01*
X116142847Y-124932139D01*
X116130932Y-125000985D01*
X116083688Y-125052461D01*
X116067108Y-125060835D01*
X115902403Y-125129057D01*
X115730342Y-125244024D01*
X115584024Y-125390342D01*
X115469058Y-125562403D01*
X115389870Y-125753579D01*
X115389868Y-125753587D01*
X115349500Y-125956530D01*
X115349500Y-126163469D01*
X115389868Y-126366412D01*
X115389870Y-126366420D01*
X115469058Y-126557596D01*
X115584024Y-126729657D01*
X115730342Y-126875975D01*
X115730345Y-126875977D01*
X115902402Y-126990941D01*
X116093580Y-127070130D01*
X116238052Y-127098867D01*
X116296530Y-127110499D01*
X116296534Y-127110500D01*
X116296535Y-127110500D01*
X116503466Y-127110500D01*
X116503467Y-127110499D01*
X116706420Y-127070130D01*
X116897598Y-126990941D01*
X117069655Y-126875977D01*
X117148814Y-126796817D01*
X117210135Y-126763334D01*
X117236494Y-126760500D01*
X130518481Y-126760500D01*
X130585520Y-126780185D01*
X130606162Y-126796819D01*
X134653453Y-130844111D01*
X134653454Y-130844112D01*
X134768192Y-130920777D01*
X134895667Y-130973578D01*
X134895672Y-130973580D01*
X134895676Y-130973580D01*
X134895677Y-130973581D01*
X135031004Y-131000500D01*
X135031007Y-131000500D01*
X135168994Y-131000500D01*
X147358481Y-131000500D01*
X147387921Y-131009144D01*
X147417908Y-131015668D01*
X147422923Y-131019422D01*
X147425520Y-131020185D01*
X147446162Y-131036819D01*
X147487181Y-131077838D01*
X147520666Y-131139161D01*
X147523500Y-131165519D01*
X147523500Y-133236297D01*
X147503815Y-133303336D01*
X147451011Y-133349091D01*
X147381853Y-133359035D01*
X147362612Y-133354683D01*
X147352105Y-133351409D01*
X147281572Y-133345000D01*
X147275000Y-133345000D01*
X147275000Y-135544999D01*
X147281581Y-135544999D01*
X147352102Y-135538591D01*
X147352107Y-135538590D01*
X147514396Y-135488018D01*
X147659875Y-135400073D01*
X147780076Y-135279871D01*
X147781316Y-135277821D01*
X147782618Y-135276628D01*
X147784705Y-135273965D01*
X147785147Y-135274311D01*
X147832841Y-135230630D01*
X147901699Y-135218787D01*
X147915048Y-135221077D01*
X147930034Y-135224499D01*
X147942825Y-135231017D01*
X147994176Y-135239150D01*
X147998244Y-135240079D01*
X148025222Y-135255174D01*
X148053164Y-135268420D01*
X148058314Y-135273285D01*
X148315540Y-135530511D01*
X148371489Y-135586460D01*
X148371491Y-135586461D01*
X148371495Y-135586464D01*
X148440004Y-135626017D01*
X148440011Y-135626021D01*
X148516438Y-135646500D01*
X148516440Y-135646500D01*
X151093560Y-135646500D01*
X151093562Y-135646500D01*
X151169989Y-135626021D01*
X151238511Y-135586460D01*
X151294460Y-135530511D01*
X151535460Y-135289511D01*
X151536672Y-135287412D01*
X151538160Y-135285993D01*
X151540407Y-135283065D01*
X151540863Y-135283415D01*
X151553648Y-135271225D01*
X151567213Y-135252096D01*
X151582020Y-135244173D01*
X151587239Y-135239198D01*
X151597743Y-135234388D01*
X151605427Y-135231293D01*
X151607175Y-135231017D01*
X151611168Y-135228982D01*
X151616248Y-135226937D01*
X151645776Y-135224057D01*
X151674927Y-135218581D01*
X151680162Y-135220705D01*
X151685788Y-135220157D01*
X151712183Y-135233698D01*
X151739670Y-135244852D01*
X151744400Y-135250227D01*
X151747954Y-135252050D01*
X151751720Y-135258544D01*
X151765301Y-135273975D01*
X151765303Y-135273974D01*
X151765322Y-135273998D01*
X151768682Y-135277816D01*
X151769929Y-135279879D01*
X151890122Y-135400072D01*
X152035604Y-135488019D01*
X152035603Y-135488019D01*
X152197894Y-135538590D01*
X152197893Y-135538590D01*
X152268408Y-135544998D01*
X152268426Y-135544999D01*
X152775000Y-135544999D01*
X152781581Y-135544999D01*
X152852102Y-135538591D01*
X152852107Y-135538590D01*
X153014396Y-135488018D01*
X153159877Y-135400072D01*
X153280072Y-135279877D01*
X153332992Y-135192337D01*
X153384520Y-135145150D01*
X153453379Y-135133311D01*
X153517708Y-135160579D01*
X153556815Y-135217483D01*
X153565641Y-135244119D01*
X153565643Y-135244124D01*
X153657684Y-135393345D01*
X153781654Y-135517315D01*
X153930875Y-135609356D01*
X153930880Y-135609358D01*
X154097302Y-135664505D01*
X154097309Y-135664506D01*
X154200019Y-135674999D01*
X154649999Y-135674999D01*
X155150000Y-135674999D01*
X155599972Y-135674999D01*
X155599986Y-135674998D01*
X155702697Y-135664505D01*
X155869119Y-135609358D01*
X155869124Y-135609356D01*
X156018345Y-135517315D01*
X156142315Y-135393345D01*
X156234356Y-135244124D01*
X156234358Y-135244119D01*
X156289505Y-135077697D01*
X156289506Y-135077690D01*
X156299999Y-134974986D01*
X156300000Y-134974973D01*
X156300000Y-134834296D01*
X168549500Y-134834296D01*
X168549500Y-135165703D01*
X168586601Y-135494991D01*
X168586604Y-135495005D01*
X168660346Y-135818093D01*
X168660349Y-135818101D01*
X168769799Y-136130890D01*
X168913582Y-136429458D01*
X168913584Y-136429461D01*
X169089896Y-136710060D01*
X169296516Y-136969153D01*
X169530847Y-137203484D01*
X169789940Y-137410104D01*
X170070539Y-137586416D01*
X170369113Y-137730202D01*
X170604037Y-137812405D01*
X170681898Y-137839650D01*
X170681906Y-137839653D01*
X170681909Y-137839653D01*
X170681910Y-137839654D01*
X171004994Y-137913396D01*
X171005003Y-137913397D01*
X171005008Y-137913398D01*
X171224533Y-137938132D01*
X171334297Y-137950499D01*
X171334300Y-137950500D01*
X171334303Y-137950500D01*
X171665700Y-137950500D01*
X171665701Y-137950499D01*
X171833996Y-137931537D01*
X171994991Y-137913398D01*
X171994994Y-137913397D01*
X171995006Y-137913396D01*
X172318090Y-137839654D01*
X172630887Y-137730202D01*
X172929461Y-137586416D01*
X173210060Y-137410104D01*
X173469153Y-137203484D01*
X173703484Y-136969153D01*
X173910104Y-136710060D01*
X174086416Y-136429461D01*
X174230202Y-136130887D01*
X174339654Y-135818090D01*
X174413396Y-135495006D01*
X174414184Y-135488019D01*
X174447498Y-135192337D01*
X174450500Y-135165697D01*
X174450500Y-134834303D01*
X174450499Y-134834298D01*
X174450499Y-134834296D01*
X174413398Y-134505008D01*
X174413397Y-134505003D01*
X174413396Y-134504994D01*
X174339654Y-134181910D01*
X174230202Y-133869113D01*
X174086416Y-133570539D01*
X173910104Y-133289940D01*
X173703484Y-133030847D01*
X173469153Y-132796516D01*
X173210060Y-132589896D01*
X172929461Y-132413584D01*
X172929458Y-132413582D01*
X172630890Y-132269799D01*
X172318101Y-132160349D01*
X172318093Y-132160346D01*
X172075777Y-132105039D01*
X171995006Y-132086604D01*
X171995003Y-132086603D01*
X171994991Y-132086601D01*
X171665703Y-132049500D01*
X171665697Y-132049500D01*
X171334303Y-132049500D01*
X171334296Y-132049500D01*
X171005008Y-132086601D01*
X171004994Y-132086604D01*
X170681906Y-132160346D01*
X170681898Y-132160349D01*
X170369109Y-132269799D01*
X170070541Y-132413582D01*
X169789941Y-132589895D01*
X169530847Y-132796515D01*
X169296515Y-133030847D01*
X169089895Y-133289941D01*
X168913582Y-133570541D01*
X168769799Y-133869109D01*
X168660349Y-134181898D01*
X168660346Y-134181906D01*
X168586604Y-134504994D01*
X168586601Y-134505008D01*
X168549500Y-134834296D01*
X156300000Y-134834296D01*
X156300000Y-134750000D01*
X155150000Y-134750000D01*
X155150000Y-135674999D01*
X154649999Y-135674999D01*
X154650000Y-135674998D01*
X154650000Y-134750000D01*
X153476362Y-134750000D01*
X153409323Y-134730315D01*
X153388681Y-134713681D01*
X153370000Y-134695000D01*
X152775000Y-134695000D01*
X152775000Y-135544999D01*
X152268426Y-135544999D01*
X152274999Y-135544998D01*
X152275000Y-135544998D01*
X152275000Y-133345000D01*
X152775000Y-133345000D01*
X152775000Y-134195000D01*
X153448638Y-134195000D01*
X153515677Y-134214685D01*
X153536319Y-134231319D01*
X153555000Y-134250000D01*
X154650000Y-134250000D01*
X155150000Y-134250000D01*
X156299999Y-134250000D01*
X156299999Y-134025028D01*
X156299998Y-134025013D01*
X156289505Y-133922302D01*
X156234358Y-133755880D01*
X156234356Y-133755875D01*
X156142315Y-133606654D01*
X156018345Y-133482684D01*
X155869124Y-133390643D01*
X155869119Y-133390641D01*
X155702697Y-133335494D01*
X155702690Y-133335493D01*
X155599986Y-133325000D01*
X155150000Y-133325000D01*
X155150000Y-134250000D01*
X154650000Y-134250000D01*
X154650000Y-133325000D01*
X154200028Y-133325000D01*
X154200012Y-133325001D01*
X154097302Y-133335494D01*
X153930880Y-133390641D01*
X153930875Y-133390643D01*
X153781654Y-133482684D01*
X153657684Y-133606654D01*
X153572524Y-133744721D01*
X153520576Y-133791445D01*
X153451613Y-133802667D01*
X153387531Y-133774824D01*
X153360868Y-133743774D01*
X153280072Y-133610122D01*
X153159877Y-133489927D01*
X153014395Y-133401980D01*
X153014396Y-133401980D01*
X152852105Y-133351409D01*
X152852106Y-133351409D01*
X152781572Y-133345000D01*
X152775000Y-133345000D01*
X152275000Y-133345000D01*
X152274999Y-133344999D01*
X152268436Y-133345000D01*
X152268417Y-133345001D01*
X152197897Y-133351408D01*
X152197892Y-133351409D01*
X152035603Y-133401981D01*
X151890122Y-133489927D01*
X151769928Y-133610121D01*
X151769923Y-133610128D01*
X151768678Y-133612188D01*
X151767374Y-133613381D01*
X151765303Y-133616026D01*
X151764863Y-133615681D01*
X151717150Y-133659375D01*
X151648290Y-133671212D01*
X151616572Y-133661633D01*
X151616454Y-133661998D01*
X151607171Y-133658981D01*
X151515735Y-133644500D01*
X151074260Y-133644500D01*
X151074260Y-133644501D01*
X150982829Y-133658981D01*
X150982828Y-133658981D01*
X150872607Y-133715142D01*
X150872605Y-133715143D01*
X150862072Y-133725677D01*
X150800748Y-133759160D01*
X150731056Y-133754174D01*
X150686712Y-133725674D01*
X150671210Y-133710172D01*
X150558628Y-133655135D01*
X150558626Y-133655134D01*
X150558625Y-133655134D01*
X150485636Y-133644500D01*
X150064364Y-133644500D01*
X149991375Y-133655134D01*
X149991373Y-133655134D01*
X149991371Y-133655135D01*
X149878789Y-133710172D01*
X149878787Y-133710174D01*
X149862681Y-133726281D01*
X149801358Y-133759766D01*
X149731666Y-133754782D01*
X149687319Y-133726281D01*
X149671210Y-133710172D01*
X149558628Y-133655135D01*
X149558626Y-133655134D01*
X149558625Y-133655134D01*
X149485636Y-133644500D01*
X149064364Y-133644500D01*
X149064363Y-133644500D01*
X149059895Y-133644824D01*
X149059782Y-133643277D01*
X148997173Y-133634380D01*
X148944294Y-133588712D01*
X148924500Y-133521705D01*
X148924500Y-130755006D01*
X148922816Y-130746543D01*
X148922815Y-130746537D01*
X148897581Y-130619679D01*
X148897580Y-130619672D01*
X148897578Y-130619667D01*
X148844777Y-130492192D01*
X148768112Y-130377454D01*
X148146545Y-129755887D01*
X148031807Y-129679222D01*
X147904332Y-129626421D01*
X147904322Y-129626418D01*
X147768996Y-129599500D01*
X147768994Y-129599500D01*
X147768993Y-129599500D01*
X135441519Y-129599500D01*
X135374480Y-129579815D01*
X135353838Y-129563181D01*
X131306546Y-125515888D01*
X131306545Y-125515887D01*
X131191807Y-125439222D01*
X131064332Y-125386421D01*
X131064322Y-125386418D01*
X130928996Y-125359500D01*
X130928994Y-125359500D01*
X130928993Y-125359500D01*
X117236494Y-125359500D01*
X117169455Y-125339815D01*
X117148817Y-125323185D01*
X117069655Y-125244023D01*
X116897598Y-125129059D01*
X116897593Y-125129057D01*
X116744028Y-125065448D01*
X116732890Y-125060834D01*
X116678488Y-125016994D01*
X116656423Y-124950700D01*
X116673702Y-124883001D01*
X116724839Y-124835390D01*
X116742026Y-124828343D01*
X116918217Y-124771095D01*
X117107557Y-124674620D01*
X117279459Y-124549727D01*
X117279464Y-124549723D01*
X117429723Y-124399464D01*
X117429727Y-124399459D01*
X117554620Y-124227557D01*
X117651095Y-124038217D01*
X117716757Y-123836129D01*
X117716757Y-123836126D01*
X117727231Y-123770000D01*
X116833012Y-123770000D01*
X116865925Y-123712993D01*
X116900000Y-123585826D01*
X116900000Y-123454174D01*
X116865925Y-123327007D01*
X116833012Y-123270000D01*
X117727231Y-123270000D01*
X140472769Y-123270000D01*
X141366988Y-123270000D01*
X141334075Y-123327007D01*
X141300000Y-123454174D01*
X141300000Y-123585826D01*
X141334075Y-123712993D01*
X141366988Y-123770000D01*
X140472769Y-123770000D01*
X140483242Y-123836126D01*
X140483242Y-123836129D01*
X140548904Y-124038217D01*
X140645379Y-124227557D01*
X140770272Y-124399459D01*
X140770276Y-124399464D01*
X140920535Y-124549723D01*
X140920540Y-124549727D01*
X141092442Y-124674620D01*
X141286121Y-124773306D01*
X141285603Y-124774321D01*
X141335808Y-124814779D01*
X141357873Y-124881073D01*
X141340594Y-124948772D01*
X141289458Y-124996383D01*
X141233952Y-125009500D01*
X140930247Y-125009500D01*
X140871770Y-125021131D01*
X140871769Y-125021132D01*
X140805447Y-125065447D01*
X140761132Y-125131769D01*
X140761131Y-125131770D01*
X140749500Y-125190247D01*
X140749500Y-126929752D01*
X140761131Y-126988229D01*
X140761132Y-126988230D01*
X140805447Y-127054552D01*
X140871769Y-127098867D01*
X140871770Y-127098868D01*
X140930247Y-127110499D01*
X140930250Y-127110500D01*
X140930252Y-127110500D01*
X142669750Y-127110500D01*
X142669751Y-127110499D01*
X142684568Y-127107552D01*
X142728229Y-127098868D01*
X142728229Y-127098867D01*
X142728231Y-127098867D01*
X142794552Y-127054552D01*
X142838867Y-126988231D01*
X142838867Y-126988229D01*
X142838868Y-126988229D01*
X142850499Y-126929752D01*
X142850500Y-126929750D01*
X142850500Y-125190249D01*
X142850499Y-125190247D01*
X142838868Y-125131770D01*
X142838867Y-125131769D01*
X142794552Y-125065447D01*
X142728230Y-125021132D01*
X142728229Y-125021131D01*
X142669752Y-125009500D01*
X142669748Y-125009500D01*
X142366048Y-125009500D01*
X142299009Y-124989815D01*
X142253254Y-124937011D01*
X142243310Y-124867853D01*
X142272335Y-124804297D01*
X142314264Y-124774061D01*
X142313879Y-124773306D01*
X142507557Y-124674620D01*
X142679459Y-124549727D01*
X142679464Y-124549723D01*
X142829723Y-124399464D01*
X142829727Y-124399459D01*
X142954620Y-124227557D01*
X143051095Y-124038217D01*
X143116757Y-123836129D01*
X143116757Y-123836126D01*
X143127231Y-123770000D01*
X142233012Y-123770000D01*
X142265925Y-123712993D01*
X142300000Y-123585826D01*
X142300000Y-123454174D01*
X142265925Y-123327007D01*
X142233012Y-123270000D01*
X143127231Y-123270000D01*
X143116757Y-123203873D01*
X143116757Y-123203870D01*
X143051095Y-123001782D01*
X142954620Y-122812442D01*
X142829727Y-122640540D01*
X142829723Y-122640535D01*
X142679464Y-122490276D01*
X142679459Y-122490272D01*
X142507557Y-122365379D01*
X142318216Y-122268904D01*
X142142026Y-122211656D01*
X142084350Y-122172218D01*
X142057152Y-122107860D01*
X142069067Y-122039013D01*
X142116311Y-121987538D01*
X142132882Y-121979168D01*
X142297598Y-121910941D01*
X142469655Y-121795977D01*
X142548814Y-121716817D01*
X142610135Y-121683334D01*
X142636494Y-121680500D01*
X147008996Y-121680500D01*
X147100040Y-121662389D01*
X147144328Y-121653580D01*
X147208069Y-121627177D01*
X147271807Y-121600777D01*
X147271808Y-121600776D01*
X147271811Y-121600775D01*
X147386543Y-121524114D01*
X159813838Y-109096819D01*
X159875161Y-109063334D01*
X159901519Y-109060500D01*
X172463506Y-109060500D01*
X172530545Y-109080185D01*
X172551182Y-109096814D01*
X172630345Y-109175977D01*
X172802402Y-109290941D01*
X172993580Y-109370130D01*
X173196530Y-109410499D01*
X173196534Y-109410500D01*
X173196535Y-109410500D01*
X173403466Y-109410500D01*
X173403467Y-109410499D01*
X173606420Y-109370130D01*
X173797598Y-109290941D01*
X173969655Y-109175977D01*
X174115977Y-109029655D01*
X174230941Y-108857598D01*
X174310130Y-108666420D01*
X174350500Y-108463465D01*
X174350500Y-108256535D01*
X174310130Y-108053580D01*
X174230941Y-107862402D01*
X174115977Y-107690345D01*
X174115975Y-107690342D01*
X173969657Y-107544024D01*
X173849927Y-107464024D01*
X173797598Y-107429059D01*
X173606420Y-107349870D01*
X173606412Y-107349868D01*
X173403469Y-107309500D01*
X173403465Y-107309500D01*
X173196535Y-107309500D01*
X173196530Y-107309500D01*
X172993587Y-107349868D01*
X172993579Y-107349870D01*
X172802403Y-107429058D01*
X172631605Y-107543181D01*
X172630345Y-107544023D01*
X172551185Y-107623182D01*
X172489865Y-107656666D01*
X172463506Y-107659500D01*
X159491003Y-107659500D01*
X159382590Y-107681065D01*
X159382589Y-107681065D01*
X159355671Y-107686420D01*
X159228190Y-107739224D01*
X159113454Y-107815887D01*
X159113453Y-107815888D01*
X146686162Y-120243181D01*
X146624839Y-120276666D01*
X146598481Y-120279500D01*
X142636494Y-120279500D01*
X142569455Y-120259815D01*
X142548817Y-120243185D01*
X142469655Y-120164023D01*
X142297598Y-120049059D01*
X142106420Y-119969870D01*
X142106412Y-119969868D01*
X141903469Y-119929500D01*
X141903465Y-119929500D01*
X141696535Y-119929500D01*
X141696530Y-119929500D01*
X141493587Y-119969868D01*
X141493579Y-119969870D01*
X141302403Y-120049058D01*
X141130342Y-120164024D01*
X140984024Y-120310342D01*
X140869058Y-120482403D01*
X140789870Y-120673579D01*
X140789868Y-120673587D01*
X140749500Y-120876530D01*
X140749500Y-121083469D01*
X140789868Y-121286412D01*
X140789870Y-121286420D01*
X140869059Y-121477598D01*
X140900140Y-121524114D01*
X140984024Y-121649657D01*
X141130342Y-121795975D01*
X141302405Y-121910943D01*
X141405043Y-121953456D01*
X141467108Y-121979164D01*
X141521511Y-122023005D01*
X141543576Y-122089299D01*
X141526297Y-122156998D01*
X141475160Y-122204609D01*
X141457974Y-122211656D01*
X141281781Y-122268905D01*
X141092442Y-122365379D01*
X140920540Y-122490272D01*
X140920535Y-122490276D01*
X140770276Y-122640535D01*
X140770272Y-122640540D01*
X140645379Y-122812442D01*
X140548904Y-123001782D01*
X140483242Y-123203870D01*
X140483242Y-123203873D01*
X140472769Y-123270000D01*
X117727231Y-123270000D01*
X117716757Y-123203873D01*
X117716757Y-123203870D01*
X117651095Y-123001782D01*
X117554620Y-122812442D01*
X117429727Y-122640540D01*
X117429723Y-122640535D01*
X117279464Y-122490276D01*
X117279459Y-122490272D01*
X117107557Y-122365379D01*
X116918216Y-122268904D01*
X116742026Y-122211656D01*
X116684350Y-122172218D01*
X116657152Y-122107860D01*
X116669067Y-122039013D01*
X116716311Y-121987538D01*
X116732882Y-121979168D01*
X116897598Y-121910941D01*
X117069655Y-121795977D01*
X117215977Y-121649655D01*
X117330941Y-121477598D01*
X117410130Y-121286420D01*
X117450500Y-121083465D01*
X117450500Y-120876535D01*
X117410130Y-120673580D01*
X117330941Y-120482402D01*
X117215977Y-120310345D01*
X117215975Y-120310342D01*
X117069657Y-120164024D01*
X116983626Y-120106541D01*
X116897598Y-120049059D01*
X116706420Y-119969870D01*
X116706412Y-119969868D01*
X116503469Y-119929500D01*
X116503465Y-119929500D01*
X116296535Y-119929500D01*
X116296530Y-119929500D01*
X116093587Y-119969868D01*
X116093579Y-119969870D01*
X115902403Y-120049058D01*
X115902402Y-120049059D01*
X115730345Y-120164023D01*
X115651185Y-120243182D01*
X115589865Y-120276666D01*
X115563506Y-120279500D01*
X82136494Y-120279500D01*
X82069455Y-120259815D01*
X82048817Y-120243185D01*
X81969655Y-120164023D01*
X81797598Y-120049059D01*
X81606420Y-119969870D01*
X81606412Y-119969868D01*
X81403469Y-119929500D01*
X81403465Y-119929500D01*
X81196535Y-119929500D01*
X81196530Y-119929500D01*
X80993587Y-119969868D01*
X80993579Y-119969870D01*
X80802403Y-120049058D01*
X80630342Y-120164024D01*
X80484024Y-120310342D01*
X80369058Y-120482403D01*
X80289870Y-120673579D01*
X80289868Y-120673587D01*
X80249500Y-120876530D01*
X78000500Y-120876530D01*
X78000500Y-118336530D01*
X80249500Y-118336530D01*
X80249500Y-118543469D01*
X80289868Y-118746412D01*
X80289870Y-118746420D01*
X80369058Y-118937596D01*
X80484024Y-119109657D01*
X80630342Y-119255975D01*
X80630345Y-119255977D01*
X80802402Y-119370941D01*
X80993580Y-119450130D01*
X81196530Y-119490499D01*
X81196534Y-119490500D01*
X81196535Y-119490500D01*
X81403466Y-119490500D01*
X81403467Y-119490499D01*
X81606420Y-119450130D01*
X81797598Y-119370941D01*
X81969655Y-119255977D01*
X82048814Y-119176817D01*
X82110135Y-119143334D01*
X82136494Y-119140500D01*
X115563506Y-119140500D01*
X115630545Y-119160185D01*
X115651182Y-119176814D01*
X115730345Y-119255977D01*
X115902402Y-119370941D01*
X116093580Y-119450130D01*
X116296530Y-119490499D01*
X116296534Y-119490500D01*
X116296535Y-119490500D01*
X116503466Y-119490500D01*
X116503467Y-119490499D01*
X116706420Y-119450130D01*
X116897598Y-119370941D01*
X117069655Y-119255977D01*
X117215977Y-119109655D01*
X117330941Y-118937598D01*
X117410130Y-118746420D01*
X117450500Y-118543465D01*
X117450500Y-118336535D01*
X117450499Y-118336530D01*
X140749500Y-118336530D01*
X140749500Y-118543469D01*
X140789868Y-118746412D01*
X140789870Y-118746420D01*
X140869058Y-118937596D01*
X140984024Y-119109657D01*
X141130342Y-119255975D01*
X141130345Y-119255977D01*
X141302402Y-119370941D01*
X141493580Y-119450130D01*
X141696530Y-119490499D01*
X141696534Y-119490500D01*
X141696535Y-119490500D01*
X141903466Y-119490500D01*
X141903467Y-119490499D01*
X142106420Y-119450130D01*
X142297598Y-119370941D01*
X142469655Y-119255977D01*
X142615977Y-119109655D01*
X142730941Y-118937598D01*
X142810130Y-118746420D01*
X142850500Y-118543465D01*
X142850500Y-118336535D01*
X142810130Y-118133580D01*
X142730941Y-117942402D01*
X142615977Y-117770345D01*
X142615975Y-117770342D01*
X142469657Y-117624024D01*
X142383626Y-117566541D01*
X142297598Y-117509059D01*
X142106420Y-117429870D01*
X142106412Y-117429868D01*
X141903469Y-117389500D01*
X141903465Y-117389500D01*
X141696535Y-117389500D01*
X141696530Y-117389500D01*
X141493587Y-117429868D01*
X141493579Y-117429870D01*
X141302403Y-117509058D01*
X141130342Y-117624024D01*
X140984024Y-117770342D01*
X140869058Y-117942403D01*
X140789870Y-118133579D01*
X140789868Y-118133587D01*
X140749500Y-118336530D01*
X117450499Y-118336530D01*
X117410130Y-118133580D01*
X117330941Y-117942402D01*
X117215977Y-117770345D01*
X117215975Y-117770342D01*
X117069657Y-117624024D01*
X116983626Y-117566541D01*
X116897598Y-117509059D01*
X116706420Y-117429870D01*
X116706412Y-117429868D01*
X116503469Y-117389500D01*
X116503465Y-117389500D01*
X116296535Y-117389500D01*
X116296530Y-117389500D01*
X116093587Y-117429868D01*
X116093579Y-117429870D01*
X115902403Y-117509058D01*
X115902402Y-117509059D01*
X115730345Y-117624023D01*
X115651185Y-117703182D01*
X115589865Y-117736666D01*
X115563506Y-117739500D01*
X82136494Y-117739500D01*
X82069455Y-117719815D01*
X82048817Y-117703185D01*
X81969655Y-117624023D01*
X81797598Y-117509059D01*
X81606420Y-117429870D01*
X81606412Y-117429868D01*
X81403469Y-117389500D01*
X81403465Y-117389500D01*
X81196535Y-117389500D01*
X81196530Y-117389500D01*
X80993587Y-117429868D01*
X80993579Y-117429870D01*
X80802403Y-117509058D01*
X80630342Y-117624024D01*
X80484024Y-117770342D01*
X80369058Y-117942403D01*
X80289870Y-118133579D01*
X80289868Y-118133587D01*
X80249500Y-118336530D01*
X78000500Y-118336530D01*
X78000500Y-115796530D01*
X80249500Y-115796530D01*
X80249500Y-116003469D01*
X80289868Y-116206412D01*
X80289870Y-116206420D01*
X80369058Y-116397596D01*
X80484024Y-116569657D01*
X80630342Y-116715975D01*
X80630345Y-116715977D01*
X80802402Y-116830941D01*
X80993580Y-116910130D01*
X81196530Y-116950499D01*
X81196534Y-116950500D01*
X81196535Y-116950500D01*
X81403466Y-116950500D01*
X81403467Y-116950499D01*
X81606420Y-116910130D01*
X81797598Y-116830941D01*
X81969655Y-116715977D01*
X82048814Y-116636817D01*
X82110135Y-116603334D01*
X82136494Y-116600500D01*
X115563506Y-116600500D01*
X115630545Y-116620185D01*
X115651182Y-116636814D01*
X115730345Y-116715977D01*
X115902402Y-116830941D01*
X116093580Y-116910130D01*
X116296530Y-116950499D01*
X116296534Y-116950500D01*
X116296535Y-116950500D01*
X116503466Y-116950500D01*
X116503467Y-116950499D01*
X116706420Y-116910130D01*
X116897598Y-116830941D01*
X117069655Y-116715977D01*
X117215977Y-116569655D01*
X117330941Y-116397598D01*
X117410130Y-116206420D01*
X117450500Y-116003465D01*
X117450500Y-115796535D01*
X117450499Y-115796530D01*
X140749500Y-115796530D01*
X140749500Y-116003469D01*
X140789868Y-116206412D01*
X140789870Y-116206420D01*
X140869058Y-116397596D01*
X140984024Y-116569657D01*
X141130342Y-116715975D01*
X141130345Y-116715977D01*
X141302402Y-116830941D01*
X141493580Y-116910130D01*
X141696530Y-116950499D01*
X141696534Y-116950500D01*
X141696535Y-116950500D01*
X141903466Y-116950500D01*
X141903467Y-116950499D01*
X142106420Y-116910130D01*
X142297598Y-116830941D01*
X142469655Y-116715977D01*
X142615977Y-116569655D01*
X142730941Y-116397598D01*
X142810130Y-116206420D01*
X142850500Y-116003465D01*
X142850500Y-115796535D01*
X142810130Y-115593580D01*
X142730941Y-115402402D01*
X142615977Y-115230345D01*
X142615975Y-115230342D01*
X142469657Y-115084024D01*
X142383626Y-115026541D01*
X142297598Y-114969059D01*
X142106420Y-114889870D01*
X142106412Y-114889868D01*
X141903469Y-114849500D01*
X141903465Y-114849500D01*
X141696535Y-114849500D01*
X141696530Y-114849500D01*
X141493587Y-114889868D01*
X141493579Y-114889870D01*
X141302403Y-114969058D01*
X141130342Y-115084024D01*
X140984024Y-115230342D01*
X140869058Y-115402403D01*
X140789870Y-115593579D01*
X140789868Y-115593587D01*
X140749500Y-115796530D01*
X117450499Y-115796530D01*
X117410130Y-115593580D01*
X117330941Y-115402402D01*
X117215977Y-115230345D01*
X117215975Y-115230342D01*
X117069657Y-115084024D01*
X116983626Y-115026541D01*
X116897598Y-114969059D01*
X116706420Y-114889870D01*
X116706412Y-114889868D01*
X116503469Y-114849500D01*
X116503465Y-114849500D01*
X116296535Y-114849500D01*
X116296530Y-114849500D01*
X116093587Y-114889868D01*
X116093579Y-114889870D01*
X115902403Y-114969058D01*
X115902402Y-114969059D01*
X115730345Y-115084023D01*
X115651185Y-115163182D01*
X115589865Y-115196666D01*
X115563506Y-115199500D01*
X82136494Y-115199500D01*
X82069455Y-115179815D01*
X82048817Y-115163185D01*
X81969655Y-115084023D01*
X81797598Y-114969059D01*
X81606420Y-114889870D01*
X81606412Y-114889868D01*
X81403469Y-114849500D01*
X81403465Y-114849500D01*
X81196535Y-114849500D01*
X81196530Y-114849500D01*
X80993587Y-114889868D01*
X80993579Y-114889870D01*
X80802403Y-114969058D01*
X80630342Y-115084024D01*
X80484024Y-115230342D01*
X80369058Y-115402403D01*
X80289870Y-115593579D01*
X80289868Y-115593587D01*
X80249500Y-115796530D01*
X78000500Y-115796530D01*
X78000500Y-113256530D01*
X80249500Y-113256530D01*
X80249500Y-113463469D01*
X80289868Y-113666412D01*
X80289870Y-113666420D01*
X80369059Y-113857598D01*
X80400140Y-113904114D01*
X80484024Y-114029657D01*
X80630342Y-114175975D01*
X80630345Y-114175977D01*
X80802402Y-114290941D01*
X80993580Y-114370130D01*
X81196530Y-114410499D01*
X81196534Y-114410500D01*
X81196535Y-114410500D01*
X81403466Y-114410500D01*
X81403467Y-114410499D01*
X81606420Y-114370130D01*
X81797598Y-114290941D01*
X81969655Y-114175977D01*
X82048814Y-114096817D01*
X82110135Y-114063334D01*
X82136494Y-114060500D01*
X115563506Y-114060500D01*
X115630545Y-114080185D01*
X115651182Y-114096814D01*
X115730345Y-114175977D01*
X115902402Y-114290941D01*
X116093580Y-114370130D01*
X116296530Y-114410499D01*
X116296534Y-114410500D01*
X116296535Y-114410500D01*
X116503466Y-114410500D01*
X116503467Y-114410499D01*
X116706420Y-114370130D01*
X116897598Y-114290941D01*
X117069655Y-114175977D01*
X117215977Y-114029655D01*
X117330941Y-113857598D01*
X117410130Y-113666420D01*
X117450500Y-113463465D01*
X117450500Y-113256535D01*
X117450499Y-113256530D01*
X140749500Y-113256530D01*
X140749500Y-113463469D01*
X140789868Y-113666412D01*
X140789870Y-113666420D01*
X140869059Y-113857598D01*
X140900140Y-113904114D01*
X140984024Y-114029657D01*
X141130342Y-114175975D01*
X141130345Y-114175977D01*
X141302402Y-114290941D01*
X141493580Y-114370130D01*
X141696530Y-114410499D01*
X141696534Y-114410500D01*
X141696535Y-114410500D01*
X141903466Y-114410500D01*
X141903467Y-114410499D01*
X142106420Y-114370130D01*
X142297598Y-114290941D01*
X142469655Y-114175977D01*
X142548814Y-114096817D01*
X142610135Y-114063334D01*
X142636494Y-114060500D01*
X147628996Y-114060500D01*
X147720040Y-114042389D01*
X147764328Y-114033580D01*
X147828069Y-114007177D01*
X147891807Y-113980777D01*
X147891808Y-113980776D01*
X147891811Y-113980775D01*
X148006543Y-113904114D01*
X155553838Y-106356819D01*
X155615161Y-106323334D01*
X155641519Y-106320500D01*
X171458480Y-106320500D01*
X171525519Y-106340185D01*
X171546161Y-106356819D01*
X171553454Y-106364112D01*
X171668192Y-106440777D01*
X171755207Y-106476819D01*
X171795672Y-106493580D01*
X171795676Y-106493580D01*
X171795677Y-106493581D01*
X171931003Y-106520500D01*
X171931006Y-106520500D01*
X171931007Y-106520500D01*
X172463506Y-106520500D01*
X172530545Y-106540185D01*
X172551182Y-106556814D01*
X172630345Y-106635977D01*
X172802402Y-106750941D01*
X172993580Y-106830130D01*
X173196530Y-106870499D01*
X173196534Y-106870500D01*
X173196535Y-106870500D01*
X173403466Y-106870500D01*
X173403467Y-106870499D01*
X173606420Y-106830130D01*
X173797598Y-106750941D01*
X173969655Y-106635977D01*
X174115977Y-106489655D01*
X174230941Y-106317598D01*
X174310130Y-106126420D01*
X174350500Y-105923465D01*
X174350500Y-105716535D01*
X174310130Y-105513580D01*
X174230941Y-105322402D01*
X174115977Y-105150345D01*
X174115975Y-105150342D01*
X173969657Y-105004024D01*
X173849927Y-104924024D01*
X173797598Y-104889059D01*
X173606420Y-104809870D01*
X173606412Y-104809868D01*
X173403469Y-104769500D01*
X173403465Y-104769500D01*
X173196535Y-104769500D01*
X173196530Y-104769500D01*
X172993587Y-104809868D01*
X172993579Y-104809870D01*
X172802403Y-104889058D01*
X172716553Y-104946421D01*
X172630345Y-105004023D01*
X172551185Y-105083182D01*
X172524254Y-105097888D01*
X172498441Y-105114477D01*
X172492241Y-105115368D01*
X172489865Y-105116666D01*
X172463506Y-105119500D01*
X172341520Y-105119500D01*
X172274481Y-105099815D01*
X172253839Y-105083181D01*
X172246545Y-105075887D01*
X172131807Y-104999222D01*
X172004332Y-104946421D01*
X172004322Y-104946418D01*
X171868996Y-104919500D01*
X171868994Y-104919500D01*
X171868993Y-104919500D01*
X155368994Y-104919500D01*
X155231006Y-104919500D01*
X155231004Y-104919500D01*
X155095677Y-104946418D01*
X155095667Y-104946421D01*
X154968192Y-104999222D01*
X154853454Y-105075887D01*
X154853453Y-105075888D01*
X147306162Y-112623181D01*
X147244839Y-112656666D01*
X147218481Y-112659500D01*
X142636494Y-112659500D01*
X142569455Y-112639815D01*
X142548817Y-112623185D01*
X142469655Y-112544023D01*
X142297598Y-112429059D01*
X142106420Y-112349870D01*
X142106412Y-112349868D01*
X141903469Y-112309500D01*
X141903465Y-112309500D01*
X141696535Y-112309500D01*
X141696530Y-112309500D01*
X141493587Y-112349868D01*
X141493579Y-112349870D01*
X141302403Y-112429058D01*
X141130342Y-112544024D01*
X140984024Y-112690342D01*
X140869058Y-112862403D01*
X140789870Y-113053579D01*
X140789868Y-113053587D01*
X140749500Y-113256530D01*
X117450499Y-113256530D01*
X117410130Y-113053580D01*
X117330941Y-112862402D01*
X117215977Y-112690345D01*
X117215975Y-112690342D01*
X117069657Y-112544024D01*
X116983626Y-112486541D01*
X116897598Y-112429059D01*
X116706420Y-112349870D01*
X116706412Y-112349868D01*
X116503469Y-112309500D01*
X116503465Y-112309500D01*
X116296535Y-112309500D01*
X116296530Y-112309500D01*
X116093587Y-112349868D01*
X116093579Y-112349870D01*
X115902403Y-112429058D01*
X115902402Y-112429059D01*
X115730345Y-112544023D01*
X115651185Y-112623182D01*
X115589865Y-112656666D01*
X115563506Y-112659500D01*
X82136494Y-112659500D01*
X82069455Y-112639815D01*
X82048817Y-112623185D01*
X81969655Y-112544023D01*
X81797598Y-112429059D01*
X81606420Y-112349870D01*
X81606412Y-112349868D01*
X81403469Y-112309500D01*
X81403465Y-112309500D01*
X81196535Y-112309500D01*
X81196530Y-112309500D01*
X80993587Y-112349868D01*
X80993579Y-112349870D01*
X80802403Y-112429058D01*
X80630342Y-112544024D01*
X80484024Y-112690342D01*
X80369058Y-112862403D01*
X80289870Y-113053579D01*
X80289868Y-113053587D01*
X80249500Y-113256530D01*
X78000500Y-113256530D01*
X78000500Y-110716530D01*
X80249500Y-110716530D01*
X80249500Y-110923469D01*
X80289868Y-111126412D01*
X80289870Y-111126420D01*
X80369058Y-111317596D01*
X80484024Y-111489657D01*
X80630342Y-111635975D01*
X80630345Y-111635977D01*
X80802402Y-111750941D01*
X80993580Y-111830130D01*
X81196530Y-111870499D01*
X81196534Y-111870500D01*
X81196535Y-111870500D01*
X81403466Y-111870500D01*
X81403467Y-111870499D01*
X81606420Y-111830130D01*
X81797598Y-111750941D01*
X81969655Y-111635977D01*
X82048814Y-111556817D01*
X82110135Y-111523334D01*
X82136494Y-111520500D01*
X115563506Y-111520500D01*
X115630545Y-111540185D01*
X115651182Y-111556814D01*
X115730345Y-111635977D01*
X115902402Y-111750941D01*
X116093580Y-111830130D01*
X116296530Y-111870499D01*
X116296534Y-111870500D01*
X116296535Y-111870500D01*
X116503466Y-111870500D01*
X116503467Y-111870499D01*
X116706420Y-111830130D01*
X116897598Y-111750941D01*
X117069655Y-111635977D01*
X117215977Y-111489655D01*
X117330941Y-111317598D01*
X117410130Y-111126420D01*
X117450500Y-110923465D01*
X117450500Y-110716535D01*
X117450499Y-110716530D01*
X140749500Y-110716530D01*
X140749500Y-110923469D01*
X140789868Y-111126412D01*
X140789870Y-111126420D01*
X140869058Y-111317596D01*
X140984024Y-111489657D01*
X141130342Y-111635975D01*
X141130345Y-111635977D01*
X141302402Y-111750941D01*
X141493580Y-111830130D01*
X141696530Y-111870499D01*
X141696534Y-111870500D01*
X141696535Y-111870500D01*
X141903466Y-111870500D01*
X141903467Y-111870499D01*
X142106420Y-111830130D01*
X142297598Y-111750941D01*
X142469655Y-111635977D01*
X142615977Y-111489655D01*
X142730941Y-111317598D01*
X142810130Y-111126420D01*
X142850500Y-110923465D01*
X142850500Y-110716535D01*
X142810130Y-110513580D01*
X142730941Y-110322402D01*
X142615977Y-110150345D01*
X142615975Y-110150342D01*
X142469657Y-110004024D01*
X142383626Y-109946541D01*
X142297598Y-109889059D01*
X142106420Y-109809870D01*
X142106412Y-109809868D01*
X141903469Y-109769500D01*
X141903465Y-109769500D01*
X141696535Y-109769500D01*
X141696530Y-109769500D01*
X141493587Y-109809868D01*
X141493579Y-109809870D01*
X141302403Y-109889058D01*
X141130342Y-110004024D01*
X140984024Y-110150342D01*
X140869058Y-110322403D01*
X140789870Y-110513579D01*
X140789868Y-110513587D01*
X140749500Y-110716530D01*
X117450499Y-110716530D01*
X117410130Y-110513580D01*
X117330941Y-110322402D01*
X117215977Y-110150345D01*
X117215975Y-110150342D01*
X117069657Y-110004024D01*
X116983626Y-109946541D01*
X116897598Y-109889059D01*
X116706420Y-109809870D01*
X116706412Y-109809868D01*
X116503469Y-109769500D01*
X116503465Y-109769500D01*
X116296535Y-109769500D01*
X116296530Y-109769500D01*
X116093587Y-109809868D01*
X116093579Y-109809870D01*
X115902403Y-109889058D01*
X115902402Y-109889059D01*
X115730345Y-110004023D01*
X115651185Y-110083182D01*
X115589865Y-110116666D01*
X115563506Y-110119500D01*
X82136494Y-110119500D01*
X82069455Y-110099815D01*
X82048817Y-110083185D01*
X81969655Y-110004023D01*
X81797598Y-109889059D01*
X81606420Y-109809870D01*
X81606412Y-109809868D01*
X81403469Y-109769500D01*
X81403465Y-109769500D01*
X81196535Y-109769500D01*
X81196530Y-109769500D01*
X80993587Y-109809868D01*
X80993579Y-109809870D01*
X80802403Y-109889058D01*
X80630342Y-110004024D01*
X80484024Y-110150342D01*
X80369058Y-110322403D01*
X80289870Y-110513579D01*
X80289868Y-110513587D01*
X80249500Y-110716530D01*
X78000500Y-110716530D01*
X78000500Y-108176530D01*
X80249500Y-108176530D01*
X80249500Y-108383469D01*
X80289868Y-108586412D01*
X80289870Y-108586420D01*
X80369058Y-108777596D01*
X80484024Y-108949657D01*
X80630342Y-109095975D01*
X80630345Y-109095977D01*
X80802402Y-109210941D01*
X80993580Y-109290130D01*
X81196530Y-109330499D01*
X81196534Y-109330500D01*
X81196535Y-109330500D01*
X81403466Y-109330500D01*
X81403467Y-109330499D01*
X81606420Y-109290130D01*
X81797598Y-109210941D01*
X81969655Y-109095977D01*
X82048814Y-109016817D01*
X82110135Y-108983334D01*
X82136494Y-108980500D01*
X115563506Y-108980500D01*
X115630545Y-109000185D01*
X115651182Y-109016814D01*
X115730345Y-109095977D01*
X115902402Y-109210941D01*
X116093580Y-109290130D01*
X116296530Y-109330499D01*
X116296534Y-109330500D01*
X116296535Y-109330500D01*
X116503466Y-109330500D01*
X116503467Y-109330499D01*
X116706420Y-109290130D01*
X116897598Y-109210941D01*
X117069655Y-109095977D01*
X117215977Y-108949655D01*
X117330941Y-108777598D01*
X117410130Y-108586420D01*
X117450500Y-108383465D01*
X117450500Y-108176535D01*
X117450499Y-108176530D01*
X140749500Y-108176530D01*
X140749500Y-108383469D01*
X140789868Y-108586412D01*
X140789870Y-108586420D01*
X140869058Y-108777596D01*
X140984024Y-108949657D01*
X141130342Y-109095975D01*
X141130345Y-109095977D01*
X141302402Y-109210941D01*
X141493580Y-109290130D01*
X141696530Y-109330499D01*
X141696534Y-109330500D01*
X141696535Y-109330500D01*
X141903466Y-109330500D01*
X141903467Y-109330499D01*
X142106420Y-109290130D01*
X142297598Y-109210941D01*
X142469655Y-109095977D01*
X142615977Y-108949655D01*
X142730941Y-108777598D01*
X142810130Y-108586420D01*
X142850500Y-108383465D01*
X142850500Y-108176535D01*
X142810130Y-107973580D01*
X142730941Y-107782402D01*
X142615977Y-107610345D01*
X142615975Y-107610342D01*
X142469657Y-107464024D01*
X142383626Y-107406541D01*
X142297598Y-107349059D01*
X142106420Y-107269870D01*
X142106412Y-107269868D01*
X141903469Y-107229500D01*
X141903465Y-107229500D01*
X141696535Y-107229500D01*
X141696530Y-107229500D01*
X141493587Y-107269868D01*
X141493579Y-107269870D01*
X141302403Y-107349058D01*
X141130342Y-107464024D01*
X140984024Y-107610342D01*
X140869058Y-107782403D01*
X140789870Y-107973579D01*
X140789868Y-107973587D01*
X140749500Y-108176530D01*
X117450499Y-108176530D01*
X117410130Y-107973580D01*
X117330941Y-107782402D01*
X117215977Y-107610345D01*
X117215975Y-107610342D01*
X117069657Y-107464024D01*
X116983626Y-107406541D01*
X116897598Y-107349059D01*
X116706420Y-107269870D01*
X116706412Y-107269868D01*
X116503469Y-107229500D01*
X116503465Y-107229500D01*
X116296535Y-107229500D01*
X116296530Y-107229500D01*
X116093587Y-107269868D01*
X116093579Y-107269870D01*
X115902403Y-107349058D01*
X115902402Y-107349059D01*
X115730345Y-107464023D01*
X115651185Y-107543182D01*
X115589865Y-107576666D01*
X115563506Y-107579500D01*
X82136494Y-107579500D01*
X82069455Y-107559815D01*
X82048817Y-107543185D01*
X81969655Y-107464023D01*
X81797598Y-107349059D01*
X81606420Y-107269870D01*
X81606412Y-107269868D01*
X81403469Y-107229500D01*
X81403465Y-107229500D01*
X81196535Y-107229500D01*
X81196530Y-107229500D01*
X80993587Y-107269868D01*
X80993579Y-107269870D01*
X80802403Y-107349058D01*
X80630342Y-107464024D01*
X80484024Y-107610342D01*
X80369058Y-107782403D01*
X80289870Y-107973579D01*
X80289868Y-107973587D01*
X80249500Y-108176530D01*
X78000500Y-108176530D01*
X78000500Y-105636530D01*
X80249500Y-105636530D01*
X80249500Y-105843469D01*
X80289868Y-106046412D01*
X80289870Y-106046420D01*
X80369058Y-106237596D01*
X80484024Y-106409657D01*
X80630342Y-106555975D01*
X80630345Y-106555977D01*
X80802402Y-106670941D01*
X80993580Y-106750130D01*
X81196530Y-106790499D01*
X81196534Y-106790500D01*
X81196535Y-106790500D01*
X81403466Y-106790500D01*
X81403467Y-106790499D01*
X81606420Y-106750130D01*
X81797598Y-106670941D01*
X81969655Y-106555977D01*
X82048814Y-106476817D01*
X82110135Y-106443334D01*
X82136494Y-106440500D01*
X115563506Y-106440500D01*
X115630545Y-106460185D01*
X115651182Y-106476814D01*
X115730345Y-106555977D01*
X115902402Y-106670941D01*
X116093580Y-106750130D01*
X116296530Y-106790499D01*
X116296534Y-106790500D01*
X116296535Y-106790500D01*
X116503466Y-106790500D01*
X116503467Y-106790499D01*
X116706420Y-106750130D01*
X116897598Y-106670941D01*
X117069655Y-106555977D01*
X117215977Y-106409655D01*
X117330941Y-106237598D01*
X117410130Y-106046420D01*
X117450500Y-105843465D01*
X117450500Y-105636535D01*
X117450499Y-105636530D01*
X140749500Y-105636530D01*
X140749500Y-105843469D01*
X140789868Y-106046412D01*
X140789870Y-106046420D01*
X140869058Y-106237596D01*
X140984024Y-106409657D01*
X141130342Y-106555975D01*
X141130345Y-106555977D01*
X141302402Y-106670941D01*
X141493580Y-106750130D01*
X141696530Y-106790499D01*
X141696534Y-106790500D01*
X141696535Y-106790500D01*
X141903466Y-106790500D01*
X141903467Y-106790499D01*
X142106420Y-106750130D01*
X142297598Y-106670941D01*
X142469655Y-106555977D01*
X142615977Y-106409655D01*
X142730941Y-106237598D01*
X142810130Y-106046420D01*
X142850500Y-105843465D01*
X142850500Y-105636535D01*
X142810130Y-105433580D01*
X142730941Y-105242402D01*
X142615977Y-105070345D01*
X142615975Y-105070342D01*
X142469657Y-104924024D01*
X142383626Y-104866541D01*
X142297598Y-104809059D01*
X142106420Y-104729870D01*
X142106412Y-104729868D01*
X141903469Y-104689500D01*
X141903465Y-104689500D01*
X141696535Y-104689500D01*
X141696530Y-104689500D01*
X141493587Y-104729868D01*
X141493579Y-104729870D01*
X141302403Y-104809058D01*
X141130342Y-104924024D01*
X140984024Y-105070342D01*
X140869058Y-105242403D01*
X140789870Y-105433579D01*
X140789868Y-105433587D01*
X140749500Y-105636530D01*
X117450499Y-105636530D01*
X117410130Y-105433580D01*
X117330941Y-105242402D01*
X117215977Y-105070345D01*
X117215975Y-105070342D01*
X117069657Y-104924024D01*
X116983626Y-104866541D01*
X116897598Y-104809059D01*
X116706420Y-104729870D01*
X116706412Y-104729868D01*
X116503469Y-104689500D01*
X116503465Y-104689500D01*
X116296535Y-104689500D01*
X116296530Y-104689500D01*
X116093587Y-104729868D01*
X116093579Y-104729870D01*
X115902403Y-104809058D01*
X115902402Y-104809059D01*
X115730345Y-104924023D01*
X115651185Y-105003182D01*
X115589865Y-105036666D01*
X115563506Y-105039500D01*
X82136494Y-105039500D01*
X82069455Y-105019815D01*
X82048817Y-105003185D01*
X81969655Y-104924023D01*
X81797598Y-104809059D01*
X81606420Y-104729870D01*
X81606412Y-104729868D01*
X81403469Y-104689500D01*
X81403465Y-104689500D01*
X81196535Y-104689500D01*
X81196530Y-104689500D01*
X80993587Y-104729868D01*
X80993579Y-104729870D01*
X80802403Y-104809058D01*
X80630342Y-104924024D01*
X80484024Y-105070342D01*
X80369058Y-105242403D01*
X80289870Y-105433579D01*
X80289868Y-105433587D01*
X80249500Y-105636530D01*
X78000500Y-105636530D01*
X78000500Y-103096530D01*
X80249500Y-103096530D01*
X80249500Y-103303469D01*
X80289868Y-103506412D01*
X80289870Y-103506420D01*
X80369058Y-103697596D01*
X80484024Y-103869657D01*
X80630342Y-104015975D01*
X80630345Y-104015977D01*
X80802402Y-104130941D01*
X80993580Y-104210130D01*
X81196530Y-104250499D01*
X81196534Y-104250500D01*
X81196535Y-104250500D01*
X81403466Y-104250500D01*
X81403467Y-104250499D01*
X81606420Y-104210130D01*
X81797598Y-104130941D01*
X81969655Y-104015977D01*
X82048814Y-103936817D01*
X82110135Y-103903334D01*
X82136494Y-103900500D01*
X115563506Y-103900500D01*
X115630545Y-103920185D01*
X115651182Y-103936814D01*
X115730345Y-104015977D01*
X115902402Y-104130941D01*
X116093580Y-104210130D01*
X116296530Y-104250499D01*
X116296534Y-104250500D01*
X116296535Y-104250500D01*
X116503466Y-104250500D01*
X116503467Y-104250499D01*
X116706420Y-104210130D01*
X116897598Y-104130941D01*
X117069655Y-104015977D01*
X117215977Y-103869655D01*
X117330941Y-103697598D01*
X117410130Y-103506420D01*
X117450500Y-103303465D01*
X117450500Y-103096535D01*
X117450499Y-103096530D01*
X140749500Y-103096530D01*
X140749500Y-103303469D01*
X140789868Y-103506412D01*
X140789870Y-103506420D01*
X140869058Y-103697596D01*
X140984024Y-103869657D01*
X141130342Y-104015975D01*
X141130345Y-104015977D01*
X141302402Y-104130941D01*
X141493580Y-104210130D01*
X141696530Y-104250499D01*
X141696534Y-104250500D01*
X141696535Y-104250500D01*
X141903466Y-104250500D01*
X141903467Y-104250499D01*
X142106420Y-104210130D01*
X142297598Y-104130941D01*
X142469655Y-104015977D01*
X142548814Y-103936817D01*
X142610135Y-103903334D01*
X142636494Y-103900500D01*
X172385035Y-103900500D01*
X172452074Y-103920185D01*
X172480891Y-103945839D01*
X172484024Y-103949657D01*
X172630342Y-104095975D01*
X172630345Y-104095977D01*
X172802402Y-104210941D01*
X172993580Y-104290130D01*
X173196530Y-104330499D01*
X173196534Y-104330500D01*
X173196535Y-104330500D01*
X173403466Y-104330500D01*
X173403467Y-104330499D01*
X173606420Y-104290130D01*
X173797598Y-104210941D01*
X173969655Y-104095977D01*
X174115977Y-103949655D01*
X174230941Y-103777598D01*
X174310130Y-103586420D01*
X174350500Y-103383465D01*
X174350500Y-103176535D01*
X174310130Y-102973580D01*
X174230941Y-102782402D01*
X174115977Y-102610345D01*
X174115975Y-102610342D01*
X173969657Y-102464024D01*
X173849927Y-102384024D01*
X173797598Y-102349059D01*
X173606420Y-102269870D01*
X173606412Y-102269868D01*
X173403469Y-102229500D01*
X173403465Y-102229500D01*
X173196535Y-102229500D01*
X173196530Y-102229500D01*
X172993587Y-102269868D01*
X172993579Y-102269870D01*
X172802403Y-102349058D01*
X172630342Y-102464024D01*
X172625635Y-102467888D01*
X172624685Y-102466730D01*
X172569863Y-102496666D01*
X172543505Y-102499500D01*
X142636494Y-102499500D01*
X142569455Y-102479815D01*
X142548817Y-102463185D01*
X142469655Y-102384023D01*
X142297598Y-102269059D01*
X142106420Y-102189870D01*
X142106412Y-102189868D01*
X141903469Y-102149500D01*
X141903465Y-102149500D01*
X141696535Y-102149500D01*
X141696530Y-102149500D01*
X141493587Y-102189868D01*
X141493579Y-102189870D01*
X141302403Y-102269058D01*
X141130342Y-102384024D01*
X140984024Y-102530342D01*
X140869058Y-102702403D01*
X140789870Y-102893579D01*
X140789868Y-102893587D01*
X140749500Y-103096530D01*
X117450499Y-103096530D01*
X117410130Y-102893580D01*
X117330941Y-102702402D01*
X117215977Y-102530345D01*
X117215975Y-102530342D01*
X117069657Y-102384024D01*
X116983626Y-102326541D01*
X116897598Y-102269059D01*
X116706420Y-102189870D01*
X116706412Y-102189868D01*
X116503469Y-102149500D01*
X116503465Y-102149500D01*
X116296535Y-102149500D01*
X116296530Y-102149500D01*
X116093587Y-102189868D01*
X116093579Y-102189870D01*
X115902403Y-102269058D01*
X115902402Y-102269059D01*
X115730345Y-102384023D01*
X115651185Y-102463182D01*
X115589865Y-102496666D01*
X115563506Y-102499500D01*
X82136494Y-102499500D01*
X82069455Y-102479815D01*
X82048817Y-102463185D01*
X81969655Y-102384023D01*
X81797598Y-102269059D01*
X81606420Y-102189870D01*
X81606412Y-102189868D01*
X81403469Y-102149500D01*
X81403465Y-102149500D01*
X81196535Y-102149500D01*
X81196530Y-102149500D01*
X80993587Y-102189868D01*
X80993579Y-102189870D01*
X80802403Y-102269058D01*
X80630342Y-102384024D01*
X80484024Y-102530342D01*
X80369058Y-102702403D01*
X80289870Y-102893579D01*
X80289868Y-102893587D01*
X80249500Y-103096530D01*
X78000500Y-103096530D01*
X78000500Y-100556530D01*
X80249500Y-100556530D01*
X80249500Y-100763469D01*
X80289868Y-100966412D01*
X80289870Y-100966420D01*
X80369058Y-101157596D01*
X80484024Y-101329657D01*
X80630342Y-101475975D01*
X80630345Y-101475977D01*
X80802402Y-101590941D01*
X80993580Y-101670130D01*
X81196530Y-101710499D01*
X81196534Y-101710500D01*
X81196535Y-101710500D01*
X81403466Y-101710500D01*
X81403467Y-101710499D01*
X81606420Y-101670130D01*
X81797598Y-101590941D01*
X81969655Y-101475977D01*
X82048814Y-101396817D01*
X82110135Y-101363334D01*
X82136494Y-101360500D01*
X115563506Y-101360500D01*
X115630545Y-101380185D01*
X115651182Y-101396814D01*
X115730345Y-101475977D01*
X115902402Y-101590941D01*
X116093580Y-101670130D01*
X116296530Y-101710499D01*
X116296534Y-101710500D01*
X116296535Y-101710500D01*
X116503466Y-101710500D01*
X116503467Y-101710499D01*
X116706420Y-101670130D01*
X116897598Y-101590941D01*
X117069655Y-101475977D01*
X117215977Y-101329655D01*
X117330941Y-101157598D01*
X117410130Y-100966420D01*
X117450500Y-100763465D01*
X117450500Y-100556535D01*
X117450499Y-100556530D01*
X140749500Y-100556530D01*
X140749500Y-100763469D01*
X140789868Y-100966412D01*
X140789870Y-100966420D01*
X140869058Y-101157596D01*
X140984024Y-101329657D01*
X141130342Y-101475975D01*
X141130345Y-101475977D01*
X141302402Y-101590941D01*
X141493580Y-101670130D01*
X141696530Y-101710499D01*
X141696534Y-101710500D01*
X141696535Y-101710500D01*
X141903466Y-101710500D01*
X141903467Y-101710499D01*
X142106420Y-101670130D01*
X142297598Y-101590941D01*
X142469655Y-101475977D01*
X142548814Y-101396817D01*
X142610135Y-101363334D01*
X142636494Y-101360500D01*
X172385035Y-101360500D01*
X172452074Y-101380185D01*
X172480891Y-101405839D01*
X172484024Y-101409657D01*
X172630342Y-101555975D01*
X172630345Y-101555977D01*
X172802402Y-101670941D01*
X172993580Y-101750130D01*
X173196530Y-101790499D01*
X173196534Y-101790500D01*
X173196535Y-101790500D01*
X173403466Y-101790500D01*
X173403467Y-101790499D01*
X173606420Y-101750130D01*
X173797598Y-101670941D01*
X173969655Y-101555977D01*
X174115977Y-101409655D01*
X174230941Y-101237598D01*
X174310130Y-101046420D01*
X174350500Y-100843465D01*
X174350500Y-100636535D01*
X174310130Y-100433580D01*
X174230941Y-100242402D01*
X174115977Y-100070345D01*
X174115975Y-100070342D01*
X173969657Y-99924024D01*
X173849927Y-99844024D01*
X173797598Y-99809059D01*
X173606420Y-99729870D01*
X173606412Y-99729868D01*
X173403469Y-99689500D01*
X173403465Y-99689500D01*
X173196535Y-99689500D01*
X173196530Y-99689500D01*
X172993587Y-99729868D01*
X172993579Y-99729870D01*
X172802403Y-99809058D01*
X172630342Y-99924024D01*
X172625635Y-99927888D01*
X172624685Y-99926730D01*
X172569863Y-99956666D01*
X172543505Y-99959500D01*
X142636494Y-99959500D01*
X142569455Y-99939815D01*
X142548817Y-99923185D01*
X142469655Y-99844023D01*
X142297598Y-99729059D01*
X142106420Y-99649870D01*
X142106412Y-99649868D01*
X141903469Y-99609500D01*
X141903465Y-99609500D01*
X141696535Y-99609500D01*
X141696530Y-99609500D01*
X141493587Y-99649868D01*
X141493579Y-99649870D01*
X141302403Y-99729058D01*
X141130342Y-99844024D01*
X140984024Y-99990342D01*
X140869058Y-100162403D01*
X140789870Y-100353579D01*
X140789868Y-100353587D01*
X140749500Y-100556530D01*
X117450499Y-100556530D01*
X117410130Y-100353580D01*
X117330941Y-100162402D01*
X117215977Y-99990345D01*
X117215975Y-99990342D01*
X117069657Y-99844024D01*
X116983626Y-99786541D01*
X116897598Y-99729059D01*
X116706420Y-99649870D01*
X116706412Y-99649868D01*
X116503469Y-99609500D01*
X116503465Y-99609500D01*
X116296535Y-99609500D01*
X116296530Y-99609500D01*
X116093587Y-99649868D01*
X116093579Y-99649870D01*
X115902403Y-99729058D01*
X115902402Y-99729059D01*
X115730345Y-99844023D01*
X115651185Y-99923182D01*
X115589865Y-99956666D01*
X115563506Y-99959500D01*
X82136494Y-99959500D01*
X82069455Y-99939815D01*
X82048817Y-99923185D01*
X81969655Y-99844023D01*
X81797598Y-99729059D01*
X81606420Y-99649870D01*
X81606412Y-99649868D01*
X81403469Y-99609500D01*
X81403465Y-99609500D01*
X81196535Y-99609500D01*
X81196530Y-99609500D01*
X80993587Y-99649868D01*
X80993579Y-99649870D01*
X80802403Y-99729058D01*
X80630342Y-99844024D01*
X80484024Y-99990342D01*
X80369058Y-100162403D01*
X80289870Y-100353579D01*
X80289868Y-100353587D01*
X80249500Y-100556530D01*
X78000500Y-100556530D01*
X78000500Y-97250247D01*
X80249500Y-97250247D01*
X80249500Y-98989752D01*
X80261131Y-99048229D01*
X80261132Y-99048230D01*
X80305447Y-99114552D01*
X80371769Y-99158867D01*
X80371770Y-99158868D01*
X80430247Y-99170499D01*
X80430250Y-99170500D01*
X80430252Y-99170500D01*
X82169750Y-99170500D01*
X82169751Y-99170499D01*
X82184568Y-99167552D01*
X82228229Y-99158868D01*
X82228229Y-99158867D01*
X82228231Y-99158867D01*
X82294552Y-99114552D01*
X82338867Y-99048231D01*
X82338867Y-99048229D01*
X82338868Y-99048229D01*
X82350499Y-98989752D01*
X82350500Y-98989750D01*
X82350500Y-98944500D01*
X82370185Y-98877461D01*
X82422989Y-98831706D01*
X82474500Y-98820500D01*
X115563506Y-98820500D01*
X115630545Y-98840185D01*
X115651182Y-98856814D01*
X115730345Y-98935977D01*
X115902402Y-99050941D01*
X116093580Y-99130130D01*
X116238052Y-99158867D01*
X116296530Y-99170499D01*
X116296534Y-99170500D01*
X116296535Y-99170500D01*
X116503466Y-99170500D01*
X116503467Y-99170499D01*
X116706420Y-99130130D01*
X116897598Y-99050941D01*
X117069655Y-98935977D01*
X117215977Y-98789655D01*
X117330941Y-98617598D01*
X117410130Y-98426420D01*
X117450500Y-98223465D01*
X117450500Y-98016535D01*
X117450499Y-98016530D01*
X140749500Y-98016530D01*
X140749500Y-98223469D01*
X140789868Y-98426412D01*
X140789870Y-98426420D01*
X140869058Y-98617596D01*
X140984024Y-98789657D01*
X141130342Y-98935975D01*
X141130345Y-98935977D01*
X141302402Y-99050941D01*
X141493580Y-99130130D01*
X141638052Y-99158867D01*
X141696530Y-99170499D01*
X141696534Y-99170500D01*
X141696535Y-99170500D01*
X141903466Y-99170500D01*
X141903467Y-99170499D01*
X142106420Y-99130130D01*
X142297598Y-99050941D01*
X142469655Y-98935977D01*
X142548814Y-98856817D01*
X142610135Y-98823334D01*
X142636494Y-98820500D01*
X172385035Y-98820500D01*
X172452074Y-98840185D01*
X172480891Y-98865839D01*
X172484024Y-98869657D01*
X172630342Y-99015975D01*
X172630345Y-99015977D01*
X172802402Y-99130941D01*
X172993580Y-99210130D01*
X173196530Y-99250499D01*
X173196534Y-99250500D01*
X173196535Y-99250500D01*
X173403466Y-99250500D01*
X173403467Y-99250499D01*
X173606420Y-99210130D01*
X173797598Y-99130941D01*
X173969655Y-99015977D01*
X174115977Y-98869655D01*
X174230941Y-98697598D01*
X174310130Y-98506420D01*
X174350500Y-98303465D01*
X174350500Y-98096535D01*
X174310130Y-97893580D01*
X174230941Y-97702402D01*
X174115977Y-97530345D01*
X174115975Y-97530342D01*
X173969657Y-97384024D01*
X173849927Y-97304024D01*
X173797598Y-97269059D01*
X173606420Y-97189870D01*
X173606412Y-97189868D01*
X173403469Y-97149500D01*
X173403465Y-97149500D01*
X173196535Y-97149500D01*
X173196530Y-97149500D01*
X172993587Y-97189868D01*
X172993579Y-97189870D01*
X172802403Y-97269058D01*
X172630342Y-97384024D01*
X172625635Y-97387888D01*
X172624685Y-97386730D01*
X172569863Y-97416666D01*
X172543505Y-97419500D01*
X142636494Y-97419500D01*
X142569455Y-97399815D01*
X142548817Y-97383185D01*
X142469655Y-97304023D01*
X142297598Y-97189059D01*
X142106420Y-97109870D01*
X142106412Y-97109868D01*
X141903469Y-97069500D01*
X141903465Y-97069500D01*
X141696535Y-97069500D01*
X141696530Y-97069500D01*
X141493587Y-97109868D01*
X141493579Y-97109870D01*
X141302403Y-97189058D01*
X141130342Y-97304024D01*
X140984024Y-97450342D01*
X140869058Y-97622403D01*
X140789870Y-97813579D01*
X140789868Y-97813587D01*
X140749500Y-98016530D01*
X117450499Y-98016530D01*
X117410130Y-97813580D01*
X117330941Y-97622402D01*
X117215977Y-97450345D01*
X117215975Y-97450342D01*
X117069657Y-97304024D01*
X116901655Y-97191770D01*
X116897598Y-97189059D01*
X116706420Y-97109870D01*
X116706412Y-97109868D01*
X116503469Y-97069500D01*
X116503465Y-97069500D01*
X116296535Y-97069500D01*
X116296530Y-97069500D01*
X116093587Y-97109868D01*
X116093579Y-97109870D01*
X115902403Y-97189058D01*
X115782674Y-97269058D01*
X115730345Y-97304023D01*
X115651185Y-97383182D01*
X115589865Y-97416666D01*
X115563506Y-97419500D01*
X82474500Y-97419500D01*
X82407461Y-97399815D01*
X82361706Y-97347011D01*
X82350500Y-97295500D01*
X82350500Y-97250249D01*
X82350499Y-97250247D01*
X82338868Y-97191770D01*
X82338867Y-97191769D01*
X82294552Y-97125447D01*
X82228230Y-97081132D01*
X82228229Y-97081131D01*
X82169752Y-97069500D01*
X82169748Y-97069500D01*
X80430252Y-97069500D01*
X80430247Y-97069500D01*
X80371770Y-97081131D01*
X80371769Y-97081132D01*
X80305447Y-97125447D01*
X80261132Y-97191769D01*
X80261131Y-97191770D01*
X80249500Y-97250247D01*
X78000500Y-97250247D01*
X78000500Y-95476530D01*
X115349500Y-95476530D01*
X115349500Y-95683469D01*
X115389868Y-95886412D01*
X115389870Y-95886420D01*
X115469058Y-96077596D01*
X115584024Y-96249657D01*
X115730342Y-96395975D01*
X115730345Y-96395977D01*
X115902402Y-96510941D01*
X116093580Y-96590130D01*
X116296530Y-96630499D01*
X116296534Y-96630500D01*
X116296535Y-96630500D01*
X116503466Y-96630500D01*
X116503467Y-96630499D01*
X116706420Y-96590130D01*
X116897598Y-96510941D01*
X117069655Y-96395977D01*
X117215977Y-96249655D01*
X117330941Y-96077598D01*
X117410130Y-95886420D01*
X117450500Y-95683465D01*
X117450500Y-95476535D01*
X117450499Y-95476530D01*
X140749500Y-95476530D01*
X140749500Y-95683469D01*
X140789868Y-95886412D01*
X140789870Y-95886420D01*
X140869058Y-96077596D01*
X140984024Y-96249657D01*
X141130342Y-96395975D01*
X141130345Y-96395977D01*
X141302402Y-96510941D01*
X141493580Y-96590130D01*
X141696530Y-96630499D01*
X141696534Y-96630500D01*
X141696535Y-96630500D01*
X141903466Y-96630500D01*
X141903467Y-96630499D01*
X142106420Y-96590130D01*
X142297598Y-96510941D01*
X142469655Y-96395977D01*
X142548814Y-96316817D01*
X142610135Y-96283334D01*
X142636494Y-96280500D01*
X172385035Y-96280500D01*
X172452074Y-96300185D01*
X172480891Y-96325839D01*
X172484024Y-96329657D01*
X172630342Y-96475975D01*
X172630345Y-96475977D01*
X172802402Y-96590941D01*
X172993580Y-96670130D01*
X173196530Y-96710499D01*
X173196534Y-96710500D01*
X173196535Y-96710500D01*
X173403466Y-96710500D01*
X173403467Y-96710499D01*
X173606420Y-96670130D01*
X173797598Y-96590941D01*
X173969655Y-96475977D01*
X174115977Y-96329655D01*
X174230941Y-96157598D01*
X174310130Y-95966420D01*
X174350500Y-95763465D01*
X174350500Y-95556535D01*
X174310130Y-95353580D01*
X174230941Y-95162402D01*
X174115977Y-94990345D01*
X174115975Y-94990342D01*
X173969657Y-94844024D01*
X173849927Y-94764024D01*
X173797598Y-94729059D01*
X173606420Y-94649870D01*
X173606412Y-94649868D01*
X173403469Y-94609500D01*
X173403465Y-94609500D01*
X173196535Y-94609500D01*
X173196530Y-94609500D01*
X172993587Y-94649868D01*
X172993579Y-94649870D01*
X172802403Y-94729058D01*
X172630342Y-94844024D01*
X172625635Y-94847888D01*
X172624685Y-94846730D01*
X172569863Y-94876666D01*
X172543505Y-94879500D01*
X142636494Y-94879500D01*
X142569455Y-94859815D01*
X142548817Y-94843185D01*
X142469655Y-94764023D01*
X142297598Y-94649059D01*
X142106420Y-94569870D01*
X142106412Y-94569868D01*
X141903469Y-94529500D01*
X141903465Y-94529500D01*
X141696535Y-94529500D01*
X141696530Y-94529500D01*
X141493587Y-94569868D01*
X141493579Y-94569870D01*
X141302403Y-94649058D01*
X141130342Y-94764024D01*
X140984024Y-94910342D01*
X140869058Y-95082403D01*
X140789870Y-95273579D01*
X140789868Y-95273587D01*
X140749500Y-95476530D01*
X117450499Y-95476530D01*
X117410130Y-95273580D01*
X117330941Y-95082402D01*
X117215977Y-94910345D01*
X117215975Y-94910342D01*
X117069657Y-94764024D01*
X116983626Y-94706541D01*
X116897598Y-94649059D01*
X116706420Y-94569870D01*
X116706412Y-94569868D01*
X116503469Y-94529500D01*
X116503465Y-94529500D01*
X116296535Y-94529500D01*
X116296530Y-94529500D01*
X116093587Y-94569868D01*
X116093579Y-94569870D01*
X115902403Y-94649058D01*
X115730342Y-94764024D01*
X115584024Y-94910342D01*
X115469058Y-95082403D01*
X115389870Y-95273579D01*
X115389868Y-95273587D01*
X115349500Y-95476530D01*
X78000500Y-95476530D01*
X78000500Y-92936530D01*
X115349500Y-92936530D01*
X115349500Y-93143469D01*
X115389868Y-93346412D01*
X115389870Y-93346420D01*
X115469058Y-93537596D01*
X115584024Y-93709657D01*
X115730342Y-93855975D01*
X115730345Y-93855977D01*
X115902402Y-93970941D01*
X116093580Y-94050130D01*
X116296530Y-94090499D01*
X116296534Y-94090500D01*
X116296535Y-94090500D01*
X116503466Y-94090500D01*
X116503467Y-94090499D01*
X116706420Y-94050130D01*
X116897598Y-93970941D01*
X117069655Y-93855977D01*
X117215977Y-93709655D01*
X117330941Y-93537598D01*
X117410130Y-93346420D01*
X117450500Y-93143465D01*
X117450500Y-92936535D01*
X117450499Y-92936530D01*
X140749500Y-92936530D01*
X140749500Y-93143469D01*
X140789868Y-93346412D01*
X140789870Y-93346420D01*
X140869058Y-93537596D01*
X140984024Y-93709657D01*
X141130342Y-93855975D01*
X141130345Y-93855977D01*
X141302402Y-93970941D01*
X141493580Y-94050130D01*
X141696530Y-94090499D01*
X141696534Y-94090500D01*
X141696535Y-94090500D01*
X141903466Y-94090500D01*
X141903467Y-94090499D01*
X142106420Y-94050130D01*
X142297598Y-93970941D01*
X142469655Y-93855977D01*
X142548814Y-93776817D01*
X142610135Y-93743334D01*
X142636494Y-93740500D01*
X172125500Y-93740500D01*
X172192539Y-93760185D01*
X172238294Y-93812989D01*
X172249500Y-93864500D01*
X172249500Y-93989752D01*
X172261131Y-94048229D01*
X172261132Y-94048230D01*
X172305447Y-94114552D01*
X172371769Y-94158867D01*
X172371770Y-94158868D01*
X172430247Y-94170499D01*
X172430250Y-94170500D01*
X172430252Y-94170500D01*
X174169750Y-94170500D01*
X174169751Y-94170499D01*
X174184568Y-94167552D01*
X174228229Y-94158868D01*
X174228229Y-94158867D01*
X174228231Y-94158867D01*
X174294552Y-94114552D01*
X174338867Y-94048231D01*
X174338867Y-94048229D01*
X174338868Y-94048229D01*
X174350499Y-93989752D01*
X174350500Y-93989750D01*
X174350500Y-92250249D01*
X174350499Y-92250247D01*
X174338868Y-92191770D01*
X174338867Y-92191769D01*
X174294552Y-92125447D01*
X174228230Y-92081132D01*
X174228229Y-92081131D01*
X174169752Y-92069500D01*
X174169748Y-92069500D01*
X172430252Y-92069500D01*
X172430247Y-92069500D01*
X172371770Y-92081131D01*
X172371769Y-92081132D01*
X172305447Y-92125447D01*
X172261132Y-92191769D01*
X172261131Y-92191770D01*
X172251600Y-92239691D01*
X172219215Y-92301602D01*
X172158500Y-92336176D01*
X172129983Y-92339500D01*
X142636494Y-92339500D01*
X142569455Y-92319815D01*
X142548817Y-92303185D01*
X142469655Y-92224023D01*
X142297598Y-92109059D01*
X142230174Y-92081131D01*
X142106420Y-92029870D01*
X142106412Y-92029868D01*
X141903469Y-91989500D01*
X141903465Y-91989500D01*
X141696535Y-91989500D01*
X141696530Y-91989500D01*
X141493587Y-92029868D01*
X141493579Y-92029870D01*
X141302403Y-92109058D01*
X141130342Y-92224024D01*
X140984024Y-92370342D01*
X140869058Y-92542403D01*
X140789870Y-92733579D01*
X140789868Y-92733587D01*
X140749500Y-92936530D01*
X117450499Y-92936530D01*
X117410130Y-92733580D01*
X117330941Y-92542402D01*
X117215977Y-92370345D01*
X117215975Y-92370342D01*
X117069657Y-92224024D01*
X116922126Y-92125448D01*
X116897598Y-92109059D01*
X116830174Y-92081131D01*
X116706420Y-92029870D01*
X116706412Y-92029868D01*
X116503469Y-91989500D01*
X116503465Y-91989500D01*
X116296535Y-91989500D01*
X116296530Y-91989500D01*
X116093587Y-92029868D01*
X116093579Y-92029870D01*
X115902403Y-92109058D01*
X115730342Y-92224024D01*
X115584024Y-92370342D01*
X115469058Y-92542403D01*
X115389870Y-92733579D01*
X115389868Y-92733587D01*
X115349500Y-92936530D01*
X78000500Y-92936530D01*
X78000500Y-89630247D01*
X115349500Y-89630247D01*
X115349500Y-91369752D01*
X115361131Y-91428229D01*
X115361132Y-91428230D01*
X115405447Y-91494552D01*
X115471769Y-91538867D01*
X115471770Y-91538868D01*
X115530247Y-91550499D01*
X115530250Y-91550500D01*
X115530252Y-91550500D01*
X117269750Y-91550500D01*
X117269751Y-91550499D01*
X117284568Y-91547552D01*
X117328229Y-91538868D01*
X117328229Y-91538867D01*
X117328231Y-91538867D01*
X117394552Y-91494552D01*
X117438867Y-91428231D01*
X117438867Y-91428229D01*
X117438868Y-91428229D01*
X117450499Y-91369752D01*
X117450500Y-91369750D01*
X117450500Y-90396530D01*
X140749500Y-90396530D01*
X140749500Y-90603469D01*
X140789868Y-90806412D01*
X140789870Y-90806420D01*
X140869058Y-90997596D01*
X140984024Y-91169657D01*
X141130342Y-91315975D01*
X141130345Y-91315977D01*
X141302402Y-91430941D01*
X141493580Y-91510130D01*
X141638052Y-91538867D01*
X141696530Y-91550499D01*
X141696534Y-91550500D01*
X141696535Y-91550500D01*
X141903466Y-91550500D01*
X141903467Y-91550499D01*
X142106420Y-91510130D01*
X142297598Y-91430941D01*
X142469655Y-91315977D01*
X142615977Y-91169655D01*
X142730941Y-90997598D01*
X142810130Y-90806420D01*
X142850500Y-90603465D01*
X142850500Y-90396535D01*
X142810130Y-90193580D01*
X142730941Y-90002402D01*
X142615977Y-89830345D01*
X142615975Y-89830342D01*
X142536819Y-89751186D01*
X142503334Y-89689863D01*
X142500500Y-89663505D01*
X142500500Y-73070247D01*
X147949500Y-73070247D01*
X147949500Y-74809752D01*
X147961131Y-74868229D01*
X147961132Y-74868230D01*
X148005447Y-74934552D01*
X148071769Y-74978867D01*
X148071770Y-74978868D01*
X148130247Y-74990499D01*
X148130250Y-74990500D01*
X148130252Y-74990500D01*
X149869750Y-74990500D01*
X149869751Y-74990499D01*
X149884568Y-74987552D01*
X149928229Y-74978868D01*
X149928229Y-74978867D01*
X149928231Y-74978867D01*
X149994552Y-74934552D01*
X150038867Y-74868231D01*
X150038867Y-74868229D01*
X150038868Y-74868229D01*
X150050499Y-74809752D01*
X150050500Y-74809750D01*
X150050500Y-73070249D01*
X150050499Y-73070247D01*
X150038868Y-73011770D01*
X150038867Y-73011769D01*
X149994552Y-72945447D01*
X149928230Y-72901132D01*
X149928229Y-72901131D01*
X149869752Y-72889500D01*
X149869748Y-72889500D01*
X148130252Y-72889500D01*
X148130247Y-72889500D01*
X148071770Y-72901131D01*
X148071769Y-72901132D01*
X148005447Y-72945447D01*
X147961132Y-73011769D01*
X147961131Y-73011770D01*
X147949500Y-73070247D01*
X142500500Y-73070247D01*
X142500500Y-71296530D01*
X147949500Y-71296530D01*
X147949500Y-71503469D01*
X147989868Y-71706412D01*
X147989870Y-71706420D01*
X148069058Y-71897596D01*
X148184024Y-72069657D01*
X148330342Y-72215975D01*
X148330345Y-72215977D01*
X148502402Y-72330941D01*
X148693580Y-72410130D01*
X148896530Y-72450499D01*
X148896534Y-72450500D01*
X148896535Y-72450500D01*
X149103466Y-72450500D01*
X149103467Y-72450499D01*
X149306420Y-72410130D01*
X149497598Y-72330941D01*
X149669655Y-72215977D01*
X149815977Y-72069655D01*
X149930941Y-71897598D01*
X150010130Y-71706420D01*
X150050500Y-71503465D01*
X150050500Y-71296535D01*
X150010130Y-71093580D01*
X149930941Y-70902402D01*
X149815977Y-70730345D01*
X149815975Y-70730342D01*
X149669657Y-70584024D01*
X149583626Y-70526541D01*
X149497598Y-70469059D01*
X149306420Y-70389870D01*
X149306412Y-70389868D01*
X149103469Y-70349500D01*
X149103465Y-70349500D01*
X148896535Y-70349500D01*
X148896530Y-70349500D01*
X148693587Y-70389868D01*
X148693579Y-70389870D01*
X148502403Y-70469058D01*
X148330342Y-70584024D01*
X148184024Y-70730342D01*
X148069058Y-70902403D01*
X147989870Y-71093579D01*
X147989868Y-71093587D01*
X147949500Y-71296530D01*
X142500500Y-71296530D01*
X142500500Y-68756530D01*
X147949500Y-68756530D01*
X147949500Y-68963469D01*
X147989868Y-69166412D01*
X147989870Y-69166420D01*
X148069059Y-69357598D01*
X148126541Y-69443626D01*
X148184024Y-69529657D01*
X148330342Y-69675975D01*
X148330345Y-69675977D01*
X148502402Y-69790941D01*
X148693580Y-69870130D01*
X148896530Y-69910499D01*
X148896534Y-69910500D01*
X148896535Y-69910500D01*
X149103466Y-69910500D01*
X149103467Y-69910499D01*
X149306420Y-69870130D01*
X149497598Y-69790941D01*
X149669655Y-69675977D01*
X149815977Y-69529655D01*
X149930941Y-69357598D01*
X150010130Y-69166420D01*
X150050500Y-68963465D01*
X150050500Y-68756535D01*
X150010130Y-68553580D01*
X149930941Y-68362402D01*
X149815977Y-68190345D01*
X149815975Y-68190342D01*
X149669657Y-68044024D01*
X149576504Y-67981782D01*
X149497598Y-67929059D01*
X149306420Y-67849870D01*
X149306412Y-67849868D01*
X149103469Y-67809500D01*
X149103465Y-67809500D01*
X148896535Y-67809500D01*
X148896530Y-67809500D01*
X148693587Y-67849868D01*
X148693579Y-67849870D01*
X148502403Y-67929058D01*
X148330342Y-68044024D01*
X148184024Y-68190342D01*
X148069058Y-68362403D01*
X147989870Y-68553579D01*
X147989868Y-68553587D01*
X147949500Y-68756530D01*
X142500500Y-68756530D01*
X142500500Y-68541518D01*
X142520185Y-68474479D01*
X142536819Y-68453837D01*
X143933837Y-67056819D01*
X143995160Y-67023334D01*
X144021518Y-67020500D01*
X148163506Y-67020500D01*
X148230545Y-67040185D01*
X148251182Y-67056814D01*
X148330345Y-67135977D01*
X148502402Y-67250941D01*
X148693580Y-67330130D01*
X148896530Y-67370499D01*
X148896534Y-67370500D01*
X148896535Y-67370500D01*
X149103466Y-67370500D01*
X149103467Y-67370499D01*
X149306420Y-67330130D01*
X149497598Y-67250941D01*
X149669655Y-67135977D01*
X149815977Y-66989655D01*
X149930941Y-66817598D01*
X150010130Y-66626420D01*
X150050500Y-66423465D01*
X150050500Y-66216535D01*
X150010130Y-66013580D01*
X149930941Y-65822402D01*
X149815977Y-65650345D01*
X149815975Y-65650342D01*
X149669657Y-65504024D01*
X149583626Y-65446541D01*
X149497598Y-65389059D01*
X149306420Y-65309870D01*
X149306412Y-65309868D01*
X149103469Y-65269500D01*
X149103465Y-65269500D01*
X148896535Y-65269500D01*
X148896530Y-65269500D01*
X148693587Y-65309868D01*
X148693579Y-65309870D01*
X148502403Y-65389058D01*
X148392634Y-65462403D01*
X148330345Y-65504023D01*
X148251185Y-65583182D01*
X148189865Y-65616666D01*
X148163506Y-65619500D01*
X143611003Y-65619500D01*
X143502590Y-65641065D01*
X143502589Y-65641065D01*
X143489131Y-65643742D01*
X143475673Y-65646419D01*
X143475671Y-65646420D01*
X143422866Y-65668292D01*
X143422864Y-65668293D01*
X143422863Y-65668292D01*
X143348191Y-65699223D01*
X143285539Y-65741087D01*
X143285538Y-65741088D01*
X143233454Y-65775888D01*
X143233453Y-65775889D01*
X141255888Y-67753453D01*
X141255885Y-67753456D01*
X141191466Y-67849866D01*
X141191467Y-67849867D01*
X141179224Y-67868190D01*
X141126420Y-67995671D01*
X141126418Y-67995677D01*
X141099500Y-68131004D01*
X141099500Y-89663505D01*
X141079815Y-89730544D01*
X141063181Y-89751186D01*
X140984025Y-89830341D01*
X140984024Y-89830342D01*
X140869058Y-90002403D01*
X140789870Y-90193579D01*
X140789868Y-90193587D01*
X140749500Y-90396530D01*
X117450500Y-90396530D01*
X117450500Y-89630249D01*
X117450499Y-89630247D01*
X117438868Y-89571770D01*
X117438867Y-89571769D01*
X117394552Y-89505447D01*
X117328230Y-89461132D01*
X117328229Y-89461131D01*
X117269752Y-89449500D01*
X117269748Y-89449500D01*
X115530252Y-89449500D01*
X115530247Y-89449500D01*
X115471770Y-89461131D01*
X115471769Y-89461132D01*
X115405447Y-89505447D01*
X115361132Y-89571769D01*
X115361131Y-89571770D01*
X115349500Y-89630247D01*
X78000500Y-89630247D01*
X78000500Y-68250000D01*
X91672769Y-68250000D01*
X92566988Y-68250000D01*
X92534075Y-68307007D01*
X92500000Y-68434174D01*
X92500000Y-68565826D01*
X92534075Y-68692993D01*
X92566988Y-68750000D01*
X91672769Y-68750000D01*
X91683242Y-68816126D01*
X91683242Y-68816129D01*
X91748904Y-69018217D01*
X91845379Y-69207557D01*
X91970272Y-69379459D01*
X91970276Y-69379464D01*
X92120535Y-69529723D01*
X92120540Y-69529727D01*
X92292442Y-69654620D01*
X92481782Y-69751095D01*
X92683871Y-69816757D01*
X92750000Y-69827231D01*
X92750000Y-68933012D01*
X92807007Y-68965925D01*
X92934174Y-69000000D01*
X93065826Y-69000000D01*
X93192993Y-68965925D01*
X93250000Y-68933012D01*
X93250000Y-69827230D01*
X93316126Y-69816757D01*
X93316129Y-69816757D01*
X93518217Y-69751095D01*
X93707557Y-69654620D01*
X93879459Y-69529727D01*
X93879464Y-69529723D01*
X94029723Y-69379464D01*
X94029727Y-69379459D01*
X94154620Y-69207557D01*
X94251095Y-69018217D01*
X94316757Y-68816129D01*
X94316757Y-68816126D01*
X94327231Y-68750000D01*
X93433012Y-68750000D01*
X93465925Y-68692993D01*
X93500000Y-68565826D01*
X93500000Y-68434174D01*
X93465925Y-68307007D01*
X93433012Y-68250000D01*
X94327231Y-68250000D01*
X94316757Y-68183873D01*
X94316757Y-68183870D01*
X94251095Y-67981782D01*
X94154620Y-67792442D01*
X94029727Y-67620540D01*
X94029723Y-67620535D01*
X93879464Y-67470276D01*
X93879459Y-67470272D01*
X93707557Y-67345379D01*
X93518216Y-67248904D01*
X93342026Y-67191656D01*
X93284350Y-67152218D01*
X93257152Y-67087860D01*
X93269067Y-67019013D01*
X93316311Y-66967538D01*
X93332882Y-66959168D01*
X93497598Y-66890941D01*
X93669655Y-66775977D01*
X93815977Y-66629655D01*
X93930941Y-66457598D01*
X94010130Y-66266420D01*
X94050500Y-66063465D01*
X94050500Y-65856535D01*
X94010130Y-65653580D01*
X93930941Y-65462402D01*
X93815977Y-65290345D01*
X93815975Y-65290342D01*
X93669657Y-65144024D01*
X93583626Y-65086541D01*
X93497598Y-65029059D01*
X93306420Y-64949870D01*
X93306412Y-64949868D01*
X93103469Y-64909500D01*
X93103465Y-64909500D01*
X92896535Y-64909500D01*
X92896530Y-64909500D01*
X92693587Y-64949868D01*
X92693579Y-64949870D01*
X92502403Y-65029058D01*
X92330342Y-65144024D01*
X92184024Y-65290342D01*
X92069058Y-65462403D01*
X91989870Y-65653579D01*
X91989868Y-65653587D01*
X91949500Y-65856530D01*
X91949500Y-66063469D01*
X91989868Y-66266412D01*
X91989870Y-66266420D01*
X92069058Y-66457596D01*
X92184024Y-66629657D01*
X92330342Y-66775975D01*
X92502405Y-66890943D01*
X92605043Y-66933456D01*
X92667108Y-66959164D01*
X92721511Y-67003005D01*
X92743576Y-67069299D01*
X92726297Y-67136998D01*
X92675160Y-67184609D01*
X92657974Y-67191656D01*
X92481781Y-67248905D01*
X92292442Y-67345379D01*
X92120540Y-67470272D01*
X92120535Y-67470276D01*
X91970276Y-67620535D01*
X91970272Y-67620540D01*
X91845379Y-67792442D01*
X91748904Y-67981782D01*
X91683242Y-68183870D01*
X91683242Y-68183873D01*
X91672769Y-68250000D01*
X78000500Y-68250000D01*
X78000500Y-62550247D01*
X91949500Y-62550247D01*
X91949500Y-64289752D01*
X91961131Y-64348229D01*
X91961132Y-64348230D01*
X92005447Y-64414552D01*
X92071769Y-64458867D01*
X92071770Y-64458868D01*
X92130247Y-64470499D01*
X92130250Y-64470500D01*
X92130252Y-64470500D01*
X93869750Y-64470500D01*
X93869751Y-64470499D01*
X93884568Y-64467552D01*
X93928229Y-64458868D01*
X93928229Y-64458867D01*
X93928231Y-64458867D01*
X93994552Y-64414552D01*
X94038867Y-64348231D01*
X94038867Y-64348229D01*
X94038868Y-64348229D01*
X94050499Y-64289752D01*
X94050500Y-64289750D01*
X94050500Y-62550249D01*
X94050499Y-62550247D01*
X94038868Y-62491770D01*
X94038867Y-62491769D01*
X93994552Y-62425447D01*
X93928230Y-62381132D01*
X93928229Y-62381131D01*
X93869752Y-62369500D01*
X93869748Y-62369500D01*
X92130252Y-62369500D01*
X92130247Y-62369500D01*
X92071770Y-62381131D01*
X92071769Y-62381132D01*
X92005447Y-62425447D01*
X91961132Y-62491769D01*
X91961131Y-62491770D01*
X91949500Y-62550247D01*
X78000500Y-62550247D01*
X78000500Y-60990000D01*
X147672769Y-60990000D01*
X148566988Y-60990000D01*
X148534075Y-61047007D01*
X148500000Y-61174174D01*
X148500000Y-61305826D01*
X148534075Y-61432993D01*
X148566988Y-61490000D01*
X147672769Y-61490000D01*
X147683242Y-61556126D01*
X147683242Y-61556129D01*
X147748904Y-61758217D01*
X147845379Y-61947557D01*
X147970272Y-62119459D01*
X147970276Y-62119464D01*
X148120535Y-62269723D01*
X148120540Y-62269727D01*
X148292442Y-62394620D01*
X148481782Y-62491095D01*
X148657973Y-62548343D01*
X148715648Y-62587780D01*
X148742847Y-62652139D01*
X148730932Y-62720985D01*
X148683688Y-62772461D01*
X148667108Y-62780835D01*
X148502403Y-62849057D01*
X148330342Y-62964024D01*
X148184024Y-63110342D01*
X148069058Y-63282403D01*
X147989870Y-63473579D01*
X147989868Y-63473587D01*
X147949500Y-63676530D01*
X147949500Y-63883469D01*
X147989868Y-64086412D01*
X147989870Y-64086420D01*
X148069059Y-64277598D01*
X148116254Y-64348231D01*
X148184024Y-64449657D01*
X148330342Y-64595975D01*
X148330345Y-64595977D01*
X148502402Y-64710941D01*
X148693580Y-64790130D01*
X148896530Y-64830499D01*
X148896534Y-64830500D01*
X148896535Y-64830500D01*
X149103466Y-64830500D01*
X149103467Y-64830499D01*
X149306420Y-64790130D01*
X149497598Y-64710941D01*
X149669655Y-64595977D01*
X149815977Y-64449655D01*
X149930941Y-64277598D01*
X150010130Y-64086420D01*
X150050500Y-63883465D01*
X150050500Y-63676535D01*
X150010130Y-63473580D01*
X149930941Y-63282402D01*
X149815977Y-63110345D01*
X149815975Y-63110342D01*
X149669657Y-62964024D01*
X149583626Y-62906541D01*
X149497598Y-62849059D01*
X149497593Y-62849057D01*
X149435891Y-62823499D01*
X149332890Y-62780834D01*
X149278488Y-62736994D01*
X149256423Y-62670700D01*
X149273702Y-62603001D01*
X149324839Y-62555390D01*
X149342026Y-62548343D01*
X149518217Y-62491095D01*
X149707557Y-62394620D01*
X149879459Y-62269727D01*
X149879464Y-62269723D01*
X150029723Y-62119464D01*
X150029727Y-62119459D01*
X150154620Y-61947557D01*
X150251095Y-61758217D01*
X150316757Y-61556129D01*
X150316757Y-61556126D01*
X150327231Y-61490000D01*
X149433012Y-61490000D01*
X149465925Y-61432993D01*
X149500000Y-61305826D01*
X149500000Y-61174174D01*
X149465925Y-61047007D01*
X149433012Y-60990000D01*
X150327231Y-60990000D01*
X150316757Y-60923873D01*
X150316757Y-60923870D01*
X150251095Y-60721782D01*
X150154620Y-60532442D01*
X150029727Y-60360540D01*
X150029723Y-60360535D01*
X149879464Y-60210276D01*
X149879459Y-60210272D01*
X149707557Y-60085379D01*
X149518216Y-59988904D01*
X149342026Y-59931656D01*
X149284350Y-59892218D01*
X149257152Y-59827860D01*
X149269067Y-59759013D01*
X149316311Y-59707538D01*
X149332882Y-59699168D01*
X149497598Y-59630941D01*
X149669655Y-59515977D01*
X149815977Y-59369655D01*
X149930941Y-59197598D01*
X150010130Y-59006420D01*
X150050500Y-58803465D01*
X150050500Y-58596535D01*
X150010130Y-58393580D01*
X149930941Y-58202402D01*
X149815977Y-58030345D01*
X149815975Y-58030342D01*
X149669657Y-57884024D01*
X149583626Y-57826541D01*
X149497598Y-57769059D01*
X149306420Y-57689870D01*
X149306412Y-57689868D01*
X149103469Y-57649500D01*
X149103465Y-57649500D01*
X148896535Y-57649500D01*
X148896530Y-57649500D01*
X148693587Y-57689868D01*
X148693579Y-57689870D01*
X148502403Y-57769058D01*
X148330342Y-57884024D01*
X148184024Y-58030342D01*
X148069058Y-58202403D01*
X147989870Y-58393579D01*
X147989868Y-58393587D01*
X147949500Y-58596530D01*
X147949500Y-58803469D01*
X147989868Y-59006412D01*
X147989870Y-59006420D01*
X148069058Y-59197596D01*
X148184024Y-59369657D01*
X148330342Y-59515975D01*
X148502405Y-59630943D01*
X148605043Y-59673456D01*
X148667108Y-59699164D01*
X148721511Y-59743005D01*
X148743576Y-59809299D01*
X148726297Y-59876998D01*
X148675160Y-59924609D01*
X148657974Y-59931656D01*
X148481781Y-59988905D01*
X148292442Y-60085379D01*
X148120540Y-60210272D01*
X148120535Y-60210276D01*
X147970276Y-60360535D01*
X147970272Y-60360540D01*
X147845379Y-60532442D01*
X147748904Y-60721782D01*
X147683242Y-60923870D01*
X147683242Y-60923873D01*
X147672769Y-60990000D01*
X78000500Y-60990000D01*
X78000500Y-46834296D01*
X80549500Y-46834296D01*
X80549500Y-47165703D01*
X80586601Y-47494991D01*
X80586604Y-47495005D01*
X80660346Y-47818093D01*
X80660349Y-47818101D01*
X80769799Y-48130890D01*
X80913582Y-48429458D01*
X80913584Y-48429461D01*
X81089896Y-48710060D01*
X81296516Y-48969153D01*
X81530847Y-49203484D01*
X81789940Y-49410104D01*
X82070539Y-49586416D01*
X82369113Y-49730202D01*
X82604037Y-49812405D01*
X82681898Y-49839650D01*
X82681906Y-49839653D01*
X82681909Y-49839653D01*
X82681910Y-49839654D01*
X83004994Y-49913396D01*
X83005003Y-49913397D01*
X83005008Y-49913398D01*
X83224533Y-49938132D01*
X83334297Y-49950499D01*
X83334300Y-49950500D01*
X83334303Y-49950500D01*
X83665700Y-49950500D01*
X83665701Y-49950499D01*
X83833996Y-49931537D01*
X83994991Y-49913398D01*
X83994994Y-49913397D01*
X83995006Y-49913396D01*
X84318090Y-49839654D01*
X84630887Y-49730202D01*
X84929461Y-49586416D01*
X85210060Y-49410104D01*
X85469153Y-49203484D01*
X85703484Y-48969153D01*
X85910104Y-48710060D01*
X86086416Y-48429461D01*
X86230202Y-48130887D01*
X86339654Y-47818090D01*
X86413396Y-47495006D01*
X86450500Y-47165697D01*
X86450500Y-46834303D01*
X86450499Y-46834296D01*
X168549500Y-46834296D01*
X168549500Y-47165703D01*
X168586601Y-47494991D01*
X168586604Y-47495005D01*
X168660346Y-47818093D01*
X168660349Y-47818101D01*
X168769799Y-48130890D01*
X168913582Y-48429458D01*
X168913584Y-48429461D01*
X169089896Y-48710060D01*
X169296516Y-48969153D01*
X169530847Y-49203484D01*
X169789940Y-49410104D01*
X170070539Y-49586416D01*
X170369113Y-49730202D01*
X170604037Y-49812405D01*
X170681898Y-49839650D01*
X170681906Y-49839653D01*
X170681909Y-49839653D01*
X170681910Y-49839654D01*
X171004994Y-49913396D01*
X171005003Y-49913397D01*
X171005008Y-49913398D01*
X171224533Y-49938132D01*
X171334297Y-49950499D01*
X171334300Y-49950500D01*
X171334303Y-49950500D01*
X171665700Y-49950500D01*
X171665701Y-49950499D01*
X171833996Y-49931537D01*
X171994991Y-49913398D01*
X171994994Y-49913397D01*
X171995006Y-49913396D01*
X172318090Y-49839654D01*
X172630887Y-49730202D01*
X172929461Y-49586416D01*
X173210060Y-49410104D01*
X173469153Y-49203484D01*
X173703484Y-48969153D01*
X173910104Y-48710060D01*
X174086416Y-48429461D01*
X174230202Y-48130887D01*
X174339654Y-47818090D01*
X174413396Y-47495006D01*
X174450500Y-47165697D01*
X174450500Y-46834303D01*
X174413396Y-46504994D01*
X174339654Y-46181910D01*
X174230202Y-45869113D01*
X174086416Y-45570539D01*
X173910104Y-45289940D01*
X173703484Y-45030847D01*
X173469153Y-44796516D01*
X173210060Y-44589896D01*
X172929461Y-44413584D01*
X172929458Y-44413582D01*
X172630890Y-44269799D01*
X172318101Y-44160349D01*
X172318093Y-44160346D01*
X172075777Y-44105039D01*
X171995006Y-44086604D01*
X171995003Y-44086603D01*
X171994991Y-44086601D01*
X171665703Y-44049500D01*
X171665697Y-44049500D01*
X171334303Y-44049500D01*
X171334296Y-44049500D01*
X171005008Y-44086601D01*
X171004994Y-44086604D01*
X170681906Y-44160346D01*
X170681898Y-44160349D01*
X170369109Y-44269799D01*
X170070541Y-44413582D01*
X169789941Y-44589895D01*
X169530847Y-44796515D01*
X169296515Y-45030847D01*
X169089895Y-45289941D01*
X168913582Y-45570541D01*
X168769799Y-45869109D01*
X168660349Y-46181898D01*
X168660346Y-46181906D01*
X168586604Y-46504994D01*
X168586601Y-46505008D01*
X168549500Y-46834296D01*
X86450499Y-46834296D01*
X86413396Y-46504994D01*
X86339654Y-46181910D01*
X86230202Y-45869113D01*
X86086416Y-45570539D01*
X85910104Y-45289940D01*
X85703484Y-45030847D01*
X85469153Y-44796516D01*
X85210060Y-44589896D01*
X84929461Y-44413584D01*
X84929458Y-44413582D01*
X84630890Y-44269799D01*
X84318101Y-44160349D01*
X84318093Y-44160346D01*
X84075777Y-44105039D01*
X83995006Y-44086604D01*
X83995003Y-44086603D01*
X83994991Y-44086601D01*
X83665703Y-44049500D01*
X83665697Y-44049500D01*
X83334303Y-44049500D01*
X83334296Y-44049500D01*
X83005008Y-44086601D01*
X83004994Y-44086604D01*
X82681906Y-44160346D01*
X82681898Y-44160349D01*
X82369109Y-44269799D01*
X82070541Y-44413582D01*
X81789941Y-44589895D01*
X81530847Y-44796515D01*
X81296515Y-45030847D01*
X81089895Y-45289941D01*
X80913582Y-45570541D01*
X80769799Y-45869109D01*
X80660349Y-46181898D01*
X80660346Y-46181906D01*
X80586604Y-46504994D01*
X80586601Y-46505008D01*
X80549500Y-46834296D01*
X78000500Y-46834296D01*
X78000500Y-41624500D01*
X78020185Y-41557461D01*
X78072989Y-41511706D01*
X78124500Y-41500500D01*
X176875500Y-41500500D01*
X176942539Y-41520185D01*
G37*
%TD.AperFunction*%
%TD*%
M02*
