%TF.GenerationSoftware,KiCad,Pcbnew,9.0.0*%
%TF.CreationDate,2025-05-23T23:11:46+02:00*%
%TF.ProjectId,25Zak001 ESP32 Mark0 Rev1,32355a61-6b30-4303-9120-455350333220,rev?*%
%TF.SameCoordinates,Original*%
%TF.FileFunction,Legend,Bot*%
%TF.FilePolarity,Positive*%
%FSLAX46Y46*%
G04 Gerber Fmt 4.6, Leading zero omitted, Abs format (unit mm)*
G04 Created by KiCad (PCBNEW 9.0.0) date 2025-05-23 23:11:46*
%MOMM*%
%LPD*%
G01*
G04 APERTURE LIST*
%ADD10C,0.312500*%
G04 APERTURE END LIST*
D10*
X168399169Y-83277797D02*
X168399169Y-80777797D01*
X167327741Y-83277797D02*
X167327741Y-81968273D01*
X167327741Y-81968273D02*
X167446788Y-81730178D01*
X167446788Y-81730178D02*
X167684884Y-81611130D01*
X167684884Y-81611130D02*
X168042027Y-81611130D01*
X168042027Y-81611130D02*
X168280122Y-81730178D01*
X168280122Y-81730178D02*
X168399169Y-81849226D01*
X166494407Y-81611130D02*
X165542026Y-81611130D01*
X166137264Y-80777797D02*
X166137264Y-82920654D01*
X166137264Y-82920654D02*
X166018217Y-83158750D01*
X166018217Y-83158750D02*
X165780122Y-83277797D01*
X165780122Y-83277797D02*
X165542026Y-83277797D01*
X165065836Y-81611130D02*
X164113455Y-81611130D01*
X164708693Y-80777797D02*
X164708693Y-82920654D01*
X164708693Y-82920654D02*
X164589646Y-83158750D01*
X164589646Y-83158750D02*
X164351551Y-83277797D01*
X164351551Y-83277797D02*
X164113455Y-83277797D01*
X163280122Y-81611130D02*
X163280122Y-84111130D01*
X163280122Y-81730178D02*
X163042027Y-81611130D01*
X163042027Y-81611130D02*
X162565837Y-81611130D01*
X162565837Y-81611130D02*
X162327741Y-81730178D01*
X162327741Y-81730178D02*
X162208694Y-81849226D01*
X162208694Y-81849226D02*
X162089646Y-82087321D01*
X162089646Y-82087321D02*
X162089646Y-82801607D01*
X162089646Y-82801607D02*
X162208694Y-83039702D01*
X162208694Y-83039702D02*
X162327741Y-83158750D01*
X162327741Y-83158750D02*
X162565837Y-83277797D01*
X162565837Y-83277797D02*
X163042027Y-83277797D01*
X163042027Y-83277797D02*
X163280122Y-83158750D01*
X161137265Y-83158750D02*
X160899170Y-83277797D01*
X160899170Y-83277797D02*
X160422979Y-83277797D01*
X160422979Y-83277797D02*
X160184884Y-83158750D01*
X160184884Y-83158750D02*
X160065836Y-82920654D01*
X160065836Y-82920654D02*
X160065836Y-82801607D01*
X160065836Y-82801607D02*
X160184884Y-82563511D01*
X160184884Y-82563511D02*
X160422979Y-82444464D01*
X160422979Y-82444464D02*
X160780122Y-82444464D01*
X160780122Y-82444464D02*
X161018217Y-82325416D01*
X161018217Y-82325416D02*
X161137265Y-82087321D01*
X161137265Y-82087321D02*
X161137265Y-81968273D01*
X161137265Y-81968273D02*
X161018217Y-81730178D01*
X161018217Y-81730178D02*
X160780122Y-81611130D01*
X160780122Y-81611130D02*
X160422979Y-81611130D01*
X160422979Y-81611130D02*
X160184884Y-81730178D01*
X158994407Y-83039702D02*
X158875360Y-83158750D01*
X158875360Y-83158750D02*
X158994407Y-83277797D01*
X158994407Y-83277797D02*
X159113455Y-83158750D01*
X159113455Y-83158750D02*
X158994407Y-83039702D01*
X158994407Y-83039702D02*
X158994407Y-83277797D01*
X158994407Y-81730178D02*
X158875360Y-81849226D01*
X158875360Y-81849226D02*
X158994407Y-81968273D01*
X158994407Y-81968273D02*
X159113455Y-81849226D01*
X159113455Y-81849226D02*
X158994407Y-81730178D01*
X158994407Y-81730178D02*
X158994407Y-81968273D01*
X156018217Y-80658750D02*
X158161074Y-83873035D01*
X153399169Y-80658750D02*
X155542026Y-83873035D01*
X151494407Y-81611130D02*
X151494407Y-83634940D01*
X151494407Y-83634940D02*
X151613454Y-83873035D01*
X151613454Y-83873035D02*
X151732502Y-83992083D01*
X151732502Y-83992083D02*
X151970597Y-84111130D01*
X151970597Y-84111130D02*
X152327740Y-84111130D01*
X152327740Y-84111130D02*
X152565835Y-83992083D01*
X151494407Y-83158750D02*
X151732502Y-83277797D01*
X151732502Y-83277797D02*
X152208693Y-83277797D01*
X152208693Y-83277797D02*
X152446788Y-83158750D01*
X152446788Y-83158750D02*
X152565835Y-83039702D01*
X152565835Y-83039702D02*
X152684883Y-82801607D01*
X152684883Y-82801607D02*
X152684883Y-82087321D01*
X152684883Y-82087321D02*
X152565835Y-81849226D01*
X152565835Y-81849226D02*
X152446788Y-81730178D01*
X152446788Y-81730178D02*
X152208693Y-81611130D01*
X152208693Y-81611130D02*
X151732502Y-81611130D01*
X151732502Y-81611130D02*
X151494407Y-81730178D01*
X150303930Y-83277797D02*
X150303930Y-81611130D01*
X150303930Y-80777797D02*
X150422978Y-80896845D01*
X150422978Y-80896845D02*
X150303930Y-81015892D01*
X150303930Y-81015892D02*
X150184883Y-80896845D01*
X150184883Y-80896845D02*
X150303930Y-80777797D01*
X150303930Y-80777797D02*
X150303930Y-81015892D01*
X149470597Y-81611130D02*
X148518216Y-81611130D01*
X149113454Y-80777797D02*
X149113454Y-82920654D01*
X149113454Y-82920654D02*
X148994407Y-83158750D01*
X148994407Y-83158750D02*
X148756312Y-83277797D01*
X148756312Y-83277797D02*
X148518216Y-83277797D01*
X147684883Y-83277797D02*
X147684883Y-80777797D01*
X146613455Y-83277797D02*
X146613455Y-81968273D01*
X146613455Y-81968273D02*
X146732502Y-81730178D01*
X146732502Y-81730178D02*
X146970598Y-81611130D01*
X146970598Y-81611130D02*
X147327741Y-81611130D01*
X147327741Y-81611130D02*
X147565836Y-81730178D01*
X147565836Y-81730178D02*
X147684883Y-81849226D01*
X144351550Y-81611130D02*
X144351550Y-83277797D01*
X145422978Y-81611130D02*
X145422978Y-82920654D01*
X145422978Y-82920654D02*
X145303931Y-83158750D01*
X145303931Y-83158750D02*
X145065836Y-83277797D01*
X145065836Y-83277797D02*
X144708693Y-83277797D01*
X144708693Y-83277797D02*
X144470597Y-83158750D01*
X144470597Y-83158750D02*
X144351550Y-83039702D01*
X143161073Y-83277797D02*
X143161073Y-80777797D01*
X143161073Y-81730178D02*
X142922978Y-81611130D01*
X142922978Y-81611130D02*
X142446788Y-81611130D01*
X142446788Y-81611130D02*
X142208692Y-81730178D01*
X142208692Y-81730178D02*
X142089645Y-81849226D01*
X142089645Y-81849226D02*
X141970597Y-82087321D01*
X141970597Y-82087321D02*
X141970597Y-82801607D01*
X141970597Y-82801607D02*
X142089645Y-83039702D01*
X142089645Y-83039702D02*
X142208692Y-83158750D01*
X142208692Y-83158750D02*
X142446788Y-83277797D01*
X142446788Y-83277797D02*
X142922978Y-83277797D01*
X142922978Y-83277797D02*
X143161073Y-83158750D01*
X140899168Y-83039702D02*
X140780121Y-83158750D01*
X140780121Y-83158750D02*
X140899168Y-83277797D01*
X140899168Y-83277797D02*
X141018216Y-83158750D01*
X141018216Y-83158750D02*
X140899168Y-83039702D01*
X140899168Y-83039702D02*
X140899168Y-83277797D01*
X138637264Y-83158750D02*
X138875359Y-83277797D01*
X138875359Y-83277797D02*
X139351550Y-83277797D01*
X139351550Y-83277797D02*
X139589645Y-83158750D01*
X139589645Y-83158750D02*
X139708692Y-83039702D01*
X139708692Y-83039702D02*
X139827740Y-82801607D01*
X139827740Y-82801607D02*
X139827740Y-82087321D01*
X139827740Y-82087321D02*
X139708692Y-81849226D01*
X139708692Y-81849226D02*
X139589645Y-81730178D01*
X139589645Y-81730178D02*
X139351550Y-81611130D01*
X139351550Y-81611130D02*
X138875359Y-81611130D01*
X138875359Y-81611130D02*
X138637264Y-81730178D01*
X137208693Y-83277797D02*
X137446788Y-83158750D01*
X137446788Y-83158750D02*
X137565835Y-83039702D01*
X137565835Y-83039702D02*
X137684883Y-82801607D01*
X137684883Y-82801607D02*
X137684883Y-82087321D01*
X137684883Y-82087321D02*
X137565835Y-81849226D01*
X137565835Y-81849226D02*
X137446788Y-81730178D01*
X137446788Y-81730178D02*
X137208693Y-81611130D01*
X137208693Y-81611130D02*
X136851550Y-81611130D01*
X136851550Y-81611130D02*
X136613454Y-81730178D01*
X136613454Y-81730178D02*
X136494407Y-81849226D01*
X136494407Y-81849226D02*
X136375359Y-82087321D01*
X136375359Y-82087321D02*
X136375359Y-82801607D01*
X136375359Y-82801607D02*
X136494407Y-83039702D01*
X136494407Y-83039702D02*
X136613454Y-83158750D01*
X136613454Y-83158750D02*
X136851550Y-83277797D01*
X136851550Y-83277797D02*
X137208693Y-83277797D01*
X135303930Y-83277797D02*
X135303930Y-81611130D01*
X135303930Y-81849226D02*
X135184883Y-81730178D01*
X135184883Y-81730178D02*
X134946788Y-81611130D01*
X134946788Y-81611130D02*
X134589645Y-81611130D01*
X134589645Y-81611130D02*
X134351549Y-81730178D01*
X134351549Y-81730178D02*
X134232502Y-81968273D01*
X134232502Y-81968273D02*
X134232502Y-83277797D01*
X134232502Y-81968273D02*
X134113454Y-81730178D01*
X134113454Y-81730178D02*
X133875359Y-81611130D01*
X133875359Y-81611130D02*
X133518216Y-81611130D01*
X133518216Y-81611130D02*
X133280121Y-81730178D01*
X133280121Y-81730178D02*
X133161073Y-81968273D01*
X133161073Y-81968273D02*
X133161073Y-83277797D01*
X130184883Y-80658750D02*
X132327740Y-83873035D01*
X129589645Y-81611130D02*
X128280121Y-81611130D01*
X128280121Y-81611130D02*
X129589645Y-83277797D01*
X129589645Y-83277797D02*
X128280121Y-83277797D01*
X126256311Y-83277797D02*
X126256311Y-80777797D01*
X126256311Y-83158750D02*
X126494406Y-83277797D01*
X126494406Y-83277797D02*
X126970597Y-83277797D01*
X126970597Y-83277797D02*
X127208692Y-83158750D01*
X127208692Y-83158750D02*
X127327739Y-83039702D01*
X127327739Y-83039702D02*
X127446787Y-82801607D01*
X127446787Y-82801607D02*
X127446787Y-82087321D01*
X127446787Y-82087321D02*
X127327739Y-81849226D01*
X127327739Y-81849226D02*
X127208692Y-81730178D01*
X127208692Y-81730178D02*
X126970597Y-81611130D01*
X126970597Y-81611130D02*
X126494406Y-81611130D01*
X126494406Y-81611130D02*
X126256311Y-81730178D01*
X124113453Y-83158750D02*
X124351549Y-83277797D01*
X124351549Y-83277797D02*
X124827739Y-83277797D01*
X124827739Y-83277797D02*
X125065834Y-83158750D01*
X125065834Y-83158750D02*
X125184882Y-82920654D01*
X125184882Y-82920654D02*
X125184882Y-81968273D01*
X125184882Y-81968273D02*
X125065834Y-81730178D01*
X125065834Y-81730178D02*
X124827739Y-81611130D01*
X124827739Y-81611130D02*
X124351549Y-81611130D01*
X124351549Y-81611130D02*
X124113453Y-81730178D01*
X124113453Y-81730178D02*
X123994406Y-81968273D01*
X123994406Y-81968273D02*
X123994406Y-82206369D01*
X123994406Y-82206369D02*
X125184882Y-82444464D01*
X122922977Y-81611130D02*
X122922977Y-83277797D01*
X122922977Y-81849226D02*
X122803930Y-81730178D01*
X122803930Y-81730178D02*
X122565835Y-81611130D01*
X122565835Y-81611130D02*
X122208692Y-81611130D01*
X122208692Y-81611130D02*
X121970596Y-81730178D01*
X121970596Y-81730178D02*
X121851549Y-81968273D01*
X121851549Y-81968273D02*
X121851549Y-83277797D01*
X119708691Y-83158750D02*
X119946787Y-83277797D01*
X119946787Y-83277797D02*
X120422977Y-83277797D01*
X120422977Y-83277797D02*
X120661072Y-83158750D01*
X120661072Y-83158750D02*
X120780120Y-82920654D01*
X120780120Y-82920654D02*
X120780120Y-81968273D01*
X120780120Y-81968273D02*
X120661072Y-81730178D01*
X120661072Y-81730178D02*
X120422977Y-81611130D01*
X120422977Y-81611130D02*
X119946787Y-81611130D01*
X119946787Y-81611130D02*
X119708691Y-81730178D01*
X119708691Y-81730178D02*
X119589644Y-81968273D01*
X119589644Y-81968273D02*
X119589644Y-82206369D01*
X119589644Y-82206369D02*
X120780120Y-82444464D01*
X118518215Y-83277797D02*
X118518215Y-80777797D01*
X118280120Y-82325416D02*
X117565834Y-83277797D01*
X117565834Y-81611130D02*
X118518215Y-82563511D01*
X116494405Y-83277797D02*
X116494405Y-81611130D01*
X116494405Y-82087321D02*
X116375358Y-81849226D01*
X116375358Y-81849226D02*
X116256310Y-81730178D01*
X116256310Y-81730178D02*
X116018215Y-81611130D01*
X116018215Y-81611130D02*
X115780120Y-81611130D01*
X113875358Y-81611130D02*
X113875358Y-83277797D01*
X114946786Y-81611130D02*
X114946786Y-82920654D01*
X114946786Y-82920654D02*
X114827739Y-83158750D01*
X114827739Y-83158750D02*
X114589644Y-83277797D01*
X114589644Y-83277797D02*
X114232501Y-83277797D01*
X114232501Y-83277797D02*
X113994405Y-83158750D01*
X113994405Y-83158750D02*
X113875358Y-83039702D01*
X110899167Y-80658750D02*
X113042024Y-83873035D01*
X110065833Y-81968273D02*
X109232500Y-81968273D01*
X108875357Y-83277797D02*
X110065833Y-83277797D01*
X110065833Y-83277797D02*
X110065833Y-80777797D01*
X110065833Y-80777797D02*
X108875357Y-80777797D01*
X107922976Y-83158750D02*
X107565833Y-83277797D01*
X107565833Y-83277797D02*
X106970595Y-83277797D01*
X106970595Y-83277797D02*
X106732500Y-83158750D01*
X106732500Y-83158750D02*
X106613452Y-83039702D01*
X106613452Y-83039702D02*
X106494405Y-82801607D01*
X106494405Y-82801607D02*
X106494405Y-82563511D01*
X106494405Y-82563511D02*
X106613452Y-82325416D01*
X106613452Y-82325416D02*
X106732500Y-82206369D01*
X106732500Y-82206369D02*
X106970595Y-82087321D01*
X106970595Y-82087321D02*
X107446786Y-81968273D01*
X107446786Y-81968273D02*
X107684881Y-81849226D01*
X107684881Y-81849226D02*
X107803928Y-81730178D01*
X107803928Y-81730178D02*
X107922976Y-81492083D01*
X107922976Y-81492083D02*
X107922976Y-81253988D01*
X107922976Y-81253988D02*
X107803928Y-81015892D01*
X107803928Y-81015892D02*
X107684881Y-80896845D01*
X107684881Y-80896845D02*
X107446786Y-80777797D01*
X107446786Y-80777797D02*
X106851547Y-80777797D01*
X106851547Y-80777797D02*
X106494405Y-80896845D01*
X105422976Y-83277797D02*
X105422976Y-80777797D01*
X105422976Y-80777797D02*
X104470595Y-80777797D01*
X104470595Y-80777797D02*
X104232500Y-80896845D01*
X104232500Y-80896845D02*
X104113453Y-81015892D01*
X104113453Y-81015892D02*
X103994405Y-81253988D01*
X103994405Y-81253988D02*
X103994405Y-81611130D01*
X103994405Y-81611130D02*
X104113453Y-81849226D01*
X104113453Y-81849226D02*
X104232500Y-81968273D01*
X104232500Y-81968273D02*
X104470595Y-82087321D01*
X104470595Y-82087321D02*
X105422976Y-82087321D01*
X103161072Y-80777797D02*
X101613453Y-80777797D01*
X101613453Y-80777797D02*
X102446786Y-81730178D01*
X102446786Y-81730178D02*
X102089643Y-81730178D01*
X102089643Y-81730178D02*
X101851548Y-81849226D01*
X101851548Y-81849226D02*
X101732500Y-81968273D01*
X101732500Y-81968273D02*
X101613453Y-82206369D01*
X101613453Y-82206369D02*
X101613453Y-82801607D01*
X101613453Y-82801607D02*
X101732500Y-83039702D01*
X101732500Y-83039702D02*
X101851548Y-83158750D01*
X101851548Y-83158750D02*
X102089643Y-83277797D01*
X102089643Y-83277797D02*
X102803929Y-83277797D01*
X102803929Y-83277797D02*
X103042024Y-83158750D01*
X103042024Y-83158750D02*
X103161072Y-83039702D01*
X100661072Y-81015892D02*
X100542024Y-80896845D01*
X100542024Y-80896845D02*
X100303929Y-80777797D01*
X100303929Y-80777797D02*
X99708691Y-80777797D01*
X99708691Y-80777797D02*
X99470596Y-80896845D01*
X99470596Y-80896845D02*
X99351548Y-81015892D01*
X99351548Y-81015892D02*
X99232501Y-81253988D01*
X99232501Y-81253988D02*
X99232501Y-81492083D01*
X99232501Y-81492083D02*
X99351548Y-81849226D01*
X99351548Y-81849226D02*
X100780120Y-83277797D01*
X100780120Y-83277797D02*
X99232501Y-83277797D01*
X98161072Y-82325416D02*
X96256311Y-82325416D01*
X95065834Y-83277797D02*
X95065834Y-80777797D01*
X95065834Y-80777797D02*
X94232501Y-82563511D01*
X94232501Y-82563511D02*
X93399168Y-80777797D01*
X93399168Y-80777797D02*
X93399168Y-83277797D01*
X91137263Y-83277797D02*
X91137263Y-81968273D01*
X91137263Y-81968273D02*
X91256310Y-81730178D01*
X91256310Y-81730178D02*
X91494406Y-81611130D01*
X91494406Y-81611130D02*
X91970596Y-81611130D01*
X91970596Y-81611130D02*
X92208691Y-81730178D01*
X91137263Y-83158750D02*
X91375358Y-83277797D01*
X91375358Y-83277797D02*
X91970596Y-83277797D01*
X91970596Y-83277797D02*
X92208691Y-83158750D01*
X92208691Y-83158750D02*
X92327739Y-82920654D01*
X92327739Y-82920654D02*
X92327739Y-82682559D01*
X92327739Y-82682559D02*
X92208691Y-82444464D01*
X92208691Y-82444464D02*
X91970596Y-82325416D01*
X91970596Y-82325416D02*
X91375358Y-82325416D01*
X91375358Y-82325416D02*
X91137263Y-82206369D01*
X89946786Y-83277797D02*
X89946786Y-81611130D01*
X89946786Y-82087321D02*
X89827739Y-81849226D01*
X89827739Y-81849226D02*
X89708691Y-81730178D01*
X89708691Y-81730178D02*
X89470596Y-81611130D01*
X89470596Y-81611130D02*
X89232501Y-81611130D01*
X88399167Y-83277797D02*
X88399167Y-80777797D01*
X88161072Y-82325416D02*
X87446786Y-83277797D01*
X87446786Y-81611130D02*
X88399167Y-82563511D01*
X85899167Y-80777797D02*
X85661072Y-80777797D01*
X85661072Y-80777797D02*
X85422976Y-80896845D01*
X85422976Y-80896845D02*
X85303929Y-81015892D01*
X85303929Y-81015892D02*
X85184881Y-81253988D01*
X85184881Y-81253988D02*
X85065834Y-81730178D01*
X85065834Y-81730178D02*
X85065834Y-82325416D01*
X85065834Y-82325416D02*
X85184881Y-82801607D01*
X85184881Y-82801607D02*
X85303929Y-83039702D01*
X85303929Y-83039702D02*
X85422976Y-83158750D01*
X85422976Y-83158750D02*
X85661072Y-83277797D01*
X85661072Y-83277797D02*
X85899167Y-83277797D01*
X85899167Y-83277797D02*
X86137262Y-83158750D01*
X86137262Y-83158750D02*
X86256310Y-83039702D01*
X86256310Y-83039702D02*
X86375357Y-82801607D01*
X86375357Y-82801607D02*
X86494405Y-82325416D01*
X86494405Y-82325416D02*
X86494405Y-81730178D01*
X86494405Y-81730178D02*
X86375357Y-81253988D01*
X86375357Y-81253988D02*
X86256310Y-81015892D01*
X86256310Y-81015892D02*
X86137262Y-80896845D01*
X86137262Y-80896845D02*
X85899167Y-80777797D01*
M02*
