%TF.GenerationSoftware,KiCad,Pcbnew,9.0.0*%
%TF.CreationDate,2025-05-10T18:53:19+02:00*%
%TF.ProjectId,25Zak001 ESP32 Mark0,32355a61-6b30-4303-9120-455350333220,rev?*%
%TF.SameCoordinates,Original*%
%TF.FileFunction,Copper,L2,Bot*%
%TF.FilePolarity,Positive*%
%FSLAX46Y46*%
G04 Gerber Fmt 4.6, Leading zero omitted, Abs format (unit mm)*
G04 Created by KiCad (PCBNEW 9.0.0) date 2025-05-10 18:53:19*
%MOMM*%
%LPD*%
G01*
G04 APERTURE LIST*
%TA.AperFunction,ComponentPad*%
%ADD10R,1.700000X1.700000*%
%TD*%
%TA.AperFunction,ComponentPad*%
%ADD11O,1.700000X1.700000*%
%TD*%
%TA.AperFunction,ConnectorPad*%
%ADD12C,5.500000*%
%TD*%
%TA.AperFunction,ComponentPad*%
%ADD13C,3.600000*%
%TD*%
%TA.AperFunction,ViaPad*%
%ADD14C,1.000000*%
%TD*%
%TA.AperFunction,Conductor*%
%ADD15C,1.000000*%
%TD*%
G04 APERTURE END LIST*
D10*
%TO.P,J4,1,Pin_1*%
%TO.N,/GPIO22*%
X173500000Y-55500000D03*
D11*
%TO.P,J4,2,Pin_2*%
%TO.N,/TX0*%
X173500000Y-58040000D03*
%TO.P,J4,3,Pin_3*%
%TO.N,/RX0*%
X173500000Y-60580000D03*
%TO.P,J4,4,Pin_4*%
%TO.N,/GPIO21*%
X173500000Y-63120000D03*
%TO.P,J4,5,Pin_5*%
%TO.N,/GPIO19*%
X173500000Y-65660000D03*
%TO.P,J4,6,Pin_6*%
%TO.N,/GPIO16*%
X173500000Y-68200000D03*
%TO.P,J4,7,Pin_7*%
%TO.N,/GPIO15*%
X173500000Y-70740000D03*
%TD*%
D12*
%TO.P,H4,1*%
%TO.N,N/C*%
X171500000Y-135000000D03*
D13*
X171500000Y-135000000D03*
%TD*%
D12*
%TO.P,H3,1*%
%TO.N,N/C*%
X83500000Y-135000000D03*
D13*
X83500000Y-135000000D03*
%TD*%
D12*
%TO.P,H2,1*%
%TO.N,N/C*%
X171500000Y-47000000D03*
D13*
X171500000Y-47000000D03*
%TD*%
D12*
%TO.P,H1,1*%
%TO.N,N/C*%
X83500000Y-47000000D03*
D13*
X83500000Y-47000000D03*
%TD*%
D10*
%TO.P,J7,1,Pin_1*%
%TO.N,+3.3V*%
X142000000Y-88440000D03*
D11*
%TO.P,J7,2,Pin_2*%
%TO.N,GND*%
X142000000Y-85900000D03*
%TO.P,J7,3,Pin_3*%
%TO.N,/GPIO15*%
X142000000Y-83360000D03*
%TO.P,J7,4,Pin_4*%
%TO.N,/BUSY*%
X142000000Y-80820000D03*
%TO.P,J7,5,Pin_5*%
%TO.N,/DATA*%
X142000000Y-78280000D03*
%TO.P,J7,6,Pin_6*%
%TO.N,/GPIO16*%
X142000000Y-75740000D03*
%TO.P,J7,7,Pin_7*%
%TO.N,/DC*%
X142000000Y-73200000D03*
%TO.P,J7,8,Pin_8*%
%TO.N,/CS*%
X142000000Y-70660000D03*
%TO.P,J7,9,Pin_9*%
%TO.N,/CLK*%
X142000000Y-68120000D03*
%TO.P,J7,10,Pin_10*%
%TO.N,/GPIO19*%
X142000000Y-65580000D03*
%TO.P,J7,11,Pin_11*%
%TO.N,/GPIO21*%
X142000000Y-63040000D03*
%TO.P,J7,12,Pin_12*%
%TO.N,/RX0*%
X142000000Y-60500000D03*
%TO.P,J7,13,Pin_13*%
%TO.N,/TX0*%
X142000000Y-57960000D03*
%TO.P,J7,14,Pin_14*%
%TO.N,/GPIO22*%
X142000000Y-55420000D03*
%TO.P,J7,15,Pin_15*%
%TO.N,/SDI*%
X142000000Y-52880000D03*
%TD*%
D10*
%TO.P,J6,1,Pin_1*%
%TO.N,unconnected-(J6-Pin_1-Pad1)*%
X117000000Y-52880000D03*
D11*
%TO.P,J6,2,Pin_2*%
%TO.N,unconnected-(J6-Pin_2-Pad2)*%
X117000000Y-55420000D03*
%TO.P,J6,3,Pin_3*%
%TO.N,unconnected-(J6-Pin_3-Pad3)*%
X117000000Y-57960000D03*
%TO.P,J6,4,Pin_4*%
%TO.N,/GPIO34*%
X117000000Y-60500000D03*
%TO.P,J6,5,Pin_5*%
%TO.N,/GPIO35*%
X117000000Y-63040000D03*
%TO.P,J6,6,Pin_6*%
%TO.N,/GPIO32*%
X117000000Y-65580000D03*
%TO.P,J6,7,Pin_7*%
%TO.N,/GPIO33*%
X117000000Y-68120000D03*
%TO.P,J6,8,Pin_8*%
%TO.N,/GPIO25*%
X117000000Y-70660000D03*
%TO.P,J6,9,Pin_9*%
%TO.N,/GPIO26*%
X117000000Y-73200000D03*
%TO.P,J6,10,Pin_10*%
%TO.N,/GPIO27*%
X117000000Y-75740000D03*
%TO.P,J6,11,Pin_11*%
%TO.N,/GPIO14*%
X117000000Y-78280000D03*
%TO.P,J6,12,Pin_12*%
%TO.N,/GPIO12*%
X117000000Y-80820000D03*
%TO.P,J6,13,Pin_13*%
%TO.N,/GPIO13*%
X117000000Y-83360000D03*
%TO.P,J6,14,Pin_14*%
%TO.N,GND*%
X117000000Y-85900000D03*
%TO.P,J6,15,Pin_15*%
%TO.N,+5V*%
X117000000Y-88440000D03*
%TD*%
D10*
%TO.P,J3,1,Pin_1*%
%TO.N,/GPIO34*%
X81500000Y-60500000D03*
D11*
%TO.P,J3,2,Pin_2*%
%TO.N,/GPIO35*%
X81500000Y-63040000D03*
%TO.P,J3,3,Pin_3*%
%TO.N,/GPIO32*%
X81500000Y-65580000D03*
%TO.P,J3,4,Pin_4*%
%TO.N,/GPIO33*%
X81500000Y-68120000D03*
%TO.P,J3,5,Pin_5*%
%TO.N,/GPIO25*%
X81500000Y-70660000D03*
%TO.P,J3,6,Pin_6*%
%TO.N,/GPIO26*%
X81500000Y-73200000D03*
%TO.P,J3,7,Pin_7*%
%TO.N,/GPIO27*%
X81500000Y-75740000D03*
%TO.P,J3,8,Pin_8*%
%TO.N,/GPIO14*%
X81500000Y-78280000D03*
%TO.P,J3,9,Pin_9*%
%TO.N,/GPIO12*%
X81500000Y-80820000D03*
%TO.P,J3,10,Pin_10*%
%TO.N,/GPIO13*%
X81500000Y-83360000D03*
%TD*%
D10*
%TO.P,J2,1,Pin_1*%
%TO.N,/BUSY*%
X167000000Y-118240000D03*
D11*
%TO.P,J2,2,Pin_2*%
%TO.N,/CLK*%
X167000000Y-115700000D03*
%TO.P,J2,3,Pin_3*%
%TO.N,/CS*%
X167000000Y-113160000D03*
%TO.P,J2,4,Pin_4*%
%TO.N,/SDI*%
X167000000Y-110620000D03*
%TO.P,J2,5,Pin_5*%
%TO.N,/DC*%
X167000000Y-108080000D03*
%TO.P,J2,6,Pin_6*%
%TO.N,GND*%
X167000000Y-105540000D03*
%TO.P,J2,7,Pin_7*%
%TO.N,+3.3V*%
X167000000Y-103000000D03*
%TD*%
D10*
%TO.P,U1,1,DATA*%
%TO.N,/DATA*%
X100000000Y-105920000D03*
D11*
%TO.P,U1,2,VDD*%
%TO.N,+3.3V*%
X100000000Y-108460000D03*
%TO.P,U1,3,GND*%
%TO.N,GND*%
X100000000Y-111000000D03*
%TD*%
D14*
%TO.N,/DATA*%
X124500000Y-106000000D03*
%TD*%
D15*
%TO.N,/CS*%
X172840000Y-113160000D02*
X174000000Y-112000000D01*
X167000000Y-113160000D02*
X172840000Y-113160000D01*
X174000000Y-112000000D02*
X174000000Y-84000000D01*
%TO.N,/DATA*%
X124420000Y-105920000D02*
X100000000Y-105920000D01*
X124500000Y-106000000D02*
X124420000Y-105920000D01*
%TO.N,/DC*%
X157500000Y-103000000D02*
X157500000Y-88700000D01*
X157500000Y-88700000D02*
X142000000Y-73200000D01*
X162580000Y-108080000D02*
X157500000Y-103000000D01*
X167000000Y-108080000D02*
X162580000Y-108080000D01*
%TO.N,/CLK*%
X161120000Y-68120000D02*
X142000000Y-68120000D01*
X176000000Y-113500000D02*
X176000000Y-83000000D01*
X173800000Y-115700000D02*
X176000000Y-113500000D01*
X176000000Y-83000000D02*
X161120000Y-68120000D01*
X167000000Y-115700000D02*
X173800000Y-115700000D01*
%TO.N,/SDI*%
X123500000Y-101500000D02*
X132620000Y-110620000D01*
X123500000Y-71380000D02*
X123500000Y-101500000D01*
X142000000Y-52880000D02*
X123500000Y-71380000D01*
X132620000Y-110620000D02*
X167000000Y-110620000D01*
%TO.N,/CS*%
X160340000Y-70660000D02*
X142000000Y-70660000D01*
X174000000Y-84000000D02*
X160500000Y-70500000D01*
%TD*%
%TA.AperFunction,Conductor*%
%TO.N,+3.3V*%
G36*
X176942539Y-41520185D02*
G01*
X176988294Y-41572989D01*
X176999500Y-41624500D01*
X176999500Y-140375500D01*
X176979815Y-140442539D01*
X176927011Y-140488294D01*
X176875500Y-140499500D01*
X78124500Y-140499500D01*
X78057461Y-140479815D01*
X78011706Y-140427011D01*
X78000500Y-140375500D01*
X78000500Y-134834296D01*
X80549500Y-134834296D01*
X80549500Y-135165703D01*
X80586601Y-135494991D01*
X80586604Y-135495005D01*
X80660346Y-135818093D01*
X80660349Y-135818101D01*
X80769799Y-136130890D01*
X80913582Y-136429458D01*
X80913584Y-136429461D01*
X81089896Y-136710060D01*
X81296516Y-136969153D01*
X81530847Y-137203484D01*
X81789940Y-137410104D01*
X82070539Y-137586416D01*
X82369113Y-137730202D01*
X82604037Y-137812405D01*
X82681898Y-137839650D01*
X82681906Y-137839653D01*
X82681909Y-137839653D01*
X82681910Y-137839654D01*
X83004994Y-137913396D01*
X83005003Y-137913397D01*
X83005008Y-137913398D01*
X83224533Y-137938132D01*
X83334297Y-137950499D01*
X83334300Y-137950500D01*
X83334303Y-137950500D01*
X83665700Y-137950500D01*
X83665701Y-137950499D01*
X83833996Y-137931537D01*
X83994991Y-137913398D01*
X83994994Y-137913397D01*
X83995006Y-137913396D01*
X84318090Y-137839654D01*
X84630887Y-137730202D01*
X84929461Y-137586416D01*
X85210060Y-137410104D01*
X85469153Y-137203484D01*
X85703484Y-136969153D01*
X85910104Y-136710060D01*
X86086416Y-136429461D01*
X86230202Y-136130887D01*
X86339654Y-135818090D01*
X86413396Y-135495006D01*
X86450500Y-135165697D01*
X86450500Y-134834303D01*
X86450499Y-134834296D01*
X168549500Y-134834296D01*
X168549500Y-135165703D01*
X168586601Y-135494991D01*
X168586604Y-135495005D01*
X168660346Y-135818093D01*
X168660349Y-135818101D01*
X168769799Y-136130890D01*
X168913582Y-136429458D01*
X168913584Y-136429461D01*
X169089896Y-136710060D01*
X169296516Y-136969153D01*
X169530847Y-137203484D01*
X169789940Y-137410104D01*
X170070539Y-137586416D01*
X170369113Y-137730202D01*
X170604037Y-137812405D01*
X170681898Y-137839650D01*
X170681906Y-137839653D01*
X170681909Y-137839653D01*
X170681910Y-137839654D01*
X171004994Y-137913396D01*
X171005003Y-137913397D01*
X171005008Y-137913398D01*
X171224533Y-137938132D01*
X171334297Y-137950499D01*
X171334300Y-137950500D01*
X171334303Y-137950500D01*
X171665700Y-137950500D01*
X171665701Y-137950499D01*
X171833996Y-137931537D01*
X171994991Y-137913398D01*
X171994994Y-137913397D01*
X171995006Y-137913396D01*
X172318090Y-137839654D01*
X172630887Y-137730202D01*
X172929461Y-137586416D01*
X173210060Y-137410104D01*
X173469153Y-137203484D01*
X173703484Y-136969153D01*
X173910104Y-136710060D01*
X174086416Y-136429461D01*
X174230202Y-136130887D01*
X174339654Y-135818090D01*
X174413396Y-135495006D01*
X174450500Y-135165697D01*
X174450500Y-134834303D01*
X174413396Y-134504994D01*
X174339654Y-134181910D01*
X174230202Y-133869113D01*
X174086416Y-133570539D01*
X173910104Y-133289940D01*
X173703484Y-133030847D01*
X173469153Y-132796516D01*
X173210060Y-132589896D01*
X172929461Y-132413584D01*
X172929458Y-132413582D01*
X172630890Y-132269799D01*
X172318101Y-132160349D01*
X172318093Y-132160346D01*
X172075777Y-132105039D01*
X171995006Y-132086604D01*
X171995003Y-132086603D01*
X171994991Y-132086601D01*
X171665703Y-132049500D01*
X171665697Y-132049500D01*
X171334303Y-132049500D01*
X171334296Y-132049500D01*
X171005008Y-132086601D01*
X171004994Y-132086604D01*
X170681906Y-132160346D01*
X170681898Y-132160349D01*
X170369109Y-132269799D01*
X170070541Y-132413582D01*
X169789941Y-132589895D01*
X169530847Y-132796515D01*
X169296515Y-133030847D01*
X169089895Y-133289941D01*
X168913582Y-133570541D01*
X168769799Y-133869109D01*
X168660349Y-134181898D01*
X168660346Y-134181906D01*
X168586604Y-134504994D01*
X168586601Y-134505008D01*
X168549500Y-134834296D01*
X86450499Y-134834296D01*
X86413396Y-134504994D01*
X86339654Y-134181910D01*
X86230202Y-133869113D01*
X86086416Y-133570539D01*
X85910104Y-133289940D01*
X85703484Y-133030847D01*
X85469153Y-132796516D01*
X85210060Y-132589896D01*
X84929461Y-132413584D01*
X84929458Y-132413582D01*
X84630890Y-132269799D01*
X84318101Y-132160349D01*
X84318093Y-132160346D01*
X84075777Y-132105039D01*
X83995006Y-132086604D01*
X83995003Y-132086603D01*
X83994991Y-132086601D01*
X83665703Y-132049500D01*
X83665697Y-132049500D01*
X83334303Y-132049500D01*
X83334296Y-132049500D01*
X83005008Y-132086601D01*
X83004994Y-132086604D01*
X82681906Y-132160346D01*
X82681898Y-132160349D01*
X82369109Y-132269799D01*
X82070541Y-132413582D01*
X81789941Y-132589895D01*
X81530847Y-132796515D01*
X81296515Y-133030847D01*
X81089895Y-133289941D01*
X80913582Y-133570541D01*
X80769799Y-133869109D01*
X80660349Y-134181898D01*
X80660346Y-134181906D01*
X80586604Y-134504994D01*
X80586601Y-134505008D01*
X80549500Y-134834296D01*
X78000500Y-134834296D01*
X78000500Y-117370247D01*
X165949500Y-117370247D01*
X165949500Y-119109752D01*
X165961131Y-119168229D01*
X165961132Y-119168230D01*
X166005447Y-119234552D01*
X166071769Y-119278867D01*
X166071770Y-119278868D01*
X166130247Y-119290499D01*
X166130250Y-119290500D01*
X166130252Y-119290500D01*
X167869750Y-119290500D01*
X167869751Y-119290499D01*
X167884568Y-119287552D01*
X167928229Y-119278868D01*
X167928229Y-119278867D01*
X167928231Y-119278867D01*
X167994552Y-119234552D01*
X168038867Y-119168231D01*
X168038867Y-119168229D01*
X168038868Y-119168229D01*
X168050499Y-119109752D01*
X168050500Y-119109750D01*
X168050500Y-117370249D01*
X168050499Y-117370247D01*
X168038868Y-117311770D01*
X168038867Y-117311769D01*
X167994552Y-117245447D01*
X167928230Y-117201132D01*
X167928229Y-117201131D01*
X167869752Y-117189500D01*
X167869748Y-117189500D01*
X166130252Y-117189500D01*
X166130247Y-117189500D01*
X166071770Y-117201131D01*
X166071769Y-117201132D01*
X166005447Y-117245447D01*
X165961132Y-117311769D01*
X165961131Y-117311770D01*
X165949500Y-117370247D01*
X78000500Y-117370247D01*
X78000500Y-108210000D01*
X98672769Y-108210000D01*
X99566988Y-108210000D01*
X99534075Y-108267007D01*
X99500000Y-108394174D01*
X99500000Y-108525826D01*
X99534075Y-108652993D01*
X99566988Y-108710000D01*
X98672769Y-108710000D01*
X98683242Y-108776126D01*
X98683242Y-108776129D01*
X98748904Y-108978217D01*
X98845379Y-109167557D01*
X98970272Y-109339459D01*
X98970276Y-109339464D01*
X99120535Y-109489723D01*
X99120540Y-109489727D01*
X99292442Y-109614620D01*
X99481782Y-109711095D01*
X99657973Y-109768343D01*
X99715648Y-109807780D01*
X99742847Y-109872139D01*
X99730932Y-109940985D01*
X99683688Y-109992461D01*
X99667108Y-110000835D01*
X99502403Y-110069057D01*
X99330342Y-110184024D01*
X99184024Y-110330342D01*
X99069058Y-110502403D01*
X98989870Y-110693579D01*
X98989868Y-110693587D01*
X98949500Y-110896530D01*
X98949500Y-111103469D01*
X98989868Y-111306412D01*
X98989870Y-111306420D01*
X99043534Y-111435977D01*
X99069059Y-111497598D01*
X99126541Y-111583626D01*
X99184024Y-111669657D01*
X99330342Y-111815975D01*
X99330345Y-111815977D01*
X99502402Y-111930941D01*
X99693580Y-112010130D01*
X99896530Y-112050499D01*
X99896534Y-112050500D01*
X99896535Y-112050500D01*
X100103466Y-112050500D01*
X100103467Y-112050499D01*
X100306420Y-112010130D01*
X100497598Y-111930941D01*
X100669655Y-111815977D01*
X100815977Y-111669655D01*
X100930941Y-111497598D01*
X101010130Y-111306420D01*
X101050500Y-111103465D01*
X101050500Y-110896535D01*
X101010130Y-110693580D01*
X100930941Y-110502402D01*
X100815977Y-110330345D01*
X100815975Y-110330342D01*
X100669657Y-110184024D01*
X100583626Y-110126541D01*
X100497598Y-110069059D01*
X100497593Y-110069057D01*
X100435891Y-110043499D01*
X100332890Y-110000834D01*
X100278488Y-109956994D01*
X100256423Y-109890700D01*
X100273702Y-109823001D01*
X100324839Y-109775390D01*
X100342026Y-109768343D01*
X100518217Y-109711095D01*
X100707557Y-109614620D01*
X100879459Y-109489727D01*
X100879464Y-109489723D01*
X101029723Y-109339464D01*
X101029727Y-109339459D01*
X101154620Y-109167557D01*
X101251095Y-108978217D01*
X101316757Y-108776129D01*
X101316757Y-108776126D01*
X101327231Y-108710000D01*
X100433012Y-108710000D01*
X100465925Y-108652993D01*
X100500000Y-108525826D01*
X100500000Y-108394174D01*
X100465925Y-108267007D01*
X100433012Y-108210000D01*
X101327231Y-108210000D01*
X101316757Y-108143873D01*
X101316757Y-108143870D01*
X101251095Y-107941782D01*
X101154620Y-107752442D01*
X101029727Y-107580540D01*
X101029723Y-107580535D01*
X100879464Y-107430276D01*
X100879459Y-107430272D01*
X100707557Y-107305379D01*
X100513879Y-107206694D01*
X100514396Y-107205678D01*
X100464192Y-107165221D01*
X100442127Y-107098927D01*
X100459406Y-107031228D01*
X100510542Y-106983617D01*
X100566048Y-106970500D01*
X100869750Y-106970500D01*
X100869751Y-106970499D01*
X100884568Y-106967552D01*
X100928229Y-106958868D01*
X100928229Y-106958867D01*
X100928231Y-106958867D01*
X100994552Y-106914552D01*
X101038867Y-106848231D01*
X101038867Y-106848229D01*
X101038868Y-106848229D01*
X101050499Y-106789752D01*
X101050500Y-106789750D01*
X101050500Y-106744500D01*
X101070185Y-106677461D01*
X101122989Y-106631706D01*
X101174500Y-106620500D01*
X124142859Y-106620500D01*
X124190311Y-106629939D01*
X124295667Y-106673578D01*
X124295672Y-106673580D01*
X124295676Y-106673580D01*
X124295677Y-106673581D01*
X124431003Y-106700500D01*
X124431006Y-106700500D01*
X124568996Y-106700500D01*
X124684817Y-106677461D01*
X124704328Y-106673580D01*
X124768069Y-106647177D01*
X124831807Y-106620777D01*
X124831808Y-106620776D01*
X124831811Y-106620775D01*
X124946543Y-106544114D01*
X125044114Y-106446543D01*
X125120775Y-106331811D01*
X125173580Y-106204328D01*
X125200500Y-106068994D01*
X125200500Y-105931006D01*
X125200500Y-105931003D01*
X125173581Y-105795677D01*
X125173580Y-105795676D01*
X125173580Y-105795672D01*
X125173578Y-105795667D01*
X125120777Y-105668192D01*
X125044112Y-105553454D01*
X124866545Y-105375887D01*
X124751807Y-105299222D01*
X124624332Y-105246421D01*
X124624322Y-105246418D01*
X124488996Y-105219500D01*
X124488994Y-105219500D01*
X124488993Y-105219500D01*
X101174500Y-105219500D01*
X101107461Y-105199815D01*
X101061706Y-105147011D01*
X101050500Y-105095500D01*
X101050500Y-105050249D01*
X101050499Y-105050247D01*
X101038868Y-104991770D01*
X101038867Y-104991769D01*
X100994552Y-104925447D01*
X100928230Y-104881132D01*
X100928229Y-104881131D01*
X100869752Y-104869500D01*
X100869748Y-104869500D01*
X99130252Y-104869500D01*
X99130247Y-104869500D01*
X99071770Y-104881131D01*
X99071769Y-104881132D01*
X99005447Y-104925447D01*
X98961132Y-104991769D01*
X98961131Y-104991770D01*
X98949500Y-105050247D01*
X98949500Y-106789752D01*
X98961131Y-106848229D01*
X98961132Y-106848230D01*
X99005447Y-106914552D01*
X99071769Y-106958867D01*
X99071770Y-106958868D01*
X99130247Y-106970499D01*
X99130250Y-106970500D01*
X99433952Y-106970500D01*
X99500991Y-106990185D01*
X99546746Y-107042989D01*
X99556690Y-107112147D01*
X99527665Y-107175703D01*
X99485735Y-107205938D01*
X99486121Y-107206694D01*
X99292442Y-107305379D01*
X99120540Y-107430272D01*
X99120535Y-107430276D01*
X98970276Y-107580535D01*
X98970272Y-107580540D01*
X98845379Y-107752442D01*
X98748904Y-107941782D01*
X98683242Y-108143870D01*
X98683242Y-108143873D01*
X98672769Y-108210000D01*
X78000500Y-108210000D01*
X78000500Y-101568996D01*
X122799499Y-101568996D01*
X122826418Y-101704322D01*
X122826421Y-101704332D01*
X122879222Y-101831807D01*
X122955887Y-101946545D01*
X132173454Y-111164112D01*
X132288192Y-111240777D01*
X132406196Y-111289655D01*
X132415672Y-111293580D01*
X132415676Y-111293580D01*
X132415677Y-111293581D01*
X132551003Y-111320500D01*
X132551006Y-111320500D01*
X132551007Y-111320500D01*
X166163506Y-111320500D01*
X166230545Y-111340185D01*
X166251182Y-111356814D01*
X166330345Y-111435977D01*
X166502402Y-111550941D01*
X166693580Y-111630130D01*
X166892287Y-111669655D01*
X166896530Y-111670499D01*
X166896534Y-111670500D01*
X166896535Y-111670500D01*
X167103466Y-111670500D01*
X167103467Y-111670499D01*
X167306420Y-111630130D01*
X167497598Y-111550941D01*
X167669655Y-111435977D01*
X167815977Y-111289655D01*
X167930941Y-111117598D01*
X168010130Y-110926420D01*
X168050500Y-110723465D01*
X168050500Y-110516535D01*
X168010130Y-110313580D01*
X167930941Y-110122402D01*
X167815977Y-109950345D01*
X167815975Y-109950342D01*
X167669657Y-109804024D01*
X167530577Y-109711095D01*
X167497598Y-109689059D01*
X167306420Y-109609870D01*
X167306412Y-109609868D01*
X167103469Y-109569500D01*
X167103465Y-109569500D01*
X166896535Y-109569500D01*
X166896530Y-109569500D01*
X166693587Y-109609868D01*
X166693579Y-109609870D01*
X166502403Y-109689058D01*
X166330345Y-109804023D01*
X166251185Y-109883182D01*
X166189865Y-109916666D01*
X166163506Y-109919500D01*
X132961519Y-109919500D01*
X132894480Y-109899815D01*
X132873838Y-109883181D01*
X124236819Y-101246162D01*
X124203334Y-101184839D01*
X124200500Y-101158481D01*
X124200500Y-87542155D01*
X140650000Y-87542155D01*
X140650000Y-88190000D01*
X141566988Y-88190000D01*
X141534075Y-88247007D01*
X141500000Y-88374174D01*
X141500000Y-88505826D01*
X141534075Y-88632993D01*
X141566988Y-88690000D01*
X140650000Y-88690000D01*
X140650000Y-89337844D01*
X140656401Y-89397372D01*
X140656403Y-89397379D01*
X140706645Y-89532086D01*
X140706649Y-89532093D01*
X140792809Y-89647187D01*
X140792812Y-89647190D01*
X140907906Y-89733350D01*
X140907913Y-89733354D01*
X141042620Y-89783596D01*
X141042627Y-89783598D01*
X141102155Y-89789999D01*
X141102172Y-89790000D01*
X141750000Y-89790000D01*
X141750000Y-88873012D01*
X141807007Y-88905925D01*
X141934174Y-88940000D01*
X142065826Y-88940000D01*
X142192993Y-88905925D01*
X142250000Y-88873012D01*
X142250000Y-89790000D01*
X142897828Y-89790000D01*
X142897844Y-89789999D01*
X142957372Y-89783598D01*
X142957379Y-89783596D01*
X143092086Y-89733354D01*
X143092093Y-89733350D01*
X143207187Y-89647190D01*
X143207190Y-89647187D01*
X143293350Y-89532093D01*
X143293354Y-89532086D01*
X143343596Y-89397379D01*
X143343598Y-89397372D01*
X143349999Y-89337844D01*
X143350000Y-89337827D01*
X143350000Y-88690000D01*
X142433012Y-88690000D01*
X142465925Y-88632993D01*
X142500000Y-88505826D01*
X142500000Y-88374174D01*
X142465925Y-88247007D01*
X142433012Y-88190000D01*
X143350000Y-88190000D01*
X143350000Y-87542172D01*
X143349999Y-87542155D01*
X143343598Y-87482627D01*
X143343596Y-87482620D01*
X143293354Y-87347913D01*
X143293350Y-87347906D01*
X143207190Y-87232812D01*
X143207187Y-87232809D01*
X143092093Y-87146649D01*
X143092086Y-87146645D01*
X142957379Y-87096403D01*
X142957372Y-87096401D01*
X142897844Y-87090000D01*
X142495565Y-87090000D01*
X142428526Y-87070315D01*
X142382771Y-87017511D01*
X142372827Y-86948353D01*
X142401852Y-86884797D01*
X142448112Y-86851439D01*
X142453608Y-86849162D01*
X142497598Y-86830941D01*
X142669655Y-86715977D01*
X142815977Y-86569655D01*
X142930941Y-86397598D01*
X143010130Y-86206420D01*
X143050500Y-86003465D01*
X143050500Y-85796535D01*
X143010130Y-85593580D01*
X142930941Y-85402402D01*
X142815977Y-85230345D01*
X142815975Y-85230342D01*
X142669657Y-85084024D01*
X142583626Y-85026541D01*
X142497598Y-84969059D01*
X142306420Y-84889870D01*
X142306412Y-84889868D01*
X142103469Y-84849500D01*
X142103465Y-84849500D01*
X141896535Y-84849500D01*
X141896530Y-84849500D01*
X141693587Y-84889868D01*
X141693579Y-84889870D01*
X141502403Y-84969058D01*
X141330342Y-85084024D01*
X141184024Y-85230342D01*
X141069058Y-85402403D01*
X140989870Y-85593579D01*
X140989868Y-85593587D01*
X140949500Y-85796530D01*
X140949500Y-86003469D01*
X140989868Y-86206412D01*
X140989870Y-86206420D01*
X141069058Y-86397596D01*
X141184024Y-86569657D01*
X141330342Y-86715975D01*
X141330345Y-86715977D01*
X141502402Y-86830941D01*
X141541993Y-86847340D01*
X141551888Y-86851439D01*
X141606291Y-86895280D01*
X141628356Y-86961574D01*
X141611077Y-87029274D01*
X141559939Y-87076884D01*
X141504435Y-87090000D01*
X141102155Y-87090000D01*
X141042627Y-87096401D01*
X141042620Y-87096403D01*
X140907913Y-87146645D01*
X140907906Y-87146649D01*
X140792812Y-87232809D01*
X140792809Y-87232812D01*
X140706649Y-87347906D01*
X140706645Y-87347913D01*
X140656403Y-87482620D01*
X140656401Y-87482627D01*
X140650000Y-87542155D01*
X124200500Y-87542155D01*
X124200500Y-83256530D01*
X140949500Y-83256530D01*
X140949500Y-83463469D01*
X140989868Y-83666412D01*
X140989870Y-83666420D01*
X141069058Y-83857596D01*
X141184024Y-84029657D01*
X141330342Y-84175975D01*
X141330345Y-84175977D01*
X141502402Y-84290941D01*
X141693580Y-84370130D01*
X141896530Y-84410499D01*
X141896534Y-84410500D01*
X141896535Y-84410500D01*
X142103466Y-84410500D01*
X142103467Y-84410499D01*
X142306420Y-84370130D01*
X142497598Y-84290941D01*
X142669655Y-84175977D01*
X142815977Y-84029655D01*
X142930941Y-83857598D01*
X143010130Y-83666420D01*
X143050500Y-83463465D01*
X143050500Y-83256535D01*
X143010130Y-83053580D01*
X142930941Y-82862402D01*
X142815977Y-82690345D01*
X142815975Y-82690342D01*
X142669657Y-82544024D01*
X142583626Y-82486541D01*
X142497598Y-82429059D01*
X142306420Y-82349870D01*
X142306412Y-82349868D01*
X142103469Y-82309500D01*
X142103465Y-82309500D01*
X141896535Y-82309500D01*
X141896530Y-82309500D01*
X141693587Y-82349868D01*
X141693579Y-82349870D01*
X141502403Y-82429058D01*
X141330342Y-82544024D01*
X141184024Y-82690342D01*
X141069058Y-82862403D01*
X140989870Y-83053579D01*
X140989868Y-83053587D01*
X140949500Y-83256530D01*
X124200500Y-83256530D01*
X124200500Y-80716530D01*
X140949500Y-80716530D01*
X140949500Y-80923469D01*
X140989868Y-81126412D01*
X140989870Y-81126420D01*
X141069058Y-81317596D01*
X141184024Y-81489657D01*
X141330342Y-81635975D01*
X141330345Y-81635977D01*
X141502402Y-81750941D01*
X141693580Y-81830130D01*
X141896530Y-81870499D01*
X141896534Y-81870500D01*
X141896535Y-81870500D01*
X142103466Y-81870500D01*
X142103467Y-81870499D01*
X142306420Y-81830130D01*
X142497598Y-81750941D01*
X142669655Y-81635977D01*
X142815977Y-81489655D01*
X142930941Y-81317598D01*
X143010130Y-81126420D01*
X143050500Y-80923465D01*
X143050500Y-80716535D01*
X143010130Y-80513580D01*
X142930941Y-80322402D01*
X142815977Y-80150345D01*
X142815975Y-80150342D01*
X142669657Y-80004024D01*
X142583626Y-79946541D01*
X142497598Y-79889059D01*
X142306420Y-79809870D01*
X142306412Y-79809868D01*
X142103469Y-79769500D01*
X142103465Y-79769500D01*
X141896535Y-79769500D01*
X141896530Y-79769500D01*
X141693587Y-79809868D01*
X141693579Y-79809870D01*
X141502403Y-79889058D01*
X141330342Y-80004024D01*
X141184024Y-80150342D01*
X141069058Y-80322403D01*
X140989870Y-80513579D01*
X140989868Y-80513587D01*
X140949500Y-80716530D01*
X124200500Y-80716530D01*
X124200500Y-78176530D01*
X140949500Y-78176530D01*
X140949500Y-78383469D01*
X140989868Y-78586412D01*
X140989870Y-78586420D01*
X141069058Y-78777596D01*
X141184024Y-78949657D01*
X141330342Y-79095975D01*
X141330345Y-79095977D01*
X141502402Y-79210941D01*
X141693580Y-79290130D01*
X141896530Y-79330499D01*
X141896534Y-79330500D01*
X141896535Y-79330500D01*
X142103466Y-79330500D01*
X142103467Y-79330499D01*
X142306420Y-79290130D01*
X142497598Y-79210941D01*
X142669655Y-79095977D01*
X142815977Y-78949655D01*
X142930941Y-78777598D01*
X143010130Y-78586420D01*
X143050500Y-78383465D01*
X143050500Y-78176535D01*
X143010130Y-77973580D01*
X142930941Y-77782402D01*
X142815977Y-77610345D01*
X142815975Y-77610342D01*
X142669657Y-77464024D01*
X142583626Y-77406541D01*
X142497598Y-77349059D01*
X142306420Y-77269870D01*
X142306412Y-77269868D01*
X142103469Y-77229500D01*
X142103465Y-77229500D01*
X141896535Y-77229500D01*
X141896530Y-77229500D01*
X141693587Y-77269868D01*
X141693579Y-77269870D01*
X141502403Y-77349058D01*
X141330342Y-77464024D01*
X141184024Y-77610342D01*
X141069058Y-77782403D01*
X140989870Y-77973579D01*
X140989868Y-77973587D01*
X140949500Y-78176530D01*
X124200500Y-78176530D01*
X124200500Y-73096530D01*
X140949500Y-73096530D01*
X140949500Y-73303469D01*
X140989868Y-73506412D01*
X140989870Y-73506420D01*
X141069058Y-73697596D01*
X141184024Y-73869657D01*
X141330342Y-74015975D01*
X141330345Y-74015977D01*
X141502402Y-74130941D01*
X141693580Y-74210130D01*
X141896530Y-74250499D01*
X141896534Y-74250500D01*
X141896535Y-74250500D01*
X142008481Y-74250500D01*
X142075520Y-74270185D01*
X142096162Y-74286819D01*
X142307970Y-74498627D01*
X142341455Y-74559950D01*
X142336471Y-74629642D01*
X142294599Y-74685575D01*
X142229135Y-74709992D01*
X142196098Y-74707925D01*
X142103469Y-74689500D01*
X142103465Y-74689500D01*
X141896535Y-74689500D01*
X141896530Y-74689500D01*
X141693587Y-74729868D01*
X141693579Y-74729870D01*
X141502403Y-74809058D01*
X141330342Y-74924024D01*
X141184024Y-75070342D01*
X141069058Y-75242403D01*
X140989870Y-75433579D01*
X140989868Y-75433587D01*
X140949500Y-75636530D01*
X140949500Y-75843469D01*
X140989868Y-76046412D01*
X140989870Y-76046420D01*
X141069058Y-76237596D01*
X141184024Y-76409657D01*
X141330342Y-76555975D01*
X141330345Y-76555977D01*
X141502402Y-76670941D01*
X141693580Y-76750130D01*
X141896530Y-76790499D01*
X141896534Y-76790500D01*
X141896535Y-76790500D01*
X142103466Y-76790500D01*
X142103467Y-76790499D01*
X142306420Y-76750130D01*
X142497598Y-76670941D01*
X142669655Y-76555977D01*
X142815977Y-76409655D01*
X142930941Y-76237598D01*
X143010130Y-76046420D01*
X143050500Y-75843465D01*
X143050500Y-75636535D01*
X143032074Y-75543901D01*
X143038301Y-75474310D01*
X143081164Y-75419133D01*
X143147053Y-75395888D01*
X143215050Y-75411956D01*
X143241372Y-75432029D01*
X156763181Y-88953838D01*
X156796666Y-89015161D01*
X156799500Y-89041519D01*
X156799500Y-102931006D01*
X156799500Y-103068994D01*
X156799500Y-103068996D01*
X156799499Y-103068996D01*
X156826418Y-103204322D01*
X156826421Y-103204332D01*
X156879222Y-103331807D01*
X156955887Y-103446545D01*
X162133454Y-108624112D01*
X162248192Y-108700777D01*
X162366196Y-108749655D01*
X162375672Y-108753580D01*
X162375676Y-108753580D01*
X162375677Y-108753581D01*
X162511003Y-108780500D01*
X162511006Y-108780500D01*
X162511007Y-108780500D01*
X166163506Y-108780500D01*
X166230545Y-108800185D01*
X166251182Y-108816814D01*
X166330345Y-108895977D01*
X166502402Y-109010941D01*
X166693580Y-109090130D01*
X166896530Y-109130499D01*
X166896534Y-109130500D01*
X166896535Y-109130500D01*
X167103466Y-109130500D01*
X167103467Y-109130499D01*
X167306420Y-109090130D01*
X167497598Y-109010941D01*
X167669655Y-108895977D01*
X167815977Y-108749655D01*
X167930941Y-108577598D01*
X168010130Y-108386420D01*
X168050500Y-108183465D01*
X168050500Y-107976535D01*
X168010130Y-107773580D01*
X167930941Y-107582402D01*
X167815977Y-107410345D01*
X167815975Y-107410342D01*
X167669657Y-107264024D01*
X167521786Y-107165221D01*
X167497598Y-107149059D01*
X167376569Y-107098927D01*
X167306420Y-107069870D01*
X167306412Y-107069868D01*
X167103469Y-107029500D01*
X167103465Y-107029500D01*
X166896535Y-107029500D01*
X166896530Y-107029500D01*
X166693587Y-107069868D01*
X166693579Y-107069870D01*
X166502403Y-107149058D01*
X166330345Y-107264023D01*
X166251185Y-107343182D01*
X166189865Y-107376666D01*
X166163506Y-107379500D01*
X162921519Y-107379500D01*
X162854480Y-107359815D01*
X162833838Y-107343181D01*
X158240657Y-102750000D01*
X165672769Y-102750000D01*
X166566988Y-102750000D01*
X166534075Y-102807007D01*
X166500000Y-102934174D01*
X166500000Y-103065826D01*
X166534075Y-103192993D01*
X166566988Y-103250000D01*
X165672769Y-103250000D01*
X165683242Y-103316126D01*
X165683242Y-103316129D01*
X165748904Y-103518217D01*
X165845379Y-103707557D01*
X165970272Y-103879459D01*
X165970276Y-103879464D01*
X166120535Y-104029723D01*
X166120540Y-104029727D01*
X166292442Y-104154620D01*
X166481782Y-104251095D01*
X166657973Y-104308343D01*
X166715648Y-104347780D01*
X166742847Y-104412139D01*
X166730932Y-104480985D01*
X166683688Y-104532461D01*
X166667108Y-104540835D01*
X166502403Y-104609057D01*
X166330342Y-104724024D01*
X166184024Y-104870342D01*
X166069058Y-105042403D01*
X165989870Y-105233579D01*
X165989868Y-105233587D01*
X165949500Y-105436530D01*
X165949500Y-105643469D01*
X165989868Y-105846412D01*
X165989870Y-105846420D01*
X166069059Y-106037598D01*
X166126541Y-106123626D01*
X166184024Y-106209657D01*
X166330342Y-106355975D01*
X166330345Y-106355977D01*
X166502402Y-106470941D01*
X166693580Y-106550130D01*
X166896530Y-106590499D01*
X166896534Y-106590500D01*
X166896535Y-106590500D01*
X167103466Y-106590500D01*
X167103467Y-106590499D01*
X167306420Y-106550130D01*
X167497598Y-106470941D01*
X167669655Y-106355977D01*
X167815977Y-106209655D01*
X167930941Y-106037598D01*
X168010130Y-105846420D01*
X168050500Y-105643465D01*
X168050500Y-105436535D01*
X168010130Y-105233580D01*
X167930941Y-105042402D01*
X167815977Y-104870345D01*
X167815975Y-104870342D01*
X167669657Y-104724024D01*
X167583626Y-104666541D01*
X167497598Y-104609059D01*
X167497593Y-104609057D01*
X167435891Y-104583499D01*
X167332890Y-104540834D01*
X167278488Y-104496994D01*
X167256423Y-104430700D01*
X167273702Y-104363001D01*
X167324839Y-104315390D01*
X167342026Y-104308343D01*
X167518217Y-104251095D01*
X167707557Y-104154620D01*
X167879459Y-104029727D01*
X167879464Y-104029723D01*
X168029723Y-103879464D01*
X168029727Y-103879459D01*
X168154620Y-103707557D01*
X168251095Y-103518217D01*
X168316757Y-103316129D01*
X168316757Y-103316126D01*
X168327231Y-103250000D01*
X167433012Y-103250000D01*
X167465925Y-103192993D01*
X167500000Y-103065826D01*
X167500000Y-102934174D01*
X167465925Y-102807007D01*
X167433012Y-102750000D01*
X168327231Y-102750000D01*
X168316757Y-102683873D01*
X168316757Y-102683870D01*
X168251095Y-102481782D01*
X168154620Y-102292442D01*
X168029727Y-102120540D01*
X168029723Y-102120535D01*
X167879464Y-101970276D01*
X167879459Y-101970272D01*
X167707557Y-101845379D01*
X167518215Y-101748903D01*
X167316124Y-101683241D01*
X167250000Y-101672768D01*
X167250000Y-102566988D01*
X167192993Y-102534075D01*
X167065826Y-102500000D01*
X166934174Y-102500000D01*
X166807007Y-102534075D01*
X166750000Y-102566988D01*
X166750000Y-101672768D01*
X166749999Y-101672768D01*
X166683875Y-101683241D01*
X166481784Y-101748903D01*
X166292442Y-101845379D01*
X166120540Y-101970272D01*
X166120535Y-101970276D01*
X165970276Y-102120535D01*
X165970272Y-102120540D01*
X165845379Y-102292442D01*
X165748904Y-102481782D01*
X165683242Y-102683870D01*
X165683242Y-102683873D01*
X165672769Y-102750000D01*
X158240657Y-102750000D01*
X158236819Y-102746162D01*
X158203334Y-102684839D01*
X158200500Y-102658481D01*
X158200500Y-88631004D01*
X158173581Y-88495677D01*
X158173580Y-88495676D01*
X158173580Y-88495672D01*
X158120775Y-88368189D01*
X158119367Y-88366082D01*
X158044114Y-88253457D01*
X158044112Y-88253454D01*
X143086819Y-73296161D01*
X143053334Y-73234838D01*
X143050500Y-73208480D01*
X143050500Y-73096534D01*
X143050499Y-73096530D01*
X143010131Y-72893587D01*
X143010130Y-72893580D01*
X142930941Y-72702402D01*
X142815977Y-72530345D01*
X142815975Y-72530342D01*
X142669657Y-72384024D01*
X142583626Y-72326541D01*
X142497598Y-72269059D01*
X142306420Y-72189870D01*
X142306412Y-72189868D01*
X142103469Y-72149500D01*
X142103465Y-72149500D01*
X141896535Y-72149500D01*
X141896530Y-72149500D01*
X141693587Y-72189868D01*
X141693579Y-72189870D01*
X141502403Y-72269058D01*
X141330342Y-72384024D01*
X141184024Y-72530342D01*
X141069058Y-72702403D01*
X140989870Y-72893579D01*
X140989868Y-72893587D01*
X140949500Y-73096530D01*
X124200500Y-73096530D01*
X124200500Y-71721519D01*
X124220185Y-71654480D01*
X124236819Y-71633838D01*
X125314127Y-70556530D01*
X140949500Y-70556530D01*
X140949500Y-70763469D01*
X140983313Y-70933457D01*
X140989870Y-70966420D01*
X141069059Y-71157598D01*
X141121462Y-71236025D01*
X141184024Y-71329657D01*
X141330342Y-71475975D01*
X141330345Y-71475977D01*
X141502402Y-71590941D01*
X141693580Y-71670130D01*
X141896530Y-71710499D01*
X141896534Y-71710500D01*
X141896535Y-71710500D01*
X142103466Y-71710500D01*
X142103467Y-71710499D01*
X142306420Y-71670130D01*
X142497598Y-71590941D01*
X142669655Y-71475977D01*
X142748814Y-71396817D01*
X142810135Y-71363334D01*
X142836494Y-71360500D01*
X160318481Y-71360500D01*
X160385520Y-71380185D01*
X160406162Y-71396819D01*
X173263181Y-84253838D01*
X173296666Y-84315161D01*
X173299500Y-84341519D01*
X173299500Y-111658481D01*
X173279815Y-111725520D01*
X173263181Y-111746162D01*
X172586162Y-112423181D01*
X172524839Y-112456666D01*
X172498481Y-112459500D01*
X167836494Y-112459500D01*
X167769455Y-112439815D01*
X167748817Y-112423185D01*
X167669655Y-112344023D01*
X167497598Y-112229059D01*
X167437892Y-112204328D01*
X167306420Y-112149870D01*
X167306412Y-112149868D01*
X167103469Y-112109500D01*
X167103465Y-112109500D01*
X166896535Y-112109500D01*
X166896530Y-112109500D01*
X166693587Y-112149868D01*
X166693579Y-112149870D01*
X166502403Y-112229058D01*
X166330342Y-112344024D01*
X166184024Y-112490342D01*
X166069058Y-112662403D01*
X165989870Y-112853579D01*
X165989868Y-112853587D01*
X165949500Y-113056530D01*
X165949500Y-113263469D01*
X165989868Y-113466412D01*
X165989870Y-113466420D01*
X166069059Y-113657598D01*
X166126541Y-113743626D01*
X166184024Y-113829657D01*
X166330342Y-113975975D01*
X166330345Y-113975977D01*
X166502402Y-114090941D01*
X166693580Y-114170130D01*
X166896530Y-114210499D01*
X166896534Y-114210500D01*
X166896535Y-114210500D01*
X167103466Y-114210500D01*
X167103467Y-114210499D01*
X167306420Y-114170130D01*
X167497598Y-114090941D01*
X167669655Y-113975977D01*
X167748814Y-113896817D01*
X167810135Y-113863334D01*
X167836494Y-113860500D01*
X172908996Y-113860500D01*
X173000040Y-113842389D01*
X173044328Y-113833580D01*
X173108069Y-113807177D01*
X173171807Y-113780777D01*
X173171808Y-113780776D01*
X173171811Y-113780775D01*
X173286543Y-113704114D01*
X174544114Y-112446543D01*
X174620775Y-112331811D01*
X174673580Y-112204328D01*
X174700500Y-112068994D01*
X174700500Y-111931006D01*
X174700500Y-83931007D01*
X174700500Y-83931004D01*
X174673581Y-83795677D01*
X174673580Y-83795676D01*
X174673580Y-83795672D01*
X174620775Y-83668189D01*
X174561123Y-83578913D01*
X174544114Y-83553457D01*
X174544109Y-83553451D01*
X160946545Y-69955887D01*
X160831807Y-69879222D01*
X160704332Y-69826421D01*
X160704322Y-69826418D01*
X160568996Y-69799500D01*
X160568994Y-69799500D01*
X160431006Y-69799500D01*
X160431004Y-69799500D01*
X160295677Y-69826418D01*
X160295667Y-69826421D01*
X160168192Y-69879222D01*
X160079323Y-69938603D01*
X160012646Y-69959480D01*
X160010433Y-69959500D01*
X142836494Y-69959500D01*
X142769455Y-69939815D01*
X142748817Y-69923185D01*
X142669655Y-69844023D01*
X142497598Y-69729059D01*
X142306420Y-69649870D01*
X142306412Y-69649868D01*
X142103469Y-69609500D01*
X142103465Y-69609500D01*
X141896535Y-69609500D01*
X141896530Y-69609500D01*
X141693587Y-69649868D01*
X141693579Y-69649870D01*
X141502403Y-69729058D01*
X141330342Y-69844024D01*
X141184024Y-69990342D01*
X141069058Y-70162403D01*
X140989870Y-70353579D01*
X140989868Y-70353587D01*
X140949500Y-70556530D01*
X125314127Y-70556530D01*
X125407895Y-70462762D01*
X126660528Y-69210129D01*
X127854127Y-68016530D01*
X140949500Y-68016530D01*
X140949500Y-68223469D01*
X140989868Y-68426412D01*
X140989870Y-68426420D01*
X141069058Y-68617596D01*
X141184024Y-68789657D01*
X141330342Y-68935975D01*
X141330345Y-68935977D01*
X141502402Y-69050941D01*
X141693580Y-69130130D01*
X141896530Y-69170499D01*
X141896534Y-69170500D01*
X141896535Y-69170500D01*
X142103466Y-69170500D01*
X142103467Y-69170499D01*
X142306420Y-69130130D01*
X142497598Y-69050941D01*
X142669655Y-68935977D01*
X142748814Y-68856817D01*
X142810135Y-68823334D01*
X142836494Y-68820500D01*
X160778481Y-68820500D01*
X160845520Y-68840185D01*
X160866162Y-68856819D01*
X175263181Y-83253838D01*
X175296666Y-83315161D01*
X175299500Y-83341519D01*
X175299500Y-113158481D01*
X175279815Y-113225520D01*
X175263181Y-113246162D01*
X173546162Y-114963181D01*
X173484839Y-114996666D01*
X173458481Y-114999500D01*
X167836494Y-114999500D01*
X167769455Y-114979815D01*
X167748817Y-114963185D01*
X167669655Y-114884023D01*
X167497598Y-114769059D01*
X167306420Y-114689870D01*
X167306412Y-114689868D01*
X167103469Y-114649500D01*
X167103465Y-114649500D01*
X166896535Y-114649500D01*
X166896530Y-114649500D01*
X166693587Y-114689868D01*
X166693579Y-114689870D01*
X166502403Y-114769058D01*
X166330342Y-114884024D01*
X166184024Y-115030342D01*
X166069058Y-115202403D01*
X165989870Y-115393579D01*
X165989868Y-115393587D01*
X165949500Y-115596530D01*
X165949500Y-115803469D01*
X165989868Y-116006412D01*
X165989870Y-116006420D01*
X166069059Y-116197598D01*
X166100140Y-116244114D01*
X166184024Y-116369657D01*
X166330342Y-116515975D01*
X166330345Y-116515977D01*
X166502402Y-116630941D01*
X166693580Y-116710130D01*
X166896530Y-116750499D01*
X166896534Y-116750500D01*
X166896535Y-116750500D01*
X167103466Y-116750500D01*
X167103467Y-116750499D01*
X167306420Y-116710130D01*
X167497598Y-116630941D01*
X167669655Y-116515977D01*
X167748814Y-116436817D01*
X167810135Y-116403334D01*
X167836494Y-116400500D01*
X173868996Y-116400500D01*
X173960040Y-116382389D01*
X174004328Y-116373580D01*
X174068069Y-116347177D01*
X174131807Y-116320777D01*
X174131808Y-116320776D01*
X174131811Y-116320775D01*
X174246543Y-116244114D01*
X176544114Y-113946543D01*
X176620775Y-113831811D01*
X176621668Y-113829657D01*
X176673578Y-113704332D01*
X176673580Y-113704328D01*
X176700500Y-113568994D01*
X176700500Y-113431006D01*
X176700500Y-82931007D01*
X176700500Y-82931004D01*
X176673581Y-82795677D01*
X176673580Y-82795676D01*
X176673580Y-82795672D01*
X176673578Y-82795667D01*
X176620776Y-82668190D01*
X176600833Y-82638344D01*
X176600832Y-82638342D01*
X176544114Y-82553457D01*
X176544112Y-82553454D01*
X164627188Y-70636530D01*
X172449500Y-70636530D01*
X172449500Y-70843469D01*
X172473957Y-70966420D01*
X172489870Y-71046420D01*
X172569059Y-71237598D01*
X172597909Y-71280775D01*
X172684024Y-71409657D01*
X172830342Y-71555975D01*
X172830345Y-71555977D01*
X173002402Y-71670941D01*
X173193580Y-71750130D01*
X173396530Y-71790499D01*
X173396534Y-71790500D01*
X173396535Y-71790500D01*
X173603466Y-71790500D01*
X173603467Y-71790499D01*
X173806420Y-71750130D01*
X173997598Y-71670941D01*
X174169655Y-71555977D01*
X174315977Y-71409655D01*
X174430941Y-71237598D01*
X174510130Y-71046420D01*
X174550500Y-70843465D01*
X174550500Y-70636535D01*
X174510130Y-70433580D01*
X174430941Y-70242402D01*
X174315977Y-70070345D01*
X174315975Y-70070342D01*
X174169657Y-69924024D01*
X174049927Y-69844024D01*
X173997598Y-69809059D01*
X173806420Y-69729870D01*
X173806412Y-69729868D01*
X173603469Y-69689500D01*
X173603465Y-69689500D01*
X173396535Y-69689500D01*
X173396530Y-69689500D01*
X173193587Y-69729868D01*
X173193579Y-69729870D01*
X173002403Y-69809058D01*
X172830342Y-69924024D01*
X172684024Y-70070342D01*
X172569058Y-70242403D01*
X172489870Y-70433579D01*
X172489868Y-70433587D01*
X172449500Y-70636530D01*
X164627188Y-70636530D01*
X162087188Y-68096530D01*
X172449500Y-68096530D01*
X172449500Y-68303469D01*
X172489868Y-68506412D01*
X172489870Y-68506420D01*
X172569058Y-68697596D01*
X172684024Y-68869657D01*
X172830342Y-69015975D01*
X172830345Y-69015977D01*
X173002402Y-69130941D01*
X173193580Y-69210130D01*
X173396530Y-69250499D01*
X173396534Y-69250500D01*
X173396535Y-69250500D01*
X173603466Y-69250500D01*
X173603467Y-69250499D01*
X173806420Y-69210130D01*
X173997598Y-69130941D01*
X174169655Y-69015977D01*
X174315977Y-68869655D01*
X174430941Y-68697598D01*
X174510130Y-68506420D01*
X174550500Y-68303465D01*
X174550500Y-68096535D01*
X174510130Y-67893580D01*
X174430941Y-67702402D01*
X174315977Y-67530345D01*
X174315975Y-67530342D01*
X174169657Y-67384024D01*
X174049927Y-67304024D01*
X173997598Y-67269059D01*
X173806420Y-67189870D01*
X173806412Y-67189868D01*
X173603469Y-67149500D01*
X173603465Y-67149500D01*
X173396535Y-67149500D01*
X173396530Y-67149500D01*
X173193587Y-67189868D01*
X173193579Y-67189870D01*
X173002403Y-67269058D01*
X172830342Y-67384024D01*
X172684024Y-67530342D01*
X172569058Y-67702403D01*
X172489870Y-67893579D01*
X172489868Y-67893587D01*
X172449500Y-68096530D01*
X162087188Y-68096530D01*
X161566545Y-67575887D01*
X161451807Y-67499222D01*
X161324332Y-67446421D01*
X161324322Y-67446418D01*
X161188996Y-67419500D01*
X161188994Y-67419500D01*
X161188993Y-67419500D01*
X142836494Y-67419500D01*
X142769455Y-67399815D01*
X142748817Y-67383185D01*
X142669655Y-67304023D01*
X142497598Y-67189059D01*
X142306420Y-67109870D01*
X142306412Y-67109868D01*
X142103469Y-67069500D01*
X142103465Y-67069500D01*
X141896535Y-67069500D01*
X141896530Y-67069500D01*
X141693587Y-67109868D01*
X141693579Y-67109870D01*
X141502403Y-67189058D01*
X141330342Y-67304024D01*
X141184024Y-67450342D01*
X141069058Y-67622403D01*
X140989870Y-67813579D01*
X140989868Y-67813587D01*
X140949500Y-68016530D01*
X127854127Y-68016530D01*
X130394126Y-65476530D01*
X140949500Y-65476530D01*
X140949500Y-65683469D01*
X140989868Y-65886412D01*
X140989870Y-65886420D01*
X141069058Y-66077596D01*
X141184024Y-66249657D01*
X141330342Y-66395975D01*
X141330345Y-66395977D01*
X141502402Y-66510941D01*
X141693580Y-66590130D01*
X141896530Y-66630499D01*
X141896534Y-66630500D01*
X141896535Y-66630500D01*
X142103466Y-66630500D01*
X142103467Y-66630499D01*
X142306420Y-66590130D01*
X142497598Y-66510941D01*
X142669655Y-66395977D01*
X142815977Y-66249655D01*
X142930941Y-66077598D01*
X143010130Y-65886420D01*
X143050500Y-65683465D01*
X143050500Y-65556530D01*
X172449500Y-65556530D01*
X172449500Y-65763469D01*
X172489868Y-65966412D01*
X172489870Y-65966420D01*
X172569058Y-66157596D01*
X172684024Y-66329657D01*
X172830342Y-66475975D01*
X172830345Y-66475977D01*
X173002402Y-66590941D01*
X173193580Y-66670130D01*
X173396530Y-66710499D01*
X173396534Y-66710500D01*
X173396535Y-66710500D01*
X173603466Y-66710500D01*
X173603467Y-66710499D01*
X173806420Y-66670130D01*
X173997598Y-66590941D01*
X174169655Y-66475977D01*
X174315977Y-66329655D01*
X174430941Y-66157598D01*
X174510130Y-65966420D01*
X174550500Y-65763465D01*
X174550500Y-65556535D01*
X174510130Y-65353580D01*
X174430941Y-65162402D01*
X174315977Y-64990345D01*
X174315975Y-64990342D01*
X174169657Y-64844024D01*
X174049927Y-64764024D01*
X173997598Y-64729059D01*
X173806420Y-64649870D01*
X173806412Y-64649868D01*
X173603469Y-64609500D01*
X173603465Y-64609500D01*
X173396535Y-64609500D01*
X173396530Y-64609500D01*
X173193587Y-64649868D01*
X173193579Y-64649870D01*
X173002403Y-64729058D01*
X172830342Y-64844024D01*
X172684024Y-64990342D01*
X172569058Y-65162403D01*
X172489870Y-65353579D01*
X172489868Y-65353587D01*
X172449500Y-65556530D01*
X143050500Y-65556530D01*
X143050500Y-65476535D01*
X143010130Y-65273580D01*
X142930941Y-65082402D01*
X142815977Y-64910345D01*
X142815975Y-64910342D01*
X142669657Y-64764024D01*
X142583626Y-64706541D01*
X142497598Y-64649059D01*
X142306420Y-64569870D01*
X142306412Y-64569868D01*
X142103469Y-64529500D01*
X142103465Y-64529500D01*
X141896535Y-64529500D01*
X141896530Y-64529500D01*
X141693587Y-64569868D01*
X141693579Y-64569870D01*
X141502403Y-64649058D01*
X141330342Y-64764024D01*
X141184024Y-64910342D01*
X141069058Y-65082403D01*
X140989870Y-65273579D01*
X140989868Y-65273587D01*
X140949500Y-65476530D01*
X130394126Y-65476530D01*
X132934126Y-62936530D01*
X140949500Y-62936530D01*
X140949500Y-63143469D01*
X140989868Y-63346412D01*
X140989870Y-63346420D01*
X141069058Y-63537596D01*
X141184024Y-63709657D01*
X141330342Y-63855975D01*
X141330345Y-63855977D01*
X141502402Y-63970941D01*
X141693580Y-64050130D01*
X141896530Y-64090499D01*
X141896534Y-64090500D01*
X141896535Y-64090500D01*
X142103466Y-64090500D01*
X142103467Y-64090499D01*
X142306420Y-64050130D01*
X142497598Y-63970941D01*
X142669655Y-63855977D01*
X142815977Y-63709655D01*
X142930941Y-63537598D01*
X143010130Y-63346420D01*
X143050500Y-63143465D01*
X143050500Y-63016530D01*
X172449500Y-63016530D01*
X172449500Y-63223469D01*
X172489868Y-63426412D01*
X172489870Y-63426420D01*
X172569058Y-63617596D01*
X172684024Y-63789657D01*
X172830342Y-63935975D01*
X172830345Y-63935977D01*
X173002402Y-64050941D01*
X173193580Y-64130130D01*
X173396530Y-64170499D01*
X173396534Y-64170500D01*
X173396535Y-64170500D01*
X173603466Y-64170500D01*
X173603467Y-64170499D01*
X173806420Y-64130130D01*
X173997598Y-64050941D01*
X174169655Y-63935977D01*
X174315977Y-63789655D01*
X174430941Y-63617598D01*
X174510130Y-63426420D01*
X174550500Y-63223465D01*
X174550500Y-63016535D01*
X174510130Y-62813580D01*
X174430941Y-62622402D01*
X174315977Y-62450345D01*
X174315975Y-62450342D01*
X174169657Y-62304024D01*
X174049927Y-62224024D01*
X173997598Y-62189059D01*
X173806420Y-62109870D01*
X173806412Y-62109868D01*
X173603469Y-62069500D01*
X173603465Y-62069500D01*
X173396535Y-62069500D01*
X173396530Y-62069500D01*
X173193587Y-62109868D01*
X173193579Y-62109870D01*
X173002403Y-62189058D01*
X172830342Y-62304024D01*
X172684024Y-62450342D01*
X172569058Y-62622403D01*
X172489870Y-62813579D01*
X172489868Y-62813587D01*
X172449500Y-63016530D01*
X143050500Y-63016530D01*
X143050500Y-62936535D01*
X143010130Y-62733580D01*
X142930941Y-62542402D01*
X142815977Y-62370345D01*
X142815975Y-62370342D01*
X142669657Y-62224024D01*
X142583626Y-62166541D01*
X142497598Y-62109059D01*
X142306420Y-62029870D01*
X142306412Y-62029868D01*
X142103469Y-61989500D01*
X142103465Y-61989500D01*
X141896535Y-61989500D01*
X141896530Y-61989500D01*
X141693587Y-62029868D01*
X141693579Y-62029870D01*
X141502403Y-62109058D01*
X141330342Y-62224024D01*
X141184024Y-62370342D01*
X141069058Y-62542403D01*
X140989870Y-62733579D01*
X140989868Y-62733587D01*
X140949500Y-62936530D01*
X132934126Y-62936530D01*
X135474126Y-60396530D01*
X140949500Y-60396530D01*
X140949500Y-60603469D01*
X140989868Y-60806412D01*
X140989870Y-60806420D01*
X141069058Y-60997596D01*
X141184024Y-61169657D01*
X141330342Y-61315975D01*
X141330345Y-61315977D01*
X141502402Y-61430941D01*
X141693580Y-61510130D01*
X141838052Y-61538867D01*
X141896530Y-61550499D01*
X141896534Y-61550500D01*
X141896535Y-61550500D01*
X142103466Y-61550500D01*
X142103467Y-61550499D01*
X142306420Y-61510130D01*
X142497598Y-61430941D01*
X142669655Y-61315977D01*
X142815977Y-61169655D01*
X142930941Y-60997598D01*
X143010130Y-60806420D01*
X143050500Y-60603465D01*
X143050500Y-60476530D01*
X172449500Y-60476530D01*
X172449500Y-60683469D01*
X172489868Y-60886412D01*
X172489870Y-60886420D01*
X172569058Y-61077596D01*
X172684024Y-61249657D01*
X172830342Y-61395975D01*
X172830345Y-61395977D01*
X173002402Y-61510941D01*
X173193580Y-61590130D01*
X173396530Y-61630499D01*
X173396534Y-61630500D01*
X173396535Y-61630500D01*
X173603466Y-61630500D01*
X173603467Y-61630499D01*
X173806420Y-61590130D01*
X173997598Y-61510941D01*
X174169655Y-61395977D01*
X174315977Y-61249655D01*
X174430941Y-61077598D01*
X174510130Y-60886420D01*
X174550500Y-60683465D01*
X174550500Y-60476535D01*
X174510130Y-60273580D01*
X174430941Y-60082402D01*
X174315977Y-59910345D01*
X174315975Y-59910342D01*
X174169657Y-59764024D01*
X174049927Y-59684024D01*
X173997598Y-59649059D01*
X173806420Y-59569870D01*
X173806412Y-59569868D01*
X173603469Y-59529500D01*
X173603465Y-59529500D01*
X173396535Y-59529500D01*
X173396530Y-59529500D01*
X173193587Y-59569868D01*
X173193579Y-59569870D01*
X173002403Y-59649058D01*
X172830342Y-59764024D01*
X172684024Y-59910342D01*
X172569058Y-60082403D01*
X172489870Y-60273579D01*
X172489868Y-60273587D01*
X172449500Y-60476530D01*
X143050500Y-60476530D01*
X143050500Y-60396535D01*
X143010130Y-60193580D01*
X142930941Y-60002402D01*
X142815977Y-59830345D01*
X142815975Y-59830342D01*
X142669657Y-59684024D01*
X142501655Y-59571770D01*
X142497598Y-59569059D01*
X142306420Y-59489870D01*
X142306412Y-59489868D01*
X142103469Y-59449500D01*
X142103465Y-59449500D01*
X141896535Y-59449500D01*
X141896530Y-59449500D01*
X141693587Y-59489868D01*
X141693579Y-59489870D01*
X141502403Y-59569058D01*
X141330342Y-59684024D01*
X141184024Y-59830342D01*
X141069058Y-60002403D01*
X140989870Y-60193579D01*
X140989868Y-60193587D01*
X140949500Y-60396530D01*
X135474126Y-60396530D01*
X138014126Y-57856530D01*
X140949500Y-57856530D01*
X140949500Y-58063469D01*
X140989868Y-58266412D01*
X140989870Y-58266420D01*
X141069058Y-58457596D01*
X141184024Y-58629657D01*
X141330342Y-58775975D01*
X141330345Y-58775977D01*
X141502402Y-58890941D01*
X141693580Y-58970130D01*
X141896530Y-59010499D01*
X141896534Y-59010500D01*
X141896535Y-59010500D01*
X142103466Y-59010500D01*
X142103467Y-59010499D01*
X142306420Y-58970130D01*
X142497598Y-58890941D01*
X142669655Y-58775977D01*
X142815977Y-58629655D01*
X142930941Y-58457598D01*
X143010130Y-58266420D01*
X143050500Y-58063465D01*
X143050500Y-57936530D01*
X172449500Y-57936530D01*
X172449500Y-58143469D01*
X172489868Y-58346412D01*
X172489870Y-58346420D01*
X172569058Y-58537596D01*
X172684024Y-58709657D01*
X172830342Y-58855975D01*
X172830345Y-58855977D01*
X173002402Y-58970941D01*
X173193580Y-59050130D01*
X173396530Y-59090499D01*
X173396534Y-59090500D01*
X173396535Y-59090500D01*
X173603466Y-59090500D01*
X173603467Y-59090499D01*
X173806420Y-59050130D01*
X173997598Y-58970941D01*
X174169655Y-58855977D01*
X174315977Y-58709655D01*
X174430941Y-58537598D01*
X174510130Y-58346420D01*
X174550500Y-58143465D01*
X174550500Y-57936535D01*
X174510130Y-57733580D01*
X174430941Y-57542402D01*
X174315977Y-57370345D01*
X174315975Y-57370342D01*
X174169657Y-57224024D01*
X174049927Y-57144024D01*
X173997598Y-57109059D01*
X173806420Y-57029870D01*
X173806412Y-57029868D01*
X173603469Y-56989500D01*
X173603465Y-56989500D01*
X173396535Y-56989500D01*
X173396530Y-56989500D01*
X173193587Y-57029868D01*
X173193579Y-57029870D01*
X173002403Y-57109058D01*
X172830342Y-57224024D01*
X172684024Y-57370342D01*
X172569058Y-57542403D01*
X172489870Y-57733579D01*
X172489868Y-57733587D01*
X172449500Y-57936530D01*
X143050500Y-57936530D01*
X143050500Y-57856535D01*
X143010130Y-57653580D01*
X142930941Y-57462402D01*
X142815977Y-57290345D01*
X142815975Y-57290342D01*
X142669657Y-57144024D01*
X142583626Y-57086541D01*
X142497598Y-57029059D01*
X142306420Y-56949870D01*
X142306412Y-56949868D01*
X142103469Y-56909500D01*
X142103465Y-56909500D01*
X141896535Y-56909500D01*
X141896530Y-56909500D01*
X141693587Y-56949868D01*
X141693579Y-56949870D01*
X141502403Y-57029058D01*
X141330342Y-57144024D01*
X141184024Y-57290342D01*
X141069058Y-57462403D01*
X140989870Y-57653579D01*
X140989868Y-57653587D01*
X140949500Y-57856530D01*
X138014126Y-57856530D01*
X140758629Y-55112027D01*
X140819950Y-55078544D01*
X140889642Y-55083528D01*
X140945575Y-55125400D01*
X140969992Y-55190864D01*
X140967926Y-55223900D01*
X140949501Y-55316534D01*
X140949500Y-55316537D01*
X140949500Y-55523469D01*
X140989868Y-55726412D01*
X140989870Y-55726420D01*
X141069058Y-55917596D01*
X141184024Y-56089657D01*
X141330342Y-56235975D01*
X141330345Y-56235977D01*
X141502402Y-56350941D01*
X141693580Y-56430130D01*
X141896530Y-56470499D01*
X141896534Y-56470500D01*
X141896535Y-56470500D01*
X142103466Y-56470500D01*
X142103467Y-56470499D01*
X142306420Y-56430130D01*
X142497598Y-56350941D01*
X142669655Y-56235977D01*
X142815977Y-56089655D01*
X142930941Y-55917598D01*
X143010130Y-55726420D01*
X143050500Y-55523465D01*
X143050500Y-55316535D01*
X143010130Y-55113580D01*
X142930941Y-54922402D01*
X142815977Y-54750345D01*
X142815975Y-54750342D01*
X142695880Y-54630247D01*
X172449500Y-54630247D01*
X172449500Y-56369752D01*
X172461131Y-56428229D01*
X172461132Y-56428230D01*
X172505447Y-56494552D01*
X172571769Y-56538867D01*
X172571770Y-56538868D01*
X172630247Y-56550499D01*
X172630250Y-56550500D01*
X172630252Y-56550500D01*
X174369750Y-56550500D01*
X174369751Y-56550499D01*
X174384568Y-56547552D01*
X174428229Y-56538868D01*
X174428229Y-56538867D01*
X174428231Y-56538867D01*
X174494552Y-56494552D01*
X174538867Y-56428231D01*
X174538867Y-56428229D01*
X174538868Y-56428229D01*
X174550499Y-56369752D01*
X174550500Y-56369750D01*
X174550500Y-54630249D01*
X174550499Y-54630247D01*
X174538868Y-54571770D01*
X174538867Y-54571769D01*
X174494552Y-54505447D01*
X174428230Y-54461132D01*
X174428229Y-54461131D01*
X174369752Y-54449500D01*
X174369748Y-54449500D01*
X172630252Y-54449500D01*
X172630247Y-54449500D01*
X172571770Y-54461131D01*
X172571769Y-54461132D01*
X172505447Y-54505447D01*
X172461132Y-54571769D01*
X172461131Y-54571770D01*
X172449500Y-54630247D01*
X142695880Y-54630247D01*
X142669657Y-54604024D01*
X142522126Y-54505448D01*
X142497598Y-54489059D01*
X142430174Y-54461131D01*
X142306420Y-54409870D01*
X142306412Y-54409868D01*
X142103469Y-54369500D01*
X142103465Y-54369500D01*
X141896535Y-54369500D01*
X141803901Y-54387926D01*
X141734309Y-54381698D01*
X141679132Y-54338834D01*
X141655888Y-54272944D01*
X141671956Y-54204947D01*
X141692025Y-54178631D01*
X141903838Y-53966819D01*
X141965161Y-53933334D01*
X141991519Y-53930500D01*
X142103466Y-53930500D01*
X142103467Y-53930499D01*
X142306420Y-53890130D01*
X142497598Y-53810941D01*
X142669655Y-53695977D01*
X142815977Y-53549655D01*
X142930941Y-53377598D01*
X143010130Y-53186420D01*
X143050500Y-52983465D01*
X143050500Y-52776535D01*
X143010130Y-52573580D01*
X142930941Y-52382402D01*
X142815977Y-52210345D01*
X142815975Y-52210342D01*
X142669657Y-52064024D01*
X142501655Y-51951770D01*
X142497598Y-51949059D01*
X142306420Y-51869870D01*
X142306412Y-51869868D01*
X142103469Y-51829500D01*
X142103465Y-51829500D01*
X141896535Y-51829500D01*
X141896530Y-51829500D01*
X141693587Y-51869868D01*
X141693579Y-51869870D01*
X141502403Y-51949058D01*
X141330342Y-52064024D01*
X141184024Y-52210342D01*
X141069058Y-52382403D01*
X140989870Y-52573579D01*
X140989868Y-52573587D01*
X140949500Y-52776530D01*
X140949500Y-52888480D01*
X140929815Y-52955519D01*
X140913181Y-52976161D01*
X122955888Y-70933453D01*
X122955887Y-70933454D01*
X122879222Y-71048192D01*
X122826421Y-71175667D01*
X122826418Y-71175679D01*
X122805811Y-71279275D01*
X122805801Y-71279329D01*
X122805514Y-71280775D01*
X122799500Y-71311007D01*
X122799500Y-101431006D01*
X122799500Y-101568994D01*
X122799500Y-101568996D01*
X122799499Y-101568996D01*
X78000500Y-101568996D01*
X78000500Y-88336530D01*
X115949500Y-88336530D01*
X115949500Y-88543469D01*
X115989868Y-88746412D01*
X115989870Y-88746420D01*
X116069058Y-88937596D01*
X116184024Y-89109657D01*
X116330342Y-89255975D01*
X116330345Y-89255977D01*
X116502402Y-89370941D01*
X116693580Y-89450130D01*
X116896530Y-89490499D01*
X116896534Y-89490500D01*
X116896535Y-89490500D01*
X117103466Y-89490500D01*
X117103467Y-89490499D01*
X117306420Y-89450130D01*
X117497598Y-89370941D01*
X117669655Y-89255977D01*
X117815977Y-89109655D01*
X117930941Y-88937598D01*
X118010130Y-88746420D01*
X118050500Y-88543465D01*
X118050500Y-88336535D01*
X118010130Y-88133580D01*
X117930941Y-87942402D01*
X117815977Y-87770345D01*
X117815975Y-87770342D01*
X117669657Y-87624024D01*
X117547130Y-87542155D01*
X117497598Y-87509059D01*
X117306420Y-87429870D01*
X117306412Y-87429868D01*
X117103469Y-87389500D01*
X117103465Y-87389500D01*
X116896535Y-87389500D01*
X116896530Y-87389500D01*
X116693587Y-87429868D01*
X116693579Y-87429870D01*
X116502403Y-87509058D01*
X116330342Y-87624024D01*
X116184024Y-87770342D01*
X116069058Y-87942403D01*
X115989870Y-88133579D01*
X115989868Y-88133587D01*
X115949500Y-88336530D01*
X78000500Y-88336530D01*
X78000500Y-85796530D01*
X115949500Y-85796530D01*
X115949500Y-86003469D01*
X115989868Y-86206412D01*
X115989870Y-86206420D01*
X116069058Y-86397596D01*
X116184024Y-86569657D01*
X116330342Y-86715975D01*
X116330345Y-86715977D01*
X116502402Y-86830941D01*
X116693580Y-86910130D01*
X116885741Y-86948353D01*
X116896530Y-86950499D01*
X116896534Y-86950500D01*
X116896535Y-86950500D01*
X117103466Y-86950500D01*
X117103467Y-86950499D01*
X117306420Y-86910130D01*
X117497598Y-86830941D01*
X117669655Y-86715977D01*
X117815977Y-86569655D01*
X117930941Y-86397598D01*
X118010130Y-86206420D01*
X118050500Y-86003465D01*
X118050500Y-85796535D01*
X118010130Y-85593580D01*
X117930941Y-85402402D01*
X117815977Y-85230345D01*
X117815975Y-85230342D01*
X117669657Y-85084024D01*
X117583626Y-85026541D01*
X117497598Y-84969059D01*
X117306420Y-84889870D01*
X117306412Y-84889868D01*
X117103469Y-84849500D01*
X117103465Y-84849500D01*
X116896535Y-84849500D01*
X116896530Y-84849500D01*
X116693587Y-84889868D01*
X116693579Y-84889870D01*
X116502403Y-84969058D01*
X116330342Y-85084024D01*
X116184024Y-85230342D01*
X116069058Y-85402403D01*
X115989870Y-85593579D01*
X115989868Y-85593587D01*
X115949500Y-85796530D01*
X78000500Y-85796530D01*
X78000500Y-83256530D01*
X80449500Y-83256530D01*
X80449500Y-83463469D01*
X80489868Y-83666412D01*
X80489870Y-83666420D01*
X80569058Y-83857596D01*
X80684024Y-84029657D01*
X80830342Y-84175975D01*
X80830345Y-84175977D01*
X81002402Y-84290941D01*
X81193580Y-84370130D01*
X81396530Y-84410499D01*
X81396534Y-84410500D01*
X81396535Y-84410500D01*
X81603466Y-84410500D01*
X81603467Y-84410499D01*
X81806420Y-84370130D01*
X81997598Y-84290941D01*
X82169655Y-84175977D01*
X82315977Y-84029655D01*
X82430941Y-83857598D01*
X82510130Y-83666420D01*
X82550500Y-83463465D01*
X82550500Y-83256535D01*
X82550499Y-83256530D01*
X115949500Y-83256530D01*
X115949500Y-83463469D01*
X115989868Y-83666412D01*
X115989870Y-83666420D01*
X116069058Y-83857596D01*
X116184024Y-84029657D01*
X116330342Y-84175975D01*
X116330345Y-84175977D01*
X116502402Y-84290941D01*
X116693580Y-84370130D01*
X116896530Y-84410499D01*
X116896534Y-84410500D01*
X116896535Y-84410500D01*
X117103466Y-84410500D01*
X117103467Y-84410499D01*
X117306420Y-84370130D01*
X117497598Y-84290941D01*
X117669655Y-84175977D01*
X117815977Y-84029655D01*
X117930941Y-83857598D01*
X118010130Y-83666420D01*
X118050500Y-83463465D01*
X118050500Y-83256535D01*
X118010130Y-83053580D01*
X117930941Y-82862402D01*
X117815977Y-82690345D01*
X117815975Y-82690342D01*
X117669657Y-82544024D01*
X117583626Y-82486541D01*
X117497598Y-82429059D01*
X117306420Y-82349870D01*
X117306412Y-82349868D01*
X117103469Y-82309500D01*
X117103465Y-82309500D01*
X116896535Y-82309500D01*
X116896530Y-82309500D01*
X116693587Y-82349868D01*
X116693579Y-82349870D01*
X116502403Y-82429058D01*
X116330342Y-82544024D01*
X116184024Y-82690342D01*
X116069058Y-82862403D01*
X115989870Y-83053579D01*
X115989868Y-83053587D01*
X115949500Y-83256530D01*
X82550499Y-83256530D01*
X82510130Y-83053580D01*
X82430941Y-82862402D01*
X82315977Y-82690345D01*
X82315975Y-82690342D01*
X82169657Y-82544024D01*
X82083626Y-82486541D01*
X81997598Y-82429059D01*
X81806420Y-82349870D01*
X81806412Y-82349868D01*
X81603469Y-82309500D01*
X81603465Y-82309500D01*
X81396535Y-82309500D01*
X81396530Y-82309500D01*
X81193587Y-82349868D01*
X81193579Y-82349870D01*
X81002403Y-82429058D01*
X80830342Y-82544024D01*
X80684024Y-82690342D01*
X80569058Y-82862403D01*
X80489870Y-83053579D01*
X80489868Y-83053587D01*
X80449500Y-83256530D01*
X78000500Y-83256530D01*
X78000500Y-80716530D01*
X80449500Y-80716530D01*
X80449500Y-80923469D01*
X80489868Y-81126412D01*
X80489870Y-81126420D01*
X80569058Y-81317596D01*
X80684024Y-81489657D01*
X80830342Y-81635975D01*
X80830345Y-81635977D01*
X81002402Y-81750941D01*
X81193580Y-81830130D01*
X81396530Y-81870499D01*
X81396534Y-81870500D01*
X81396535Y-81870500D01*
X81603466Y-81870500D01*
X81603467Y-81870499D01*
X81806420Y-81830130D01*
X81997598Y-81750941D01*
X82169655Y-81635977D01*
X82315977Y-81489655D01*
X82430941Y-81317598D01*
X82510130Y-81126420D01*
X82550500Y-80923465D01*
X82550500Y-80716535D01*
X82550499Y-80716530D01*
X115949500Y-80716530D01*
X115949500Y-80923469D01*
X115989868Y-81126412D01*
X115989870Y-81126420D01*
X116069058Y-81317596D01*
X116184024Y-81489657D01*
X116330342Y-81635975D01*
X116330345Y-81635977D01*
X116502402Y-81750941D01*
X116693580Y-81830130D01*
X116896530Y-81870499D01*
X116896534Y-81870500D01*
X116896535Y-81870500D01*
X117103466Y-81870500D01*
X117103467Y-81870499D01*
X117306420Y-81830130D01*
X117497598Y-81750941D01*
X117669655Y-81635977D01*
X117815977Y-81489655D01*
X117930941Y-81317598D01*
X118010130Y-81126420D01*
X118050500Y-80923465D01*
X118050500Y-80716535D01*
X118010130Y-80513580D01*
X117930941Y-80322402D01*
X117815977Y-80150345D01*
X117815975Y-80150342D01*
X117669657Y-80004024D01*
X117583626Y-79946541D01*
X117497598Y-79889059D01*
X117306420Y-79809870D01*
X117306412Y-79809868D01*
X117103469Y-79769500D01*
X117103465Y-79769500D01*
X116896535Y-79769500D01*
X116896530Y-79769500D01*
X116693587Y-79809868D01*
X116693579Y-79809870D01*
X116502403Y-79889058D01*
X116330342Y-80004024D01*
X116184024Y-80150342D01*
X116069058Y-80322403D01*
X115989870Y-80513579D01*
X115989868Y-80513587D01*
X115949500Y-80716530D01*
X82550499Y-80716530D01*
X82510130Y-80513580D01*
X82430941Y-80322402D01*
X82315977Y-80150345D01*
X82315975Y-80150342D01*
X82169657Y-80004024D01*
X82083626Y-79946541D01*
X81997598Y-79889059D01*
X81806420Y-79809870D01*
X81806412Y-79809868D01*
X81603469Y-79769500D01*
X81603465Y-79769500D01*
X81396535Y-79769500D01*
X81396530Y-79769500D01*
X81193587Y-79809868D01*
X81193579Y-79809870D01*
X81002403Y-79889058D01*
X80830342Y-80004024D01*
X80684024Y-80150342D01*
X80569058Y-80322403D01*
X80489870Y-80513579D01*
X80489868Y-80513587D01*
X80449500Y-80716530D01*
X78000500Y-80716530D01*
X78000500Y-78176530D01*
X80449500Y-78176530D01*
X80449500Y-78383469D01*
X80489868Y-78586412D01*
X80489870Y-78586420D01*
X80569058Y-78777596D01*
X80684024Y-78949657D01*
X80830342Y-79095975D01*
X80830345Y-79095977D01*
X81002402Y-79210941D01*
X81193580Y-79290130D01*
X81396530Y-79330499D01*
X81396534Y-79330500D01*
X81396535Y-79330500D01*
X81603466Y-79330500D01*
X81603467Y-79330499D01*
X81806420Y-79290130D01*
X81997598Y-79210941D01*
X82169655Y-79095977D01*
X82315977Y-78949655D01*
X82430941Y-78777598D01*
X82510130Y-78586420D01*
X82550500Y-78383465D01*
X82550500Y-78176535D01*
X82550499Y-78176530D01*
X115949500Y-78176530D01*
X115949500Y-78383469D01*
X115989868Y-78586412D01*
X115989870Y-78586420D01*
X116069058Y-78777596D01*
X116184024Y-78949657D01*
X116330342Y-79095975D01*
X116330345Y-79095977D01*
X116502402Y-79210941D01*
X116693580Y-79290130D01*
X116896530Y-79330499D01*
X116896534Y-79330500D01*
X116896535Y-79330500D01*
X117103466Y-79330500D01*
X117103467Y-79330499D01*
X117306420Y-79290130D01*
X117497598Y-79210941D01*
X117669655Y-79095977D01*
X117815977Y-78949655D01*
X117930941Y-78777598D01*
X118010130Y-78586420D01*
X118050500Y-78383465D01*
X118050500Y-78176535D01*
X118010130Y-77973580D01*
X117930941Y-77782402D01*
X117815977Y-77610345D01*
X117815975Y-77610342D01*
X117669657Y-77464024D01*
X117583626Y-77406541D01*
X117497598Y-77349059D01*
X117306420Y-77269870D01*
X117306412Y-77269868D01*
X117103469Y-77229500D01*
X117103465Y-77229500D01*
X116896535Y-77229500D01*
X116896530Y-77229500D01*
X116693587Y-77269868D01*
X116693579Y-77269870D01*
X116502403Y-77349058D01*
X116330342Y-77464024D01*
X116184024Y-77610342D01*
X116069058Y-77782403D01*
X115989870Y-77973579D01*
X115989868Y-77973587D01*
X115949500Y-78176530D01*
X82550499Y-78176530D01*
X82510130Y-77973580D01*
X82430941Y-77782402D01*
X82315977Y-77610345D01*
X82315975Y-77610342D01*
X82169657Y-77464024D01*
X82083626Y-77406541D01*
X81997598Y-77349059D01*
X81806420Y-77269870D01*
X81806412Y-77269868D01*
X81603469Y-77229500D01*
X81603465Y-77229500D01*
X81396535Y-77229500D01*
X81396530Y-77229500D01*
X81193587Y-77269868D01*
X81193579Y-77269870D01*
X81002403Y-77349058D01*
X80830342Y-77464024D01*
X80684024Y-77610342D01*
X80569058Y-77782403D01*
X80489870Y-77973579D01*
X80489868Y-77973587D01*
X80449500Y-78176530D01*
X78000500Y-78176530D01*
X78000500Y-75636530D01*
X80449500Y-75636530D01*
X80449500Y-75843469D01*
X80489868Y-76046412D01*
X80489870Y-76046420D01*
X80569058Y-76237596D01*
X80684024Y-76409657D01*
X80830342Y-76555975D01*
X80830345Y-76555977D01*
X81002402Y-76670941D01*
X81193580Y-76750130D01*
X81396530Y-76790499D01*
X81396534Y-76790500D01*
X81396535Y-76790500D01*
X81603466Y-76790500D01*
X81603467Y-76790499D01*
X81806420Y-76750130D01*
X81997598Y-76670941D01*
X82169655Y-76555977D01*
X82315977Y-76409655D01*
X82430941Y-76237598D01*
X82510130Y-76046420D01*
X82550500Y-75843465D01*
X82550500Y-75636535D01*
X82550499Y-75636530D01*
X115949500Y-75636530D01*
X115949500Y-75843469D01*
X115989868Y-76046412D01*
X115989870Y-76046420D01*
X116069058Y-76237596D01*
X116184024Y-76409657D01*
X116330342Y-76555975D01*
X116330345Y-76555977D01*
X116502402Y-76670941D01*
X116693580Y-76750130D01*
X116896530Y-76790499D01*
X116896534Y-76790500D01*
X116896535Y-76790500D01*
X117103466Y-76790500D01*
X117103467Y-76790499D01*
X117306420Y-76750130D01*
X117497598Y-76670941D01*
X117669655Y-76555977D01*
X117815977Y-76409655D01*
X117930941Y-76237598D01*
X118010130Y-76046420D01*
X118050500Y-75843465D01*
X118050500Y-75636535D01*
X118010130Y-75433580D01*
X117930941Y-75242402D01*
X117815977Y-75070345D01*
X117815975Y-75070342D01*
X117669657Y-74924024D01*
X117583626Y-74866541D01*
X117497598Y-74809059D01*
X117306420Y-74729870D01*
X117306412Y-74729868D01*
X117103469Y-74689500D01*
X117103465Y-74689500D01*
X116896535Y-74689500D01*
X116896530Y-74689500D01*
X116693587Y-74729868D01*
X116693579Y-74729870D01*
X116502403Y-74809058D01*
X116330342Y-74924024D01*
X116184024Y-75070342D01*
X116069058Y-75242403D01*
X115989870Y-75433579D01*
X115989868Y-75433587D01*
X115949500Y-75636530D01*
X82550499Y-75636530D01*
X82510130Y-75433580D01*
X82430941Y-75242402D01*
X82315977Y-75070345D01*
X82315975Y-75070342D01*
X82169657Y-74924024D01*
X82083626Y-74866541D01*
X81997598Y-74809059D01*
X81806420Y-74729870D01*
X81806412Y-74729868D01*
X81603469Y-74689500D01*
X81603465Y-74689500D01*
X81396535Y-74689500D01*
X81396530Y-74689500D01*
X81193587Y-74729868D01*
X81193579Y-74729870D01*
X81002403Y-74809058D01*
X80830342Y-74924024D01*
X80684024Y-75070342D01*
X80569058Y-75242403D01*
X80489870Y-75433579D01*
X80489868Y-75433587D01*
X80449500Y-75636530D01*
X78000500Y-75636530D01*
X78000500Y-73096530D01*
X80449500Y-73096530D01*
X80449500Y-73303469D01*
X80489868Y-73506412D01*
X80489870Y-73506420D01*
X80569058Y-73697596D01*
X80684024Y-73869657D01*
X80830342Y-74015975D01*
X80830345Y-74015977D01*
X81002402Y-74130941D01*
X81193580Y-74210130D01*
X81396530Y-74250499D01*
X81396534Y-74250500D01*
X81396535Y-74250500D01*
X81603466Y-74250500D01*
X81603467Y-74250499D01*
X81806420Y-74210130D01*
X81997598Y-74130941D01*
X82169655Y-74015977D01*
X82315977Y-73869655D01*
X82430941Y-73697598D01*
X82510130Y-73506420D01*
X82550500Y-73303465D01*
X82550500Y-73096535D01*
X82550499Y-73096530D01*
X115949500Y-73096530D01*
X115949500Y-73303469D01*
X115989868Y-73506412D01*
X115989870Y-73506420D01*
X116069058Y-73697596D01*
X116184024Y-73869657D01*
X116330342Y-74015975D01*
X116330345Y-74015977D01*
X116502402Y-74130941D01*
X116693580Y-74210130D01*
X116896530Y-74250499D01*
X116896534Y-74250500D01*
X116896535Y-74250500D01*
X117103466Y-74250500D01*
X117103467Y-74250499D01*
X117306420Y-74210130D01*
X117497598Y-74130941D01*
X117669655Y-74015977D01*
X117815977Y-73869655D01*
X117930941Y-73697598D01*
X118010130Y-73506420D01*
X118050500Y-73303465D01*
X118050500Y-73096535D01*
X118010130Y-72893580D01*
X117930941Y-72702402D01*
X117815977Y-72530345D01*
X117815975Y-72530342D01*
X117669657Y-72384024D01*
X117583626Y-72326541D01*
X117497598Y-72269059D01*
X117306420Y-72189870D01*
X117306412Y-72189868D01*
X117103469Y-72149500D01*
X117103465Y-72149500D01*
X116896535Y-72149500D01*
X116896530Y-72149500D01*
X116693587Y-72189868D01*
X116693579Y-72189870D01*
X116502403Y-72269058D01*
X116330342Y-72384024D01*
X116184024Y-72530342D01*
X116069058Y-72702403D01*
X115989870Y-72893579D01*
X115989868Y-72893587D01*
X115949500Y-73096530D01*
X82550499Y-73096530D01*
X82510130Y-72893580D01*
X82430941Y-72702402D01*
X82315977Y-72530345D01*
X82315975Y-72530342D01*
X82169657Y-72384024D01*
X82083626Y-72326541D01*
X81997598Y-72269059D01*
X81806420Y-72189870D01*
X81806412Y-72189868D01*
X81603469Y-72149500D01*
X81603465Y-72149500D01*
X81396535Y-72149500D01*
X81396530Y-72149500D01*
X81193587Y-72189868D01*
X81193579Y-72189870D01*
X81002403Y-72269058D01*
X80830342Y-72384024D01*
X80684024Y-72530342D01*
X80569058Y-72702403D01*
X80489870Y-72893579D01*
X80489868Y-72893587D01*
X80449500Y-73096530D01*
X78000500Y-73096530D01*
X78000500Y-70556530D01*
X80449500Y-70556530D01*
X80449500Y-70763469D01*
X80483313Y-70933457D01*
X80489870Y-70966420D01*
X80569059Y-71157598D01*
X80621462Y-71236025D01*
X80684024Y-71329657D01*
X80830342Y-71475975D01*
X80830345Y-71475977D01*
X81002402Y-71590941D01*
X81193580Y-71670130D01*
X81396530Y-71710499D01*
X81396534Y-71710500D01*
X81396535Y-71710500D01*
X81603466Y-71710500D01*
X81603467Y-71710499D01*
X81806420Y-71670130D01*
X81997598Y-71590941D01*
X82169655Y-71475977D01*
X82315977Y-71329655D01*
X82430941Y-71157598D01*
X82510130Y-70966420D01*
X82550500Y-70763465D01*
X82550500Y-70556535D01*
X82550499Y-70556530D01*
X115949500Y-70556530D01*
X115949500Y-70763469D01*
X115983313Y-70933457D01*
X115989870Y-70966420D01*
X116069059Y-71157598D01*
X116121462Y-71236025D01*
X116184024Y-71329657D01*
X116330342Y-71475975D01*
X116330345Y-71475977D01*
X116502402Y-71590941D01*
X116693580Y-71670130D01*
X116896530Y-71710499D01*
X116896534Y-71710500D01*
X116896535Y-71710500D01*
X117103466Y-71710500D01*
X117103467Y-71710499D01*
X117306420Y-71670130D01*
X117497598Y-71590941D01*
X117669655Y-71475977D01*
X117815977Y-71329655D01*
X117930941Y-71157598D01*
X118010130Y-70966420D01*
X118050500Y-70763465D01*
X118050500Y-70556535D01*
X118010130Y-70353580D01*
X117930941Y-70162402D01*
X117815977Y-69990345D01*
X117815975Y-69990342D01*
X117669657Y-69844024D01*
X117583626Y-69786541D01*
X117497598Y-69729059D01*
X117306420Y-69649870D01*
X117306412Y-69649868D01*
X117103469Y-69609500D01*
X117103465Y-69609500D01*
X116896535Y-69609500D01*
X116896530Y-69609500D01*
X116693587Y-69649868D01*
X116693579Y-69649870D01*
X116502403Y-69729058D01*
X116330342Y-69844024D01*
X116184024Y-69990342D01*
X116069058Y-70162403D01*
X115989870Y-70353579D01*
X115989868Y-70353587D01*
X115949500Y-70556530D01*
X82550499Y-70556530D01*
X82510130Y-70353580D01*
X82430941Y-70162402D01*
X82315977Y-69990345D01*
X82315975Y-69990342D01*
X82169657Y-69844024D01*
X82083626Y-69786541D01*
X81997598Y-69729059D01*
X81806420Y-69649870D01*
X81806412Y-69649868D01*
X81603469Y-69609500D01*
X81603465Y-69609500D01*
X81396535Y-69609500D01*
X81396530Y-69609500D01*
X81193587Y-69649868D01*
X81193579Y-69649870D01*
X81002403Y-69729058D01*
X80830342Y-69844024D01*
X80684024Y-69990342D01*
X80569058Y-70162403D01*
X80489870Y-70353579D01*
X80489868Y-70353587D01*
X80449500Y-70556530D01*
X78000500Y-70556530D01*
X78000500Y-68016530D01*
X80449500Y-68016530D01*
X80449500Y-68223469D01*
X80489868Y-68426412D01*
X80489870Y-68426420D01*
X80569058Y-68617596D01*
X80684024Y-68789657D01*
X80830342Y-68935975D01*
X80830345Y-68935977D01*
X81002402Y-69050941D01*
X81193580Y-69130130D01*
X81396530Y-69170499D01*
X81396534Y-69170500D01*
X81396535Y-69170500D01*
X81603466Y-69170500D01*
X81603467Y-69170499D01*
X81806420Y-69130130D01*
X81997598Y-69050941D01*
X82169655Y-68935977D01*
X82315977Y-68789655D01*
X82430941Y-68617598D01*
X82510130Y-68426420D01*
X82550500Y-68223465D01*
X82550500Y-68016535D01*
X82550499Y-68016530D01*
X115949500Y-68016530D01*
X115949500Y-68223469D01*
X115989868Y-68426412D01*
X115989870Y-68426420D01*
X116069058Y-68617596D01*
X116184024Y-68789657D01*
X116330342Y-68935975D01*
X116330345Y-68935977D01*
X116502402Y-69050941D01*
X116693580Y-69130130D01*
X116896530Y-69170499D01*
X116896534Y-69170500D01*
X116896535Y-69170500D01*
X117103466Y-69170500D01*
X117103467Y-69170499D01*
X117306420Y-69130130D01*
X117497598Y-69050941D01*
X117669655Y-68935977D01*
X117815977Y-68789655D01*
X117930941Y-68617598D01*
X118010130Y-68426420D01*
X118050500Y-68223465D01*
X118050500Y-68016535D01*
X118010130Y-67813580D01*
X117930941Y-67622402D01*
X117815977Y-67450345D01*
X117815975Y-67450342D01*
X117669657Y-67304024D01*
X117583626Y-67246541D01*
X117497598Y-67189059D01*
X117306420Y-67109870D01*
X117306412Y-67109868D01*
X117103469Y-67069500D01*
X117103465Y-67069500D01*
X116896535Y-67069500D01*
X116896530Y-67069500D01*
X116693587Y-67109868D01*
X116693579Y-67109870D01*
X116502403Y-67189058D01*
X116330342Y-67304024D01*
X116184024Y-67450342D01*
X116069058Y-67622403D01*
X115989870Y-67813579D01*
X115989868Y-67813587D01*
X115949500Y-68016530D01*
X82550499Y-68016530D01*
X82510130Y-67813580D01*
X82430941Y-67622402D01*
X82315977Y-67450345D01*
X82315975Y-67450342D01*
X82169657Y-67304024D01*
X82083626Y-67246541D01*
X81997598Y-67189059D01*
X81806420Y-67109870D01*
X81806412Y-67109868D01*
X81603469Y-67069500D01*
X81603465Y-67069500D01*
X81396535Y-67069500D01*
X81396530Y-67069500D01*
X81193587Y-67109868D01*
X81193579Y-67109870D01*
X81002403Y-67189058D01*
X80830342Y-67304024D01*
X80684024Y-67450342D01*
X80569058Y-67622403D01*
X80489870Y-67813579D01*
X80489868Y-67813587D01*
X80449500Y-68016530D01*
X78000500Y-68016530D01*
X78000500Y-65476530D01*
X80449500Y-65476530D01*
X80449500Y-65683469D01*
X80489868Y-65886412D01*
X80489870Y-65886420D01*
X80569058Y-66077596D01*
X80684024Y-66249657D01*
X80830342Y-66395975D01*
X80830345Y-66395977D01*
X81002402Y-66510941D01*
X81193580Y-66590130D01*
X81396530Y-66630499D01*
X81396534Y-66630500D01*
X81396535Y-66630500D01*
X81603466Y-66630500D01*
X81603467Y-66630499D01*
X81806420Y-66590130D01*
X81997598Y-66510941D01*
X82169655Y-66395977D01*
X82315977Y-66249655D01*
X82430941Y-66077598D01*
X82510130Y-65886420D01*
X82550500Y-65683465D01*
X82550500Y-65476535D01*
X82550499Y-65476530D01*
X115949500Y-65476530D01*
X115949500Y-65683469D01*
X115989868Y-65886412D01*
X115989870Y-65886420D01*
X116069058Y-66077596D01*
X116184024Y-66249657D01*
X116330342Y-66395975D01*
X116330345Y-66395977D01*
X116502402Y-66510941D01*
X116693580Y-66590130D01*
X116896530Y-66630499D01*
X116896534Y-66630500D01*
X116896535Y-66630500D01*
X117103466Y-66630500D01*
X117103467Y-66630499D01*
X117306420Y-66590130D01*
X117497598Y-66510941D01*
X117669655Y-66395977D01*
X117815977Y-66249655D01*
X117930941Y-66077598D01*
X118010130Y-65886420D01*
X118050500Y-65683465D01*
X118050500Y-65476535D01*
X118010130Y-65273580D01*
X117930941Y-65082402D01*
X117815977Y-64910345D01*
X117815975Y-64910342D01*
X117669657Y-64764024D01*
X117583626Y-64706541D01*
X117497598Y-64649059D01*
X117306420Y-64569870D01*
X117306412Y-64569868D01*
X117103469Y-64529500D01*
X117103465Y-64529500D01*
X116896535Y-64529500D01*
X116896530Y-64529500D01*
X116693587Y-64569868D01*
X116693579Y-64569870D01*
X116502403Y-64649058D01*
X116330342Y-64764024D01*
X116184024Y-64910342D01*
X116069058Y-65082403D01*
X115989870Y-65273579D01*
X115989868Y-65273587D01*
X115949500Y-65476530D01*
X82550499Y-65476530D01*
X82510130Y-65273580D01*
X82430941Y-65082402D01*
X82315977Y-64910345D01*
X82315975Y-64910342D01*
X82169657Y-64764024D01*
X82083626Y-64706541D01*
X81997598Y-64649059D01*
X81806420Y-64569870D01*
X81806412Y-64569868D01*
X81603469Y-64529500D01*
X81603465Y-64529500D01*
X81396535Y-64529500D01*
X81396530Y-64529500D01*
X81193587Y-64569868D01*
X81193579Y-64569870D01*
X81002403Y-64649058D01*
X80830342Y-64764024D01*
X80684024Y-64910342D01*
X80569058Y-65082403D01*
X80489870Y-65273579D01*
X80489868Y-65273587D01*
X80449500Y-65476530D01*
X78000500Y-65476530D01*
X78000500Y-62936530D01*
X80449500Y-62936530D01*
X80449500Y-63143469D01*
X80489868Y-63346412D01*
X80489870Y-63346420D01*
X80569058Y-63537596D01*
X80684024Y-63709657D01*
X80830342Y-63855975D01*
X80830345Y-63855977D01*
X81002402Y-63970941D01*
X81193580Y-64050130D01*
X81396530Y-64090499D01*
X81396534Y-64090500D01*
X81396535Y-64090500D01*
X81603466Y-64090500D01*
X81603467Y-64090499D01*
X81806420Y-64050130D01*
X81997598Y-63970941D01*
X82169655Y-63855977D01*
X82315977Y-63709655D01*
X82430941Y-63537598D01*
X82510130Y-63346420D01*
X82550500Y-63143465D01*
X82550500Y-62936535D01*
X82550499Y-62936530D01*
X115949500Y-62936530D01*
X115949500Y-63143469D01*
X115989868Y-63346412D01*
X115989870Y-63346420D01*
X116069058Y-63537596D01*
X116184024Y-63709657D01*
X116330342Y-63855975D01*
X116330345Y-63855977D01*
X116502402Y-63970941D01*
X116693580Y-64050130D01*
X116896530Y-64090499D01*
X116896534Y-64090500D01*
X116896535Y-64090500D01*
X117103466Y-64090500D01*
X117103467Y-64090499D01*
X117306420Y-64050130D01*
X117497598Y-63970941D01*
X117669655Y-63855977D01*
X117815977Y-63709655D01*
X117930941Y-63537598D01*
X118010130Y-63346420D01*
X118050500Y-63143465D01*
X118050500Y-62936535D01*
X118010130Y-62733580D01*
X117930941Y-62542402D01*
X117815977Y-62370345D01*
X117815975Y-62370342D01*
X117669657Y-62224024D01*
X117583626Y-62166541D01*
X117497598Y-62109059D01*
X117306420Y-62029870D01*
X117306412Y-62029868D01*
X117103469Y-61989500D01*
X117103465Y-61989500D01*
X116896535Y-61989500D01*
X116896530Y-61989500D01*
X116693587Y-62029868D01*
X116693579Y-62029870D01*
X116502403Y-62109058D01*
X116330342Y-62224024D01*
X116184024Y-62370342D01*
X116069058Y-62542403D01*
X115989870Y-62733579D01*
X115989868Y-62733587D01*
X115949500Y-62936530D01*
X82550499Y-62936530D01*
X82510130Y-62733580D01*
X82430941Y-62542402D01*
X82315977Y-62370345D01*
X82315975Y-62370342D01*
X82169657Y-62224024D01*
X82083626Y-62166541D01*
X81997598Y-62109059D01*
X81806420Y-62029870D01*
X81806412Y-62029868D01*
X81603469Y-61989500D01*
X81603465Y-61989500D01*
X81396535Y-61989500D01*
X81396530Y-61989500D01*
X81193587Y-62029868D01*
X81193579Y-62029870D01*
X81002403Y-62109058D01*
X80830342Y-62224024D01*
X80684024Y-62370342D01*
X80569058Y-62542403D01*
X80489870Y-62733579D01*
X80489868Y-62733587D01*
X80449500Y-62936530D01*
X78000500Y-62936530D01*
X78000500Y-59630247D01*
X80449500Y-59630247D01*
X80449500Y-61369752D01*
X80461131Y-61428229D01*
X80461132Y-61428230D01*
X80505447Y-61494552D01*
X80571769Y-61538867D01*
X80571770Y-61538868D01*
X80630247Y-61550499D01*
X80630250Y-61550500D01*
X80630252Y-61550500D01*
X82369750Y-61550500D01*
X82369751Y-61550499D01*
X82384568Y-61547552D01*
X82428229Y-61538868D01*
X82428229Y-61538867D01*
X82428231Y-61538867D01*
X82494552Y-61494552D01*
X82538867Y-61428231D01*
X82538867Y-61428229D01*
X82538868Y-61428229D01*
X82550499Y-61369752D01*
X82550500Y-61369750D01*
X82550500Y-60396530D01*
X115949500Y-60396530D01*
X115949500Y-60603469D01*
X115989868Y-60806412D01*
X115989870Y-60806420D01*
X116069058Y-60997596D01*
X116184024Y-61169657D01*
X116330342Y-61315975D01*
X116330345Y-61315977D01*
X116502402Y-61430941D01*
X116693580Y-61510130D01*
X116838052Y-61538867D01*
X116896530Y-61550499D01*
X116896534Y-61550500D01*
X116896535Y-61550500D01*
X117103466Y-61550500D01*
X117103467Y-61550499D01*
X117306420Y-61510130D01*
X117497598Y-61430941D01*
X117669655Y-61315977D01*
X117815977Y-61169655D01*
X117930941Y-60997598D01*
X118010130Y-60806420D01*
X118050500Y-60603465D01*
X118050500Y-60396535D01*
X118010130Y-60193580D01*
X117930941Y-60002402D01*
X117815977Y-59830345D01*
X117815975Y-59830342D01*
X117669657Y-59684024D01*
X117501655Y-59571770D01*
X117497598Y-59569059D01*
X117306420Y-59489870D01*
X117306412Y-59489868D01*
X117103469Y-59449500D01*
X117103465Y-59449500D01*
X116896535Y-59449500D01*
X116896530Y-59449500D01*
X116693587Y-59489868D01*
X116693579Y-59489870D01*
X116502403Y-59569058D01*
X116330342Y-59684024D01*
X116184024Y-59830342D01*
X116069058Y-60002403D01*
X115989870Y-60193579D01*
X115989868Y-60193587D01*
X115949500Y-60396530D01*
X82550500Y-60396530D01*
X82550500Y-59630249D01*
X82550499Y-59630247D01*
X82538868Y-59571770D01*
X82538867Y-59571769D01*
X82494552Y-59505447D01*
X82428230Y-59461132D01*
X82428229Y-59461131D01*
X82369752Y-59449500D01*
X82369748Y-59449500D01*
X80630252Y-59449500D01*
X80630247Y-59449500D01*
X80571770Y-59461131D01*
X80571769Y-59461132D01*
X80505447Y-59505447D01*
X80461132Y-59571769D01*
X80461131Y-59571770D01*
X80449500Y-59630247D01*
X78000500Y-59630247D01*
X78000500Y-57856530D01*
X115949500Y-57856530D01*
X115949500Y-58063469D01*
X115989868Y-58266412D01*
X115989870Y-58266420D01*
X116069058Y-58457596D01*
X116184024Y-58629657D01*
X116330342Y-58775975D01*
X116330345Y-58775977D01*
X116502402Y-58890941D01*
X116693580Y-58970130D01*
X116896530Y-59010499D01*
X116896534Y-59010500D01*
X116896535Y-59010500D01*
X117103466Y-59010500D01*
X117103467Y-59010499D01*
X117306420Y-58970130D01*
X117497598Y-58890941D01*
X117669655Y-58775977D01*
X117815977Y-58629655D01*
X117930941Y-58457598D01*
X118010130Y-58266420D01*
X118050500Y-58063465D01*
X118050500Y-57856535D01*
X118010130Y-57653580D01*
X117930941Y-57462402D01*
X117815977Y-57290345D01*
X117815975Y-57290342D01*
X117669657Y-57144024D01*
X117583626Y-57086541D01*
X117497598Y-57029059D01*
X117306420Y-56949870D01*
X117306412Y-56949868D01*
X117103469Y-56909500D01*
X117103465Y-56909500D01*
X116896535Y-56909500D01*
X116896530Y-56909500D01*
X116693587Y-56949868D01*
X116693579Y-56949870D01*
X116502403Y-57029058D01*
X116330342Y-57144024D01*
X116184024Y-57290342D01*
X116069058Y-57462403D01*
X115989870Y-57653579D01*
X115989868Y-57653587D01*
X115949500Y-57856530D01*
X78000500Y-57856530D01*
X78000500Y-55316530D01*
X115949500Y-55316530D01*
X115949500Y-55523469D01*
X115989868Y-55726412D01*
X115989870Y-55726420D01*
X116069058Y-55917596D01*
X116184024Y-56089657D01*
X116330342Y-56235975D01*
X116330345Y-56235977D01*
X116502402Y-56350941D01*
X116693580Y-56430130D01*
X116896530Y-56470499D01*
X116896534Y-56470500D01*
X116896535Y-56470500D01*
X117103466Y-56470500D01*
X117103467Y-56470499D01*
X117306420Y-56430130D01*
X117497598Y-56350941D01*
X117669655Y-56235977D01*
X117815977Y-56089655D01*
X117930941Y-55917598D01*
X118010130Y-55726420D01*
X118050500Y-55523465D01*
X118050500Y-55316535D01*
X118010130Y-55113580D01*
X117930941Y-54922402D01*
X117815977Y-54750345D01*
X117815975Y-54750342D01*
X117669657Y-54604024D01*
X117522126Y-54505448D01*
X117497598Y-54489059D01*
X117430174Y-54461131D01*
X117306420Y-54409870D01*
X117306412Y-54409868D01*
X117103469Y-54369500D01*
X117103465Y-54369500D01*
X116896535Y-54369500D01*
X116896530Y-54369500D01*
X116693587Y-54409868D01*
X116693579Y-54409870D01*
X116502403Y-54489058D01*
X116330342Y-54604024D01*
X116184024Y-54750342D01*
X116069058Y-54922403D01*
X115989870Y-55113579D01*
X115989868Y-55113587D01*
X115949500Y-55316530D01*
X78000500Y-55316530D01*
X78000500Y-52010247D01*
X115949500Y-52010247D01*
X115949500Y-53749752D01*
X115961131Y-53808229D01*
X115961132Y-53808230D01*
X116005447Y-53874552D01*
X116071769Y-53918867D01*
X116071770Y-53918868D01*
X116130247Y-53930499D01*
X116130250Y-53930500D01*
X116130252Y-53930500D01*
X117869750Y-53930500D01*
X117869751Y-53930499D01*
X117884568Y-53927552D01*
X117928229Y-53918868D01*
X117928229Y-53918867D01*
X117928231Y-53918867D01*
X117994552Y-53874552D01*
X118038867Y-53808231D01*
X118038867Y-53808229D01*
X118038868Y-53808229D01*
X118050499Y-53749752D01*
X118050500Y-53749750D01*
X118050500Y-52010249D01*
X118050499Y-52010247D01*
X118038868Y-51951770D01*
X118038867Y-51951769D01*
X117994552Y-51885447D01*
X117928230Y-51841132D01*
X117928229Y-51841131D01*
X117869752Y-51829500D01*
X117869748Y-51829500D01*
X116130252Y-51829500D01*
X116130247Y-51829500D01*
X116071770Y-51841131D01*
X116071769Y-51841132D01*
X116005447Y-51885447D01*
X115961132Y-51951769D01*
X115961131Y-51951770D01*
X115949500Y-52010247D01*
X78000500Y-52010247D01*
X78000500Y-46834296D01*
X80549500Y-46834296D01*
X80549500Y-47165703D01*
X80586601Y-47494991D01*
X80586604Y-47495005D01*
X80660346Y-47818093D01*
X80660349Y-47818101D01*
X80769799Y-48130890D01*
X80913582Y-48429458D01*
X80913584Y-48429461D01*
X81089896Y-48710060D01*
X81296516Y-48969153D01*
X81530847Y-49203484D01*
X81789940Y-49410104D01*
X82070539Y-49586416D01*
X82369113Y-49730202D01*
X82604037Y-49812405D01*
X82681898Y-49839650D01*
X82681906Y-49839653D01*
X82681909Y-49839653D01*
X82681910Y-49839654D01*
X83004994Y-49913396D01*
X83005003Y-49913397D01*
X83005008Y-49913398D01*
X83224533Y-49938132D01*
X83334297Y-49950499D01*
X83334300Y-49950500D01*
X83334303Y-49950500D01*
X83665700Y-49950500D01*
X83665701Y-49950499D01*
X83833996Y-49931537D01*
X83994991Y-49913398D01*
X83994994Y-49913397D01*
X83995006Y-49913396D01*
X84318090Y-49839654D01*
X84630887Y-49730202D01*
X84929461Y-49586416D01*
X85210060Y-49410104D01*
X85469153Y-49203484D01*
X85703484Y-48969153D01*
X85910104Y-48710060D01*
X86086416Y-48429461D01*
X86230202Y-48130887D01*
X86339654Y-47818090D01*
X86413396Y-47495006D01*
X86450500Y-47165697D01*
X86450500Y-46834303D01*
X86450499Y-46834296D01*
X168549500Y-46834296D01*
X168549500Y-47165703D01*
X168586601Y-47494991D01*
X168586604Y-47495005D01*
X168660346Y-47818093D01*
X168660349Y-47818101D01*
X168769799Y-48130890D01*
X168913582Y-48429458D01*
X168913584Y-48429461D01*
X169089896Y-48710060D01*
X169296516Y-48969153D01*
X169530847Y-49203484D01*
X169789940Y-49410104D01*
X170070539Y-49586416D01*
X170369113Y-49730202D01*
X170604037Y-49812405D01*
X170681898Y-49839650D01*
X170681906Y-49839653D01*
X170681909Y-49839653D01*
X170681910Y-49839654D01*
X171004994Y-49913396D01*
X171005003Y-49913397D01*
X171005008Y-49913398D01*
X171224533Y-49938132D01*
X171334297Y-49950499D01*
X171334300Y-49950500D01*
X171334303Y-49950500D01*
X171665700Y-49950500D01*
X171665701Y-49950499D01*
X171833996Y-49931537D01*
X171994991Y-49913398D01*
X171994994Y-49913397D01*
X171995006Y-49913396D01*
X172318090Y-49839654D01*
X172630887Y-49730202D01*
X172929461Y-49586416D01*
X173210060Y-49410104D01*
X173469153Y-49203484D01*
X173703484Y-48969153D01*
X173910104Y-48710060D01*
X174086416Y-48429461D01*
X174230202Y-48130887D01*
X174339654Y-47818090D01*
X174413396Y-47495006D01*
X174450500Y-47165697D01*
X174450500Y-46834303D01*
X174413396Y-46504994D01*
X174339654Y-46181910D01*
X174230202Y-45869113D01*
X174086416Y-45570539D01*
X173910104Y-45289940D01*
X173703484Y-45030847D01*
X173469153Y-44796516D01*
X173210060Y-44589896D01*
X172929461Y-44413584D01*
X172929458Y-44413582D01*
X172630890Y-44269799D01*
X172318101Y-44160349D01*
X172318093Y-44160346D01*
X172075777Y-44105039D01*
X171995006Y-44086604D01*
X171995003Y-44086603D01*
X171994991Y-44086601D01*
X171665703Y-44049500D01*
X171665697Y-44049500D01*
X171334303Y-44049500D01*
X171334296Y-44049500D01*
X171005008Y-44086601D01*
X171004994Y-44086604D01*
X170681906Y-44160346D01*
X170681898Y-44160349D01*
X170369109Y-44269799D01*
X170070541Y-44413582D01*
X169789941Y-44589895D01*
X169530847Y-44796515D01*
X169296515Y-45030847D01*
X169089895Y-45289941D01*
X168913582Y-45570541D01*
X168769799Y-45869109D01*
X168660349Y-46181898D01*
X168660346Y-46181906D01*
X168586604Y-46504994D01*
X168586601Y-46505008D01*
X168549500Y-46834296D01*
X86450499Y-46834296D01*
X86413396Y-46504994D01*
X86339654Y-46181910D01*
X86230202Y-45869113D01*
X86086416Y-45570539D01*
X85910104Y-45289940D01*
X85703484Y-45030847D01*
X85469153Y-44796516D01*
X85210060Y-44589896D01*
X84929461Y-44413584D01*
X84929458Y-44413582D01*
X84630890Y-44269799D01*
X84318101Y-44160349D01*
X84318093Y-44160346D01*
X84075777Y-44105039D01*
X83995006Y-44086604D01*
X83995003Y-44086603D01*
X83994991Y-44086601D01*
X83665703Y-44049500D01*
X83665697Y-44049500D01*
X83334303Y-44049500D01*
X83334296Y-44049500D01*
X83005008Y-44086601D01*
X83004994Y-44086604D01*
X82681906Y-44160346D01*
X82681898Y-44160349D01*
X82369109Y-44269799D01*
X82070541Y-44413582D01*
X81789941Y-44589895D01*
X81530847Y-44796515D01*
X81296515Y-45030847D01*
X81089895Y-45289941D01*
X80913582Y-45570541D01*
X80769799Y-45869109D01*
X80660349Y-46181898D01*
X80660346Y-46181906D01*
X80586604Y-46504994D01*
X80586601Y-46505008D01*
X80549500Y-46834296D01*
X78000500Y-46834296D01*
X78000500Y-41624500D01*
X78020185Y-41557461D01*
X78072989Y-41511706D01*
X78124500Y-41500500D01*
X176875500Y-41500500D01*
X176942539Y-41520185D01*
G37*
%TD.AperFunction*%
%TD*%
M02*
