%TF.GenerationSoftware,KiCad,Pcbnew,9.0.0*%
%TF.CreationDate,2025-05-10T18:53:19+02:00*%
%TF.ProjectId,25Zak001 ESP32 Mark0,32355a61-6b30-4303-9120-455350333220,rev?*%
%TF.SameCoordinates,Original*%
%TF.FileFunction,Legend,Bot*%
%TF.FilePolarity,Positive*%
%FSLAX46Y46*%
G04 Gerber Fmt 4.6, Leading zero omitted, Abs format (unit mm)*
G04 Created by KiCad (PCBNEW 9.0.0) date 2025-05-10 18:53:19*
%MOMM*%
%LPD*%
G01*
G04 APERTURE LIST*
%ADD10C,0.312500*%
G04 APERTURE END LIST*
D10*
X168699169Y-130677797D02*
X168699169Y-128177797D01*
X167627741Y-130677797D02*
X167627741Y-129368273D01*
X167627741Y-129368273D02*
X167746788Y-129130178D01*
X167746788Y-129130178D02*
X167984884Y-129011130D01*
X167984884Y-129011130D02*
X168342027Y-129011130D01*
X168342027Y-129011130D02*
X168580122Y-129130178D01*
X168580122Y-129130178D02*
X168699169Y-129249226D01*
X166794407Y-129011130D02*
X165842026Y-129011130D01*
X166437264Y-128177797D02*
X166437264Y-130320654D01*
X166437264Y-130320654D02*
X166318217Y-130558750D01*
X166318217Y-130558750D02*
X166080122Y-130677797D01*
X166080122Y-130677797D02*
X165842026Y-130677797D01*
X165365836Y-129011130D02*
X164413455Y-129011130D01*
X165008693Y-128177797D02*
X165008693Y-130320654D01*
X165008693Y-130320654D02*
X164889646Y-130558750D01*
X164889646Y-130558750D02*
X164651551Y-130677797D01*
X164651551Y-130677797D02*
X164413455Y-130677797D01*
X163580122Y-129011130D02*
X163580122Y-131511130D01*
X163580122Y-129130178D02*
X163342027Y-129011130D01*
X163342027Y-129011130D02*
X162865837Y-129011130D01*
X162865837Y-129011130D02*
X162627741Y-129130178D01*
X162627741Y-129130178D02*
X162508694Y-129249226D01*
X162508694Y-129249226D02*
X162389646Y-129487321D01*
X162389646Y-129487321D02*
X162389646Y-130201607D01*
X162389646Y-130201607D02*
X162508694Y-130439702D01*
X162508694Y-130439702D02*
X162627741Y-130558750D01*
X162627741Y-130558750D02*
X162865837Y-130677797D01*
X162865837Y-130677797D02*
X163342027Y-130677797D01*
X163342027Y-130677797D02*
X163580122Y-130558750D01*
X161437265Y-130558750D02*
X161199170Y-130677797D01*
X161199170Y-130677797D02*
X160722979Y-130677797D01*
X160722979Y-130677797D02*
X160484884Y-130558750D01*
X160484884Y-130558750D02*
X160365836Y-130320654D01*
X160365836Y-130320654D02*
X160365836Y-130201607D01*
X160365836Y-130201607D02*
X160484884Y-129963511D01*
X160484884Y-129963511D02*
X160722979Y-129844464D01*
X160722979Y-129844464D02*
X161080122Y-129844464D01*
X161080122Y-129844464D02*
X161318217Y-129725416D01*
X161318217Y-129725416D02*
X161437265Y-129487321D01*
X161437265Y-129487321D02*
X161437265Y-129368273D01*
X161437265Y-129368273D02*
X161318217Y-129130178D01*
X161318217Y-129130178D02*
X161080122Y-129011130D01*
X161080122Y-129011130D02*
X160722979Y-129011130D01*
X160722979Y-129011130D02*
X160484884Y-129130178D01*
X159294407Y-130439702D02*
X159175360Y-130558750D01*
X159175360Y-130558750D02*
X159294407Y-130677797D01*
X159294407Y-130677797D02*
X159413455Y-130558750D01*
X159413455Y-130558750D02*
X159294407Y-130439702D01*
X159294407Y-130439702D02*
X159294407Y-130677797D01*
X159294407Y-129130178D02*
X159175360Y-129249226D01*
X159175360Y-129249226D02*
X159294407Y-129368273D01*
X159294407Y-129368273D02*
X159413455Y-129249226D01*
X159413455Y-129249226D02*
X159294407Y-129130178D01*
X159294407Y-129130178D02*
X159294407Y-129368273D01*
X156318217Y-128058750D02*
X158461074Y-131273035D01*
X153699169Y-128058750D02*
X155842026Y-131273035D01*
X151794407Y-129011130D02*
X151794407Y-131034940D01*
X151794407Y-131034940D02*
X151913454Y-131273035D01*
X151913454Y-131273035D02*
X152032502Y-131392083D01*
X152032502Y-131392083D02*
X152270597Y-131511130D01*
X152270597Y-131511130D02*
X152627740Y-131511130D01*
X152627740Y-131511130D02*
X152865835Y-131392083D01*
X151794407Y-130558750D02*
X152032502Y-130677797D01*
X152032502Y-130677797D02*
X152508693Y-130677797D01*
X152508693Y-130677797D02*
X152746788Y-130558750D01*
X152746788Y-130558750D02*
X152865835Y-130439702D01*
X152865835Y-130439702D02*
X152984883Y-130201607D01*
X152984883Y-130201607D02*
X152984883Y-129487321D01*
X152984883Y-129487321D02*
X152865835Y-129249226D01*
X152865835Y-129249226D02*
X152746788Y-129130178D01*
X152746788Y-129130178D02*
X152508693Y-129011130D01*
X152508693Y-129011130D02*
X152032502Y-129011130D01*
X152032502Y-129011130D02*
X151794407Y-129130178D01*
X150603930Y-130677797D02*
X150603930Y-129011130D01*
X150603930Y-128177797D02*
X150722978Y-128296845D01*
X150722978Y-128296845D02*
X150603930Y-128415892D01*
X150603930Y-128415892D02*
X150484883Y-128296845D01*
X150484883Y-128296845D02*
X150603930Y-128177797D01*
X150603930Y-128177797D02*
X150603930Y-128415892D01*
X149770597Y-129011130D02*
X148818216Y-129011130D01*
X149413454Y-128177797D02*
X149413454Y-130320654D01*
X149413454Y-130320654D02*
X149294407Y-130558750D01*
X149294407Y-130558750D02*
X149056312Y-130677797D01*
X149056312Y-130677797D02*
X148818216Y-130677797D01*
X147984883Y-130677797D02*
X147984883Y-128177797D01*
X146913455Y-130677797D02*
X146913455Y-129368273D01*
X146913455Y-129368273D02*
X147032502Y-129130178D01*
X147032502Y-129130178D02*
X147270598Y-129011130D01*
X147270598Y-129011130D02*
X147627741Y-129011130D01*
X147627741Y-129011130D02*
X147865836Y-129130178D01*
X147865836Y-129130178D02*
X147984883Y-129249226D01*
X144651550Y-129011130D02*
X144651550Y-130677797D01*
X145722978Y-129011130D02*
X145722978Y-130320654D01*
X145722978Y-130320654D02*
X145603931Y-130558750D01*
X145603931Y-130558750D02*
X145365836Y-130677797D01*
X145365836Y-130677797D02*
X145008693Y-130677797D01*
X145008693Y-130677797D02*
X144770597Y-130558750D01*
X144770597Y-130558750D02*
X144651550Y-130439702D01*
X143461073Y-130677797D02*
X143461073Y-128177797D01*
X143461073Y-129130178D02*
X143222978Y-129011130D01*
X143222978Y-129011130D02*
X142746788Y-129011130D01*
X142746788Y-129011130D02*
X142508692Y-129130178D01*
X142508692Y-129130178D02*
X142389645Y-129249226D01*
X142389645Y-129249226D02*
X142270597Y-129487321D01*
X142270597Y-129487321D02*
X142270597Y-130201607D01*
X142270597Y-130201607D02*
X142389645Y-130439702D01*
X142389645Y-130439702D02*
X142508692Y-130558750D01*
X142508692Y-130558750D02*
X142746788Y-130677797D01*
X142746788Y-130677797D02*
X143222978Y-130677797D01*
X143222978Y-130677797D02*
X143461073Y-130558750D01*
X141199168Y-130439702D02*
X141080121Y-130558750D01*
X141080121Y-130558750D02*
X141199168Y-130677797D01*
X141199168Y-130677797D02*
X141318216Y-130558750D01*
X141318216Y-130558750D02*
X141199168Y-130439702D01*
X141199168Y-130439702D02*
X141199168Y-130677797D01*
X138937264Y-130558750D02*
X139175359Y-130677797D01*
X139175359Y-130677797D02*
X139651550Y-130677797D01*
X139651550Y-130677797D02*
X139889645Y-130558750D01*
X139889645Y-130558750D02*
X140008692Y-130439702D01*
X140008692Y-130439702D02*
X140127740Y-130201607D01*
X140127740Y-130201607D02*
X140127740Y-129487321D01*
X140127740Y-129487321D02*
X140008692Y-129249226D01*
X140008692Y-129249226D02*
X139889645Y-129130178D01*
X139889645Y-129130178D02*
X139651550Y-129011130D01*
X139651550Y-129011130D02*
X139175359Y-129011130D01*
X139175359Y-129011130D02*
X138937264Y-129130178D01*
X137508693Y-130677797D02*
X137746788Y-130558750D01*
X137746788Y-130558750D02*
X137865835Y-130439702D01*
X137865835Y-130439702D02*
X137984883Y-130201607D01*
X137984883Y-130201607D02*
X137984883Y-129487321D01*
X137984883Y-129487321D02*
X137865835Y-129249226D01*
X137865835Y-129249226D02*
X137746788Y-129130178D01*
X137746788Y-129130178D02*
X137508693Y-129011130D01*
X137508693Y-129011130D02*
X137151550Y-129011130D01*
X137151550Y-129011130D02*
X136913454Y-129130178D01*
X136913454Y-129130178D02*
X136794407Y-129249226D01*
X136794407Y-129249226D02*
X136675359Y-129487321D01*
X136675359Y-129487321D02*
X136675359Y-130201607D01*
X136675359Y-130201607D02*
X136794407Y-130439702D01*
X136794407Y-130439702D02*
X136913454Y-130558750D01*
X136913454Y-130558750D02*
X137151550Y-130677797D01*
X137151550Y-130677797D02*
X137508693Y-130677797D01*
X135603930Y-130677797D02*
X135603930Y-129011130D01*
X135603930Y-129249226D02*
X135484883Y-129130178D01*
X135484883Y-129130178D02*
X135246788Y-129011130D01*
X135246788Y-129011130D02*
X134889645Y-129011130D01*
X134889645Y-129011130D02*
X134651549Y-129130178D01*
X134651549Y-129130178D02*
X134532502Y-129368273D01*
X134532502Y-129368273D02*
X134532502Y-130677797D01*
X134532502Y-129368273D02*
X134413454Y-129130178D01*
X134413454Y-129130178D02*
X134175359Y-129011130D01*
X134175359Y-129011130D02*
X133818216Y-129011130D01*
X133818216Y-129011130D02*
X133580121Y-129130178D01*
X133580121Y-129130178D02*
X133461073Y-129368273D01*
X133461073Y-129368273D02*
X133461073Y-130677797D01*
X130484883Y-128058750D02*
X132627740Y-131273035D01*
X129889645Y-129011130D02*
X128580121Y-129011130D01*
X128580121Y-129011130D02*
X129889645Y-130677797D01*
X129889645Y-130677797D02*
X128580121Y-130677797D01*
X126556311Y-130677797D02*
X126556311Y-128177797D01*
X126556311Y-130558750D02*
X126794406Y-130677797D01*
X126794406Y-130677797D02*
X127270597Y-130677797D01*
X127270597Y-130677797D02*
X127508692Y-130558750D01*
X127508692Y-130558750D02*
X127627739Y-130439702D01*
X127627739Y-130439702D02*
X127746787Y-130201607D01*
X127746787Y-130201607D02*
X127746787Y-129487321D01*
X127746787Y-129487321D02*
X127627739Y-129249226D01*
X127627739Y-129249226D02*
X127508692Y-129130178D01*
X127508692Y-129130178D02*
X127270597Y-129011130D01*
X127270597Y-129011130D02*
X126794406Y-129011130D01*
X126794406Y-129011130D02*
X126556311Y-129130178D01*
X124413453Y-130558750D02*
X124651549Y-130677797D01*
X124651549Y-130677797D02*
X125127739Y-130677797D01*
X125127739Y-130677797D02*
X125365834Y-130558750D01*
X125365834Y-130558750D02*
X125484882Y-130320654D01*
X125484882Y-130320654D02*
X125484882Y-129368273D01*
X125484882Y-129368273D02*
X125365834Y-129130178D01*
X125365834Y-129130178D02*
X125127739Y-129011130D01*
X125127739Y-129011130D02*
X124651549Y-129011130D01*
X124651549Y-129011130D02*
X124413453Y-129130178D01*
X124413453Y-129130178D02*
X124294406Y-129368273D01*
X124294406Y-129368273D02*
X124294406Y-129606369D01*
X124294406Y-129606369D02*
X125484882Y-129844464D01*
X123222977Y-129011130D02*
X123222977Y-130677797D01*
X123222977Y-129249226D02*
X123103930Y-129130178D01*
X123103930Y-129130178D02*
X122865835Y-129011130D01*
X122865835Y-129011130D02*
X122508692Y-129011130D01*
X122508692Y-129011130D02*
X122270596Y-129130178D01*
X122270596Y-129130178D02*
X122151549Y-129368273D01*
X122151549Y-129368273D02*
X122151549Y-130677797D01*
X120008691Y-130558750D02*
X120246787Y-130677797D01*
X120246787Y-130677797D02*
X120722977Y-130677797D01*
X120722977Y-130677797D02*
X120961072Y-130558750D01*
X120961072Y-130558750D02*
X121080120Y-130320654D01*
X121080120Y-130320654D02*
X121080120Y-129368273D01*
X121080120Y-129368273D02*
X120961072Y-129130178D01*
X120961072Y-129130178D02*
X120722977Y-129011130D01*
X120722977Y-129011130D02*
X120246787Y-129011130D01*
X120246787Y-129011130D02*
X120008691Y-129130178D01*
X120008691Y-129130178D02*
X119889644Y-129368273D01*
X119889644Y-129368273D02*
X119889644Y-129606369D01*
X119889644Y-129606369D02*
X121080120Y-129844464D01*
X118818215Y-130677797D02*
X118818215Y-128177797D01*
X118580120Y-129725416D02*
X117865834Y-130677797D01*
X117865834Y-129011130D02*
X118818215Y-129963511D01*
X116794405Y-130677797D02*
X116794405Y-129011130D01*
X116794405Y-129487321D02*
X116675358Y-129249226D01*
X116675358Y-129249226D02*
X116556310Y-129130178D01*
X116556310Y-129130178D02*
X116318215Y-129011130D01*
X116318215Y-129011130D02*
X116080120Y-129011130D01*
X114175358Y-129011130D02*
X114175358Y-130677797D01*
X115246786Y-129011130D02*
X115246786Y-130320654D01*
X115246786Y-130320654D02*
X115127739Y-130558750D01*
X115127739Y-130558750D02*
X114889644Y-130677797D01*
X114889644Y-130677797D02*
X114532501Y-130677797D01*
X114532501Y-130677797D02*
X114294405Y-130558750D01*
X114294405Y-130558750D02*
X114175358Y-130439702D01*
X111199167Y-128058750D02*
X113342024Y-131273035D01*
X110365833Y-129368273D02*
X109532500Y-129368273D01*
X109175357Y-130677797D02*
X110365833Y-130677797D01*
X110365833Y-130677797D02*
X110365833Y-128177797D01*
X110365833Y-128177797D02*
X109175357Y-128177797D01*
X108222976Y-130558750D02*
X107865833Y-130677797D01*
X107865833Y-130677797D02*
X107270595Y-130677797D01*
X107270595Y-130677797D02*
X107032500Y-130558750D01*
X107032500Y-130558750D02*
X106913452Y-130439702D01*
X106913452Y-130439702D02*
X106794405Y-130201607D01*
X106794405Y-130201607D02*
X106794405Y-129963511D01*
X106794405Y-129963511D02*
X106913452Y-129725416D01*
X106913452Y-129725416D02*
X107032500Y-129606369D01*
X107032500Y-129606369D02*
X107270595Y-129487321D01*
X107270595Y-129487321D02*
X107746786Y-129368273D01*
X107746786Y-129368273D02*
X107984881Y-129249226D01*
X107984881Y-129249226D02*
X108103928Y-129130178D01*
X108103928Y-129130178D02*
X108222976Y-128892083D01*
X108222976Y-128892083D02*
X108222976Y-128653988D01*
X108222976Y-128653988D02*
X108103928Y-128415892D01*
X108103928Y-128415892D02*
X107984881Y-128296845D01*
X107984881Y-128296845D02*
X107746786Y-128177797D01*
X107746786Y-128177797D02*
X107151547Y-128177797D01*
X107151547Y-128177797D02*
X106794405Y-128296845D01*
X105722976Y-130677797D02*
X105722976Y-128177797D01*
X105722976Y-128177797D02*
X104770595Y-128177797D01*
X104770595Y-128177797D02*
X104532500Y-128296845D01*
X104532500Y-128296845D02*
X104413453Y-128415892D01*
X104413453Y-128415892D02*
X104294405Y-128653988D01*
X104294405Y-128653988D02*
X104294405Y-129011130D01*
X104294405Y-129011130D02*
X104413453Y-129249226D01*
X104413453Y-129249226D02*
X104532500Y-129368273D01*
X104532500Y-129368273D02*
X104770595Y-129487321D01*
X104770595Y-129487321D02*
X105722976Y-129487321D01*
X103461072Y-128177797D02*
X101913453Y-128177797D01*
X101913453Y-128177797D02*
X102746786Y-129130178D01*
X102746786Y-129130178D02*
X102389643Y-129130178D01*
X102389643Y-129130178D02*
X102151548Y-129249226D01*
X102151548Y-129249226D02*
X102032500Y-129368273D01*
X102032500Y-129368273D02*
X101913453Y-129606369D01*
X101913453Y-129606369D02*
X101913453Y-130201607D01*
X101913453Y-130201607D02*
X102032500Y-130439702D01*
X102032500Y-130439702D02*
X102151548Y-130558750D01*
X102151548Y-130558750D02*
X102389643Y-130677797D01*
X102389643Y-130677797D02*
X103103929Y-130677797D01*
X103103929Y-130677797D02*
X103342024Y-130558750D01*
X103342024Y-130558750D02*
X103461072Y-130439702D01*
X100961072Y-128415892D02*
X100842024Y-128296845D01*
X100842024Y-128296845D02*
X100603929Y-128177797D01*
X100603929Y-128177797D02*
X100008691Y-128177797D01*
X100008691Y-128177797D02*
X99770596Y-128296845D01*
X99770596Y-128296845D02*
X99651548Y-128415892D01*
X99651548Y-128415892D02*
X99532501Y-128653988D01*
X99532501Y-128653988D02*
X99532501Y-128892083D01*
X99532501Y-128892083D02*
X99651548Y-129249226D01*
X99651548Y-129249226D02*
X101080120Y-130677797D01*
X101080120Y-130677797D02*
X99532501Y-130677797D01*
X98461072Y-129725416D02*
X96556311Y-129725416D01*
X95365834Y-130677797D02*
X95365834Y-128177797D01*
X95365834Y-128177797D02*
X94532501Y-129963511D01*
X94532501Y-129963511D02*
X93699168Y-128177797D01*
X93699168Y-128177797D02*
X93699168Y-130677797D01*
X91437263Y-130677797D02*
X91437263Y-129368273D01*
X91437263Y-129368273D02*
X91556310Y-129130178D01*
X91556310Y-129130178D02*
X91794406Y-129011130D01*
X91794406Y-129011130D02*
X92270596Y-129011130D01*
X92270596Y-129011130D02*
X92508691Y-129130178D01*
X91437263Y-130558750D02*
X91675358Y-130677797D01*
X91675358Y-130677797D02*
X92270596Y-130677797D01*
X92270596Y-130677797D02*
X92508691Y-130558750D01*
X92508691Y-130558750D02*
X92627739Y-130320654D01*
X92627739Y-130320654D02*
X92627739Y-130082559D01*
X92627739Y-130082559D02*
X92508691Y-129844464D01*
X92508691Y-129844464D02*
X92270596Y-129725416D01*
X92270596Y-129725416D02*
X91675358Y-129725416D01*
X91675358Y-129725416D02*
X91437263Y-129606369D01*
X90246786Y-130677797D02*
X90246786Y-129011130D01*
X90246786Y-129487321D02*
X90127739Y-129249226D01*
X90127739Y-129249226D02*
X90008691Y-129130178D01*
X90008691Y-129130178D02*
X89770596Y-129011130D01*
X89770596Y-129011130D02*
X89532501Y-129011130D01*
X88699167Y-130677797D02*
X88699167Y-128177797D01*
X88461072Y-129725416D02*
X87746786Y-130677797D01*
X87746786Y-129011130D02*
X88699167Y-129963511D01*
X86199167Y-128177797D02*
X85961072Y-128177797D01*
X85961072Y-128177797D02*
X85722976Y-128296845D01*
X85722976Y-128296845D02*
X85603929Y-128415892D01*
X85603929Y-128415892D02*
X85484881Y-128653988D01*
X85484881Y-128653988D02*
X85365834Y-129130178D01*
X85365834Y-129130178D02*
X85365834Y-129725416D01*
X85365834Y-129725416D02*
X85484881Y-130201607D01*
X85484881Y-130201607D02*
X85603929Y-130439702D01*
X85603929Y-130439702D02*
X85722976Y-130558750D01*
X85722976Y-130558750D02*
X85961072Y-130677797D01*
X85961072Y-130677797D02*
X86199167Y-130677797D01*
X86199167Y-130677797D02*
X86437262Y-130558750D01*
X86437262Y-130558750D02*
X86556310Y-130439702D01*
X86556310Y-130439702D02*
X86675357Y-130201607D01*
X86675357Y-130201607D02*
X86794405Y-129725416D01*
X86794405Y-129725416D02*
X86794405Y-129130178D01*
X86794405Y-129130178D02*
X86675357Y-128653988D01*
X86675357Y-128653988D02*
X86556310Y-128415892D01*
X86556310Y-128415892D02*
X86437262Y-128296845D01*
X86437262Y-128296845D02*
X86199167Y-128177797D01*
M02*
