%TF.GenerationSoftware,KiCad,Pcbnew,9.0.0*%
%TF.CreationDate,2025-05-10T18:53:20+02:00*%
%TF.ProjectId,25Zak001 ESP32 Mark0,32355a61-6b30-4303-9120-455350333220,rev?*%
%TF.SameCoordinates,Original*%
%TF.FileFunction,Soldermask,Bot*%
%TF.FilePolarity,Negative*%
%FSLAX46Y46*%
G04 Gerber Fmt 4.6, Leading zero omitted, Abs format (unit mm)*
G04 Created by KiCad (PCBNEW 9.0.0) date 2025-05-10 18:53:20*
%MOMM*%
%LPD*%
G01*
G04 APERTURE LIST*
%ADD10R,1.700000X1.700000*%
%ADD11O,1.700000X1.700000*%
%ADD12C,5.500000*%
%ADD13C,3.600000*%
G04 APERTURE END LIST*
D10*
%TO.C,J4*%
X173500000Y-55500000D03*
D11*
X173500000Y-58040000D03*
X173500000Y-60580000D03*
X173500000Y-63120000D03*
X173500000Y-65660000D03*
X173500000Y-68200000D03*
X173500000Y-70740000D03*
%TD*%
D12*
%TO.C,H4*%
X171500000Y-135000000D03*
D13*
X171500000Y-135000000D03*
%TD*%
D12*
%TO.C,H3*%
X83500000Y-135000000D03*
D13*
X83500000Y-135000000D03*
%TD*%
D12*
%TO.C,H2*%
X171500000Y-47000000D03*
D13*
X171500000Y-47000000D03*
%TD*%
D12*
%TO.C,H1*%
X83500000Y-47000000D03*
D13*
X83500000Y-47000000D03*
%TD*%
D10*
%TO.C,J7*%
X142000000Y-88440000D03*
D11*
X142000000Y-85900000D03*
X142000000Y-83360000D03*
X142000000Y-80820000D03*
X142000000Y-78280000D03*
X142000000Y-75740000D03*
X142000000Y-73200000D03*
X142000000Y-70660000D03*
X142000000Y-68120000D03*
X142000000Y-65580000D03*
X142000000Y-63040000D03*
X142000000Y-60500000D03*
X142000000Y-57960000D03*
X142000000Y-55420000D03*
X142000000Y-52880000D03*
%TD*%
D10*
%TO.C,J6*%
X117000000Y-52880000D03*
D11*
X117000000Y-55420000D03*
X117000000Y-57960000D03*
X117000000Y-60500000D03*
X117000000Y-63040000D03*
X117000000Y-65580000D03*
X117000000Y-68120000D03*
X117000000Y-70660000D03*
X117000000Y-73200000D03*
X117000000Y-75740000D03*
X117000000Y-78280000D03*
X117000000Y-80820000D03*
X117000000Y-83360000D03*
X117000000Y-85900000D03*
X117000000Y-88440000D03*
%TD*%
D10*
%TO.C,J3*%
X81500000Y-60500000D03*
D11*
X81500000Y-63040000D03*
X81500000Y-65580000D03*
X81500000Y-68120000D03*
X81500000Y-70660000D03*
X81500000Y-73200000D03*
X81500000Y-75740000D03*
X81500000Y-78280000D03*
X81500000Y-80820000D03*
X81500000Y-83360000D03*
%TD*%
D10*
%TO.C,J2*%
X167000000Y-118240000D03*
D11*
X167000000Y-115700000D03*
X167000000Y-113160000D03*
X167000000Y-110620000D03*
X167000000Y-108080000D03*
X167000000Y-105540000D03*
X167000000Y-103000000D03*
%TD*%
D10*
%TO.C,U1*%
X100000000Y-105920000D03*
D11*
X100000000Y-108460000D03*
X100000000Y-111000000D03*
%TD*%
M02*
