%TF.GenerationSoftware,KiCad,Pcbnew,9.0.0*%
%TF.CreationDate,2025-05-10T18:53:19+02:00*%
%TF.ProjectId,25Zak001 ESP32 Mark0,32355a61-6b30-4303-9120-455350333220,rev?*%
%TF.SameCoordinates,Original*%
%TF.FileFunction,Copper,L1,Top*%
%TF.FilePolarity,Positive*%
%FSLAX46Y46*%
G04 Gerber Fmt 4.6, Leading zero omitted, Abs format (unit mm)*
G04 Created by KiCad (PCBNEW 9.0.0) date 2025-05-10 18:53:19*
%MOMM*%
%LPD*%
G01*
G04 APERTURE LIST*
G04 Aperture macros list*
%AMRoundRect*
0 Rectangle with rounded corners*
0 $1 Rounding radius*
0 $2 $3 $4 $5 $6 $7 $8 $9 X,Y pos of 4 corners*
0 Add a 4 corners polygon primitive as box body*
4,1,4,$2,$3,$4,$5,$6,$7,$8,$9,$2,$3,0*
0 Add four circle primitives for the rounded corners*
1,1,$1+$1,$2,$3*
1,1,$1+$1,$4,$5*
1,1,$1+$1,$6,$7*
1,1,$1+$1,$8,$9*
0 Add four rect primitives between the rounded corners*
20,1,$1+$1,$2,$3,$4,$5,0*
20,1,$1+$1,$4,$5,$6,$7,0*
20,1,$1+$1,$6,$7,$8,$9,0*
20,1,$1+$1,$8,$9,$2,$3,0*%
G04 Aperture macros list end*
%TA.AperFunction,SMDPad,CuDef*%
%ADD10R,0.500000X0.500000*%
%TD*%
%TA.AperFunction,ComponentPad*%
%ADD11R,1.700000X1.700000*%
%TD*%
%TA.AperFunction,ComponentPad*%
%ADD12O,1.700000X1.700000*%
%TD*%
%TA.AperFunction,ConnectorPad*%
%ADD13C,5.500000*%
%TD*%
%TA.AperFunction,ComponentPad*%
%ADD14C,3.600000*%
%TD*%
%TA.AperFunction,SMDPad,CuDef*%
%ADD15RoundRect,0.175000X-0.175000X-0.425000X0.175000X-0.425000X0.175000X0.425000X-0.175000X0.425000X0*%
%TD*%
%TA.AperFunction,SMDPad,CuDef*%
%ADD16RoundRect,0.190000X0.190000X0.410000X-0.190000X0.410000X-0.190000X-0.410000X0.190000X-0.410000X0*%
%TD*%
%TA.AperFunction,SMDPad,CuDef*%
%ADD17RoundRect,0.200000X0.200000X0.400000X-0.200000X0.400000X-0.200000X-0.400000X0.200000X-0.400000X0*%
%TD*%
%TA.AperFunction,SMDPad,CuDef*%
%ADD18RoundRect,0.175000X0.175000X0.425000X-0.175000X0.425000X-0.175000X-0.425000X0.175000X-0.425000X0*%
%TD*%
%TA.AperFunction,SMDPad,CuDef*%
%ADD19RoundRect,0.190000X-0.190000X-0.410000X0.190000X-0.410000X0.190000X0.410000X-0.190000X0.410000X0*%
%TD*%
%TA.AperFunction,SMDPad,CuDef*%
%ADD20RoundRect,0.200000X-0.200000X-0.400000X0.200000X-0.400000X0.200000X0.400000X-0.200000X0.400000X0*%
%TD*%
%TA.AperFunction,SMDPad,CuDef*%
%ADD21RoundRect,0.250000X-0.650000X-0.425000X0.650000X-0.425000X0.650000X0.425000X-0.650000X0.425000X0*%
%TD*%
%TA.AperFunction,SMDPad,CuDef*%
%ADD22RoundRect,0.250000X-0.650000X-0.500000X0.650000X-0.500000X0.650000X0.500000X-0.650000X0.500000X0*%
%TD*%
%TA.AperFunction,ViaPad*%
%ADD23C,1.000000*%
%TD*%
%TA.AperFunction,Conductor*%
%ADD24C,1.000000*%
%TD*%
%TA.AperFunction,Conductor*%
%ADD25C,0.200000*%
%TD*%
G04 APERTURE END LIST*
D10*
%TO.P,QR\u002A\u002A\u002A\u002A\u002A,*%
%TO.N,*%
X91000000Y-121000000D03*
X91000000Y-121500000D03*
X91000000Y-122000000D03*
X91000000Y-122500000D03*
X91000000Y-123000000D03*
X91000000Y-123500000D03*
X91000000Y-124000000D03*
X91000000Y-125000000D03*
X91000000Y-125500000D03*
X91000000Y-126000000D03*
X91000000Y-126500000D03*
X91000000Y-127000000D03*
X91000000Y-127500000D03*
X91000000Y-128000000D03*
X91000000Y-128500000D03*
X91000000Y-129500000D03*
X91000000Y-130000000D03*
X91000000Y-130500000D03*
X91000000Y-131000000D03*
X91000000Y-132000000D03*
X91000000Y-132500000D03*
X91000000Y-133000000D03*
X91000000Y-133500000D03*
X91000000Y-134000000D03*
X91000000Y-134500000D03*
X91000000Y-135000000D03*
X91500000Y-121000000D03*
X91500000Y-124000000D03*
X91500000Y-127000000D03*
X91500000Y-127500000D03*
X91500000Y-128000000D03*
X91500000Y-129000000D03*
X91500000Y-129500000D03*
X91500000Y-130000000D03*
X91500000Y-132000000D03*
X91500000Y-135000000D03*
X92000000Y-121000000D03*
X92000000Y-122000000D03*
X92000000Y-122500000D03*
X92000000Y-123000000D03*
X92000000Y-124000000D03*
X92000000Y-126000000D03*
X92000000Y-126500000D03*
X92000000Y-127500000D03*
X92000000Y-129500000D03*
X92000000Y-132000000D03*
X92000000Y-133000000D03*
X92000000Y-133500000D03*
X92000000Y-134000000D03*
X92000000Y-135000000D03*
X92500000Y-121000000D03*
X92500000Y-122000000D03*
X92500000Y-122500000D03*
X92500000Y-123000000D03*
X92500000Y-124000000D03*
X92500000Y-126000000D03*
X92500000Y-129500000D03*
X92500000Y-131000000D03*
X92500000Y-132000000D03*
X92500000Y-133000000D03*
X92500000Y-133500000D03*
X92500000Y-134000000D03*
X92500000Y-135000000D03*
X93000000Y-121000000D03*
X93000000Y-122000000D03*
X93000000Y-122500000D03*
X93000000Y-123000000D03*
X93000000Y-124000000D03*
X93000000Y-126000000D03*
X93000000Y-126500000D03*
X93000000Y-127000000D03*
X93000000Y-128000000D03*
X93000000Y-128500000D03*
X93000000Y-129000000D03*
X93000000Y-129500000D03*
X93000000Y-130000000D03*
X93000000Y-131000000D03*
X93000000Y-132000000D03*
X93000000Y-133000000D03*
X93000000Y-133500000D03*
X93000000Y-134000000D03*
X93000000Y-135000000D03*
X93500000Y-121000000D03*
X93500000Y-124000000D03*
X93500000Y-125500000D03*
X93500000Y-126000000D03*
X93500000Y-128000000D03*
X93500000Y-128500000D03*
X93500000Y-129500000D03*
X93500000Y-130500000D03*
X93500000Y-132000000D03*
X93500000Y-135000000D03*
X94000000Y-121000000D03*
X94000000Y-121500000D03*
X94000000Y-122000000D03*
X94000000Y-122500000D03*
X94000000Y-123000000D03*
X94000000Y-123500000D03*
X94000000Y-124000000D03*
X94000000Y-125000000D03*
X94000000Y-126000000D03*
X94000000Y-127000000D03*
X94000000Y-128000000D03*
X94000000Y-129000000D03*
X94000000Y-130000000D03*
X94000000Y-131000000D03*
X94000000Y-132000000D03*
X94000000Y-132500000D03*
X94000000Y-133000000D03*
X94000000Y-133500000D03*
X94000000Y-134000000D03*
X94000000Y-134500000D03*
X94000000Y-135000000D03*
X94500000Y-125500000D03*
X94500000Y-126500000D03*
X94500000Y-127000000D03*
X94500000Y-127500000D03*
X94500000Y-128000000D03*
X94500000Y-129000000D03*
X94500000Y-130000000D03*
X94500000Y-131000000D03*
X95000000Y-121500000D03*
X95000000Y-122000000D03*
X95000000Y-122500000D03*
X95000000Y-124000000D03*
X95000000Y-124500000D03*
X95000000Y-125000000D03*
X95000000Y-126500000D03*
X95000000Y-128500000D03*
X95000000Y-129000000D03*
X95000000Y-129500000D03*
X95000000Y-130000000D03*
X95000000Y-131000000D03*
X95000000Y-131500000D03*
X95000000Y-135000000D03*
X95500000Y-121500000D03*
X95500000Y-122000000D03*
X95500000Y-123500000D03*
X95500000Y-125500000D03*
X95500000Y-126000000D03*
X95500000Y-127000000D03*
X95500000Y-127500000D03*
X95500000Y-128000000D03*
X95500000Y-129500000D03*
X95500000Y-130000000D03*
X95500000Y-130500000D03*
X95500000Y-131000000D03*
X95500000Y-131500000D03*
X95500000Y-133000000D03*
X95500000Y-134500000D03*
X95500000Y-135000000D03*
X96000000Y-121500000D03*
X96000000Y-122500000D03*
X96000000Y-123000000D03*
X96000000Y-123500000D03*
X96000000Y-124000000D03*
X96000000Y-125000000D03*
X96000000Y-125500000D03*
X96000000Y-126500000D03*
X96000000Y-128000000D03*
X96000000Y-130000000D03*
X96000000Y-131000000D03*
X96000000Y-131500000D03*
X96000000Y-132000000D03*
X96000000Y-132500000D03*
X96000000Y-134500000D03*
X96000000Y-135000000D03*
X96500000Y-121000000D03*
X96500000Y-121500000D03*
X96500000Y-122000000D03*
X96500000Y-123000000D03*
X96500000Y-126000000D03*
X96500000Y-126500000D03*
X96500000Y-128000000D03*
X96500000Y-129000000D03*
X96500000Y-129500000D03*
X96500000Y-130500000D03*
X96500000Y-131000000D03*
X96500000Y-131500000D03*
X96500000Y-132000000D03*
X96500000Y-132500000D03*
X96500000Y-133000000D03*
X96500000Y-134000000D03*
X96500000Y-134500000D03*
X96500000Y-135000000D03*
X97000000Y-122000000D03*
X97000000Y-122500000D03*
X97000000Y-124000000D03*
X97000000Y-126000000D03*
X97000000Y-127500000D03*
X97000000Y-128000000D03*
X97000000Y-128500000D03*
X97000000Y-129500000D03*
X97000000Y-130000000D03*
X97000000Y-131000000D03*
X97000000Y-132000000D03*
X97000000Y-133000000D03*
X97500000Y-121000000D03*
X97500000Y-121500000D03*
X97500000Y-122500000D03*
X97500000Y-123000000D03*
X97500000Y-123500000D03*
X97500000Y-125000000D03*
X97500000Y-127000000D03*
X97500000Y-127500000D03*
X97500000Y-128000000D03*
X97500000Y-128500000D03*
X97500000Y-130000000D03*
X97500000Y-131500000D03*
X97500000Y-132000000D03*
X97500000Y-132500000D03*
X97500000Y-133000000D03*
X97500000Y-134000000D03*
X97500000Y-135000000D03*
X98000000Y-124000000D03*
X98000000Y-124500000D03*
X98000000Y-127000000D03*
X98000000Y-128000000D03*
X98000000Y-128500000D03*
X98000000Y-129000000D03*
X98000000Y-130000000D03*
X98000000Y-130500000D03*
X98000000Y-132000000D03*
X98000000Y-134500000D03*
X98500000Y-122000000D03*
X98500000Y-126000000D03*
X98500000Y-127500000D03*
X98500000Y-128000000D03*
X98500000Y-128500000D03*
X98500000Y-129000000D03*
X98500000Y-129500000D03*
X98500000Y-130000000D03*
X98500000Y-130500000D03*
X98500000Y-131000000D03*
X98500000Y-131500000D03*
X98500000Y-132000000D03*
X98500000Y-133000000D03*
X98500000Y-134000000D03*
X98500000Y-134500000D03*
X98500000Y-135000000D03*
X99000000Y-121500000D03*
X99000000Y-122500000D03*
X99000000Y-123000000D03*
X99000000Y-123500000D03*
X99000000Y-124000000D03*
X99000000Y-124500000D03*
X99000000Y-126000000D03*
X99000000Y-126500000D03*
X99000000Y-127000000D03*
X99000000Y-128500000D03*
X99000000Y-129000000D03*
X99000000Y-131000000D03*
X99000000Y-131500000D03*
X99000000Y-133500000D03*
X99000000Y-134000000D03*
X99000000Y-134500000D03*
X99000000Y-135000000D03*
X99500000Y-121500000D03*
X99500000Y-122500000D03*
X99500000Y-125000000D03*
X99500000Y-125500000D03*
X99500000Y-126000000D03*
X99500000Y-128000000D03*
X99500000Y-129000000D03*
X99500000Y-130000000D03*
X99500000Y-131000000D03*
X99500000Y-131500000D03*
X99500000Y-132000000D03*
X99500000Y-133000000D03*
X100000000Y-121000000D03*
X100000000Y-122000000D03*
X100000000Y-123000000D03*
X100000000Y-124000000D03*
X100000000Y-125500000D03*
X100000000Y-126000000D03*
X100000000Y-128000000D03*
X100000000Y-128500000D03*
X100000000Y-131000000D03*
X100000000Y-131500000D03*
X100000000Y-133500000D03*
X100500000Y-123000000D03*
X100500000Y-125500000D03*
X100500000Y-126500000D03*
X100500000Y-127500000D03*
X100500000Y-128500000D03*
X100500000Y-129000000D03*
X100500000Y-129500000D03*
X100500000Y-130000000D03*
X100500000Y-131000000D03*
X100500000Y-132000000D03*
X100500000Y-132500000D03*
X100500000Y-133000000D03*
X100500000Y-133500000D03*
X100500000Y-134000000D03*
X100500000Y-135000000D03*
X101000000Y-121500000D03*
X101000000Y-122000000D03*
X101000000Y-122500000D03*
X101000000Y-123000000D03*
X101000000Y-124000000D03*
X101000000Y-124500000D03*
X101000000Y-127500000D03*
X101000000Y-128000000D03*
X101000000Y-130500000D03*
X101000000Y-131000000D03*
X101000000Y-131500000D03*
X101000000Y-132000000D03*
X101000000Y-132500000D03*
X101000000Y-133000000D03*
X101000000Y-133500000D03*
X101000000Y-134000000D03*
X101500000Y-125000000D03*
X101500000Y-125500000D03*
X101500000Y-126500000D03*
X101500000Y-128000000D03*
X101500000Y-129000000D03*
X101500000Y-131000000D03*
X101500000Y-133000000D03*
X101500000Y-133500000D03*
X101500000Y-134000000D03*
X102000000Y-121000000D03*
X102000000Y-121500000D03*
X102000000Y-122000000D03*
X102000000Y-122500000D03*
X102000000Y-123000000D03*
X102000000Y-123500000D03*
X102000000Y-124000000D03*
X102000000Y-125000000D03*
X102000000Y-127000000D03*
X102000000Y-127500000D03*
X102000000Y-129500000D03*
X102000000Y-130500000D03*
X102000000Y-131000000D03*
X102000000Y-132000000D03*
X102000000Y-133000000D03*
X102000000Y-134000000D03*
X102000000Y-134500000D03*
X102000000Y-135000000D03*
X102500000Y-121000000D03*
X102500000Y-124000000D03*
X102500000Y-125500000D03*
X102500000Y-127000000D03*
X102500000Y-127500000D03*
X102500000Y-128500000D03*
X102500000Y-129000000D03*
X102500000Y-129500000D03*
X102500000Y-131000000D03*
X102500000Y-133000000D03*
X102500000Y-134000000D03*
X102500000Y-134500000D03*
X102500000Y-135000000D03*
X103000000Y-121000000D03*
X103000000Y-122000000D03*
X103000000Y-122500000D03*
X103000000Y-123000000D03*
X103000000Y-124000000D03*
X103000000Y-125500000D03*
X103000000Y-126000000D03*
X103000000Y-127500000D03*
X103000000Y-128000000D03*
X103000000Y-128500000D03*
X103000000Y-129500000D03*
X103000000Y-130000000D03*
X103000000Y-131000000D03*
X103000000Y-131500000D03*
X103000000Y-132000000D03*
X103000000Y-132500000D03*
X103000000Y-133000000D03*
X103000000Y-134000000D03*
X103000000Y-135000000D03*
X103500000Y-121000000D03*
X103500000Y-122000000D03*
X103500000Y-122500000D03*
X103500000Y-123000000D03*
X103500000Y-124000000D03*
X103500000Y-125000000D03*
X103500000Y-126500000D03*
X103500000Y-128000000D03*
X103500000Y-129000000D03*
X103500000Y-130000000D03*
X103500000Y-131500000D03*
X103500000Y-132000000D03*
X103500000Y-133000000D03*
X103500000Y-133500000D03*
X103500000Y-134000000D03*
X103500000Y-134500000D03*
X104000000Y-121000000D03*
X104000000Y-122000000D03*
X104000000Y-122500000D03*
X104000000Y-123000000D03*
X104000000Y-124000000D03*
X104000000Y-125000000D03*
X104000000Y-125500000D03*
X104000000Y-128000000D03*
X104000000Y-128500000D03*
X104000000Y-129000000D03*
X104000000Y-129500000D03*
X104000000Y-131000000D03*
X104000000Y-132000000D03*
X104000000Y-133500000D03*
X104000000Y-134000000D03*
X104000000Y-134500000D03*
X104000000Y-135000000D03*
X104500000Y-121000000D03*
X104500000Y-124000000D03*
X104500000Y-125000000D03*
X104500000Y-125500000D03*
X104500000Y-127500000D03*
X104500000Y-129500000D03*
X104500000Y-131000000D03*
X104500000Y-132500000D03*
X104500000Y-134000000D03*
X105000000Y-121000000D03*
X105000000Y-121500000D03*
X105000000Y-122000000D03*
X105000000Y-122500000D03*
X105000000Y-123000000D03*
X105000000Y-123500000D03*
X105000000Y-124000000D03*
X105000000Y-127000000D03*
X105000000Y-127500000D03*
X105000000Y-128500000D03*
X105000000Y-129500000D03*
X105000000Y-130000000D03*
X105000000Y-131000000D03*
X105000000Y-132500000D03*
X105000000Y-133000000D03*
X105000000Y-133500000D03*
X105000000Y-134500000D03*
%TD*%
D11*
%TO.P,J4,1,Pin_1*%
%TO.N,/GPIO22*%
X173500000Y-55500000D03*
D12*
%TO.P,J4,2,Pin_2*%
%TO.N,/TX0*%
X173500000Y-58040000D03*
%TO.P,J4,3,Pin_3*%
%TO.N,/RX0*%
X173500000Y-60580000D03*
%TO.P,J4,4,Pin_4*%
%TO.N,/GPIO21*%
X173500000Y-63120000D03*
%TO.P,J4,5,Pin_5*%
%TO.N,/GPIO19*%
X173500000Y-65660000D03*
%TO.P,J4,6,Pin_6*%
%TO.N,/GPIO16*%
X173500000Y-68200000D03*
%TO.P,J4,7,Pin_7*%
%TO.N,/GPIO15*%
X173500000Y-70740000D03*
%TD*%
D13*
%TO.P,H4,1*%
%TO.N,N/C*%
X171500000Y-135000000D03*
D14*
X171500000Y-135000000D03*
%TD*%
D13*
%TO.P,H3,1*%
%TO.N,N/C*%
X83500000Y-135000000D03*
D14*
X83500000Y-135000000D03*
%TD*%
D13*
%TO.P,H2,1*%
%TO.N,N/C*%
X171500000Y-47000000D03*
D14*
X171500000Y-47000000D03*
%TD*%
D13*
%TO.P,H1,1*%
%TO.N,N/C*%
X83500000Y-47000000D03*
D14*
X83500000Y-47000000D03*
%TD*%
D11*
%TO.P,J7,1,Pin_1*%
%TO.N,+3.3V*%
X142000000Y-88440000D03*
D12*
%TO.P,J7,2,Pin_2*%
%TO.N,GND*%
X142000000Y-85900000D03*
%TO.P,J7,3,Pin_3*%
%TO.N,/GPIO15*%
X142000000Y-83360000D03*
%TO.P,J7,4,Pin_4*%
%TO.N,/BUSY*%
X142000000Y-80820000D03*
%TO.P,J7,5,Pin_5*%
%TO.N,/DATA*%
X142000000Y-78280000D03*
%TO.P,J7,6,Pin_6*%
%TO.N,/GPIO16*%
X142000000Y-75740000D03*
%TO.P,J7,7,Pin_7*%
%TO.N,/DC*%
X142000000Y-73200000D03*
%TO.P,J7,8,Pin_8*%
%TO.N,/CS*%
X142000000Y-70660000D03*
%TO.P,J7,9,Pin_9*%
%TO.N,/CLK*%
X142000000Y-68120000D03*
%TO.P,J7,10,Pin_10*%
%TO.N,/GPIO19*%
X142000000Y-65580000D03*
%TO.P,J7,11,Pin_11*%
%TO.N,/GPIO21*%
X142000000Y-63040000D03*
%TO.P,J7,12,Pin_12*%
%TO.N,/RX0*%
X142000000Y-60500000D03*
%TO.P,J7,13,Pin_13*%
%TO.N,/TX0*%
X142000000Y-57960000D03*
%TO.P,J7,14,Pin_14*%
%TO.N,/GPIO22*%
X142000000Y-55420000D03*
%TO.P,J7,15,Pin_15*%
%TO.N,/SDI*%
X142000000Y-52880000D03*
%TD*%
D11*
%TO.P,J6,1,Pin_1*%
%TO.N,unconnected-(J6-Pin_1-Pad1)*%
X117000000Y-52880000D03*
D12*
%TO.P,J6,2,Pin_2*%
%TO.N,unconnected-(J6-Pin_2-Pad2)*%
X117000000Y-55420000D03*
%TO.P,J6,3,Pin_3*%
%TO.N,unconnected-(J6-Pin_3-Pad3)*%
X117000000Y-57960000D03*
%TO.P,J6,4,Pin_4*%
%TO.N,/GPIO34*%
X117000000Y-60500000D03*
%TO.P,J6,5,Pin_5*%
%TO.N,/GPIO35*%
X117000000Y-63040000D03*
%TO.P,J6,6,Pin_6*%
%TO.N,/GPIO32*%
X117000000Y-65580000D03*
%TO.P,J6,7,Pin_7*%
%TO.N,/GPIO33*%
X117000000Y-68120000D03*
%TO.P,J6,8,Pin_8*%
%TO.N,/GPIO25*%
X117000000Y-70660000D03*
%TO.P,J6,9,Pin_9*%
%TO.N,/GPIO26*%
X117000000Y-73200000D03*
%TO.P,J6,10,Pin_10*%
%TO.N,/GPIO27*%
X117000000Y-75740000D03*
%TO.P,J6,11,Pin_11*%
%TO.N,/GPIO14*%
X117000000Y-78280000D03*
%TO.P,J6,12,Pin_12*%
%TO.N,/GPIO12*%
X117000000Y-80820000D03*
%TO.P,J6,13,Pin_13*%
%TO.N,/GPIO13*%
X117000000Y-83360000D03*
%TO.P,J6,14,Pin_14*%
%TO.N,GND*%
X117000000Y-85900000D03*
%TO.P,J6,15,Pin_15*%
%TO.N,+5V*%
X117000000Y-88440000D03*
%TD*%
D11*
%TO.P,J3,1,Pin_1*%
%TO.N,/GPIO34*%
X81500000Y-60500000D03*
D12*
%TO.P,J3,2,Pin_2*%
%TO.N,/GPIO35*%
X81500000Y-63040000D03*
%TO.P,J3,3,Pin_3*%
%TO.N,/GPIO32*%
X81500000Y-65580000D03*
%TO.P,J3,4,Pin_4*%
%TO.N,/GPIO33*%
X81500000Y-68120000D03*
%TO.P,J3,5,Pin_5*%
%TO.N,/GPIO25*%
X81500000Y-70660000D03*
%TO.P,J3,6,Pin_6*%
%TO.N,/GPIO26*%
X81500000Y-73200000D03*
%TO.P,J3,7,Pin_7*%
%TO.N,/GPIO27*%
X81500000Y-75740000D03*
%TO.P,J3,8,Pin_8*%
%TO.N,/GPIO14*%
X81500000Y-78280000D03*
%TO.P,J3,9,Pin_9*%
%TO.N,/GPIO12*%
X81500000Y-80820000D03*
%TO.P,J3,10,Pin_10*%
%TO.N,/GPIO13*%
X81500000Y-83360000D03*
%TD*%
D11*
%TO.P,J2,1,Pin_1*%
%TO.N,/BUSY*%
X167000000Y-118240000D03*
D12*
%TO.P,J2,2,Pin_2*%
%TO.N,/CLK*%
X167000000Y-115700000D03*
%TO.P,J2,3,Pin_3*%
%TO.N,/CS*%
X167000000Y-113160000D03*
%TO.P,J2,4,Pin_4*%
%TO.N,/SDI*%
X167000000Y-110620000D03*
%TO.P,J2,5,Pin_5*%
%TO.N,/DC*%
X167000000Y-108080000D03*
%TO.P,J2,6,Pin_6*%
%TO.N,GND*%
X167000000Y-105540000D03*
%TO.P,J2,7,Pin_7*%
%TO.N,+3.3V*%
X167000000Y-103000000D03*
%TD*%
D15*
%TO.P,J1,A5,CC1*%
%TO.N,unconnected-(J1-CC1-PadA5)*%
X126875000Y-134365000D03*
D16*
%TO.P,J1,A9,VBUS*%
%TO.N,+5V*%
X128895000Y-134365000D03*
D17*
%TO.P,J1,A12,GND*%
%TO.N,GND*%
X130125000Y-134365000D03*
D18*
%TO.P,J1,B5,CC2*%
%TO.N,unconnected-(J1-CC2-PadB5)*%
X127875000Y-134365000D03*
D19*
%TO.P,J1,B9,VBUS*%
%TO.N,+5V*%
X125855000Y-134365000D03*
D20*
%TO.P,J1,B12,GND*%
%TO.N,GND*%
X124625000Y-134365000D03*
D21*
%TO.P,J1,S1,SHIELD*%
X122250000Y-134420000D03*
D22*
X122250000Y-138000000D03*
D21*
X132500000Y-134420000D03*
D22*
X132500000Y-138000000D03*
%TD*%
D11*
%TO.P,U1,1,DATA*%
%TO.N,/DATA*%
X100000000Y-105920000D03*
D12*
%TO.P,U1,2,VDD*%
%TO.N,+3.3V*%
X100000000Y-108460000D03*
%TO.P,U1,3,GND*%
%TO.N,GND*%
X100000000Y-111000000D03*
%TD*%
D23*
%TO.N,/DATA*%
X124500000Y-106000000D03*
%TD*%
D24*
%TO.N,/GPIO15*%
X159760000Y-70740000D02*
X147140000Y-83360000D01*
X147140000Y-83360000D02*
X142000000Y-83360000D01*
X173500000Y-70740000D02*
X159760000Y-70740000D01*
X173500000Y-70740000D02*
X173500000Y-71000000D01*
%TO.N,+5V*%
X121000000Y-90500000D02*
X121000000Y-125000000D01*
X118940000Y-88440000D02*
X121000000Y-90500000D01*
X117000000Y-88440000D02*
X118940000Y-88440000D01*
%TO.N,/GPIO16*%
X172200000Y-68200000D02*
X173500000Y-68200000D01*
X172000000Y-68000000D02*
X172200000Y-68200000D01*
X155500000Y-68000000D02*
X172000000Y-68000000D01*
X142000000Y-75740000D02*
X147760000Y-75740000D01*
X147760000Y-75740000D02*
X155500000Y-68000000D01*
%TO.N,/GPIO19*%
X173420000Y-65580000D02*
X173500000Y-65660000D01*
X142000000Y-65580000D02*
X173420000Y-65580000D01*
%TO.N,/GPIO21*%
X173420000Y-63040000D02*
X173500000Y-63120000D01*
X142000000Y-63040000D02*
X173420000Y-63040000D01*
%TO.N,/RX0*%
X173420000Y-60500000D02*
X173500000Y-60580000D01*
X142000000Y-60500000D02*
X173420000Y-60500000D01*
%TO.N,/TX0*%
X173420000Y-57960000D02*
X173500000Y-58040000D01*
X142000000Y-57960000D02*
X173420000Y-57960000D01*
%TO.N,/GPIO22*%
X173420000Y-55420000D02*
X173500000Y-55500000D01*
X142000000Y-55420000D02*
X173420000Y-55420000D01*
D25*
%TO.N,+5V*%
X128895000Y-134965000D02*
X128895000Y-134365000D01*
X125824000Y-134824000D02*
X126500000Y-135500000D01*
X126500000Y-135500000D02*
X128360000Y-135500000D01*
X128360000Y-135500000D02*
X128895000Y-134965000D01*
X125824000Y-134396000D02*
X125824000Y-134824000D01*
X125855000Y-134365000D02*
X125824000Y-134396000D01*
D24*
%TO.N,/DATA*%
X128000000Y-102500000D02*
X124500000Y-106000000D01*
X128000000Y-84500000D02*
X128000000Y-102500000D01*
X134220000Y-78280000D02*
X128000000Y-84500000D01*
X142000000Y-78280000D02*
X134220000Y-78280000D01*
D25*
X100000000Y-105920000D02*
X100000000Y-106000000D01*
D24*
%TO.N,+5V*%
X125824000Y-129824000D02*
X125824000Y-134365000D01*
X121000000Y-125000000D02*
X125824000Y-129824000D01*
%TO.N,/BUSY*%
X159240000Y-118240000D02*
X167000000Y-118240000D01*
X137500000Y-81500000D02*
X137500000Y-96500000D01*
X142000000Y-80820000D02*
X138180000Y-80820000D01*
X138180000Y-80820000D02*
X137500000Y-81500000D01*
X137500000Y-96500000D02*
X159240000Y-118240000D01*
%TO.N,/GPIO13*%
X81500000Y-83360000D02*
X117000000Y-83360000D01*
%TO.N,/GPIO12*%
X81500000Y-80820000D02*
X117000000Y-80820000D01*
%TO.N,/GPIO14*%
X81500000Y-78280000D02*
X117000000Y-78280000D01*
%TO.N,/GPIO27*%
X81500000Y-75740000D02*
X117000000Y-75740000D01*
%TO.N,/GPIO26*%
X81500000Y-73200000D02*
X117000000Y-73200000D01*
%TO.N,/GPIO25*%
X81500000Y-70660000D02*
X117000000Y-70660000D01*
%TO.N,/GPIO33*%
X81500000Y-68120000D02*
X117000000Y-68120000D01*
%TO.N,/GPIO32*%
X81500000Y-65580000D02*
X117000000Y-65580000D01*
%TO.N,/GPIO35*%
X81500000Y-63040000D02*
X117000000Y-63040000D01*
%TO.N,/GPIO34*%
X81500000Y-60500000D02*
X117000000Y-60500000D01*
%TD*%
%TA.AperFunction,Conductor*%
%TO.N,GND*%
G36*
X176942539Y-41520185D02*
G01*
X176988294Y-41572989D01*
X176999500Y-41624500D01*
X176999500Y-140375500D01*
X176979815Y-140442539D01*
X176927011Y-140488294D01*
X176875500Y-140499500D01*
X78124500Y-140499500D01*
X78057461Y-140479815D01*
X78011706Y-140427011D01*
X78000500Y-140375500D01*
X78000500Y-138549986D01*
X120850001Y-138549986D01*
X120860494Y-138652697D01*
X120915641Y-138819119D01*
X120915643Y-138819124D01*
X121007684Y-138968345D01*
X121131654Y-139092315D01*
X121280875Y-139184356D01*
X121280880Y-139184358D01*
X121447302Y-139239505D01*
X121447309Y-139239506D01*
X121550019Y-139249999D01*
X121999999Y-139249999D01*
X122500000Y-139249999D01*
X122949972Y-139249999D01*
X122949986Y-139249998D01*
X123052697Y-139239505D01*
X123219119Y-139184358D01*
X123219124Y-139184356D01*
X123368345Y-139092315D01*
X123492315Y-138968345D01*
X123584356Y-138819124D01*
X123584358Y-138819119D01*
X123639505Y-138652697D01*
X123639506Y-138652690D01*
X123649999Y-138549986D01*
X131100001Y-138549986D01*
X131110494Y-138652697D01*
X131165641Y-138819119D01*
X131165643Y-138819124D01*
X131257684Y-138968345D01*
X131381654Y-139092315D01*
X131530875Y-139184356D01*
X131530880Y-139184358D01*
X131697302Y-139239505D01*
X131697309Y-139239506D01*
X131800019Y-139249999D01*
X132249999Y-139249999D01*
X132750000Y-139249999D01*
X133199972Y-139249999D01*
X133199986Y-139249998D01*
X133302697Y-139239505D01*
X133469119Y-139184358D01*
X133469124Y-139184356D01*
X133618345Y-139092315D01*
X133742315Y-138968345D01*
X133834356Y-138819124D01*
X133834358Y-138819119D01*
X133889505Y-138652697D01*
X133889506Y-138652690D01*
X133899999Y-138549986D01*
X133900000Y-138549973D01*
X133900000Y-138250000D01*
X132750000Y-138250000D01*
X132750000Y-139249999D01*
X132249999Y-139249999D01*
X132250000Y-139249998D01*
X132250000Y-138250000D01*
X131100001Y-138250000D01*
X131100001Y-138549986D01*
X123649999Y-138549986D01*
X123650000Y-138549973D01*
X123650000Y-138250000D01*
X122500000Y-138250000D01*
X122500000Y-139249999D01*
X121999999Y-139249999D01*
X122000000Y-139249998D01*
X122000000Y-138250000D01*
X120850001Y-138250000D01*
X120850001Y-138549986D01*
X78000500Y-138549986D01*
X78000500Y-134834296D01*
X80549500Y-134834296D01*
X80549500Y-135165703D01*
X80586601Y-135494991D01*
X80586604Y-135495005D01*
X80660346Y-135818093D01*
X80660349Y-135818101D01*
X80769799Y-136130890D01*
X80913582Y-136429458D01*
X80913584Y-136429461D01*
X81089896Y-136710060D01*
X81296516Y-136969153D01*
X81530847Y-137203484D01*
X81789940Y-137410104D01*
X82070539Y-137586416D01*
X82369113Y-137730202D01*
X82604037Y-137812405D01*
X82681898Y-137839650D01*
X82681906Y-137839653D01*
X82681909Y-137839653D01*
X82681910Y-137839654D01*
X83004994Y-137913396D01*
X83005003Y-137913397D01*
X83005008Y-137913398D01*
X83224533Y-137938132D01*
X83334297Y-137950499D01*
X83334300Y-137950500D01*
X83334303Y-137950500D01*
X83665700Y-137950500D01*
X83665701Y-137950499D01*
X83833996Y-137931537D01*
X83994991Y-137913398D01*
X83994994Y-137913397D01*
X83995006Y-137913396D01*
X84318090Y-137839654D01*
X84630887Y-137730202D01*
X84929461Y-137586416D01*
X85146545Y-137450013D01*
X120850000Y-137450013D01*
X120850000Y-137750000D01*
X122000000Y-137750000D01*
X122500000Y-137750000D01*
X123649999Y-137750000D01*
X123649999Y-137450029D01*
X123649998Y-137450013D01*
X131100000Y-137450013D01*
X131100000Y-137750000D01*
X132250000Y-137750000D01*
X132750000Y-137750000D01*
X133899999Y-137750000D01*
X133899999Y-137450028D01*
X133899998Y-137450013D01*
X133889505Y-137347302D01*
X133834358Y-137180880D01*
X133834356Y-137180875D01*
X133742315Y-137031654D01*
X133618345Y-136907684D01*
X133469124Y-136815643D01*
X133469119Y-136815641D01*
X133302697Y-136760494D01*
X133302690Y-136760493D01*
X133199986Y-136750000D01*
X132750000Y-136750000D01*
X132750000Y-137750000D01*
X132250000Y-137750000D01*
X132250000Y-136750000D01*
X131800028Y-136750000D01*
X131800012Y-136750001D01*
X131697302Y-136760494D01*
X131530880Y-136815641D01*
X131530875Y-136815643D01*
X131381654Y-136907684D01*
X131257684Y-137031654D01*
X131165643Y-137180875D01*
X131165641Y-137180880D01*
X131110494Y-137347302D01*
X131110493Y-137347309D01*
X131100000Y-137450013D01*
X123649998Y-137450013D01*
X123649998Y-137450012D01*
X123639505Y-137347302D01*
X123584358Y-137180880D01*
X123584356Y-137180875D01*
X123492315Y-137031654D01*
X123368345Y-136907684D01*
X123219124Y-136815643D01*
X123219119Y-136815641D01*
X123052697Y-136760494D01*
X123052690Y-136760493D01*
X122949986Y-136750000D01*
X122500000Y-136750000D01*
X122500000Y-137750000D01*
X122000000Y-137750000D01*
X122000000Y-136750000D01*
X121550028Y-136750000D01*
X121550012Y-136750001D01*
X121447302Y-136760494D01*
X121280880Y-136815641D01*
X121280875Y-136815643D01*
X121131654Y-136907684D01*
X121007684Y-137031654D01*
X120915643Y-137180875D01*
X120915641Y-137180880D01*
X120860494Y-137347302D01*
X120860493Y-137347309D01*
X120850000Y-137450013D01*
X85146545Y-137450013D01*
X85210060Y-137410104D01*
X85469153Y-137203484D01*
X85703484Y-136969153D01*
X85910104Y-136710060D01*
X86086416Y-136429461D01*
X86230202Y-136130887D01*
X86339654Y-135818090D01*
X86413396Y-135495006D01*
X86419722Y-135438867D01*
X86446430Y-135201818D01*
X86450500Y-135165697D01*
X86450500Y-134834303D01*
X86438132Y-134724533D01*
X86413398Y-134505008D01*
X86413397Y-134505003D01*
X86413396Y-134504994D01*
X86339654Y-134181910D01*
X86230202Y-133869113D01*
X86086416Y-133570539D01*
X85910104Y-133289940D01*
X85703484Y-133030847D01*
X85469153Y-132796516D01*
X85210060Y-132589896D01*
X85016263Y-132468125D01*
X84929458Y-132413582D01*
X84630890Y-132269799D01*
X84318101Y-132160349D01*
X84318093Y-132160346D01*
X84075777Y-132105039D01*
X83995006Y-132086604D01*
X83995003Y-132086603D01*
X83994991Y-132086601D01*
X83665703Y-132049500D01*
X83665697Y-132049500D01*
X83334303Y-132049500D01*
X83334296Y-132049500D01*
X83005008Y-132086601D01*
X83004994Y-132086604D01*
X82681906Y-132160346D01*
X82681898Y-132160349D01*
X82369109Y-132269799D01*
X82070541Y-132413582D01*
X81789941Y-132589895D01*
X81530847Y-132796515D01*
X81296515Y-133030847D01*
X81089895Y-133289941D01*
X80913582Y-133570541D01*
X80769799Y-133869109D01*
X80660349Y-134181898D01*
X80660346Y-134181906D01*
X80586604Y-134504994D01*
X80586601Y-134505008D01*
X80549500Y-134834296D01*
X78000500Y-134834296D01*
X78000500Y-120730247D01*
X90549500Y-120730247D01*
X90549500Y-124269752D01*
X90561131Y-124328229D01*
X90561132Y-124328230D01*
X90605448Y-124394553D01*
X90608959Y-124396899D01*
X90653764Y-124450512D01*
X90662470Y-124519837D01*
X90632314Y-124582864D01*
X90608959Y-124603101D01*
X90605448Y-124605446D01*
X90561132Y-124671769D01*
X90561131Y-124671770D01*
X90549500Y-124730247D01*
X90549500Y-128769752D01*
X90561131Y-128828229D01*
X90561132Y-128828230D01*
X90605448Y-128894553D01*
X90608959Y-128896899D01*
X90653764Y-128950512D01*
X90662470Y-129019837D01*
X90632314Y-129082864D01*
X90608959Y-129103101D01*
X90605448Y-129105446D01*
X90561132Y-129171769D01*
X90561131Y-129171770D01*
X90549500Y-129230247D01*
X90549500Y-131269752D01*
X90561131Y-131328229D01*
X90561132Y-131328230D01*
X90605448Y-131394553D01*
X90608959Y-131396899D01*
X90653764Y-131450512D01*
X90662470Y-131519837D01*
X90632314Y-131582864D01*
X90608959Y-131603101D01*
X90605448Y-131605446D01*
X90561132Y-131671769D01*
X90561131Y-131671770D01*
X90549500Y-131730247D01*
X90549500Y-135269752D01*
X90561131Y-135328229D01*
X90561132Y-135328230D01*
X90605447Y-135394552D01*
X90671769Y-135438867D01*
X90671770Y-135438868D01*
X90730247Y-135450499D01*
X90730250Y-135450500D01*
X90730252Y-135450500D01*
X94269750Y-135450500D01*
X94269751Y-135450499D01*
X94284568Y-135447552D01*
X94328229Y-135438868D01*
X94328229Y-135438867D01*
X94328231Y-135438867D01*
X94394552Y-135394552D01*
X94396897Y-135391043D01*
X94450508Y-135346237D01*
X94519833Y-135337528D01*
X94582861Y-135367682D01*
X94603103Y-135391043D01*
X94605447Y-135394552D01*
X94671769Y-135438867D01*
X94671770Y-135438868D01*
X94730247Y-135450499D01*
X94730250Y-135450500D01*
X94730252Y-135450500D01*
X96769750Y-135450500D01*
X96769751Y-135450499D01*
X96784568Y-135447552D01*
X96828229Y-135438868D01*
X96828229Y-135438867D01*
X96828231Y-135438867D01*
X96894552Y-135394552D01*
X96896897Y-135391043D01*
X96950508Y-135346237D01*
X97019833Y-135337528D01*
X97082861Y-135367682D01*
X97103103Y-135391043D01*
X97105447Y-135394552D01*
X97171769Y-135438867D01*
X97171770Y-135438868D01*
X97230247Y-135450499D01*
X97230250Y-135450500D01*
X97230252Y-135450500D01*
X97769750Y-135450500D01*
X97769751Y-135450499D01*
X97784568Y-135447552D01*
X97828229Y-135438868D01*
X97828229Y-135438867D01*
X97828231Y-135438867D01*
X97894552Y-135394552D01*
X97896897Y-135391043D01*
X97950508Y-135346237D01*
X98019833Y-135337528D01*
X98082861Y-135367682D01*
X98103103Y-135391043D01*
X98105447Y-135394552D01*
X98171769Y-135438867D01*
X98171770Y-135438868D01*
X98230247Y-135450499D01*
X98230250Y-135450500D01*
X98230252Y-135450500D01*
X99269750Y-135450500D01*
X99269751Y-135450499D01*
X99284568Y-135447552D01*
X99328229Y-135438868D01*
X99328229Y-135438867D01*
X99328231Y-135438867D01*
X99394552Y-135394552D01*
X99438867Y-135328231D01*
X99438867Y-135328229D01*
X99438868Y-135328229D01*
X99450499Y-135269752D01*
X99450500Y-135269750D01*
X99450500Y-134023007D01*
X99470185Y-133955968D01*
X99522989Y-133910213D01*
X99592147Y-133900269D01*
X99643392Y-133919906D01*
X99671768Y-133938867D01*
X99671770Y-133938868D01*
X99730247Y-133950499D01*
X99730250Y-133950500D01*
X99730252Y-133950500D01*
X99925500Y-133950500D01*
X99992539Y-133970185D01*
X100038294Y-134022989D01*
X100049500Y-134074500D01*
X100049500Y-134269752D01*
X100061131Y-134328229D01*
X100061132Y-134328230D01*
X100105448Y-134394553D01*
X100108959Y-134396899D01*
X100153764Y-134450512D01*
X100162470Y-134519837D01*
X100132314Y-134582864D01*
X100108959Y-134603101D01*
X100105448Y-134605446D01*
X100061132Y-134671769D01*
X100061131Y-134671770D01*
X100049500Y-134730247D01*
X100049500Y-135269752D01*
X100061131Y-135328229D01*
X100061132Y-135328230D01*
X100105447Y-135394552D01*
X100171769Y-135438867D01*
X100171770Y-135438868D01*
X100230247Y-135450499D01*
X100230250Y-135450500D01*
X100230252Y-135450500D01*
X100769750Y-135450500D01*
X100769751Y-135450499D01*
X100784568Y-135447552D01*
X100828229Y-135438868D01*
X100828229Y-135438867D01*
X100828231Y-135438867D01*
X100894552Y-135394552D01*
X100938867Y-135328231D01*
X100938867Y-135328229D01*
X100938868Y-135328229D01*
X100950499Y-135269752D01*
X100950500Y-135269750D01*
X100950500Y-134730249D01*
X100950499Y-134730247D01*
X100938868Y-134671770D01*
X100938867Y-134671768D01*
X100919906Y-134643392D01*
X100899027Y-134576715D01*
X100917511Y-134509335D01*
X100969489Y-134462644D01*
X101023007Y-134450500D01*
X101230252Y-134450500D01*
X101425500Y-134450500D01*
X101492539Y-134470185D01*
X101538294Y-134522989D01*
X101549500Y-134574500D01*
X101549500Y-135269752D01*
X101561131Y-135328229D01*
X101561132Y-135328230D01*
X101605447Y-135394552D01*
X101671769Y-135438867D01*
X101671770Y-135438868D01*
X101730247Y-135450499D01*
X101730250Y-135450500D01*
X101730252Y-135450500D01*
X103269750Y-135450500D01*
X103269751Y-135450499D01*
X103284568Y-135447552D01*
X103328229Y-135438868D01*
X103328229Y-135438867D01*
X103328231Y-135438867D01*
X103394552Y-135394552D01*
X103396897Y-135391043D01*
X103450508Y-135346237D01*
X103519833Y-135337528D01*
X103582861Y-135367682D01*
X103603103Y-135391043D01*
X103605447Y-135394552D01*
X103671769Y-135438867D01*
X103671770Y-135438868D01*
X103730247Y-135450499D01*
X103730250Y-135450500D01*
X103730252Y-135450500D01*
X104269750Y-135450500D01*
X104269751Y-135450499D01*
X104284568Y-135447552D01*
X104328229Y-135438868D01*
X104328229Y-135438867D01*
X104328231Y-135438867D01*
X104394552Y-135394552D01*
X104438867Y-135328231D01*
X104438867Y-135328229D01*
X104438868Y-135328229D01*
X104450499Y-135269752D01*
X104450500Y-135269750D01*
X104450500Y-135023007D01*
X104470185Y-134955968D01*
X104522989Y-134910213D01*
X104592147Y-134900269D01*
X104643392Y-134919906D01*
X104671768Y-134938867D01*
X104671770Y-134938868D01*
X104730247Y-134950499D01*
X104730250Y-134950500D01*
X104730252Y-134950500D01*
X105269750Y-134950500D01*
X105269751Y-134950499D01*
X105284568Y-134947552D01*
X105328229Y-134938868D01*
X105328229Y-134938867D01*
X105328231Y-134938867D01*
X105393902Y-134894986D01*
X120850001Y-134894986D01*
X120860494Y-134997697D01*
X120915641Y-135164119D01*
X120915643Y-135164124D01*
X121007684Y-135313345D01*
X121131654Y-135437315D01*
X121280875Y-135529356D01*
X121280880Y-135529358D01*
X121447302Y-135584505D01*
X121447309Y-135584506D01*
X121550019Y-135594999D01*
X121999999Y-135594999D01*
X122000000Y-135594998D01*
X122000000Y-134670000D01*
X122500000Y-134670000D01*
X122500000Y-135594999D01*
X122949972Y-135594999D01*
X122949986Y-135594998D01*
X123052697Y-135584505D01*
X123219119Y-135529358D01*
X123219124Y-135529356D01*
X123368345Y-135437315D01*
X123492315Y-135313345D01*
X123584356Y-135164124D01*
X123584357Y-135164120D01*
X123593183Y-135137486D01*
X123632954Y-135080040D01*
X123697470Y-135053215D01*
X123766246Y-135065529D01*
X123817007Y-135112337D01*
X123869927Y-135199877D01*
X123990122Y-135320072D01*
X124135604Y-135408019D01*
X124135603Y-135408019D01*
X124297894Y-135458590D01*
X124297893Y-135458590D01*
X124368408Y-135464998D01*
X124368426Y-135464999D01*
X124374999Y-135464998D01*
X124375000Y-135464998D01*
X124375000Y-134615000D01*
X123780000Y-134615000D01*
X123761319Y-134633681D01*
X123699996Y-134667166D01*
X123673638Y-134670000D01*
X122500000Y-134670000D01*
X122000000Y-134670000D01*
X120850001Y-134670000D01*
X120850001Y-134894986D01*
X105393902Y-134894986D01*
X105394552Y-134894552D01*
X105438867Y-134828231D01*
X105438867Y-134828229D01*
X105438868Y-134828229D01*
X105450499Y-134769752D01*
X105450500Y-134769750D01*
X105450500Y-134230249D01*
X105450499Y-134230247D01*
X105438868Y-134171770D01*
X105438867Y-134171769D01*
X105394552Y-134105447D01*
X105391043Y-134103103D01*
X105346237Y-134049492D01*
X105337528Y-133980167D01*
X105354330Y-133945013D01*
X120850000Y-133945013D01*
X120850000Y-134170000D01*
X122000000Y-134170000D01*
X122500000Y-134170000D01*
X123595000Y-134170000D01*
X123613681Y-134151319D01*
X123675004Y-134117834D01*
X123701362Y-134115000D01*
X124375000Y-134115000D01*
X124375000Y-133265000D01*
X124374999Y-133264999D01*
X124368436Y-133265000D01*
X124368417Y-133265001D01*
X124297897Y-133271408D01*
X124297892Y-133271409D01*
X124135603Y-133321981D01*
X123990122Y-133409927D01*
X123869928Y-133530121D01*
X123869925Y-133530125D01*
X123789130Y-133663775D01*
X123737602Y-133710962D01*
X123668743Y-133722800D01*
X123604414Y-133695531D01*
X123577475Y-133664720D01*
X123492317Y-133526656D01*
X123368345Y-133402684D01*
X123219124Y-133310643D01*
X123219119Y-133310641D01*
X123052697Y-133255494D01*
X123052690Y-133255493D01*
X122949986Y-133245000D01*
X122500000Y-133245000D01*
X122500000Y-134170000D01*
X122000000Y-134170000D01*
X122000000Y-133245000D01*
X121550028Y-133245000D01*
X121550012Y-133245001D01*
X121447302Y-133255494D01*
X121280880Y-133310641D01*
X121280875Y-133310643D01*
X121131654Y-133402684D01*
X121007684Y-133526654D01*
X120915643Y-133675875D01*
X120915641Y-133675880D01*
X120860494Y-133842302D01*
X120860493Y-133842309D01*
X120850000Y-133945013D01*
X105354330Y-133945013D01*
X105367620Y-133917208D01*
X105378050Y-133905578D01*
X105394552Y-133894552D01*
X105438867Y-133828231D01*
X105450500Y-133769748D01*
X105450500Y-133230252D01*
X105450500Y-132730252D01*
X105450500Y-132230252D01*
X105450500Y-132230249D01*
X105450499Y-132230247D01*
X105438868Y-132171770D01*
X105438867Y-132171769D01*
X105394552Y-132105447D01*
X105328230Y-132061132D01*
X105328229Y-132061131D01*
X105269752Y-132049500D01*
X105269748Y-132049500D01*
X104769748Y-132049500D01*
X104574500Y-132049500D01*
X104507461Y-132029815D01*
X104461706Y-131977011D01*
X104450500Y-131925500D01*
X104450500Y-131730249D01*
X104450499Y-131730247D01*
X104438868Y-131671770D01*
X104438867Y-131671768D01*
X104419906Y-131643392D01*
X104399027Y-131576715D01*
X104417511Y-131509335D01*
X104469489Y-131462644D01*
X104523007Y-131450500D01*
X105269750Y-131450500D01*
X105269751Y-131450499D01*
X105284568Y-131447552D01*
X105328229Y-131438868D01*
X105328229Y-131438867D01*
X105328231Y-131438867D01*
X105394552Y-131394552D01*
X105438867Y-131328231D01*
X105438867Y-131328229D01*
X105438868Y-131328229D01*
X105450499Y-131269752D01*
X105450500Y-131269750D01*
X105450500Y-130730249D01*
X105450499Y-130730247D01*
X105438868Y-130671770D01*
X105438867Y-130671769D01*
X105394552Y-130605447D01*
X105391043Y-130603103D01*
X105346237Y-130549492D01*
X105337528Y-130480167D01*
X105367682Y-130417139D01*
X105391043Y-130396897D01*
X105394552Y-130394552D01*
X105438867Y-130328231D01*
X105438867Y-130328229D01*
X105438868Y-130328229D01*
X105450499Y-130269752D01*
X105450500Y-130269750D01*
X105450500Y-129230249D01*
X105450499Y-129230247D01*
X105438868Y-129171770D01*
X105438867Y-129171769D01*
X105394552Y-129105447D01*
X105391043Y-129103103D01*
X105346237Y-129049492D01*
X105337528Y-128980167D01*
X105367682Y-128917139D01*
X105391043Y-128896897D01*
X105394552Y-128894552D01*
X105438867Y-128828231D01*
X105438867Y-128828229D01*
X105438868Y-128828229D01*
X105450499Y-128769752D01*
X105450500Y-128769750D01*
X105450500Y-128230249D01*
X105450499Y-128230247D01*
X105438868Y-128171770D01*
X105438867Y-128171769D01*
X105394552Y-128105447D01*
X105391043Y-128103103D01*
X105346237Y-128049492D01*
X105337528Y-127980167D01*
X105367682Y-127917139D01*
X105391043Y-127896897D01*
X105394552Y-127894552D01*
X105438867Y-127828231D01*
X105438867Y-127828229D01*
X105438868Y-127828229D01*
X105450499Y-127769752D01*
X105450500Y-127769750D01*
X105450500Y-126730249D01*
X105450499Y-126730247D01*
X105438868Y-126671770D01*
X105438867Y-126671769D01*
X105394552Y-126605447D01*
X105328230Y-126561132D01*
X105328229Y-126561131D01*
X105269752Y-126549500D01*
X105269748Y-126549500D01*
X104730252Y-126549500D01*
X104730247Y-126549500D01*
X104671770Y-126561131D01*
X104671769Y-126561132D01*
X104605447Y-126605447D01*
X104561132Y-126671769D01*
X104561131Y-126671770D01*
X104549500Y-126730247D01*
X104549500Y-126925500D01*
X104529815Y-126992539D01*
X104477011Y-127038294D01*
X104425500Y-127049500D01*
X104230247Y-127049500D01*
X104171770Y-127061131D01*
X104171769Y-127061132D01*
X104105447Y-127105447D01*
X104061132Y-127171769D01*
X104061131Y-127171770D01*
X104049500Y-127230247D01*
X104049500Y-127425500D01*
X104029815Y-127492539D01*
X103977011Y-127538294D01*
X103925500Y-127549500D01*
X103574500Y-127549500D01*
X103507461Y-127529815D01*
X103461706Y-127477011D01*
X103450500Y-127425500D01*
X103450500Y-127230249D01*
X103450499Y-127230247D01*
X103438868Y-127171770D01*
X103438867Y-127171768D01*
X103419906Y-127143392D01*
X103399027Y-127076715D01*
X103417511Y-127009335D01*
X103469489Y-126962644D01*
X103523007Y-126950500D01*
X103769750Y-126950500D01*
X103769751Y-126950499D01*
X103784568Y-126947552D01*
X103828229Y-126938868D01*
X103828229Y-126938867D01*
X103828231Y-126938867D01*
X103894552Y-126894552D01*
X103938867Y-126828231D01*
X103938867Y-126828229D01*
X103938868Y-126828229D01*
X103950499Y-126769752D01*
X103950500Y-126769750D01*
X103950500Y-126230249D01*
X103950499Y-126230247D01*
X103938868Y-126171770D01*
X103938867Y-126171768D01*
X103919906Y-126143392D01*
X103899027Y-126076715D01*
X103917511Y-126009335D01*
X103969489Y-125962644D01*
X104023007Y-125950500D01*
X104769750Y-125950500D01*
X104769751Y-125950499D01*
X104784568Y-125947552D01*
X104828229Y-125938868D01*
X104828229Y-125938867D01*
X104828231Y-125938867D01*
X104894552Y-125894552D01*
X104938867Y-125828231D01*
X104938867Y-125828229D01*
X104938868Y-125828229D01*
X104950499Y-125769752D01*
X104950500Y-125769750D01*
X104950500Y-124730249D01*
X104950499Y-124730247D01*
X104938868Y-124671770D01*
X104938867Y-124671768D01*
X104919906Y-124643392D01*
X104899027Y-124576715D01*
X104917511Y-124509335D01*
X104969489Y-124462644D01*
X105023007Y-124450500D01*
X105269750Y-124450500D01*
X105269751Y-124450499D01*
X105284568Y-124447552D01*
X105328229Y-124438868D01*
X105328229Y-124438867D01*
X105328231Y-124438867D01*
X105394552Y-124394552D01*
X105438867Y-124328231D01*
X105438867Y-124328229D01*
X105438868Y-124328229D01*
X105450499Y-124269752D01*
X105450500Y-124269750D01*
X105450500Y-120730249D01*
X105450499Y-120730247D01*
X105438868Y-120671770D01*
X105438867Y-120671769D01*
X105394552Y-120605447D01*
X105328230Y-120561132D01*
X105328229Y-120561131D01*
X105269752Y-120549500D01*
X105269748Y-120549500D01*
X104769748Y-120549500D01*
X104269748Y-120549500D01*
X103769748Y-120549500D01*
X103269748Y-120549500D01*
X102769748Y-120549500D01*
X102269748Y-120549500D01*
X101730252Y-120549500D01*
X101730247Y-120549500D01*
X101671770Y-120561131D01*
X101671769Y-120561132D01*
X101605447Y-120605447D01*
X101561132Y-120671769D01*
X101561131Y-120671770D01*
X101549500Y-120730247D01*
X101549500Y-120976992D01*
X101529815Y-121044031D01*
X101477011Y-121089786D01*
X101407853Y-121099730D01*
X101356610Y-121080095D01*
X101338980Y-121068315D01*
X101328231Y-121061133D01*
X101328230Y-121061132D01*
X101328229Y-121061132D01*
X101328229Y-121061131D01*
X101269752Y-121049500D01*
X101269748Y-121049500D01*
X100730252Y-121049500D01*
X100730247Y-121049500D01*
X100671770Y-121061131D01*
X100671770Y-121061132D01*
X100643390Y-121080095D01*
X100576713Y-121100972D01*
X100509333Y-121082487D01*
X100462643Y-121030508D01*
X100450500Y-120976992D01*
X100450500Y-120730249D01*
X100450499Y-120730247D01*
X100438868Y-120671770D01*
X100438867Y-120671769D01*
X100394552Y-120605447D01*
X100328230Y-120561132D01*
X100328229Y-120561131D01*
X100269752Y-120549500D01*
X100269748Y-120549500D01*
X99730252Y-120549500D01*
X99730247Y-120549500D01*
X99671770Y-120561131D01*
X99671769Y-120561132D01*
X99605447Y-120605447D01*
X99561132Y-120671769D01*
X99561131Y-120671770D01*
X99549500Y-120730247D01*
X99549500Y-120925500D01*
X99529815Y-120992539D01*
X99477011Y-121038294D01*
X99425500Y-121049500D01*
X98730247Y-121049500D01*
X98671770Y-121061131D01*
X98671769Y-121061132D01*
X98605447Y-121105447D01*
X98561132Y-121171769D01*
X98561131Y-121171770D01*
X98549500Y-121230247D01*
X98549500Y-121425500D01*
X98529815Y-121492539D01*
X98477011Y-121538294D01*
X98425500Y-121549500D01*
X98230247Y-121549500D01*
X98171770Y-121561131D01*
X98171770Y-121561132D01*
X98143390Y-121580095D01*
X98076713Y-121600972D01*
X98009333Y-121582487D01*
X97962643Y-121530508D01*
X97950500Y-121476992D01*
X97950500Y-120730249D01*
X97950499Y-120730247D01*
X97938868Y-120671770D01*
X97938867Y-120671769D01*
X97894552Y-120605447D01*
X97828230Y-120561132D01*
X97828229Y-120561131D01*
X97769752Y-120549500D01*
X97769748Y-120549500D01*
X97230252Y-120549500D01*
X97230247Y-120549500D01*
X97171770Y-120561131D01*
X97171769Y-120561132D01*
X97105446Y-120605448D01*
X97103101Y-120608959D01*
X97049488Y-120653764D01*
X96980163Y-120662470D01*
X96917136Y-120632314D01*
X96896899Y-120608959D01*
X96894553Y-120605448D01*
X96828230Y-120561132D01*
X96828229Y-120561131D01*
X96769752Y-120549500D01*
X96769748Y-120549500D01*
X96230252Y-120549500D01*
X96230247Y-120549500D01*
X96171770Y-120561131D01*
X96171769Y-120561132D01*
X96105447Y-120605447D01*
X96061132Y-120671769D01*
X96061131Y-120671770D01*
X96049500Y-120730247D01*
X96049500Y-120925500D01*
X96029815Y-120992539D01*
X95977011Y-121038294D01*
X95925500Y-121049500D01*
X94730247Y-121049500D01*
X94671770Y-121061131D01*
X94671770Y-121061132D01*
X94643390Y-121080095D01*
X94576713Y-121100972D01*
X94509333Y-121082487D01*
X94462643Y-121030508D01*
X94450500Y-120976992D01*
X94450500Y-120730249D01*
X94450499Y-120730247D01*
X94438868Y-120671770D01*
X94438867Y-120671769D01*
X94394552Y-120605447D01*
X94328230Y-120561132D01*
X94328229Y-120561131D01*
X94269752Y-120549500D01*
X94269748Y-120549500D01*
X93769748Y-120549500D01*
X93269748Y-120549500D01*
X92769748Y-120549500D01*
X92269748Y-120549500D01*
X91769748Y-120549500D01*
X91269748Y-120549500D01*
X90730252Y-120549500D01*
X90730247Y-120549500D01*
X90671770Y-120561131D01*
X90671769Y-120561132D01*
X90605447Y-120605447D01*
X90561132Y-120671769D01*
X90561131Y-120671770D01*
X90549500Y-120730247D01*
X78000500Y-120730247D01*
X78000500Y-110750000D01*
X98672769Y-110750000D01*
X99566988Y-110750000D01*
X99534075Y-110807007D01*
X99500000Y-110934174D01*
X99500000Y-111065826D01*
X99534075Y-111192993D01*
X99566988Y-111250000D01*
X98672769Y-111250000D01*
X98683242Y-111316126D01*
X98683242Y-111316129D01*
X98748904Y-111518217D01*
X98845379Y-111707557D01*
X98970272Y-111879459D01*
X98970276Y-111879464D01*
X99120535Y-112029723D01*
X99120540Y-112029727D01*
X99292442Y-112154620D01*
X99481782Y-112251095D01*
X99683871Y-112316757D01*
X99750000Y-112327231D01*
X99750000Y-111433012D01*
X99807007Y-111465925D01*
X99934174Y-111500000D01*
X100065826Y-111500000D01*
X100192993Y-111465925D01*
X100250000Y-111433012D01*
X100250000Y-112327230D01*
X100316126Y-112316757D01*
X100316129Y-112316757D01*
X100518217Y-112251095D01*
X100707557Y-112154620D01*
X100879459Y-112029727D01*
X100879464Y-112029723D01*
X101029723Y-111879464D01*
X101029727Y-111879459D01*
X101154620Y-111707557D01*
X101251095Y-111518217D01*
X101316757Y-111316129D01*
X101316757Y-111316126D01*
X101327231Y-111250000D01*
X100433012Y-111250000D01*
X100465925Y-111192993D01*
X100500000Y-111065826D01*
X100500000Y-110934174D01*
X100465925Y-110807007D01*
X100433012Y-110750000D01*
X101327231Y-110750000D01*
X101316757Y-110683873D01*
X101316757Y-110683870D01*
X101251095Y-110481782D01*
X101154620Y-110292442D01*
X101029727Y-110120540D01*
X101029723Y-110120535D01*
X100879464Y-109970276D01*
X100879459Y-109970272D01*
X100707557Y-109845379D01*
X100518216Y-109748904D01*
X100342026Y-109691656D01*
X100284350Y-109652218D01*
X100257152Y-109587860D01*
X100269067Y-109519013D01*
X100316311Y-109467538D01*
X100332882Y-109459168D01*
X100497598Y-109390941D01*
X100669655Y-109275977D01*
X100815977Y-109129655D01*
X100930941Y-108957598D01*
X101010130Y-108766420D01*
X101050500Y-108563465D01*
X101050500Y-108356535D01*
X101010130Y-108153580D01*
X100930941Y-107962402D01*
X100815977Y-107790345D01*
X100815975Y-107790342D01*
X100669657Y-107644024D01*
X100583626Y-107586541D01*
X100497598Y-107529059D01*
X100306420Y-107449870D01*
X100306412Y-107449868D01*
X100103469Y-107409500D01*
X100103465Y-107409500D01*
X99896535Y-107409500D01*
X99896530Y-107409500D01*
X99693587Y-107449868D01*
X99693579Y-107449870D01*
X99502403Y-107529058D01*
X99330342Y-107644024D01*
X99184024Y-107790342D01*
X99069058Y-107962403D01*
X98989870Y-108153579D01*
X98989868Y-108153587D01*
X98949500Y-108356530D01*
X98949500Y-108563469D01*
X98989868Y-108766412D01*
X98989870Y-108766420D01*
X99043534Y-108895977D01*
X99069059Y-108957598D01*
X99126541Y-109043626D01*
X99184024Y-109129657D01*
X99330342Y-109275975D01*
X99502405Y-109390943D01*
X99605043Y-109433456D01*
X99667108Y-109459164D01*
X99721511Y-109503005D01*
X99743576Y-109569299D01*
X99726297Y-109636998D01*
X99675160Y-109684609D01*
X99657974Y-109691656D01*
X99481781Y-109748905D01*
X99292442Y-109845379D01*
X99120540Y-109970272D01*
X99120535Y-109970276D01*
X98970276Y-110120535D01*
X98970272Y-110120540D01*
X98845379Y-110292442D01*
X98748904Y-110481782D01*
X98683242Y-110683870D01*
X98683242Y-110683873D01*
X98672769Y-110750000D01*
X78000500Y-110750000D01*
X78000500Y-105050247D01*
X98949500Y-105050247D01*
X98949500Y-106789752D01*
X98961131Y-106848229D01*
X98961132Y-106848230D01*
X99005447Y-106914552D01*
X99071769Y-106958867D01*
X99071770Y-106958868D01*
X99130247Y-106970499D01*
X99130250Y-106970500D01*
X99130252Y-106970500D01*
X100869750Y-106970500D01*
X100869751Y-106970499D01*
X100884568Y-106967552D01*
X100928229Y-106958868D01*
X100928229Y-106958867D01*
X100928231Y-106958867D01*
X100994552Y-106914552D01*
X101038867Y-106848231D01*
X101038867Y-106848229D01*
X101038868Y-106848229D01*
X101050499Y-106789752D01*
X101050500Y-106789750D01*
X101050500Y-105050249D01*
X101050499Y-105050247D01*
X101038868Y-104991770D01*
X101038867Y-104991769D01*
X100994552Y-104925447D01*
X100928230Y-104881132D01*
X100928229Y-104881131D01*
X100869752Y-104869500D01*
X100869748Y-104869500D01*
X99130252Y-104869500D01*
X99130247Y-104869500D01*
X99071770Y-104881131D01*
X99071769Y-104881132D01*
X99005447Y-104925447D01*
X98961132Y-104991769D01*
X98961131Y-104991770D01*
X98949500Y-105050247D01*
X78000500Y-105050247D01*
X78000500Y-83256530D01*
X80449500Y-83256530D01*
X80449500Y-83463469D01*
X80489868Y-83666412D01*
X80489870Y-83666420D01*
X80569059Y-83857598D01*
X80600140Y-83904114D01*
X80684024Y-84029657D01*
X80830342Y-84175975D01*
X80830345Y-84175977D01*
X81002402Y-84290941D01*
X81193580Y-84370130D01*
X81358855Y-84403005D01*
X81396530Y-84410499D01*
X81396534Y-84410500D01*
X81396535Y-84410500D01*
X81603466Y-84410500D01*
X81603467Y-84410499D01*
X81806420Y-84370130D01*
X81997598Y-84290941D01*
X82169655Y-84175977D01*
X82248814Y-84096817D01*
X82310135Y-84063334D01*
X82336494Y-84060500D01*
X116163506Y-84060500D01*
X116230545Y-84080185D01*
X116251182Y-84096814D01*
X116330345Y-84175977D01*
X116502402Y-84290941D01*
X116502405Y-84290943D01*
X116605043Y-84333456D01*
X116667108Y-84359164D01*
X116721511Y-84403005D01*
X116743576Y-84469299D01*
X116726297Y-84536998D01*
X116675160Y-84584609D01*
X116657974Y-84591656D01*
X116481781Y-84648905D01*
X116292442Y-84745379D01*
X116120540Y-84870272D01*
X116120535Y-84870276D01*
X115970276Y-85020535D01*
X115970272Y-85020540D01*
X115845379Y-85192442D01*
X115748904Y-85381782D01*
X115683242Y-85583870D01*
X115683242Y-85583873D01*
X115672769Y-85650000D01*
X116566988Y-85650000D01*
X116534075Y-85707007D01*
X116500000Y-85834174D01*
X116500000Y-85965826D01*
X116534075Y-86092993D01*
X116566988Y-86150000D01*
X115672769Y-86150000D01*
X115683242Y-86216126D01*
X115683242Y-86216129D01*
X115748904Y-86418217D01*
X115845379Y-86607557D01*
X115970272Y-86779459D01*
X115970276Y-86779464D01*
X116120535Y-86929723D01*
X116120540Y-86929727D01*
X116292442Y-87054620D01*
X116481782Y-87151095D01*
X116657973Y-87208343D01*
X116715648Y-87247780D01*
X116742847Y-87312139D01*
X116730932Y-87380985D01*
X116683688Y-87432461D01*
X116667108Y-87440835D01*
X116502403Y-87509057D01*
X116330342Y-87624024D01*
X116184024Y-87770342D01*
X116069058Y-87942403D01*
X115989870Y-88133579D01*
X115989868Y-88133587D01*
X115949500Y-88336530D01*
X115949500Y-88543469D01*
X115989868Y-88746412D01*
X115989870Y-88746420D01*
X116069058Y-88937596D01*
X116184024Y-89109657D01*
X116330342Y-89255975D01*
X116330345Y-89255977D01*
X116502402Y-89370941D01*
X116693580Y-89450130D01*
X116838052Y-89478867D01*
X116896530Y-89490499D01*
X116896534Y-89490500D01*
X116896535Y-89490500D01*
X117103466Y-89490500D01*
X117103467Y-89490499D01*
X117306420Y-89450130D01*
X117497598Y-89370941D01*
X117669655Y-89255977D01*
X117748814Y-89176817D01*
X117810135Y-89143334D01*
X117836494Y-89140500D01*
X118598481Y-89140500D01*
X118665520Y-89160185D01*
X118686162Y-89176819D01*
X120263181Y-90753838D01*
X120296666Y-90815161D01*
X120299500Y-90841519D01*
X120299500Y-124931006D01*
X120299500Y-125068994D01*
X120299500Y-125068996D01*
X120299499Y-125068996D01*
X120326418Y-125204322D01*
X120326421Y-125204332D01*
X120379222Y-125331807D01*
X120455887Y-125446545D01*
X120455888Y-125446546D01*
X125087181Y-130077838D01*
X125120666Y-130139161D01*
X125123500Y-130165519D01*
X125123500Y-133156297D01*
X125103815Y-133223336D01*
X125051011Y-133269091D01*
X124981853Y-133279035D01*
X124962612Y-133274683D01*
X124952105Y-133271409D01*
X124881572Y-133265000D01*
X124875000Y-133265000D01*
X124875000Y-135464999D01*
X124881581Y-135464999D01*
X124952102Y-135458591D01*
X124952107Y-135458590D01*
X125114396Y-135408018D01*
X125259875Y-135320073D01*
X125380076Y-135199871D01*
X125381316Y-135197821D01*
X125382618Y-135196628D01*
X125384705Y-135193965D01*
X125385147Y-135194311D01*
X125432841Y-135150630D01*
X125501699Y-135138787D01*
X125504207Y-135139103D01*
X125525017Y-135141943D01*
X125542825Y-135151017D01*
X125634265Y-135165500D01*
X125697594Y-135165499D01*
X125705936Y-135166638D01*
X125730439Y-135177617D01*
X125756204Y-135185182D01*
X125767327Y-135194146D01*
X125769697Y-135195208D01*
X125770864Y-135196997D01*
X125776847Y-135201818D01*
X126259540Y-135684511D01*
X126315489Y-135740460D01*
X126315491Y-135740461D01*
X126315495Y-135740464D01*
X126384004Y-135780017D01*
X126384011Y-135780021D01*
X126460438Y-135800500D01*
X126460440Y-135800500D01*
X128399560Y-135800500D01*
X128399562Y-135800500D01*
X128475989Y-135780021D01*
X128544511Y-135740460D01*
X128600460Y-135684511D01*
X129091686Y-135193283D01*
X129106995Y-135184821D01*
X129118814Y-135172755D01*
X129145642Y-135163457D01*
X129151754Y-135160079D01*
X129155824Y-135159149D01*
X129207175Y-135151017D01*
X129219968Y-135144498D01*
X129234952Y-135141076D01*
X129255094Y-135142307D01*
X129274927Y-135138581D01*
X129289256Y-135144395D01*
X129304691Y-135145339D01*
X129320969Y-135157263D01*
X129339670Y-135164852D01*
X129354809Y-135182053D01*
X129361055Y-135186629D01*
X129362778Y-135191108D01*
X129365301Y-135193975D01*
X129365303Y-135193974D01*
X129365322Y-135193998D01*
X129368682Y-135197816D01*
X129369929Y-135199879D01*
X129490122Y-135320072D01*
X129635604Y-135408019D01*
X129635603Y-135408019D01*
X129797894Y-135458590D01*
X129797893Y-135458590D01*
X129868408Y-135464998D01*
X129868426Y-135464999D01*
X130375000Y-135464999D01*
X130381581Y-135464999D01*
X130452102Y-135458591D01*
X130452107Y-135458590D01*
X130614396Y-135408018D01*
X130759877Y-135320072D01*
X130880072Y-135199877D01*
X130932992Y-135112337D01*
X130984520Y-135065150D01*
X131053379Y-135053311D01*
X131117708Y-135080579D01*
X131156815Y-135137483D01*
X131165641Y-135164119D01*
X131165643Y-135164124D01*
X131257684Y-135313345D01*
X131381654Y-135437315D01*
X131530875Y-135529356D01*
X131530880Y-135529358D01*
X131697302Y-135584505D01*
X131697309Y-135584506D01*
X131800019Y-135594999D01*
X132249999Y-135594999D01*
X132750000Y-135594999D01*
X133199972Y-135594999D01*
X133199986Y-135594998D01*
X133302697Y-135584505D01*
X133469119Y-135529358D01*
X133469124Y-135529356D01*
X133618345Y-135437315D01*
X133742315Y-135313345D01*
X133834356Y-135164124D01*
X133834358Y-135164119D01*
X133889505Y-134997697D01*
X133889506Y-134997690D01*
X133899999Y-134894986D01*
X133900000Y-134894973D01*
X133900000Y-134834296D01*
X168549500Y-134834296D01*
X168549500Y-135165703D01*
X168586601Y-135494991D01*
X168586604Y-135495005D01*
X168660346Y-135818093D01*
X168660349Y-135818101D01*
X168769799Y-136130890D01*
X168913582Y-136429458D01*
X168913584Y-136429461D01*
X169089896Y-136710060D01*
X169296516Y-136969153D01*
X169530847Y-137203484D01*
X169789940Y-137410104D01*
X170070539Y-137586416D01*
X170369113Y-137730202D01*
X170604037Y-137812405D01*
X170681898Y-137839650D01*
X170681906Y-137839653D01*
X170681909Y-137839653D01*
X170681910Y-137839654D01*
X171004994Y-137913396D01*
X171005003Y-137913397D01*
X171005008Y-137913398D01*
X171224533Y-137938132D01*
X171334297Y-137950499D01*
X171334300Y-137950500D01*
X171334303Y-137950500D01*
X171665700Y-137950500D01*
X171665701Y-137950499D01*
X171833996Y-137931537D01*
X171994991Y-137913398D01*
X171994994Y-137913397D01*
X171995006Y-137913396D01*
X172318090Y-137839654D01*
X172630887Y-137730202D01*
X172929461Y-137586416D01*
X173210060Y-137410104D01*
X173469153Y-137203484D01*
X173703484Y-136969153D01*
X173910104Y-136710060D01*
X174086416Y-136429461D01*
X174230202Y-136130887D01*
X174339654Y-135818090D01*
X174413396Y-135495006D01*
X174419722Y-135438867D01*
X174446430Y-135201818D01*
X174450500Y-135165697D01*
X174450500Y-134834303D01*
X174438132Y-134724533D01*
X174413398Y-134505008D01*
X174413397Y-134505003D01*
X174413396Y-134504994D01*
X174339654Y-134181910D01*
X174230202Y-133869113D01*
X174086416Y-133570539D01*
X173910104Y-133289940D01*
X173703484Y-133030847D01*
X173469153Y-132796516D01*
X173210060Y-132589896D01*
X173016263Y-132468125D01*
X172929458Y-132413582D01*
X172630890Y-132269799D01*
X172318101Y-132160349D01*
X172318093Y-132160346D01*
X172075777Y-132105039D01*
X171995006Y-132086604D01*
X171995003Y-132086603D01*
X171994991Y-132086601D01*
X171665703Y-132049500D01*
X171665697Y-132049500D01*
X171334303Y-132049500D01*
X171334296Y-132049500D01*
X171005008Y-132086601D01*
X171004994Y-132086604D01*
X170681906Y-132160346D01*
X170681898Y-132160349D01*
X170369109Y-132269799D01*
X170070541Y-132413582D01*
X169789941Y-132589895D01*
X169530847Y-132796515D01*
X169296515Y-133030847D01*
X169089895Y-133289941D01*
X168913582Y-133570541D01*
X168769799Y-133869109D01*
X168660349Y-134181898D01*
X168660346Y-134181906D01*
X168586604Y-134504994D01*
X168586601Y-134505008D01*
X168549500Y-134834296D01*
X133900000Y-134834296D01*
X133900000Y-134670000D01*
X132750000Y-134670000D01*
X132750000Y-135594999D01*
X132249999Y-135594999D01*
X132250000Y-135594998D01*
X132250000Y-134670000D01*
X131076362Y-134670000D01*
X131009323Y-134650315D01*
X130988681Y-134633681D01*
X130970000Y-134615000D01*
X130375000Y-134615000D01*
X130375000Y-135464999D01*
X129868426Y-135464999D01*
X129874999Y-135464998D01*
X129875000Y-135464998D01*
X129875000Y-133265000D01*
X130375000Y-133265000D01*
X130375000Y-134115000D01*
X131048638Y-134115000D01*
X131115677Y-134134685D01*
X131136319Y-134151319D01*
X131155000Y-134170000D01*
X132250000Y-134170000D01*
X132750000Y-134170000D01*
X133899999Y-134170000D01*
X133899999Y-133945028D01*
X133899998Y-133945013D01*
X133889505Y-133842302D01*
X133834358Y-133675880D01*
X133834356Y-133675875D01*
X133742315Y-133526654D01*
X133618345Y-133402684D01*
X133469124Y-133310643D01*
X133469119Y-133310641D01*
X133302697Y-133255494D01*
X133302690Y-133255493D01*
X133199986Y-133245000D01*
X132750000Y-133245000D01*
X132750000Y-134170000D01*
X132250000Y-134170000D01*
X132250000Y-133245000D01*
X131800028Y-133245000D01*
X131800012Y-133245001D01*
X131697302Y-133255494D01*
X131530880Y-133310641D01*
X131530875Y-133310643D01*
X131381654Y-133402684D01*
X131257684Y-133526654D01*
X131172524Y-133664721D01*
X131120576Y-133711445D01*
X131051613Y-133722667D01*
X130987531Y-133694824D01*
X130960868Y-133663774D01*
X130880072Y-133530122D01*
X130759877Y-133409927D01*
X130614395Y-133321980D01*
X130614396Y-133321980D01*
X130452105Y-133271409D01*
X130452106Y-133271409D01*
X130381572Y-133265000D01*
X130375000Y-133265000D01*
X129875000Y-133265000D01*
X129874999Y-133264999D01*
X129868436Y-133265000D01*
X129868417Y-133265001D01*
X129797897Y-133271408D01*
X129797892Y-133271409D01*
X129635603Y-133321981D01*
X129490122Y-133409927D01*
X129369928Y-133530121D01*
X129369923Y-133530128D01*
X129368678Y-133532188D01*
X129367374Y-133533381D01*
X129365303Y-133536026D01*
X129364863Y-133535681D01*
X129317150Y-133579375D01*
X129248290Y-133591212D01*
X129216572Y-133581633D01*
X129216454Y-133581998D01*
X129207171Y-133578981D01*
X129115735Y-133564500D01*
X128674260Y-133564500D01*
X128674260Y-133564501D01*
X128582829Y-133578981D01*
X128582828Y-133578981D01*
X128472607Y-133635142D01*
X128472605Y-133635143D01*
X128462072Y-133645677D01*
X128400748Y-133679160D01*
X128331056Y-133674174D01*
X128286712Y-133645674D01*
X128271210Y-133630172D01*
X128158628Y-133575135D01*
X128158626Y-133575134D01*
X128158625Y-133575134D01*
X128085636Y-133564500D01*
X127664364Y-133564500D01*
X127591375Y-133575134D01*
X127591373Y-133575134D01*
X127591371Y-133575135D01*
X127478789Y-133630172D01*
X127478787Y-133630174D01*
X127462681Y-133646281D01*
X127401358Y-133679766D01*
X127331666Y-133674782D01*
X127287319Y-133646281D01*
X127271210Y-133630172D01*
X127158628Y-133575135D01*
X127158626Y-133575134D01*
X127158625Y-133575134D01*
X127085636Y-133564500D01*
X126664364Y-133564500D01*
X126664363Y-133564500D01*
X126659895Y-133564824D01*
X126659782Y-133563277D01*
X126597173Y-133554380D01*
X126544294Y-133508712D01*
X126524500Y-133441705D01*
X126524500Y-129755004D01*
X126497581Y-129619676D01*
X126497580Y-129619674D01*
X126497580Y-129619672D01*
X126491688Y-129605448D01*
X126444775Y-129492189D01*
X126368114Y-129377457D01*
X126368112Y-129377454D01*
X121736819Y-124746161D01*
X121703334Y-124684838D01*
X121700500Y-124658480D01*
X121700500Y-106068996D01*
X123799499Y-106068996D01*
X123826418Y-106204322D01*
X123826421Y-106204332D01*
X123879222Y-106331807D01*
X123955887Y-106446545D01*
X124053454Y-106544112D01*
X124168192Y-106620777D01*
X124295667Y-106673578D01*
X124295672Y-106673580D01*
X124295676Y-106673580D01*
X124295677Y-106673581D01*
X124431003Y-106700500D01*
X124431006Y-106700500D01*
X124568996Y-106700500D01*
X124660040Y-106682389D01*
X124704328Y-106673580D01*
X124768069Y-106647177D01*
X124831807Y-106620777D01*
X124831808Y-106620776D01*
X124831811Y-106620775D01*
X124946543Y-106544114D01*
X128544113Y-102946543D01*
X128577528Y-102896535D01*
X128620775Y-102831811D01*
X128673580Y-102704328D01*
X128700500Y-102568993D01*
X128700500Y-96568996D01*
X136799499Y-96568996D01*
X136826418Y-96704322D01*
X136826421Y-96704332D01*
X136879222Y-96831807D01*
X136955887Y-96946545D01*
X158793454Y-118784112D01*
X158908192Y-118860777D01*
X159035667Y-118913578D01*
X159035672Y-118913580D01*
X159035676Y-118913580D01*
X159035677Y-118913581D01*
X159171003Y-118940500D01*
X159171006Y-118940500D01*
X159171007Y-118940500D01*
X165825500Y-118940500D01*
X165892539Y-118960185D01*
X165938294Y-119012989D01*
X165949500Y-119064500D01*
X165949500Y-119109752D01*
X165961131Y-119168229D01*
X165961132Y-119168230D01*
X166005447Y-119234552D01*
X166071769Y-119278867D01*
X166071770Y-119278868D01*
X166130247Y-119290499D01*
X166130250Y-119290500D01*
X166130252Y-119290500D01*
X167869750Y-119290500D01*
X167869751Y-119290499D01*
X167884568Y-119287552D01*
X167928229Y-119278868D01*
X167928229Y-119278867D01*
X167928231Y-119278867D01*
X167994552Y-119234552D01*
X168038867Y-119168231D01*
X168038867Y-119168229D01*
X168038868Y-119168229D01*
X168050499Y-119109752D01*
X168050500Y-119109750D01*
X168050500Y-117370249D01*
X168050499Y-117370247D01*
X168038868Y-117311770D01*
X168038867Y-117311769D01*
X167994552Y-117245447D01*
X167928230Y-117201132D01*
X167928229Y-117201131D01*
X167869752Y-117189500D01*
X167869748Y-117189500D01*
X166130252Y-117189500D01*
X166130247Y-117189500D01*
X166071770Y-117201131D01*
X166071769Y-117201132D01*
X166005447Y-117245447D01*
X165961132Y-117311769D01*
X165961131Y-117311770D01*
X165949500Y-117370247D01*
X165949500Y-117415500D01*
X165929815Y-117482539D01*
X165877011Y-117528294D01*
X165825500Y-117539500D01*
X159581519Y-117539500D01*
X159514480Y-117519815D01*
X159493838Y-117503181D01*
X157587187Y-115596530D01*
X165949500Y-115596530D01*
X165949500Y-115803469D01*
X165989868Y-116006412D01*
X165989870Y-116006420D01*
X166069058Y-116197596D01*
X166184024Y-116369657D01*
X166330342Y-116515975D01*
X166330345Y-116515977D01*
X166502402Y-116630941D01*
X166693580Y-116710130D01*
X166896530Y-116750499D01*
X166896534Y-116750500D01*
X166896535Y-116750500D01*
X167103466Y-116750500D01*
X167103467Y-116750499D01*
X167306420Y-116710130D01*
X167497598Y-116630941D01*
X167669655Y-116515977D01*
X167815977Y-116369655D01*
X167930941Y-116197598D01*
X168010130Y-116006420D01*
X168050500Y-115803465D01*
X168050500Y-115596535D01*
X168010130Y-115393580D01*
X167930941Y-115202402D01*
X167815977Y-115030345D01*
X167815975Y-115030342D01*
X167669657Y-114884024D01*
X167583626Y-114826541D01*
X167497598Y-114769059D01*
X167306420Y-114689870D01*
X167306412Y-114689868D01*
X167103469Y-114649500D01*
X167103465Y-114649500D01*
X166896535Y-114649500D01*
X166896530Y-114649500D01*
X166693587Y-114689868D01*
X166693579Y-114689870D01*
X166502403Y-114769058D01*
X166330342Y-114884024D01*
X166184024Y-115030342D01*
X166069058Y-115202403D01*
X165989870Y-115393579D01*
X165989868Y-115393587D01*
X165949500Y-115596530D01*
X157587187Y-115596530D01*
X155047187Y-113056530D01*
X165949500Y-113056530D01*
X165949500Y-113263469D01*
X165989868Y-113466412D01*
X165989870Y-113466420D01*
X166069058Y-113657596D01*
X166184024Y-113829657D01*
X166330342Y-113975975D01*
X166330345Y-113975977D01*
X166502402Y-114090941D01*
X166693580Y-114170130D01*
X166896530Y-114210499D01*
X166896534Y-114210500D01*
X166896535Y-114210500D01*
X167103466Y-114210500D01*
X167103467Y-114210499D01*
X167306420Y-114170130D01*
X167497598Y-114090941D01*
X167669655Y-113975977D01*
X167815977Y-113829655D01*
X167930941Y-113657598D01*
X168010130Y-113466420D01*
X168050500Y-113263465D01*
X168050500Y-113056535D01*
X168010130Y-112853580D01*
X167930941Y-112662402D01*
X167815977Y-112490345D01*
X167815975Y-112490342D01*
X167669657Y-112344024D01*
X167530577Y-112251095D01*
X167497598Y-112229059D01*
X167306420Y-112149870D01*
X167306412Y-112149868D01*
X167103469Y-112109500D01*
X167103465Y-112109500D01*
X166896535Y-112109500D01*
X166896530Y-112109500D01*
X166693587Y-112149868D01*
X166693579Y-112149870D01*
X166502403Y-112229058D01*
X166330342Y-112344024D01*
X166184024Y-112490342D01*
X166069058Y-112662403D01*
X165989870Y-112853579D01*
X165989868Y-112853587D01*
X165949500Y-113056530D01*
X155047187Y-113056530D01*
X152507187Y-110516530D01*
X165949500Y-110516530D01*
X165949500Y-110723469D01*
X165989868Y-110926412D01*
X165989870Y-110926420D01*
X166069058Y-111117596D01*
X166184024Y-111289657D01*
X166330342Y-111435975D01*
X166330345Y-111435977D01*
X166502402Y-111550941D01*
X166693580Y-111630130D01*
X166896530Y-111670499D01*
X166896534Y-111670500D01*
X166896535Y-111670500D01*
X167103466Y-111670500D01*
X167103467Y-111670499D01*
X167306420Y-111630130D01*
X167497598Y-111550941D01*
X167669655Y-111435977D01*
X167815977Y-111289655D01*
X167930941Y-111117598D01*
X168010130Y-110926420D01*
X168050500Y-110723465D01*
X168050500Y-110516535D01*
X168010130Y-110313580D01*
X167930941Y-110122402D01*
X167815977Y-109950345D01*
X167815975Y-109950342D01*
X167669657Y-109804024D01*
X167583626Y-109746541D01*
X167497598Y-109689059D01*
X167408656Y-109652218D01*
X167306420Y-109609870D01*
X167306412Y-109609868D01*
X167103469Y-109569500D01*
X167103465Y-109569500D01*
X166896535Y-109569500D01*
X166896530Y-109569500D01*
X166693587Y-109609868D01*
X166693579Y-109609870D01*
X166502403Y-109689058D01*
X166330342Y-109804024D01*
X166184024Y-109950342D01*
X166069058Y-110122403D01*
X165989870Y-110313579D01*
X165989868Y-110313587D01*
X165949500Y-110516530D01*
X152507187Y-110516530D01*
X147280657Y-105290000D01*
X165672769Y-105290000D01*
X166566988Y-105290000D01*
X166534075Y-105347007D01*
X166500000Y-105474174D01*
X166500000Y-105605826D01*
X166534075Y-105732993D01*
X166566988Y-105790000D01*
X165672769Y-105790000D01*
X165683242Y-105856126D01*
X165683242Y-105856129D01*
X165748904Y-106058217D01*
X165845379Y-106247557D01*
X165970272Y-106419459D01*
X165970276Y-106419464D01*
X166120535Y-106569723D01*
X166120540Y-106569727D01*
X166292442Y-106694620D01*
X166481782Y-106791095D01*
X166657973Y-106848343D01*
X166715648Y-106887780D01*
X166742847Y-106952139D01*
X166730932Y-107020985D01*
X166683688Y-107072461D01*
X166667108Y-107080835D01*
X166502403Y-107149057D01*
X166330342Y-107264024D01*
X166184024Y-107410342D01*
X166069058Y-107582403D01*
X165989870Y-107773579D01*
X165989868Y-107773587D01*
X165949500Y-107976530D01*
X165949500Y-108183469D01*
X165989868Y-108386412D01*
X165989870Y-108386420D01*
X166069058Y-108577596D01*
X166184024Y-108749657D01*
X166330342Y-108895975D01*
X166330345Y-108895977D01*
X166502402Y-109010941D01*
X166693580Y-109090130D01*
X166892287Y-109129655D01*
X166896530Y-109130499D01*
X166896534Y-109130500D01*
X166896535Y-109130500D01*
X167103466Y-109130500D01*
X167103467Y-109130499D01*
X167306420Y-109090130D01*
X167497598Y-109010941D01*
X167669655Y-108895977D01*
X167815977Y-108749655D01*
X167930941Y-108577598D01*
X168010130Y-108386420D01*
X168050500Y-108183465D01*
X168050500Y-107976535D01*
X168010130Y-107773580D01*
X167930941Y-107582402D01*
X167815977Y-107410345D01*
X167815975Y-107410342D01*
X167669657Y-107264024D01*
X167583626Y-107206541D01*
X167497598Y-107149059D01*
X167497593Y-107149057D01*
X167435891Y-107123499D01*
X167332890Y-107080834D01*
X167278488Y-107036994D01*
X167256423Y-106970700D01*
X167273702Y-106903001D01*
X167324839Y-106855390D01*
X167342026Y-106848343D01*
X167518217Y-106791095D01*
X167707557Y-106694620D01*
X167879459Y-106569727D01*
X167879464Y-106569723D01*
X168029723Y-106419464D01*
X168029727Y-106419459D01*
X168154620Y-106247557D01*
X168251095Y-106058217D01*
X168316757Y-105856129D01*
X168316757Y-105856126D01*
X168327231Y-105790000D01*
X167433012Y-105790000D01*
X167465925Y-105732993D01*
X167500000Y-105605826D01*
X167500000Y-105474174D01*
X167465925Y-105347007D01*
X167433012Y-105290000D01*
X168327231Y-105290000D01*
X168316757Y-105223873D01*
X168316757Y-105223870D01*
X168251095Y-105021782D01*
X168154620Y-104832442D01*
X168029727Y-104660540D01*
X168029723Y-104660535D01*
X167879464Y-104510276D01*
X167879459Y-104510272D01*
X167707557Y-104385379D01*
X167518216Y-104288904D01*
X167342026Y-104231656D01*
X167284350Y-104192218D01*
X167257152Y-104127860D01*
X167269067Y-104059013D01*
X167316311Y-104007538D01*
X167332882Y-103999168D01*
X167497598Y-103930941D01*
X167669655Y-103815977D01*
X167815977Y-103669655D01*
X167930941Y-103497598D01*
X168010130Y-103306420D01*
X168050500Y-103103465D01*
X168050500Y-102896535D01*
X168010130Y-102693580D01*
X167930941Y-102502402D01*
X167815977Y-102330345D01*
X167815975Y-102330342D01*
X167669657Y-102184024D01*
X167583626Y-102126541D01*
X167497598Y-102069059D01*
X167306420Y-101989870D01*
X167306412Y-101989868D01*
X167103469Y-101949500D01*
X167103465Y-101949500D01*
X166896535Y-101949500D01*
X166896530Y-101949500D01*
X166693587Y-101989868D01*
X166693579Y-101989870D01*
X166502403Y-102069058D01*
X166330342Y-102184024D01*
X166184024Y-102330342D01*
X166069058Y-102502403D01*
X165989870Y-102693579D01*
X165989868Y-102693587D01*
X165949500Y-102896530D01*
X165949500Y-103103469D01*
X165989868Y-103306412D01*
X165989870Y-103306420D01*
X166069058Y-103497596D01*
X166184024Y-103669657D01*
X166330342Y-103815975D01*
X166502405Y-103930943D01*
X166605043Y-103973456D01*
X166667108Y-103999164D01*
X166721511Y-104043005D01*
X166743576Y-104109299D01*
X166726297Y-104176998D01*
X166675160Y-104224609D01*
X166657974Y-104231656D01*
X166481781Y-104288905D01*
X166292442Y-104385379D01*
X166120540Y-104510272D01*
X166120535Y-104510276D01*
X165970276Y-104660535D01*
X165970272Y-104660540D01*
X165845379Y-104832442D01*
X165748904Y-105021782D01*
X165683242Y-105223870D01*
X165683242Y-105223873D01*
X165672769Y-105290000D01*
X147280657Y-105290000D01*
X138236819Y-96246162D01*
X138203334Y-96184839D01*
X138200500Y-96158481D01*
X138200500Y-85650000D01*
X140672769Y-85650000D01*
X141566988Y-85650000D01*
X141534075Y-85707007D01*
X141500000Y-85834174D01*
X141500000Y-85965826D01*
X141534075Y-86092993D01*
X141566988Y-86150000D01*
X140672769Y-86150000D01*
X140683242Y-86216126D01*
X140683242Y-86216129D01*
X140748904Y-86418217D01*
X140845379Y-86607557D01*
X140970272Y-86779459D01*
X140970276Y-86779464D01*
X141120535Y-86929723D01*
X141120540Y-86929727D01*
X141292442Y-87054620D01*
X141486121Y-87153306D01*
X141485603Y-87154321D01*
X141535808Y-87194779D01*
X141557873Y-87261073D01*
X141540594Y-87328772D01*
X141489458Y-87376383D01*
X141433952Y-87389500D01*
X141130247Y-87389500D01*
X141071770Y-87401131D01*
X141071769Y-87401132D01*
X141005447Y-87445447D01*
X140961132Y-87511769D01*
X140961131Y-87511770D01*
X140949500Y-87570247D01*
X140949500Y-89309752D01*
X140961131Y-89368229D01*
X140961132Y-89368230D01*
X141005447Y-89434552D01*
X141071769Y-89478867D01*
X141071770Y-89478868D01*
X141130247Y-89490499D01*
X141130250Y-89490500D01*
X141130252Y-89490500D01*
X142869750Y-89490500D01*
X142869751Y-89490499D01*
X142884568Y-89487552D01*
X142928229Y-89478868D01*
X142928229Y-89478867D01*
X142928231Y-89478867D01*
X142994552Y-89434552D01*
X143038867Y-89368231D01*
X143038867Y-89368229D01*
X143038868Y-89368229D01*
X143050499Y-89309752D01*
X143050500Y-89309750D01*
X143050500Y-87570249D01*
X143050499Y-87570247D01*
X143038868Y-87511770D01*
X143038867Y-87511769D01*
X142994552Y-87445447D01*
X142928230Y-87401132D01*
X142928229Y-87401131D01*
X142869752Y-87389500D01*
X142869748Y-87389500D01*
X142566048Y-87389500D01*
X142499009Y-87369815D01*
X142453254Y-87317011D01*
X142443310Y-87247853D01*
X142472335Y-87184297D01*
X142514264Y-87154061D01*
X142513879Y-87153306D01*
X142707557Y-87054620D01*
X142879459Y-86929727D01*
X142879464Y-86929723D01*
X143029723Y-86779464D01*
X143029727Y-86779459D01*
X143154620Y-86607557D01*
X143251095Y-86418217D01*
X143316757Y-86216129D01*
X143316757Y-86216126D01*
X143327231Y-86150000D01*
X142433012Y-86150000D01*
X142465925Y-86092993D01*
X142500000Y-85965826D01*
X142500000Y-85834174D01*
X142465925Y-85707007D01*
X142433012Y-85650000D01*
X143327231Y-85650000D01*
X143316757Y-85583873D01*
X143316757Y-85583870D01*
X143251095Y-85381782D01*
X143154620Y-85192442D01*
X143029727Y-85020540D01*
X143029723Y-85020535D01*
X142879464Y-84870276D01*
X142879459Y-84870272D01*
X142707557Y-84745379D01*
X142518216Y-84648904D01*
X142342026Y-84591656D01*
X142284350Y-84552218D01*
X142257152Y-84487860D01*
X142269067Y-84419013D01*
X142316311Y-84367538D01*
X142332882Y-84359168D01*
X142497598Y-84290941D01*
X142669655Y-84175977D01*
X142748814Y-84096817D01*
X142810135Y-84063334D01*
X142836494Y-84060500D01*
X147208996Y-84060500D01*
X147300040Y-84042389D01*
X147344328Y-84033580D01*
X147408069Y-84007177D01*
X147471807Y-83980777D01*
X147471808Y-83980776D01*
X147471811Y-83980775D01*
X147586543Y-83904114D01*
X160013838Y-71476819D01*
X160075161Y-71443334D01*
X160101519Y-71440500D01*
X172663506Y-71440500D01*
X172730545Y-71460185D01*
X172751182Y-71476814D01*
X172830345Y-71555977D01*
X173002402Y-71670941D01*
X173193580Y-71750130D01*
X173396530Y-71790499D01*
X173396534Y-71790500D01*
X173396535Y-71790500D01*
X173603466Y-71790500D01*
X173603467Y-71790499D01*
X173806420Y-71750130D01*
X173997598Y-71670941D01*
X174169655Y-71555977D01*
X174315977Y-71409655D01*
X174430941Y-71237598D01*
X174510130Y-71046420D01*
X174550500Y-70843465D01*
X174550500Y-70636535D01*
X174510130Y-70433580D01*
X174430941Y-70242402D01*
X174315977Y-70070345D01*
X174315975Y-70070342D01*
X174169657Y-69924024D01*
X174049927Y-69844024D01*
X173997598Y-69809059D01*
X173806420Y-69729870D01*
X173806412Y-69729868D01*
X173603469Y-69689500D01*
X173603465Y-69689500D01*
X173396535Y-69689500D01*
X173396530Y-69689500D01*
X173193587Y-69729868D01*
X173193579Y-69729870D01*
X173002403Y-69809058D01*
X172831605Y-69923181D01*
X172830345Y-69924023D01*
X172751185Y-70003182D01*
X172689865Y-70036666D01*
X172663506Y-70039500D01*
X159691003Y-70039500D01*
X159582590Y-70061065D01*
X159582589Y-70061065D01*
X159555671Y-70066420D01*
X159428190Y-70119224D01*
X159313454Y-70195887D01*
X159313453Y-70195888D01*
X146886162Y-82623181D01*
X146824839Y-82656666D01*
X146798481Y-82659500D01*
X142836494Y-82659500D01*
X142769455Y-82639815D01*
X142748817Y-82623185D01*
X142669655Y-82544023D01*
X142497598Y-82429059D01*
X142306420Y-82349870D01*
X142306412Y-82349868D01*
X142103469Y-82309500D01*
X142103465Y-82309500D01*
X141896535Y-82309500D01*
X141896530Y-82309500D01*
X141693587Y-82349868D01*
X141693579Y-82349870D01*
X141502403Y-82429058D01*
X141330342Y-82544024D01*
X141184024Y-82690342D01*
X141069058Y-82862403D01*
X140989870Y-83053579D01*
X140989868Y-83053587D01*
X140949500Y-83256530D01*
X140949500Y-83463469D01*
X140989868Y-83666412D01*
X140989870Y-83666420D01*
X141069059Y-83857598D01*
X141100140Y-83904114D01*
X141184024Y-84029657D01*
X141330342Y-84175975D01*
X141502405Y-84290943D01*
X141605043Y-84333456D01*
X141667108Y-84359164D01*
X141721511Y-84403005D01*
X141743576Y-84469299D01*
X141726297Y-84536998D01*
X141675160Y-84584609D01*
X141657974Y-84591656D01*
X141481781Y-84648905D01*
X141292442Y-84745379D01*
X141120540Y-84870272D01*
X141120535Y-84870276D01*
X140970276Y-85020535D01*
X140970272Y-85020540D01*
X140845379Y-85192442D01*
X140748904Y-85381782D01*
X140683242Y-85583870D01*
X140683242Y-85583873D01*
X140672769Y-85650000D01*
X138200500Y-85650000D01*
X138200500Y-81841519D01*
X138220185Y-81774480D01*
X138236819Y-81753838D01*
X138433838Y-81556819D01*
X138495161Y-81523334D01*
X138521519Y-81520500D01*
X141163506Y-81520500D01*
X141230545Y-81540185D01*
X141251182Y-81556814D01*
X141330345Y-81635977D01*
X141502402Y-81750941D01*
X141693580Y-81830130D01*
X141896530Y-81870499D01*
X141896534Y-81870500D01*
X141896535Y-81870500D01*
X142103466Y-81870500D01*
X142103467Y-81870499D01*
X142306420Y-81830130D01*
X142497598Y-81750941D01*
X142669655Y-81635977D01*
X142815977Y-81489655D01*
X142930941Y-81317598D01*
X143010130Y-81126420D01*
X143050500Y-80923465D01*
X143050500Y-80716535D01*
X143010130Y-80513580D01*
X142930941Y-80322402D01*
X142815977Y-80150345D01*
X142815975Y-80150342D01*
X142669657Y-80004024D01*
X142583626Y-79946541D01*
X142497598Y-79889059D01*
X142306420Y-79809870D01*
X142306412Y-79809868D01*
X142103469Y-79769500D01*
X142103465Y-79769500D01*
X141896535Y-79769500D01*
X141896530Y-79769500D01*
X141693587Y-79809868D01*
X141693579Y-79809870D01*
X141502403Y-79889058D01*
X141502402Y-79889059D01*
X141330345Y-80004023D01*
X141251185Y-80083182D01*
X141189865Y-80116666D01*
X141163506Y-80119500D01*
X138111003Y-80119500D01*
X138002590Y-80141065D01*
X138002589Y-80141065D01*
X137975671Y-80146420D01*
X137848190Y-80199224D01*
X137733454Y-80275887D01*
X136955887Y-81053454D01*
X136931456Y-81090019D01*
X136907134Y-81126420D01*
X136879225Y-81168189D01*
X136879222Y-81168194D01*
X136826421Y-81295667D01*
X136826418Y-81295677D01*
X136799500Y-81431004D01*
X136799500Y-81431007D01*
X136799500Y-96431006D01*
X136799500Y-96568994D01*
X136799500Y-96568996D01*
X136799499Y-96568996D01*
X128700500Y-96568996D01*
X128700500Y-84841518D01*
X128720185Y-84774479D01*
X128736819Y-84753837D01*
X134473837Y-79016819D01*
X134535160Y-78983334D01*
X134561518Y-78980500D01*
X141163506Y-78980500D01*
X141230545Y-79000185D01*
X141251182Y-79016814D01*
X141330345Y-79095977D01*
X141502402Y-79210941D01*
X141693580Y-79290130D01*
X141896530Y-79330499D01*
X141896534Y-79330500D01*
X141896535Y-79330500D01*
X142103466Y-79330500D01*
X142103467Y-79330499D01*
X142306420Y-79290130D01*
X142497598Y-79210941D01*
X142669655Y-79095977D01*
X142815977Y-78949655D01*
X142930941Y-78777598D01*
X143010130Y-78586420D01*
X143050500Y-78383465D01*
X143050500Y-78176535D01*
X143010130Y-77973580D01*
X142930941Y-77782402D01*
X142815977Y-77610345D01*
X142815975Y-77610342D01*
X142669657Y-77464024D01*
X142583626Y-77406541D01*
X142497598Y-77349059D01*
X142306420Y-77269870D01*
X142306412Y-77269868D01*
X142103469Y-77229500D01*
X142103465Y-77229500D01*
X141896535Y-77229500D01*
X141896530Y-77229500D01*
X141693587Y-77269868D01*
X141693579Y-77269870D01*
X141502403Y-77349058D01*
X141502402Y-77349059D01*
X141330345Y-77464023D01*
X141251185Y-77543182D01*
X141189865Y-77576666D01*
X141163506Y-77579500D01*
X134151003Y-77579500D01*
X134053760Y-77598843D01*
X134053758Y-77598843D01*
X134042591Y-77601065D01*
X134015671Y-77606420D01*
X133962866Y-77628292D01*
X133888189Y-77659225D01*
X133888188Y-77659226D01*
X133867199Y-77673249D01*
X133867192Y-77673253D01*
X133773457Y-77735886D01*
X133773453Y-77735889D01*
X127455888Y-84053453D01*
X127455887Y-84053454D01*
X127379222Y-84168192D01*
X127326421Y-84295667D01*
X127326418Y-84295677D01*
X127299500Y-84431004D01*
X127299500Y-102158480D01*
X127279815Y-102225519D01*
X127263181Y-102246161D01*
X123955888Y-105553453D01*
X123955887Y-105553454D01*
X123879222Y-105668192D01*
X123826421Y-105795667D01*
X123826418Y-105795677D01*
X123799500Y-105931003D01*
X123799500Y-105931006D01*
X123799500Y-106068994D01*
X123799500Y-106068996D01*
X123799499Y-106068996D01*
X121700500Y-106068996D01*
X121700500Y-90431004D01*
X121673581Y-90295677D01*
X121673580Y-90295676D01*
X121673580Y-90295672D01*
X121673578Y-90295667D01*
X121620777Y-90168192D01*
X121544112Y-90053454D01*
X119386545Y-87895887D01*
X119271807Y-87819222D01*
X119144332Y-87766421D01*
X119144322Y-87766418D01*
X119008996Y-87739500D01*
X119008994Y-87739500D01*
X119008993Y-87739500D01*
X117836494Y-87739500D01*
X117769455Y-87719815D01*
X117748817Y-87703185D01*
X117669655Y-87624023D01*
X117497598Y-87509059D01*
X117497593Y-87509057D01*
X117344028Y-87445448D01*
X117332890Y-87440834D01*
X117278488Y-87396994D01*
X117256423Y-87330700D01*
X117273702Y-87263001D01*
X117324839Y-87215390D01*
X117342026Y-87208343D01*
X117518217Y-87151095D01*
X117707557Y-87054620D01*
X117879459Y-86929727D01*
X117879464Y-86929723D01*
X118029723Y-86779464D01*
X118029727Y-86779459D01*
X118154620Y-86607557D01*
X118251095Y-86418217D01*
X118316757Y-86216129D01*
X118316757Y-86216126D01*
X118327231Y-86150000D01*
X117433012Y-86150000D01*
X117465925Y-86092993D01*
X117500000Y-85965826D01*
X117500000Y-85834174D01*
X117465925Y-85707007D01*
X117433012Y-85650000D01*
X118327231Y-85650000D01*
X118316757Y-85583873D01*
X118316757Y-85583870D01*
X118251095Y-85381782D01*
X118154620Y-85192442D01*
X118029727Y-85020540D01*
X118029723Y-85020535D01*
X117879464Y-84870276D01*
X117879459Y-84870272D01*
X117707557Y-84745379D01*
X117518216Y-84648904D01*
X117342026Y-84591656D01*
X117284350Y-84552218D01*
X117257152Y-84487860D01*
X117269067Y-84419013D01*
X117316311Y-84367538D01*
X117332882Y-84359168D01*
X117497598Y-84290941D01*
X117669655Y-84175977D01*
X117815977Y-84029655D01*
X117930941Y-83857598D01*
X118010130Y-83666420D01*
X118050500Y-83463465D01*
X118050500Y-83256535D01*
X118010130Y-83053580D01*
X117930941Y-82862402D01*
X117815977Y-82690345D01*
X117815975Y-82690342D01*
X117669657Y-82544024D01*
X117583626Y-82486541D01*
X117497598Y-82429059D01*
X117306420Y-82349870D01*
X117306412Y-82349868D01*
X117103469Y-82309500D01*
X117103465Y-82309500D01*
X116896535Y-82309500D01*
X116896530Y-82309500D01*
X116693587Y-82349868D01*
X116693579Y-82349870D01*
X116502403Y-82429058D01*
X116502402Y-82429059D01*
X116330345Y-82544023D01*
X116251185Y-82623182D01*
X116189865Y-82656666D01*
X116163506Y-82659500D01*
X82336494Y-82659500D01*
X82269455Y-82639815D01*
X82248817Y-82623185D01*
X82169655Y-82544023D01*
X81997598Y-82429059D01*
X81806420Y-82349870D01*
X81806412Y-82349868D01*
X81603469Y-82309500D01*
X81603465Y-82309500D01*
X81396535Y-82309500D01*
X81396530Y-82309500D01*
X81193587Y-82349868D01*
X81193579Y-82349870D01*
X81002403Y-82429058D01*
X80830342Y-82544024D01*
X80684024Y-82690342D01*
X80569058Y-82862403D01*
X80489870Y-83053579D01*
X80489868Y-83053587D01*
X80449500Y-83256530D01*
X78000500Y-83256530D01*
X78000500Y-80716530D01*
X80449500Y-80716530D01*
X80449500Y-80923469D01*
X80489868Y-81126412D01*
X80489870Y-81126420D01*
X80569058Y-81317596D01*
X80684024Y-81489657D01*
X80830342Y-81635975D01*
X80830345Y-81635977D01*
X81002402Y-81750941D01*
X81193580Y-81830130D01*
X81396530Y-81870499D01*
X81396534Y-81870500D01*
X81396535Y-81870500D01*
X81603466Y-81870500D01*
X81603467Y-81870499D01*
X81806420Y-81830130D01*
X81997598Y-81750941D01*
X82169655Y-81635977D01*
X82248814Y-81556817D01*
X82310135Y-81523334D01*
X82336494Y-81520500D01*
X116163506Y-81520500D01*
X116230545Y-81540185D01*
X116251182Y-81556814D01*
X116330345Y-81635977D01*
X116502402Y-81750941D01*
X116693580Y-81830130D01*
X116896530Y-81870499D01*
X116896534Y-81870500D01*
X116896535Y-81870500D01*
X117103466Y-81870500D01*
X117103467Y-81870499D01*
X117306420Y-81830130D01*
X117497598Y-81750941D01*
X117669655Y-81635977D01*
X117815977Y-81489655D01*
X117930941Y-81317598D01*
X118010130Y-81126420D01*
X118050500Y-80923465D01*
X118050500Y-80716535D01*
X118010130Y-80513580D01*
X117930941Y-80322402D01*
X117815977Y-80150345D01*
X117815975Y-80150342D01*
X117669657Y-80004024D01*
X117583626Y-79946541D01*
X117497598Y-79889059D01*
X117306420Y-79809870D01*
X117306412Y-79809868D01*
X117103469Y-79769500D01*
X117103465Y-79769500D01*
X116896535Y-79769500D01*
X116896530Y-79769500D01*
X116693587Y-79809868D01*
X116693579Y-79809870D01*
X116502403Y-79889058D01*
X116502402Y-79889059D01*
X116330345Y-80004023D01*
X116251185Y-80083182D01*
X116189865Y-80116666D01*
X116163506Y-80119500D01*
X82336494Y-80119500D01*
X82269455Y-80099815D01*
X82248817Y-80083185D01*
X82169655Y-80004023D01*
X81997598Y-79889059D01*
X81806420Y-79809870D01*
X81806412Y-79809868D01*
X81603469Y-79769500D01*
X81603465Y-79769500D01*
X81396535Y-79769500D01*
X81396530Y-79769500D01*
X81193587Y-79809868D01*
X81193579Y-79809870D01*
X81002403Y-79889058D01*
X80830342Y-80004024D01*
X80684024Y-80150342D01*
X80569058Y-80322403D01*
X80489870Y-80513579D01*
X80489868Y-80513587D01*
X80449500Y-80716530D01*
X78000500Y-80716530D01*
X78000500Y-78176530D01*
X80449500Y-78176530D01*
X80449500Y-78383469D01*
X80489868Y-78586412D01*
X80489870Y-78586420D01*
X80569058Y-78777596D01*
X80684024Y-78949657D01*
X80830342Y-79095975D01*
X80830345Y-79095977D01*
X81002402Y-79210941D01*
X81193580Y-79290130D01*
X81396530Y-79330499D01*
X81396534Y-79330500D01*
X81396535Y-79330500D01*
X81603466Y-79330500D01*
X81603467Y-79330499D01*
X81806420Y-79290130D01*
X81997598Y-79210941D01*
X82169655Y-79095977D01*
X82248814Y-79016817D01*
X82310135Y-78983334D01*
X82336494Y-78980500D01*
X116163506Y-78980500D01*
X116230545Y-79000185D01*
X116251182Y-79016814D01*
X116330345Y-79095977D01*
X116502402Y-79210941D01*
X116693580Y-79290130D01*
X116896530Y-79330499D01*
X116896534Y-79330500D01*
X116896535Y-79330500D01*
X117103466Y-79330500D01*
X117103467Y-79330499D01*
X117306420Y-79290130D01*
X117497598Y-79210941D01*
X117669655Y-79095977D01*
X117815977Y-78949655D01*
X117930941Y-78777598D01*
X118010130Y-78586420D01*
X118050500Y-78383465D01*
X118050500Y-78176535D01*
X118010130Y-77973580D01*
X117930941Y-77782402D01*
X117815977Y-77610345D01*
X117815975Y-77610342D01*
X117669657Y-77464024D01*
X117583626Y-77406541D01*
X117497598Y-77349059D01*
X117306420Y-77269870D01*
X117306412Y-77269868D01*
X117103469Y-77229500D01*
X117103465Y-77229500D01*
X116896535Y-77229500D01*
X116896530Y-77229500D01*
X116693587Y-77269868D01*
X116693579Y-77269870D01*
X116502403Y-77349058D01*
X116502402Y-77349059D01*
X116330345Y-77464023D01*
X116251185Y-77543182D01*
X116189865Y-77576666D01*
X116163506Y-77579500D01*
X82336494Y-77579500D01*
X82269455Y-77559815D01*
X82248817Y-77543185D01*
X82169655Y-77464023D01*
X81997598Y-77349059D01*
X81806420Y-77269870D01*
X81806412Y-77269868D01*
X81603469Y-77229500D01*
X81603465Y-77229500D01*
X81396535Y-77229500D01*
X81396530Y-77229500D01*
X81193587Y-77269868D01*
X81193579Y-77269870D01*
X81002403Y-77349058D01*
X80830342Y-77464024D01*
X80684024Y-77610342D01*
X80569058Y-77782403D01*
X80489870Y-77973579D01*
X80489868Y-77973587D01*
X80449500Y-78176530D01*
X78000500Y-78176530D01*
X78000500Y-75636530D01*
X80449500Y-75636530D01*
X80449500Y-75843469D01*
X80489868Y-76046412D01*
X80489870Y-76046420D01*
X80569059Y-76237598D01*
X80600140Y-76284114D01*
X80684024Y-76409657D01*
X80830342Y-76555975D01*
X80830345Y-76555977D01*
X81002402Y-76670941D01*
X81193580Y-76750130D01*
X81396530Y-76790499D01*
X81396534Y-76790500D01*
X81396535Y-76790500D01*
X81603466Y-76790500D01*
X81603467Y-76790499D01*
X81806420Y-76750130D01*
X81997598Y-76670941D01*
X82169655Y-76555977D01*
X82248814Y-76476817D01*
X82310135Y-76443334D01*
X82336494Y-76440500D01*
X116163506Y-76440500D01*
X116230545Y-76460185D01*
X116251182Y-76476814D01*
X116330345Y-76555977D01*
X116502402Y-76670941D01*
X116693580Y-76750130D01*
X116896530Y-76790499D01*
X116896534Y-76790500D01*
X116896535Y-76790500D01*
X117103466Y-76790500D01*
X117103467Y-76790499D01*
X117306420Y-76750130D01*
X117497598Y-76670941D01*
X117669655Y-76555977D01*
X117815977Y-76409655D01*
X117930941Y-76237598D01*
X118010130Y-76046420D01*
X118050500Y-75843465D01*
X118050500Y-75636535D01*
X118050499Y-75636530D01*
X140949500Y-75636530D01*
X140949500Y-75843469D01*
X140989868Y-76046412D01*
X140989870Y-76046420D01*
X141069059Y-76237598D01*
X141100140Y-76284114D01*
X141184024Y-76409657D01*
X141330342Y-76555975D01*
X141330345Y-76555977D01*
X141502402Y-76670941D01*
X141693580Y-76750130D01*
X141896530Y-76790499D01*
X141896534Y-76790500D01*
X141896535Y-76790500D01*
X142103466Y-76790500D01*
X142103467Y-76790499D01*
X142306420Y-76750130D01*
X142497598Y-76670941D01*
X142669655Y-76555977D01*
X142748814Y-76476817D01*
X142810135Y-76443334D01*
X142836494Y-76440500D01*
X147828996Y-76440500D01*
X147920040Y-76422389D01*
X147964328Y-76413580D01*
X148028069Y-76387177D01*
X148091807Y-76360777D01*
X148091808Y-76360776D01*
X148091811Y-76360775D01*
X148206543Y-76284114D01*
X155753838Y-68736819D01*
X155815161Y-68703334D01*
X155841519Y-68700500D01*
X171658480Y-68700500D01*
X171725519Y-68720185D01*
X171746161Y-68736819D01*
X171753454Y-68744112D01*
X171868192Y-68820777D01*
X171955207Y-68856819D01*
X171995672Y-68873580D01*
X171995676Y-68873580D01*
X171995677Y-68873581D01*
X172131003Y-68900500D01*
X172131006Y-68900500D01*
X172131007Y-68900500D01*
X172663506Y-68900500D01*
X172730545Y-68920185D01*
X172751182Y-68936814D01*
X172830345Y-69015977D01*
X173002402Y-69130941D01*
X173193580Y-69210130D01*
X173396530Y-69250499D01*
X173396534Y-69250500D01*
X173396535Y-69250500D01*
X173603466Y-69250500D01*
X173603467Y-69250499D01*
X173806420Y-69210130D01*
X173997598Y-69130941D01*
X174169655Y-69015977D01*
X174315977Y-68869655D01*
X174430941Y-68697598D01*
X174510130Y-68506420D01*
X174550500Y-68303465D01*
X174550500Y-68096535D01*
X174510130Y-67893580D01*
X174430941Y-67702402D01*
X174315977Y-67530345D01*
X174315975Y-67530342D01*
X174169657Y-67384024D01*
X174049927Y-67304024D01*
X173997598Y-67269059D01*
X173806420Y-67189870D01*
X173806412Y-67189868D01*
X173603469Y-67149500D01*
X173603465Y-67149500D01*
X173396535Y-67149500D01*
X173396530Y-67149500D01*
X173193587Y-67189868D01*
X173193579Y-67189870D01*
X173002403Y-67269058D01*
X172916553Y-67326421D01*
X172830345Y-67384023D01*
X172751185Y-67463182D01*
X172724254Y-67477888D01*
X172698441Y-67494477D01*
X172692241Y-67495368D01*
X172689865Y-67496666D01*
X172663506Y-67499500D01*
X172541520Y-67499500D01*
X172474481Y-67479815D01*
X172453839Y-67463181D01*
X172446545Y-67455887D01*
X172331807Y-67379222D01*
X172204332Y-67326421D01*
X172204322Y-67326418D01*
X172068996Y-67299500D01*
X172068994Y-67299500D01*
X172068993Y-67299500D01*
X155568994Y-67299500D01*
X155431006Y-67299500D01*
X155431004Y-67299500D01*
X155295677Y-67326418D01*
X155295667Y-67326421D01*
X155168192Y-67379222D01*
X155053454Y-67455887D01*
X155053453Y-67455888D01*
X147506162Y-75003181D01*
X147444839Y-75036666D01*
X147418481Y-75039500D01*
X142836494Y-75039500D01*
X142769455Y-75019815D01*
X142748817Y-75003185D01*
X142669655Y-74924023D01*
X142497598Y-74809059D01*
X142306420Y-74729870D01*
X142306412Y-74729868D01*
X142103469Y-74689500D01*
X142103465Y-74689500D01*
X141896535Y-74689500D01*
X141896530Y-74689500D01*
X141693587Y-74729868D01*
X141693579Y-74729870D01*
X141502403Y-74809058D01*
X141330342Y-74924024D01*
X141184024Y-75070342D01*
X141069058Y-75242403D01*
X140989870Y-75433579D01*
X140989868Y-75433587D01*
X140949500Y-75636530D01*
X118050499Y-75636530D01*
X118010130Y-75433580D01*
X117930941Y-75242402D01*
X117815977Y-75070345D01*
X117815975Y-75070342D01*
X117669657Y-74924024D01*
X117583626Y-74866541D01*
X117497598Y-74809059D01*
X117306420Y-74729870D01*
X117306412Y-74729868D01*
X117103469Y-74689500D01*
X117103465Y-74689500D01*
X116896535Y-74689500D01*
X116896530Y-74689500D01*
X116693587Y-74729868D01*
X116693579Y-74729870D01*
X116502403Y-74809058D01*
X116502402Y-74809059D01*
X116330345Y-74924023D01*
X116251185Y-75003182D01*
X116189865Y-75036666D01*
X116163506Y-75039500D01*
X82336494Y-75039500D01*
X82269455Y-75019815D01*
X82248817Y-75003185D01*
X82169655Y-74924023D01*
X81997598Y-74809059D01*
X81806420Y-74729870D01*
X81806412Y-74729868D01*
X81603469Y-74689500D01*
X81603465Y-74689500D01*
X81396535Y-74689500D01*
X81396530Y-74689500D01*
X81193587Y-74729868D01*
X81193579Y-74729870D01*
X81002403Y-74809058D01*
X80830342Y-74924024D01*
X80684024Y-75070342D01*
X80569058Y-75242403D01*
X80489870Y-75433579D01*
X80489868Y-75433587D01*
X80449500Y-75636530D01*
X78000500Y-75636530D01*
X78000500Y-73096530D01*
X80449500Y-73096530D01*
X80449500Y-73303469D01*
X80489868Y-73506412D01*
X80489870Y-73506420D01*
X80569058Y-73697596D01*
X80684024Y-73869657D01*
X80830342Y-74015975D01*
X80830345Y-74015977D01*
X81002402Y-74130941D01*
X81193580Y-74210130D01*
X81396530Y-74250499D01*
X81396534Y-74250500D01*
X81396535Y-74250500D01*
X81603466Y-74250500D01*
X81603467Y-74250499D01*
X81806420Y-74210130D01*
X81997598Y-74130941D01*
X82169655Y-74015977D01*
X82248814Y-73936817D01*
X82310135Y-73903334D01*
X82336494Y-73900500D01*
X116163506Y-73900500D01*
X116230545Y-73920185D01*
X116251182Y-73936814D01*
X116330345Y-74015977D01*
X116502402Y-74130941D01*
X116693580Y-74210130D01*
X116896530Y-74250499D01*
X116896534Y-74250500D01*
X116896535Y-74250500D01*
X117103466Y-74250500D01*
X117103467Y-74250499D01*
X117306420Y-74210130D01*
X117497598Y-74130941D01*
X117669655Y-74015977D01*
X117815977Y-73869655D01*
X117930941Y-73697598D01*
X118010130Y-73506420D01*
X118050500Y-73303465D01*
X118050500Y-73096535D01*
X118050499Y-73096530D01*
X140949500Y-73096530D01*
X140949500Y-73303469D01*
X140989868Y-73506412D01*
X140989870Y-73506420D01*
X141069058Y-73697596D01*
X141184024Y-73869657D01*
X141330342Y-74015975D01*
X141330345Y-74015977D01*
X141502402Y-74130941D01*
X141693580Y-74210130D01*
X141896530Y-74250499D01*
X141896534Y-74250500D01*
X141896535Y-74250500D01*
X142103466Y-74250500D01*
X142103467Y-74250499D01*
X142306420Y-74210130D01*
X142497598Y-74130941D01*
X142669655Y-74015977D01*
X142815977Y-73869655D01*
X142930941Y-73697598D01*
X143010130Y-73506420D01*
X143050500Y-73303465D01*
X143050500Y-73096535D01*
X143010130Y-72893580D01*
X142930941Y-72702402D01*
X142815977Y-72530345D01*
X142815975Y-72530342D01*
X142669657Y-72384024D01*
X142583626Y-72326541D01*
X142497598Y-72269059D01*
X142306420Y-72189870D01*
X142306412Y-72189868D01*
X142103469Y-72149500D01*
X142103465Y-72149500D01*
X141896535Y-72149500D01*
X141896530Y-72149500D01*
X141693587Y-72189868D01*
X141693579Y-72189870D01*
X141502403Y-72269058D01*
X141330342Y-72384024D01*
X141184024Y-72530342D01*
X141069058Y-72702403D01*
X140989870Y-72893579D01*
X140989868Y-72893587D01*
X140949500Y-73096530D01*
X118050499Y-73096530D01*
X118010130Y-72893580D01*
X117930941Y-72702402D01*
X117815977Y-72530345D01*
X117815975Y-72530342D01*
X117669657Y-72384024D01*
X117583626Y-72326541D01*
X117497598Y-72269059D01*
X117306420Y-72189870D01*
X117306412Y-72189868D01*
X117103469Y-72149500D01*
X117103465Y-72149500D01*
X116896535Y-72149500D01*
X116896530Y-72149500D01*
X116693587Y-72189868D01*
X116693579Y-72189870D01*
X116502403Y-72269058D01*
X116502402Y-72269059D01*
X116330345Y-72384023D01*
X116251185Y-72463182D01*
X116189865Y-72496666D01*
X116163506Y-72499500D01*
X82336494Y-72499500D01*
X82269455Y-72479815D01*
X82248817Y-72463185D01*
X82169655Y-72384023D01*
X81997598Y-72269059D01*
X81806420Y-72189870D01*
X81806412Y-72189868D01*
X81603469Y-72149500D01*
X81603465Y-72149500D01*
X81396535Y-72149500D01*
X81396530Y-72149500D01*
X81193587Y-72189868D01*
X81193579Y-72189870D01*
X81002403Y-72269058D01*
X80830342Y-72384024D01*
X80684024Y-72530342D01*
X80569058Y-72702403D01*
X80489870Y-72893579D01*
X80489868Y-72893587D01*
X80449500Y-73096530D01*
X78000500Y-73096530D01*
X78000500Y-70556530D01*
X80449500Y-70556530D01*
X80449500Y-70763469D01*
X80489868Y-70966412D01*
X80489870Y-70966420D01*
X80569058Y-71157596D01*
X80684024Y-71329657D01*
X80830342Y-71475975D01*
X80830345Y-71475977D01*
X81002402Y-71590941D01*
X81193580Y-71670130D01*
X81396530Y-71710499D01*
X81396534Y-71710500D01*
X81396535Y-71710500D01*
X81603466Y-71710500D01*
X81603467Y-71710499D01*
X81806420Y-71670130D01*
X81997598Y-71590941D01*
X82169655Y-71475977D01*
X82248814Y-71396817D01*
X82310135Y-71363334D01*
X82336494Y-71360500D01*
X116163506Y-71360500D01*
X116230545Y-71380185D01*
X116251182Y-71396814D01*
X116330345Y-71475977D01*
X116502402Y-71590941D01*
X116693580Y-71670130D01*
X116896530Y-71710499D01*
X116896534Y-71710500D01*
X116896535Y-71710500D01*
X117103466Y-71710500D01*
X117103467Y-71710499D01*
X117306420Y-71670130D01*
X117497598Y-71590941D01*
X117669655Y-71475977D01*
X117815977Y-71329655D01*
X117930941Y-71157598D01*
X118010130Y-70966420D01*
X118050500Y-70763465D01*
X118050500Y-70556535D01*
X118050499Y-70556530D01*
X140949500Y-70556530D01*
X140949500Y-70763469D01*
X140989868Y-70966412D01*
X140989870Y-70966420D01*
X141069058Y-71157596D01*
X141184024Y-71329657D01*
X141330342Y-71475975D01*
X141330345Y-71475977D01*
X141502402Y-71590941D01*
X141693580Y-71670130D01*
X141896530Y-71710499D01*
X141896534Y-71710500D01*
X141896535Y-71710500D01*
X142103466Y-71710500D01*
X142103467Y-71710499D01*
X142306420Y-71670130D01*
X142497598Y-71590941D01*
X142669655Y-71475977D01*
X142815977Y-71329655D01*
X142930941Y-71157598D01*
X143010130Y-70966420D01*
X143050500Y-70763465D01*
X143050500Y-70556535D01*
X143010130Y-70353580D01*
X142930941Y-70162402D01*
X142815977Y-69990345D01*
X142815975Y-69990342D01*
X142669657Y-69844024D01*
X142583626Y-69786541D01*
X142497598Y-69729059D01*
X142306420Y-69649870D01*
X142306412Y-69649868D01*
X142103469Y-69609500D01*
X142103465Y-69609500D01*
X141896535Y-69609500D01*
X141896530Y-69609500D01*
X141693587Y-69649868D01*
X141693579Y-69649870D01*
X141502403Y-69729058D01*
X141330342Y-69844024D01*
X141184024Y-69990342D01*
X141069058Y-70162403D01*
X140989870Y-70353579D01*
X140989868Y-70353587D01*
X140949500Y-70556530D01*
X118050499Y-70556530D01*
X118010130Y-70353580D01*
X117930941Y-70162402D01*
X117815977Y-69990345D01*
X117815975Y-69990342D01*
X117669657Y-69844024D01*
X117583626Y-69786541D01*
X117497598Y-69729059D01*
X117306420Y-69649870D01*
X117306412Y-69649868D01*
X117103469Y-69609500D01*
X117103465Y-69609500D01*
X116896535Y-69609500D01*
X116896530Y-69609500D01*
X116693587Y-69649868D01*
X116693579Y-69649870D01*
X116502403Y-69729058D01*
X116502402Y-69729059D01*
X116330345Y-69844023D01*
X116251185Y-69923182D01*
X116189865Y-69956666D01*
X116163506Y-69959500D01*
X82336494Y-69959500D01*
X82269455Y-69939815D01*
X82248817Y-69923185D01*
X82169655Y-69844023D01*
X81997598Y-69729059D01*
X81806420Y-69649870D01*
X81806412Y-69649868D01*
X81603469Y-69609500D01*
X81603465Y-69609500D01*
X81396535Y-69609500D01*
X81396530Y-69609500D01*
X81193587Y-69649868D01*
X81193579Y-69649870D01*
X81002403Y-69729058D01*
X80830342Y-69844024D01*
X80684024Y-69990342D01*
X80569058Y-70162403D01*
X80489870Y-70353579D01*
X80489868Y-70353587D01*
X80449500Y-70556530D01*
X78000500Y-70556530D01*
X78000500Y-68016530D01*
X80449500Y-68016530D01*
X80449500Y-68223469D01*
X80489868Y-68426412D01*
X80489870Y-68426420D01*
X80569058Y-68617596D01*
X80684024Y-68789657D01*
X80830342Y-68935975D01*
X80830345Y-68935977D01*
X81002402Y-69050941D01*
X81193580Y-69130130D01*
X81396530Y-69170499D01*
X81396534Y-69170500D01*
X81396535Y-69170500D01*
X81603466Y-69170500D01*
X81603467Y-69170499D01*
X81806420Y-69130130D01*
X81997598Y-69050941D01*
X82169655Y-68935977D01*
X82248814Y-68856817D01*
X82310135Y-68823334D01*
X82336494Y-68820500D01*
X116163506Y-68820500D01*
X116230545Y-68840185D01*
X116251182Y-68856814D01*
X116330345Y-68935977D01*
X116502402Y-69050941D01*
X116693580Y-69130130D01*
X116896530Y-69170499D01*
X116896534Y-69170500D01*
X116896535Y-69170500D01*
X117103466Y-69170500D01*
X117103467Y-69170499D01*
X117306420Y-69130130D01*
X117497598Y-69050941D01*
X117669655Y-68935977D01*
X117815977Y-68789655D01*
X117930941Y-68617598D01*
X118010130Y-68426420D01*
X118050500Y-68223465D01*
X118050500Y-68016535D01*
X118050499Y-68016530D01*
X140949500Y-68016530D01*
X140949500Y-68223469D01*
X140989868Y-68426412D01*
X140989870Y-68426420D01*
X141069058Y-68617596D01*
X141184024Y-68789657D01*
X141330342Y-68935975D01*
X141330345Y-68935977D01*
X141502402Y-69050941D01*
X141693580Y-69130130D01*
X141896530Y-69170499D01*
X141896534Y-69170500D01*
X141896535Y-69170500D01*
X142103466Y-69170500D01*
X142103467Y-69170499D01*
X142306420Y-69130130D01*
X142497598Y-69050941D01*
X142669655Y-68935977D01*
X142815977Y-68789655D01*
X142930941Y-68617598D01*
X143010130Y-68426420D01*
X143050500Y-68223465D01*
X143050500Y-68016535D01*
X143010130Y-67813580D01*
X142930941Y-67622402D01*
X142815977Y-67450345D01*
X142815975Y-67450342D01*
X142669657Y-67304024D01*
X142583626Y-67246541D01*
X142497598Y-67189059D01*
X142306420Y-67109870D01*
X142306412Y-67109868D01*
X142103469Y-67069500D01*
X142103465Y-67069500D01*
X141896535Y-67069500D01*
X141896530Y-67069500D01*
X141693587Y-67109868D01*
X141693579Y-67109870D01*
X141502403Y-67189058D01*
X141330342Y-67304024D01*
X141184024Y-67450342D01*
X141069058Y-67622403D01*
X140989870Y-67813579D01*
X140989868Y-67813587D01*
X140949500Y-68016530D01*
X118050499Y-68016530D01*
X118010130Y-67813580D01*
X117930941Y-67622402D01*
X117815977Y-67450345D01*
X117815975Y-67450342D01*
X117669657Y-67304024D01*
X117583626Y-67246541D01*
X117497598Y-67189059D01*
X117306420Y-67109870D01*
X117306412Y-67109868D01*
X117103469Y-67069500D01*
X117103465Y-67069500D01*
X116896535Y-67069500D01*
X116896530Y-67069500D01*
X116693587Y-67109868D01*
X116693579Y-67109870D01*
X116502403Y-67189058D01*
X116502402Y-67189059D01*
X116330345Y-67304023D01*
X116251185Y-67383182D01*
X116189865Y-67416666D01*
X116163506Y-67419500D01*
X82336494Y-67419500D01*
X82269455Y-67399815D01*
X82248817Y-67383185D01*
X82169655Y-67304023D01*
X81997598Y-67189059D01*
X81806420Y-67109870D01*
X81806412Y-67109868D01*
X81603469Y-67069500D01*
X81603465Y-67069500D01*
X81396535Y-67069500D01*
X81396530Y-67069500D01*
X81193587Y-67109868D01*
X81193579Y-67109870D01*
X81002403Y-67189058D01*
X80830342Y-67304024D01*
X80684024Y-67450342D01*
X80569058Y-67622403D01*
X80489870Y-67813579D01*
X80489868Y-67813587D01*
X80449500Y-68016530D01*
X78000500Y-68016530D01*
X78000500Y-65476530D01*
X80449500Y-65476530D01*
X80449500Y-65683469D01*
X80489868Y-65886412D01*
X80489870Y-65886420D01*
X80569058Y-66077596D01*
X80684024Y-66249657D01*
X80830342Y-66395975D01*
X80830345Y-66395977D01*
X81002402Y-66510941D01*
X81193580Y-66590130D01*
X81396530Y-66630499D01*
X81396534Y-66630500D01*
X81396535Y-66630500D01*
X81603466Y-66630500D01*
X81603467Y-66630499D01*
X81806420Y-66590130D01*
X81997598Y-66510941D01*
X82169655Y-66395977D01*
X82248814Y-66316817D01*
X82310135Y-66283334D01*
X82336494Y-66280500D01*
X116163506Y-66280500D01*
X116230545Y-66300185D01*
X116251182Y-66316814D01*
X116330345Y-66395977D01*
X116502402Y-66510941D01*
X116693580Y-66590130D01*
X116896530Y-66630499D01*
X116896534Y-66630500D01*
X116896535Y-66630500D01*
X117103466Y-66630500D01*
X117103467Y-66630499D01*
X117306420Y-66590130D01*
X117497598Y-66510941D01*
X117669655Y-66395977D01*
X117815977Y-66249655D01*
X117930941Y-66077598D01*
X118010130Y-65886420D01*
X118050500Y-65683465D01*
X118050500Y-65476535D01*
X118050499Y-65476530D01*
X140949500Y-65476530D01*
X140949500Y-65683469D01*
X140989868Y-65886412D01*
X140989870Y-65886420D01*
X141069058Y-66077596D01*
X141184024Y-66249657D01*
X141330342Y-66395975D01*
X141330345Y-66395977D01*
X141502402Y-66510941D01*
X141693580Y-66590130D01*
X141896530Y-66630499D01*
X141896534Y-66630500D01*
X141896535Y-66630500D01*
X142103466Y-66630500D01*
X142103467Y-66630499D01*
X142306420Y-66590130D01*
X142497598Y-66510941D01*
X142669655Y-66395977D01*
X142748814Y-66316817D01*
X142810135Y-66283334D01*
X142836494Y-66280500D01*
X172585035Y-66280500D01*
X172652074Y-66300185D01*
X172680891Y-66325839D01*
X172684024Y-66329657D01*
X172830342Y-66475975D01*
X172830345Y-66475977D01*
X173002402Y-66590941D01*
X173193580Y-66670130D01*
X173396530Y-66710499D01*
X173396534Y-66710500D01*
X173396535Y-66710500D01*
X173603466Y-66710500D01*
X173603467Y-66710499D01*
X173806420Y-66670130D01*
X173997598Y-66590941D01*
X174169655Y-66475977D01*
X174315977Y-66329655D01*
X174430941Y-66157598D01*
X174510130Y-65966420D01*
X174550500Y-65763465D01*
X174550500Y-65556535D01*
X174510130Y-65353580D01*
X174430941Y-65162402D01*
X174315977Y-64990345D01*
X174315975Y-64990342D01*
X174169657Y-64844024D01*
X174049927Y-64764024D01*
X173997598Y-64729059D01*
X173806420Y-64649870D01*
X173806412Y-64649868D01*
X173603469Y-64609500D01*
X173603465Y-64609500D01*
X173396535Y-64609500D01*
X173396530Y-64609500D01*
X173193587Y-64649868D01*
X173193579Y-64649870D01*
X173002403Y-64729058D01*
X172830342Y-64844024D01*
X172825635Y-64847888D01*
X172824685Y-64846730D01*
X172769863Y-64876666D01*
X172743505Y-64879500D01*
X142836494Y-64879500D01*
X142769455Y-64859815D01*
X142748817Y-64843185D01*
X142669655Y-64764023D01*
X142497598Y-64649059D01*
X142306420Y-64569870D01*
X142306412Y-64569868D01*
X142103469Y-64529500D01*
X142103465Y-64529500D01*
X141896535Y-64529500D01*
X141896530Y-64529500D01*
X141693587Y-64569868D01*
X141693579Y-64569870D01*
X141502403Y-64649058D01*
X141330342Y-64764024D01*
X141184024Y-64910342D01*
X141069058Y-65082403D01*
X140989870Y-65273579D01*
X140989868Y-65273587D01*
X140949500Y-65476530D01*
X118050499Y-65476530D01*
X118010130Y-65273580D01*
X117930941Y-65082402D01*
X117815977Y-64910345D01*
X117815975Y-64910342D01*
X117669657Y-64764024D01*
X117583626Y-64706541D01*
X117497598Y-64649059D01*
X117306420Y-64569870D01*
X117306412Y-64569868D01*
X117103469Y-64529500D01*
X117103465Y-64529500D01*
X116896535Y-64529500D01*
X116896530Y-64529500D01*
X116693587Y-64569868D01*
X116693579Y-64569870D01*
X116502403Y-64649058D01*
X116502402Y-64649059D01*
X116330345Y-64764023D01*
X116251185Y-64843182D01*
X116189865Y-64876666D01*
X116163506Y-64879500D01*
X82336494Y-64879500D01*
X82269455Y-64859815D01*
X82248817Y-64843185D01*
X82169655Y-64764023D01*
X81997598Y-64649059D01*
X81806420Y-64569870D01*
X81806412Y-64569868D01*
X81603469Y-64529500D01*
X81603465Y-64529500D01*
X81396535Y-64529500D01*
X81396530Y-64529500D01*
X81193587Y-64569868D01*
X81193579Y-64569870D01*
X81002403Y-64649058D01*
X80830342Y-64764024D01*
X80684024Y-64910342D01*
X80569058Y-65082403D01*
X80489870Y-65273579D01*
X80489868Y-65273587D01*
X80449500Y-65476530D01*
X78000500Y-65476530D01*
X78000500Y-62936530D01*
X80449500Y-62936530D01*
X80449500Y-63143469D01*
X80489868Y-63346412D01*
X80489870Y-63346420D01*
X80569058Y-63537596D01*
X80684024Y-63709657D01*
X80830342Y-63855975D01*
X80830345Y-63855977D01*
X81002402Y-63970941D01*
X81193580Y-64050130D01*
X81396530Y-64090499D01*
X81396534Y-64090500D01*
X81396535Y-64090500D01*
X81603466Y-64090500D01*
X81603467Y-64090499D01*
X81806420Y-64050130D01*
X81997598Y-63970941D01*
X82169655Y-63855977D01*
X82248814Y-63776817D01*
X82310135Y-63743334D01*
X82336494Y-63740500D01*
X116163506Y-63740500D01*
X116230545Y-63760185D01*
X116251182Y-63776814D01*
X116330345Y-63855977D01*
X116502402Y-63970941D01*
X116693580Y-64050130D01*
X116896530Y-64090499D01*
X116896534Y-64090500D01*
X116896535Y-64090500D01*
X117103466Y-64090500D01*
X117103467Y-64090499D01*
X117306420Y-64050130D01*
X117497598Y-63970941D01*
X117669655Y-63855977D01*
X117815977Y-63709655D01*
X117930941Y-63537598D01*
X118010130Y-63346420D01*
X118050500Y-63143465D01*
X118050500Y-62936535D01*
X118050499Y-62936530D01*
X140949500Y-62936530D01*
X140949500Y-63143469D01*
X140989868Y-63346412D01*
X140989870Y-63346420D01*
X141069058Y-63537596D01*
X141184024Y-63709657D01*
X141330342Y-63855975D01*
X141330345Y-63855977D01*
X141502402Y-63970941D01*
X141693580Y-64050130D01*
X141896530Y-64090499D01*
X141896534Y-64090500D01*
X141896535Y-64090500D01*
X142103466Y-64090500D01*
X142103467Y-64090499D01*
X142306420Y-64050130D01*
X142497598Y-63970941D01*
X142669655Y-63855977D01*
X142748814Y-63776817D01*
X142810135Y-63743334D01*
X142836494Y-63740500D01*
X172585035Y-63740500D01*
X172652074Y-63760185D01*
X172680891Y-63785839D01*
X172684024Y-63789657D01*
X172830342Y-63935975D01*
X172830345Y-63935977D01*
X173002402Y-64050941D01*
X173193580Y-64130130D01*
X173396530Y-64170499D01*
X173396534Y-64170500D01*
X173396535Y-64170500D01*
X173603466Y-64170500D01*
X173603467Y-64170499D01*
X173806420Y-64130130D01*
X173997598Y-64050941D01*
X174169655Y-63935977D01*
X174315977Y-63789655D01*
X174430941Y-63617598D01*
X174510130Y-63426420D01*
X174550500Y-63223465D01*
X174550500Y-63016535D01*
X174510130Y-62813580D01*
X174430941Y-62622402D01*
X174315977Y-62450345D01*
X174315975Y-62450342D01*
X174169657Y-62304024D01*
X174049927Y-62224024D01*
X173997598Y-62189059D01*
X173806420Y-62109870D01*
X173806412Y-62109868D01*
X173603469Y-62069500D01*
X173603465Y-62069500D01*
X173396535Y-62069500D01*
X173396530Y-62069500D01*
X173193587Y-62109868D01*
X173193579Y-62109870D01*
X173002403Y-62189058D01*
X172830342Y-62304024D01*
X172825635Y-62307888D01*
X172824685Y-62306730D01*
X172769863Y-62336666D01*
X172743505Y-62339500D01*
X142836494Y-62339500D01*
X142769455Y-62319815D01*
X142748817Y-62303185D01*
X142669655Y-62224023D01*
X142497598Y-62109059D01*
X142306420Y-62029870D01*
X142306412Y-62029868D01*
X142103469Y-61989500D01*
X142103465Y-61989500D01*
X141896535Y-61989500D01*
X141896530Y-61989500D01*
X141693587Y-62029868D01*
X141693579Y-62029870D01*
X141502403Y-62109058D01*
X141330342Y-62224024D01*
X141184024Y-62370342D01*
X141069058Y-62542403D01*
X140989870Y-62733579D01*
X140989868Y-62733587D01*
X140949500Y-62936530D01*
X118050499Y-62936530D01*
X118010130Y-62733580D01*
X117930941Y-62542402D01*
X117815977Y-62370345D01*
X117815975Y-62370342D01*
X117669657Y-62224024D01*
X117583626Y-62166541D01*
X117497598Y-62109059D01*
X117306420Y-62029870D01*
X117306412Y-62029868D01*
X117103469Y-61989500D01*
X117103465Y-61989500D01*
X116896535Y-61989500D01*
X116896530Y-61989500D01*
X116693587Y-62029868D01*
X116693579Y-62029870D01*
X116502403Y-62109058D01*
X116502402Y-62109059D01*
X116330345Y-62224023D01*
X116251185Y-62303182D01*
X116189865Y-62336666D01*
X116163506Y-62339500D01*
X82336494Y-62339500D01*
X82269455Y-62319815D01*
X82248817Y-62303185D01*
X82169655Y-62224023D01*
X81997598Y-62109059D01*
X81806420Y-62029870D01*
X81806412Y-62029868D01*
X81603469Y-61989500D01*
X81603465Y-61989500D01*
X81396535Y-61989500D01*
X81396530Y-61989500D01*
X81193587Y-62029868D01*
X81193579Y-62029870D01*
X81002403Y-62109058D01*
X80830342Y-62224024D01*
X80684024Y-62370342D01*
X80569058Y-62542403D01*
X80489870Y-62733579D01*
X80489868Y-62733587D01*
X80449500Y-62936530D01*
X78000500Y-62936530D01*
X78000500Y-59630247D01*
X80449500Y-59630247D01*
X80449500Y-61369752D01*
X80461131Y-61428229D01*
X80461132Y-61428230D01*
X80505447Y-61494552D01*
X80571769Y-61538867D01*
X80571770Y-61538868D01*
X80630247Y-61550499D01*
X80630250Y-61550500D01*
X80630252Y-61550500D01*
X82369750Y-61550500D01*
X82369751Y-61550499D01*
X82384568Y-61547552D01*
X82428229Y-61538868D01*
X82428229Y-61538867D01*
X82428231Y-61538867D01*
X82494552Y-61494552D01*
X82538867Y-61428231D01*
X82538867Y-61428229D01*
X82538868Y-61428229D01*
X82550499Y-61369752D01*
X82550500Y-61369750D01*
X82550500Y-61324500D01*
X82570185Y-61257461D01*
X82622989Y-61211706D01*
X82674500Y-61200500D01*
X116163506Y-61200500D01*
X116230545Y-61220185D01*
X116251182Y-61236814D01*
X116330345Y-61315977D01*
X116502402Y-61430941D01*
X116693580Y-61510130D01*
X116838052Y-61538867D01*
X116896530Y-61550499D01*
X116896534Y-61550500D01*
X116896535Y-61550500D01*
X117103466Y-61550500D01*
X117103467Y-61550499D01*
X117306420Y-61510130D01*
X117497598Y-61430941D01*
X117669655Y-61315977D01*
X117815977Y-61169655D01*
X117930941Y-60997598D01*
X118010130Y-60806420D01*
X118050500Y-60603465D01*
X118050500Y-60396535D01*
X118050499Y-60396530D01*
X140949500Y-60396530D01*
X140949500Y-60603469D01*
X140989868Y-60806412D01*
X140989870Y-60806420D01*
X141069058Y-60997596D01*
X141184024Y-61169657D01*
X141330342Y-61315975D01*
X141330345Y-61315977D01*
X141502402Y-61430941D01*
X141693580Y-61510130D01*
X141838052Y-61538867D01*
X141896530Y-61550499D01*
X141896534Y-61550500D01*
X141896535Y-61550500D01*
X142103466Y-61550500D01*
X142103467Y-61550499D01*
X142306420Y-61510130D01*
X142497598Y-61430941D01*
X142669655Y-61315977D01*
X142748814Y-61236817D01*
X142810135Y-61203334D01*
X142836494Y-61200500D01*
X172585035Y-61200500D01*
X172652074Y-61220185D01*
X172680891Y-61245839D01*
X172684024Y-61249657D01*
X172830342Y-61395975D01*
X172830345Y-61395977D01*
X173002402Y-61510941D01*
X173193580Y-61590130D01*
X173396530Y-61630499D01*
X173396534Y-61630500D01*
X173396535Y-61630500D01*
X173603466Y-61630500D01*
X173603467Y-61630499D01*
X173806420Y-61590130D01*
X173997598Y-61510941D01*
X174169655Y-61395977D01*
X174315977Y-61249655D01*
X174430941Y-61077598D01*
X174510130Y-60886420D01*
X174550500Y-60683465D01*
X174550500Y-60476535D01*
X174510130Y-60273580D01*
X174430941Y-60082402D01*
X174315977Y-59910345D01*
X174315975Y-59910342D01*
X174169657Y-59764024D01*
X174049927Y-59684024D01*
X173997598Y-59649059D01*
X173806420Y-59569870D01*
X173806412Y-59569868D01*
X173603469Y-59529500D01*
X173603465Y-59529500D01*
X173396535Y-59529500D01*
X173396530Y-59529500D01*
X173193587Y-59569868D01*
X173193579Y-59569870D01*
X173002403Y-59649058D01*
X172830342Y-59764024D01*
X172825635Y-59767888D01*
X172824685Y-59766730D01*
X172769863Y-59796666D01*
X172743505Y-59799500D01*
X142836494Y-59799500D01*
X142769455Y-59779815D01*
X142748817Y-59763185D01*
X142669655Y-59684023D01*
X142497598Y-59569059D01*
X142306420Y-59489870D01*
X142306412Y-59489868D01*
X142103469Y-59449500D01*
X142103465Y-59449500D01*
X141896535Y-59449500D01*
X141896530Y-59449500D01*
X141693587Y-59489868D01*
X141693579Y-59489870D01*
X141502403Y-59569058D01*
X141330342Y-59684024D01*
X141184024Y-59830342D01*
X141069058Y-60002403D01*
X140989870Y-60193579D01*
X140989868Y-60193587D01*
X140949500Y-60396530D01*
X118050499Y-60396530D01*
X118010130Y-60193580D01*
X117930941Y-60002402D01*
X117815977Y-59830345D01*
X117815975Y-59830342D01*
X117669657Y-59684024D01*
X117501655Y-59571770D01*
X117497598Y-59569059D01*
X117306420Y-59489870D01*
X117306412Y-59489868D01*
X117103469Y-59449500D01*
X117103465Y-59449500D01*
X116896535Y-59449500D01*
X116896530Y-59449500D01*
X116693587Y-59489868D01*
X116693579Y-59489870D01*
X116502403Y-59569058D01*
X116382674Y-59649058D01*
X116330345Y-59684023D01*
X116251185Y-59763182D01*
X116189865Y-59796666D01*
X116163506Y-59799500D01*
X82674500Y-59799500D01*
X82607461Y-59779815D01*
X82561706Y-59727011D01*
X82550500Y-59675500D01*
X82550500Y-59630249D01*
X82550499Y-59630247D01*
X82538868Y-59571770D01*
X82538867Y-59571769D01*
X82494552Y-59505447D01*
X82428230Y-59461132D01*
X82428229Y-59461131D01*
X82369752Y-59449500D01*
X82369748Y-59449500D01*
X80630252Y-59449500D01*
X80630247Y-59449500D01*
X80571770Y-59461131D01*
X80571769Y-59461132D01*
X80505447Y-59505447D01*
X80461132Y-59571769D01*
X80461131Y-59571770D01*
X80449500Y-59630247D01*
X78000500Y-59630247D01*
X78000500Y-57856530D01*
X115949500Y-57856530D01*
X115949500Y-58063469D01*
X115989868Y-58266412D01*
X115989870Y-58266420D01*
X116069058Y-58457596D01*
X116184024Y-58629657D01*
X116330342Y-58775975D01*
X116330345Y-58775977D01*
X116502402Y-58890941D01*
X116693580Y-58970130D01*
X116896530Y-59010499D01*
X116896534Y-59010500D01*
X116896535Y-59010500D01*
X117103466Y-59010500D01*
X117103467Y-59010499D01*
X117306420Y-58970130D01*
X117497598Y-58890941D01*
X117669655Y-58775977D01*
X117815977Y-58629655D01*
X117930941Y-58457598D01*
X118010130Y-58266420D01*
X118050500Y-58063465D01*
X118050500Y-57856535D01*
X118050499Y-57856530D01*
X140949500Y-57856530D01*
X140949500Y-58063469D01*
X140989868Y-58266412D01*
X140989870Y-58266420D01*
X141069058Y-58457596D01*
X141184024Y-58629657D01*
X141330342Y-58775975D01*
X141330345Y-58775977D01*
X141502402Y-58890941D01*
X141693580Y-58970130D01*
X141896530Y-59010499D01*
X141896534Y-59010500D01*
X141896535Y-59010500D01*
X142103466Y-59010500D01*
X142103467Y-59010499D01*
X142306420Y-58970130D01*
X142497598Y-58890941D01*
X142669655Y-58775977D01*
X142748814Y-58696817D01*
X142810135Y-58663334D01*
X142836494Y-58660500D01*
X172585035Y-58660500D01*
X172652074Y-58680185D01*
X172680891Y-58705839D01*
X172684024Y-58709657D01*
X172830342Y-58855975D01*
X172830345Y-58855977D01*
X173002402Y-58970941D01*
X173193580Y-59050130D01*
X173396530Y-59090499D01*
X173396534Y-59090500D01*
X173396535Y-59090500D01*
X173603466Y-59090500D01*
X173603467Y-59090499D01*
X173806420Y-59050130D01*
X173997598Y-58970941D01*
X174169655Y-58855977D01*
X174315977Y-58709655D01*
X174430941Y-58537598D01*
X174510130Y-58346420D01*
X174550500Y-58143465D01*
X174550500Y-57936535D01*
X174510130Y-57733580D01*
X174430941Y-57542402D01*
X174315977Y-57370345D01*
X174315975Y-57370342D01*
X174169657Y-57224024D01*
X174049927Y-57144024D01*
X173997598Y-57109059D01*
X173806420Y-57029870D01*
X173806412Y-57029868D01*
X173603469Y-56989500D01*
X173603465Y-56989500D01*
X173396535Y-56989500D01*
X173396530Y-56989500D01*
X173193587Y-57029868D01*
X173193579Y-57029870D01*
X173002403Y-57109058D01*
X172830342Y-57224024D01*
X172825635Y-57227888D01*
X172824685Y-57226730D01*
X172769863Y-57256666D01*
X172743505Y-57259500D01*
X142836494Y-57259500D01*
X142769455Y-57239815D01*
X142748817Y-57223185D01*
X142669655Y-57144023D01*
X142497598Y-57029059D01*
X142306420Y-56949870D01*
X142306412Y-56949868D01*
X142103469Y-56909500D01*
X142103465Y-56909500D01*
X141896535Y-56909500D01*
X141896530Y-56909500D01*
X141693587Y-56949868D01*
X141693579Y-56949870D01*
X141502403Y-57029058D01*
X141330342Y-57144024D01*
X141184024Y-57290342D01*
X141069058Y-57462403D01*
X140989870Y-57653579D01*
X140989868Y-57653587D01*
X140949500Y-57856530D01*
X118050499Y-57856530D01*
X118010130Y-57653580D01*
X117930941Y-57462402D01*
X117815977Y-57290345D01*
X117815975Y-57290342D01*
X117669657Y-57144024D01*
X117583626Y-57086541D01*
X117497598Y-57029059D01*
X117306420Y-56949870D01*
X117306412Y-56949868D01*
X117103469Y-56909500D01*
X117103465Y-56909500D01*
X116896535Y-56909500D01*
X116896530Y-56909500D01*
X116693587Y-56949868D01*
X116693579Y-56949870D01*
X116502403Y-57029058D01*
X116330342Y-57144024D01*
X116184024Y-57290342D01*
X116069058Y-57462403D01*
X115989870Y-57653579D01*
X115989868Y-57653587D01*
X115949500Y-57856530D01*
X78000500Y-57856530D01*
X78000500Y-55316530D01*
X115949500Y-55316530D01*
X115949500Y-55523469D01*
X115989868Y-55726412D01*
X115989870Y-55726420D01*
X116069058Y-55917596D01*
X116184024Y-56089657D01*
X116330342Y-56235975D01*
X116330345Y-56235977D01*
X116502402Y-56350941D01*
X116693580Y-56430130D01*
X116896530Y-56470499D01*
X116896534Y-56470500D01*
X116896535Y-56470500D01*
X117103466Y-56470500D01*
X117103467Y-56470499D01*
X117306420Y-56430130D01*
X117497598Y-56350941D01*
X117669655Y-56235977D01*
X117815977Y-56089655D01*
X117930941Y-55917598D01*
X118010130Y-55726420D01*
X118050500Y-55523465D01*
X118050500Y-55316535D01*
X118050499Y-55316530D01*
X140949500Y-55316530D01*
X140949500Y-55523469D01*
X140989868Y-55726412D01*
X140989870Y-55726420D01*
X141069058Y-55917596D01*
X141184024Y-56089657D01*
X141330342Y-56235975D01*
X141330345Y-56235977D01*
X141502402Y-56350941D01*
X141693580Y-56430130D01*
X141896530Y-56470499D01*
X141896534Y-56470500D01*
X141896535Y-56470500D01*
X142103466Y-56470500D01*
X142103467Y-56470499D01*
X142306420Y-56430130D01*
X142497598Y-56350941D01*
X142669655Y-56235977D01*
X142748814Y-56156817D01*
X142810135Y-56123334D01*
X142836494Y-56120500D01*
X172325500Y-56120500D01*
X172392539Y-56140185D01*
X172438294Y-56192989D01*
X172449500Y-56244500D01*
X172449500Y-56369752D01*
X172461131Y-56428229D01*
X172461132Y-56428230D01*
X172505447Y-56494552D01*
X172571769Y-56538867D01*
X172571770Y-56538868D01*
X172630247Y-56550499D01*
X172630250Y-56550500D01*
X172630252Y-56550500D01*
X174369750Y-56550500D01*
X174369751Y-56550499D01*
X174384568Y-56547552D01*
X174428229Y-56538868D01*
X174428229Y-56538867D01*
X174428231Y-56538867D01*
X174494552Y-56494552D01*
X174538867Y-56428231D01*
X174538867Y-56428229D01*
X174538868Y-56428229D01*
X174550499Y-56369752D01*
X174550500Y-56369750D01*
X174550500Y-54630249D01*
X174550499Y-54630247D01*
X174538868Y-54571770D01*
X174538867Y-54571769D01*
X174494552Y-54505447D01*
X174428230Y-54461132D01*
X174428229Y-54461131D01*
X174369752Y-54449500D01*
X174369748Y-54449500D01*
X172630252Y-54449500D01*
X172630247Y-54449500D01*
X172571770Y-54461131D01*
X172571769Y-54461132D01*
X172505447Y-54505447D01*
X172461132Y-54571769D01*
X172461131Y-54571770D01*
X172451600Y-54619691D01*
X172419215Y-54681602D01*
X172358500Y-54716176D01*
X172329983Y-54719500D01*
X142836494Y-54719500D01*
X142769455Y-54699815D01*
X142748817Y-54683185D01*
X142669655Y-54604023D01*
X142497598Y-54489059D01*
X142430174Y-54461131D01*
X142306420Y-54409870D01*
X142306412Y-54409868D01*
X142103469Y-54369500D01*
X142103465Y-54369500D01*
X141896535Y-54369500D01*
X141896530Y-54369500D01*
X141693587Y-54409868D01*
X141693579Y-54409870D01*
X141502403Y-54489058D01*
X141330342Y-54604024D01*
X141184024Y-54750342D01*
X141069058Y-54922403D01*
X140989870Y-55113579D01*
X140989868Y-55113587D01*
X140949500Y-55316530D01*
X118050499Y-55316530D01*
X118010130Y-55113580D01*
X117930941Y-54922402D01*
X117815977Y-54750345D01*
X117815975Y-54750342D01*
X117669657Y-54604024D01*
X117522126Y-54505448D01*
X117497598Y-54489059D01*
X117430174Y-54461131D01*
X117306420Y-54409870D01*
X117306412Y-54409868D01*
X117103469Y-54369500D01*
X117103465Y-54369500D01*
X116896535Y-54369500D01*
X116896530Y-54369500D01*
X116693587Y-54409868D01*
X116693579Y-54409870D01*
X116502403Y-54489058D01*
X116330342Y-54604024D01*
X116184024Y-54750342D01*
X116069058Y-54922403D01*
X115989870Y-55113579D01*
X115989868Y-55113587D01*
X115949500Y-55316530D01*
X78000500Y-55316530D01*
X78000500Y-52010247D01*
X115949500Y-52010247D01*
X115949500Y-53749752D01*
X115961131Y-53808229D01*
X115961132Y-53808230D01*
X116005447Y-53874552D01*
X116071769Y-53918867D01*
X116071770Y-53918868D01*
X116130247Y-53930499D01*
X116130250Y-53930500D01*
X116130252Y-53930500D01*
X117869750Y-53930500D01*
X117869751Y-53930499D01*
X117884568Y-53927552D01*
X117928229Y-53918868D01*
X117928229Y-53918867D01*
X117928231Y-53918867D01*
X117994552Y-53874552D01*
X118038867Y-53808231D01*
X118038867Y-53808229D01*
X118038868Y-53808229D01*
X118050499Y-53749752D01*
X118050500Y-53749750D01*
X118050500Y-52776530D01*
X140949500Y-52776530D01*
X140949500Y-52983469D01*
X140989868Y-53186412D01*
X140989870Y-53186420D01*
X141069058Y-53377596D01*
X141184024Y-53549657D01*
X141330342Y-53695975D01*
X141330345Y-53695977D01*
X141502402Y-53810941D01*
X141693580Y-53890130D01*
X141838052Y-53918867D01*
X141896530Y-53930499D01*
X141896534Y-53930500D01*
X141896535Y-53930500D01*
X142103466Y-53930500D01*
X142103467Y-53930499D01*
X142306420Y-53890130D01*
X142497598Y-53810941D01*
X142669655Y-53695977D01*
X142815977Y-53549655D01*
X142930941Y-53377598D01*
X143010130Y-53186420D01*
X143050500Y-52983465D01*
X143050500Y-52776535D01*
X143010130Y-52573580D01*
X142930941Y-52382402D01*
X142815977Y-52210345D01*
X142815975Y-52210342D01*
X142669657Y-52064024D01*
X142501655Y-51951770D01*
X142497598Y-51949059D01*
X142306420Y-51869870D01*
X142306412Y-51869868D01*
X142103469Y-51829500D01*
X142103465Y-51829500D01*
X141896535Y-51829500D01*
X141896530Y-51829500D01*
X141693587Y-51869868D01*
X141693579Y-51869870D01*
X141502403Y-51949058D01*
X141330342Y-52064024D01*
X141184024Y-52210342D01*
X141069058Y-52382403D01*
X140989870Y-52573579D01*
X140989868Y-52573587D01*
X140949500Y-52776530D01*
X118050500Y-52776530D01*
X118050500Y-52010249D01*
X118050499Y-52010247D01*
X118038868Y-51951770D01*
X118038867Y-51951769D01*
X117994552Y-51885447D01*
X117928230Y-51841132D01*
X117928229Y-51841131D01*
X117869752Y-51829500D01*
X117869748Y-51829500D01*
X116130252Y-51829500D01*
X116130247Y-51829500D01*
X116071770Y-51841131D01*
X116071769Y-51841132D01*
X116005447Y-51885447D01*
X115961132Y-51951769D01*
X115961131Y-51951770D01*
X115949500Y-52010247D01*
X78000500Y-52010247D01*
X78000500Y-46834296D01*
X80549500Y-46834296D01*
X80549500Y-47165703D01*
X80586601Y-47494991D01*
X80586604Y-47495005D01*
X80660346Y-47818093D01*
X80660349Y-47818101D01*
X80769799Y-48130890D01*
X80913582Y-48429458D01*
X80913584Y-48429461D01*
X81089896Y-48710060D01*
X81296516Y-48969153D01*
X81530847Y-49203484D01*
X81789940Y-49410104D01*
X82070539Y-49586416D01*
X82369113Y-49730202D01*
X82604037Y-49812405D01*
X82681898Y-49839650D01*
X82681906Y-49839653D01*
X82681909Y-49839653D01*
X82681910Y-49839654D01*
X83004994Y-49913396D01*
X83005003Y-49913397D01*
X83005008Y-49913398D01*
X83224533Y-49938132D01*
X83334297Y-49950499D01*
X83334300Y-49950500D01*
X83334303Y-49950500D01*
X83665700Y-49950500D01*
X83665701Y-49950499D01*
X83833996Y-49931537D01*
X83994991Y-49913398D01*
X83994994Y-49913397D01*
X83995006Y-49913396D01*
X84318090Y-49839654D01*
X84630887Y-49730202D01*
X84929461Y-49586416D01*
X85210060Y-49410104D01*
X85469153Y-49203484D01*
X85703484Y-48969153D01*
X85910104Y-48710060D01*
X86086416Y-48429461D01*
X86230202Y-48130887D01*
X86339654Y-47818090D01*
X86413396Y-47495006D01*
X86450500Y-47165697D01*
X86450500Y-46834303D01*
X86450499Y-46834296D01*
X168549500Y-46834296D01*
X168549500Y-47165703D01*
X168586601Y-47494991D01*
X168586604Y-47495005D01*
X168660346Y-47818093D01*
X168660349Y-47818101D01*
X168769799Y-48130890D01*
X168913582Y-48429458D01*
X168913584Y-48429461D01*
X169089896Y-48710060D01*
X169296516Y-48969153D01*
X169530847Y-49203484D01*
X169789940Y-49410104D01*
X170070539Y-49586416D01*
X170369113Y-49730202D01*
X170604037Y-49812405D01*
X170681898Y-49839650D01*
X170681906Y-49839653D01*
X170681909Y-49839653D01*
X170681910Y-49839654D01*
X171004994Y-49913396D01*
X171005003Y-49913397D01*
X171005008Y-49913398D01*
X171224533Y-49938132D01*
X171334297Y-49950499D01*
X171334300Y-49950500D01*
X171334303Y-49950500D01*
X171665700Y-49950500D01*
X171665701Y-49950499D01*
X171833996Y-49931537D01*
X171994991Y-49913398D01*
X171994994Y-49913397D01*
X171995006Y-49913396D01*
X172318090Y-49839654D01*
X172630887Y-49730202D01*
X172929461Y-49586416D01*
X173210060Y-49410104D01*
X173469153Y-49203484D01*
X173703484Y-48969153D01*
X173910104Y-48710060D01*
X174086416Y-48429461D01*
X174230202Y-48130887D01*
X174339654Y-47818090D01*
X174413396Y-47495006D01*
X174450500Y-47165697D01*
X174450500Y-46834303D01*
X174413396Y-46504994D01*
X174339654Y-46181910D01*
X174230202Y-45869113D01*
X174086416Y-45570539D01*
X173910104Y-45289940D01*
X173703484Y-45030847D01*
X173469153Y-44796516D01*
X173210060Y-44589896D01*
X172929461Y-44413584D01*
X172929458Y-44413582D01*
X172630890Y-44269799D01*
X172318101Y-44160349D01*
X172318093Y-44160346D01*
X172075777Y-44105039D01*
X171995006Y-44086604D01*
X171995003Y-44086603D01*
X171994991Y-44086601D01*
X171665703Y-44049500D01*
X171665697Y-44049500D01*
X171334303Y-44049500D01*
X171334296Y-44049500D01*
X171005008Y-44086601D01*
X171004994Y-44086604D01*
X170681906Y-44160346D01*
X170681898Y-44160349D01*
X170369109Y-44269799D01*
X170070541Y-44413582D01*
X169789941Y-44589895D01*
X169530847Y-44796515D01*
X169296515Y-45030847D01*
X169089895Y-45289941D01*
X168913582Y-45570541D01*
X168769799Y-45869109D01*
X168660349Y-46181898D01*
X168660346Y-46181906D01*
X168586604Y-46504994D01*
X168586601Y-46505008D01*
X168549500Y-46834296D01*
X86450499Y-46834296D01*
X86413396Y-46504994D01*
X86339654Y-46181910D01*
X86230202Y-45869113D01*
X86086416Y-45570539D01*
X85910104Y-45289940D01*
X85703484Y-45030847D01*
X85469153Y-44796516D01*
X85210060Y-44589896D01*
X84929461Y-44413584D01*
X84929458Y-44413582D01*
X84630890Y-44269799D01*
X84318101Y-44160349D01*
X84318093Y-44160346D01*
X84075777Y-44105039D01*
X83995006Y-44086604D01*
X83995003Y-44086603D01*
X83994991Y-44086601D01*
X83665703Y-44049500D01*
X83665697Y-44049500D01*
X83334303Y-44049500D01*
X83334296Y-44049500D01*
X83005008Y-44086601D01*
X83004994Y-44086604D01*
X82681906Y-44160346D01*
X82681898Y-44160349D01*
X82369109Y-44269799D01*
X82070541Y-44413582D01*
X81789941Y-44589895D01*
X81530847Y-44796515D01*
X81296515Y-45030847D01*
X81089895Y-45289941D01*
X80913582Y-45570541D01*
X80769799Y-45869109D01*
X80660349Y-46181898D01*
X80660346Y-46181906D01*
X80586604Y-46504994D01*
X80586601Y-46505008D01*
X80549500Y-46834296D01*
X78000500Y-46834296D01*
X78000500Y-41624500D01*
X78020185Y-41557461D01*
X78072989Y-41511706D01*
X78124500Y-41500500D01*
X176875500Y-41500500D01*
X176942539Y-41520185D01*
G37*
%TD.AperFunction*%
%TD*%
M02*
