M48
; DRILL file {KiCad 9.0.0} date 2025-05-10T18:53:18+0200
; FORMAT={-:-/ absolute / metric / decimal}
; #@! TF.CreationDate,2025-05-10T18:53:18+02:00
; #@! TF.GenerationSoftware,Kicad,Pcbnew,9.0.0
; #@! TF.FileFunction,Plated,1,2,PTH
FMAT,2
METRIC
; #@! TA.AperFunction,Plated,PTH,ViaDrill
T1C0.500
; #@! TA.AperFunction,Plated,PTH,ComponentDrill
T2C1.000
; #@! TA.AperFunction,Plated,PTH,ComponentDrill
T3C3.200
%
G90
G05
T1
X124.5Y-106.0
T2
X81.5Y-60.5
X81.5Y-63.04
X81.5Y-65.58
X81.5Y-68.12
X81.5Y-70.66
X81.5Y-73.2
X81.5Y-75.74
X81.5Y-78.28
X81.5Y-80.82
X81.5Y-83.36
X100.0Y-105.92
X100.0Y-108.46
X100.0Y-111.0
X117.0Y-52.88
X117.0Y-55.42
X117.0Y-57.96
X117.0Y-60.5
X117.0Y-63.04
X117.0Y-65.58
X117.0Y-68.12
X117.0Y-70.66
X117.0Y-73.2
X117.0Y-75.74
X117.0Y-78.28
X117.0Y-80.82
X117.0Y-83.36
X117.0Y-85.9
X117.0Y-88.44
X142.0Y-52.88
X142.0Y-55.42
X142.0Y-57.96
X142.0Y-60.5
X142.0Y-63.04
X142.0Y-65.58
X142.0Y-68.12
X142.0Y-70.66
X142.0Y-73.2
X142.0Y-75.74
X142.0Y-78.28
X142.0Y-80.82
X142.0Y-83.36
X142.0Y-85.9
X142.0Y-88.44
X167.0Y-103.0
X167.0Y-105.54
X167.0Y-108.08
X167.0Y-110.62
X167.0Y-113.16
X167.0Y-115.7
X167.0Y-118.24
X173.5Y-55.5
X173.5Y-58.04
X173.5Y-60.58
X173.5Y-63.12
X173.5Y-65.66
X173.5Y-68.2
X173.5Y-70.74
T3
X83.5Y-47.0
X83.5Y-135.0
X171.5Y-47.0
X171.5Y-135.0
M30
