%TF.GenerationSoftware,KiCad,Pcbnew,9.0.0*%
%TF.CreationDate,2025-05-10T18:53:19+02:00*%
%TF.ProjectId,25Zak001 ESP32 Mark0,32355a61-6b30-4303-9120-455350333220,rev?*%
%TF.SameCoordinates,Original*%
%TF.FileFunction,Soldermask,Top*%
%TF.FilePolarity,Negative*%
%FSLAX46Y46*%
G04 Gerber Fmt 4.6, Leading zero omitted, Abs format (unit mm)*
G04 Created by KiCad (PCBNEW 9.0.0) date 2025-05-10 18:53:19*
%MOMM*%
%LPD*%
G01*
G04 APERTURE LIST*
G04 Aperture macros list*
%AMRoundRect*
0 Rectangle with rounded corners*
0 $1 Rounding radius*
0 $2 $3 $4 $5 $6 $7 $8 $9 X,Y pos of 4 corners*
0 Add a 4 corners polygon primitive as box body*
4,1,4,$2,$3,$4,$5,$6,$7,$8,$9,$2,$3,0*
0 Add four circle primitives for the rounded corners*
1,1,$1+$1,$2,$3*
1,1,$1+$1,$4,$5*
1,1,$1+$1,$6,$7*
1,1,$1+$1,$8,$9*
0 Add four rect primitives between the rounded corners*
20,1,$1+$1,$2,$3,$4,$5,0*
20,1,$1+$1,$4,$5,$6,$7,0*
20,1,$1+$1,$6,$7,$8,$9,0*
20,1,$1+$1,$8,$9,$2,$3,0*%
G04 Aperture macros list end*
%ADD10R,1.700000X1.700000*%
%ADD11O,1.700000X1.700000*%
%ADD12C,5.500000*%
%ADD13C,3.600000*%
%ADD14RoundRect,0.175000X-0.175000X-0.425000X0.175000X-0.425000X0.175000X0.425000X-0.175000X0.425000X0*%
%ADD15RoundRect,0.190000X0.190000X0.410000X-0.190000X0.410000X-0.190000X-0.410000X0.190000X-0.410000X0*%
%ADD16RoundRect,0.200000X0.200000X0.400000X-0.200000X0.400000X-0.200000X-0.400000X0.200000X-0.400000X0*%
%ADD17RoundRect,0.175000X0.175000X0.425000X-0.175000X0.425000X-0.175000X-0.425000X0.175000X-0.425000X0*%
%ADD18RoundRect,0.190000X-0.190000X-0.410000X0.190000X-0.410000X0.190000X0.410000X-0.190000X0.410000X0*%
%ADD19RoundRect,0.200000X-0.200000X-0.400000X0.200000X-0.400000X0.200000X0.400000X-0.200000X0.400000X0*%
%ADD20RoundRect,0.250000X-0.650000X-0.425000X0.650000X-0.425000X0.650000X0.425000X-0.650000X0.425000X0*%
%ADD21RoundRect,0.250000X-0.650000X-0.500000X0.650000X-0.500000X0.650000X0.500000X-0.650000X0.500000X0*%
G04 APERTURE END LIST*
%TO.C,QR\u002A\u002A\u002A\u002A\u002A*%
G36*
X90700000Y-120700000D02*
G01*
X105300000Y-120700000D01*
X105300000Y-135300000D01*
X90700000Y-135300000D01*
X90700000Y-120700000D01*
G37*
%TD*%
D10*
%TO.C,J4*%
X173500000Y-55500000D03*
D11*
X173500000Y-58040000D03*
X173500000Y-60580000D03*
X173500000Y-63120000D03*
X173500000Y-65660000D03*
X173500000Y-68200000D03*
X173500000Y-70740000D03*
%TD*%
D12*
%TO.C,H4*%
X171500000Y-135000000D03*
D13*
X171500000Y-135000000D03*
%TD*%
D12*
%TO.C,H3*%
X83500000Y-135000000D03*
D13*
X83500000Y-135000000D03*
%TD*%
D12*
%TO.C,H2*%
X171500000Y-47000000D03*
D13*
X171500000Y-47000000D03*
%TD*%
D12*
%TO.C,H1*%
X83500000Y-47000000D03*
D13*
X83500000Y-47000000D03*
%TD*%
D10*
%TO.C,J7*%
X142000000Y-88440000D03*
D11*
X142000000Y-85900000D03*
X142000000Y-83360000D03*
X142000000Y-80820000D03*
X142000000Y-78280000D03*
X142000000Y-75740000D03*
X142000000Y-73200000D03*
X142000000Y-70660000D03*
X142000000Y-68120000D03*
X142000000Y-65580000D03*
X142000000Y-63040000D03*
X142000000Y-60500000D03*
X142000000Y-57960000D03*
X142000000Y-55420000D03*
X142000000Y-52880000D03*
%TD*%
D10*
%TO.C,J6*%
X117000000Y-52880000D03*
D11*
X117000000Y-55420000D03*
X117000000Y-57960000D03*
X117000000Y-60500000D03*
X117000000Y-63040000D03*
X117000000Y-65580000D03*
X117000000Y-68120000D03*
X117000000Y-70660000D03*
X117000000Y-73200000D03*
X117000000Y-75740000D03*
X117000000Y-78280000D03*
X117000000Y-80820000D03*
X117000000Y-83360000D03*
X117000000Y-85900000D03*
X117000000Y-88440000D03*
%TD*%
D10*
%TO.C,J3*%
X81500000Y-60500000D03*
D11*
X81500000Y-63040000D03*
X81500000Y-65580000D03*
X81500000Y-68120000D03*
X81500000Y-70660000D03*
X81500000Y-73200000D03*
X81500000Y-75740000D03*
X81500000Y-78280000D03*
X81500000Y-80820000D03*
X81500000Y-83360000D03*
%TD*%
D10*
%TO.C,J2*%
X167000000Y-118240000D03*
D11*
X167000000Y-115700000D03*
X167000000Y-113160000D03*
X167000000Y-110620000D03*
X167000000Y-108080000D03*
X167000000Y-105540000D03*
X167000000Y-103000000D03*
%TD*%
D14*
%TO.C,J1*%
X126875000Y-134365000D03*
D15*
X128895000Y-134365000D03*
D16*
X130125000Y-134365000D03*
D17*
X127875000Y-134365000D03*
D18*
X125855000Y-134365000D03*
D19*
X124625000Y-134365000D03*
D20*
X122250000Y-134420000D03*
D21*
X122250000Y-138000000D03*
D20*
X132500000Y-134420000D03*
D21*
X132500000Y-138000000D03*
%TD*%
D10*
%TO.C,U1*%
X100000000Y-105920000D03*
D11*
X100000000Y-108460000D03*
X100000000Y-111000000D03*
%TD*%
M02*
